<?xml version="1.0" encoding="utf-8"?>
<!-- Generator: Adobe Illustrator 19.1.1, SVG Export Plug-In . SVG Version: 6.00 Build 0)  -->
<svg version="1.1" id="Camada_1" xmlns="http://www.w3.org/2000/svg" xmlns:xlink="http://www.w3.org/1999/xlink" x="0px" y="0px"
	 viewBox="-247 380.9 100 80" style="enable-background:new -247 380.9 100 80;" xml:space="preserve">
<style type="text/css">
	.st0{fill:#FFFFFF;}
</style>
<g>
	<path class="st0" d="M-230.6,387.3v10.9h67.2v-10.9H-230.6z M-209.9,394.6c0,0.3-0.3,0.6-0.6,0.6h-12.5c-0.3,0-0.6-0.3-0.6-0.6
		v-3.8c0-0.3,0.3-0.6,0.6-0.6h12.5c0.3,0,0.6,0.3,0.6,0.6V394.6z"/>
	<path class="st0" d="M-230.6,454.5h67.2v-54h-67.2V454.5z M-171.1,448.9h-24.4c-0.3,0-0.6-0.3-0.6-0.6s0.3-0.6,0.6-0.6h24.4
		c0.3,0,0.6,0.3,0.6,0.6S-170.8,448.9-171.1,448.9z M-171.1,446.4h-24.4c-0.3,0-0.6-0.3-0.6-0.6s0.3-0.6,0.6-0.6h24.4
		c0.3,0,0.6,0.3,0.6,0.6S-170.8,446.4-171.1,446.4z M-171.1,443.9h-24.4c-0.3,0-0.6-0.3-0.6-0.6s0.3-0.6,0.6-0.6h24.4
		c0.3,0,0.6,0.3,0.6,0.6S-170.8,443.9-171.1,443.9z M-171.1,441.2h-24.4c-0.3,0-0.6-0.3-0.6-0.6s0.3-0.6,0.6-0.6h24.4
		c0.3,0,0.6,0.3,0.6,0.6C-170.5,441-170.8,441.2-171.1,441.2z M-171.1,438.7h-24.4c-0.3,0-0.6-0.3-0.6-0.6c0-0.3,0.3-0.6,0.6-0.6
		h24.4c0.3,0,0.6,0.3,0.6,0.6C-170.5,438.4-170.8,438.7-171.1,438.7z M-171.1,436.1h-24.4c-0.3,0-0.6-0.3-0.6-0.6s0.3-0.6,0.6-0.6
		h24.4c0.3,0,0.6,0.3,0.6,0.6S-170.8,436.1-171.1,436.1z M-171.1,433.5h-24.4c-0.3,0-0.6-0.3-0.6-0.6s0.3-0.6,0.6-0.6h24.4
		c0.3,0,0.6,0.3,0.6,0.6C-170.5,433.4-170.8,433.5-171.1,433.5z M-170.5,410.5v18.1c0,0.3-0.3,0.6-0.6,0.6h-17.5
		c-0.3,0-0.6-0.3-0.6-0.6v-18.1c0-0.3,0.3-0.6,0.6-0.6h17.4C-170.8,410-170.5,410.3-170.5,410.5z M-223.5,404.9
		c0-0.3,0.3-0.6,0.6-0.6h46.5c0.3,0,0.6,0.3,0.6,0.6v1.4c0,0.3-0.3,0.6-0.6,0.6h-46.5c-0.3,0-0.6-0.3-0.6-0.6V404.9z M-223.5,410.5
		c0-0.3,0.3-0.6,0.6-0.6h32.1c0.3,0,0.6,0.3,0.6,0.6v18.1c0,0.3-0.3,0.6-0.6,0.6h-32.1c-0.3,0-0.6-0.3-0.6-0.6V410.5z M-222.9,432.4
		h24.4c0.3,0,0.6,0.3,0.6,0.6s-0.3,0.6-0.6,0.6h-24.4c-0.3,0-0.6-0.3-0.6-0.6S-223.2,432.4-222.9,432.4z M-222.9,435h24.4
		c0.3,0,0.6,0.3,0.6,0.6s-0.3,0.6-0.6,0.6h-24.4c-0.3,0-0.6-0.3-0.6-0.6C-223.5,435.2-223.2,435-222.9,435z M-222.9,437.5h24.4
		c0.3,0,0.6,0.3,0.6,0.6s-0.3,0.6-0.6,0.6h-24.4c-0.3,0-0.6-0.3-0.6-0.6C-223.5,437.8-223.2,437.5-222.9,437.5z M-222.9,440.1h24.4
		c0.3,0,0.6,0.3,0.6,0.6s-0.3,0.6-0.6,0.6h-24.4c-0.3,0-0.6-0.3-0.6-0.6S-223.2,440.1-222.9,440.1z M-222.9,442.7h24.4
		c0.3,0,0.6,0.3,0.6,0.6s-0.3,0.6-0.6,0.6h-24.4c-0.3,0-0.6-0.3-0.6-0.6C-223.5,442.9-223.2,442.7-222.9,442.7z M-222.9,445.3h24.4
		c0.3,0,0.6,0.3,0.6,0.6s-0.3,0.6-0.6,0.6h-24.4c-0.3,0-0.6-0.3-0.6-0.6S-223.2,445.3-222.9,445.3z M-222.9,447.8h24.4
		c0.3,0,0.6,0.3,0.6,0.6c0,0.3-0.3,0.6-0.6,0.6h-24.4c-0.3,0-0.6-0.3-0.6-0.6C-223.5,448-223.2,447.8-222.9,447.8z"/>
</g>
</svg>
