<?xml version="1.0" encoding="utf-8"?>
<!-- Generator: Adobe Illustrator 19.1.1, SVG Export Plug-In . SVG Version: 6.00 Build 0)  -->
<svg version="1.1" id="Camada_1" xmlns="http://www.w3.org/2000/svg" xmlns:xlink="http://www.w3.org/1999/xlink" x="0px" y="0px"
	 viewBox="-247 380.9 100 80" style="enable-background:new -247 380.9 100 80;" xml:space="preserve">
<style type="text/css">
	.st0{fill:#FFFFFF;}
	.st1{fill:none;}
</style>
<g>
	<path class="st0" d="M-194.8,453.5c5.9-0.4,11.3-2.7,15.7-6.2l-17.1-20.7L-194.8,453.5z"/>
	<path class="st0" d="M-190.3,427.8l21,16.4c3.2-4.2,5.2-9.4,5.6-15L-190.3,427.8z"/>
	<path class="st0" d="M-225.3,426.5c0.1,1.5,0.3,3.1,0.6,4.5l22.4-5.2L-225.3,426.5z"/>
	<path class="st0" d="M-225.3,445.8c1.8,2.7,3.9,4.9,6.4,6.7l14.8-20.7L-225.3,445.8z"/>
	<path class="st0" d="M-230.5,423.5c0,0.1,0,0.1,0,0.3l26.5-0.8l-23.1-12.9C-229.2,414.2-230.5,418.6-230.5,423.5z"/>
	<path class="st0" d="M-198.3,422.4l-6.9-24.6c-2.8,0.8-5.3,2.1-7.7,3.6C-211.4,403.5-198.3,422.4-198.3,422.4z"/>
	<path class="st0" d="M-198.8,423.4c0,0-13.7-17.5-16.1-20.3c-2.7,2.1-4.8,4.8-6.6,7.6L-198.8,423.4z"/>
	<path class="st0" d="M-169.8,416.4l-24.2,8.3l25.6,1.4c0-0.3,0-0.7,0-1C-168.4,422-168.9,419.2-169.8,416.4z"/>
	<path class="st0" d="M-198.8,413l0.6-24.8h-0.1c-2.5,0-4.9,0.3-7.1,0.8L-198.8,413z"/>
	<path class="st0" d="M-195.6,396.7l-0.6,25.5l9.4-23.7C-189.6,397.4-192.5,396.8-195.6,396.7z"/>
	<line class="st1" x1="-212.7" y1="401.4" x2="-212.7" y2="401.4"/>
	<path class="st0" d="M-184.5,399.5l-11.5,24.8l25.3-9.9C-173.2,407.7-178.2,402.5-184.5,399.5z"/>
	<path class="st0" d="M-221.1,440.1l21.3-13.7l-24.4,6.7C-223.5,435.6-222.3,438-221.1,440.1z"/>
	<path class="st0" d="M-197.3,426.6l-15.8,21.8c4.6,3.2,10.2,5,16.2,5h0.1L-197.3,426.6z"/>
	<path class="st0" d="M-177.4,446c1-0.8,1.8-1.8,2.7-2.8l-18.5-14.4l0.3,0.4L-177.4,446z"/>
</g>
</svg>
