<?xml version="1.0" encoding="utf-8"?>
<!-- Generator: Adobe Illustrator 19.1.1, SVG Export Plug-In . SVG Version: 6.00 Build 0)  -->
<svg version="1.1" id="Camada_1" xmlns="http://www.w3.org/2000/svg" xmlns:xlink="http://www.w3.org/1999/xlink" x="0px" y="0px"
	 viewBox="-247 380.9 100 80" style="enable-background:new -247 380.9 100 80;" xml:space="preserve">
<style type="text/css">
	.st0{fill:#FFFFFF;}
	.st1{fill:#68718A;}
	.st2{fill:#99A0B1;}
	.st3{fill:#606A83;}
	.st4{fill:#070C1A;}
	.st5{fill:#636C78;}
	.st6{fill:#EBEBEF;}
	.st7{fill:#ABAFBE;}
	.st8{fill:#F0E7D1;}
</style>
<g>
	<circle class="st0" cx="-197" cy="420.9" r="34.2"/>
	<path class="st1" d="M-209.7,417.1c0.6-0.1,2.4-0.6,2.4-0.6l0.1,18.6l-2.7-3.8l0.1-7.1l0.1-1.1L-209.7,417.1z"/>
	<path class="st2" d="M-207.4,416.3c0,0-3.1-0.6-3.5-0.7c-0.4-0.1-2-0.8-2-2.4s1.5-2.5,2.8-2.4c1.3,0.1,3.2,0.6,3.2,0.6
		L-207.4,416.3z"/>
	<path class="st1" d="M-208.2,416.1c0.6,0.1,0.8,0.1,0.8,0.1l0.4-4.9c0,0-0.6-0.1-1.4-0.3v5H-208.2z"/>
	<path class="st3" d="M-188.3,450.6v3.4c0.1,0,0.4-0.1,0.6-0.1v-3.1h-0.6V450.6z"/>
	<path class="st3" d="M-189.6,450.6v3.6c0.1,0,0.4-0.1,0.6-0.1v-3.5H-189.6z"/>
	<path class="st3" d="M-192.1,450.6v4.1c0.1,0,0.4,0,0.6-0.1v-3.9H-192.1z"/>
	<path class="st3" d="M-190.8,450.6v3.9c0.1,0,0.4-0.1,0.6-0.1v-3.8H-190.8z"/>
	<path class="st3" d="M-199.8,450.6v4.3c0.1,0,0.4,0,0.6,0v-4.3C-199.2,450.6-199.8,450.6-199.8,450.6z"/>
	<path class="st3" d="M-201.1,450.6v4.2c0.1,0,0.4,0,0.6,0v-4.2C-200.5,450.6-201.1,450.6-201.1,450.6z"/>
	<path class="st3" d="M-202.3,450.6v4.1c0.1,0,0.4,0,0.6,0.1v-4.1h-0.6V450.6z"/>
	<path class="st3" d="M-203.6,450.6v3.8c0.1,0,0.4,0.1,0.6,0.1v-3.9H-203.6z"/>
	<path class="st3" d="M-186.4,449.6v1h-0.7v2.9c0.3,0,0.4-0.1,0.7-0.1V449.6L-186.4,449.6z"/>
	<path class="st3" d="M-204.8,450.6v3.5c0.1,0,0.4,0.1,0.6,0.1v-3.6H-204.8z"/>
	<path class="st3" d="M-194.6,450.6v4.3c0.1,0,0.4,0,0.6,0v-4.3C-194.1,450.6-194.6,450.6-194.6,450.6z"/>
	<path class="st3" d="M-205.5,450.6h-0.7v3.2c0.3,0,0.4,0.1,0.7,0.1V450.6z"/>
	<path class="st3" d="M-195.9,450.6v4.3c0.1,0,0.4,0,0.6,0v-4.3C-195.3,450.6-195.9,450.6-195.9,450.6z"/>
	<path class="st3" d="M-193.4,450.6v4.2c0.1,0,0.4,0,0.6-0.1v-4.2h-0.6V450.6z"/>
	<path class="st3" d="M-198.5,450.6v4.3c0.1,0,0.4,0,0.6,0v-4.3C-198,450.6-198.5,450.6-198.5,450.6z"/>
	<path class="st3" d="M-197.3,450.6v4.5c0.1,0,0.1,0,0.3,0s0.3,0,0.4,0v-4.5H-197.3z"/>
	<path class="st4" d="M-205.5,453.9c0.3,0,0.4,0.1,0.7,0.1v-3.5h0.6v3.6c0.3,0,0.4,0.1,0.7,0.1v-3.8h0.6v3.9c0.3,0,0.4,0.1,0.7,0.1
		v-4.1h0.6v4.1c0.3,0,0.4,0,0.7,0.1v-4.2h0.6v4.2c0.3,0,0.4,0,0.7,0v-4.3h0.6v4.3c0.3,0,0.4,0,0.7,0v-4.3h0.6v4.3c0.3,0,0.4,0,0.7,0
		v-4.5h0.6v4.5c0.3,0,0.4,0,0.7,0v-4.3h0.6v4.3c0.3,0,0.4,0,0.7,0v-4.3h0.6v4.3c0.3,0,0.4,0,0.7,0v-4.2h0.7v4.2c0.3,0,0.4,0,0.7-0.1
		v-4.1h0.6v3.9c0.3,0,0.4-0.1,0.7-0.1v-3.9h0.6v3.8c0.3,0,0.4-0.1,0.7-0.1v-3.6h0.6v3.5c0.3,0,0.4-0.1,0.7-0.1v-3.4h0.6v3.1
		c0.3,0,0.4-0.1,0.7-0.1v-2.9h0.7v-1h-0.7h-0.7h-0.6h-0.7h-0.6h-0.7h-0.6h-0.7h-0.6h-0.7h-0.6h-0.7h-0.6h-0.7h-0.6h-0.7h-0.6h-0.7
		h-0.6h-0.7h-0.7h-0.7h-0.6h-0.7h-0.6h-0.7h-0.6h-0.7h-0.6h-0.7h-0.7v1h0.7C-205.5,450.4-205.5,453.9-205.5,453.9z"/>
	<path class="st2" d="M-181.5,425.5l-6.3-3.4c0,0.1-5-1.5-5-1.5l-9.1,2.5c0,0-4.9,13.6-4.2,15.1c0.7,1.5,1.5,1.8,1.5,1.8v3.9
		l-0.1,0.7h16.8v-4.5c2.4-1.4,3.5-2.7,5-5.9c1.4-3.2,1.7-6.4,1.5-8C-181.3,426.1-181.3,425.8-181.5,425.5z"/>
	<path class="st4" d="M-188.6,438h-17.1c-1.1,0-2.1-1-2.1-2.1v-33c0-1.1,1-2.1,2.1-2.1h17.1c1.1,0,2.1,1,2.1,2.1v33
		C-186.6,437-187.5,438-188.6,438z"/>
	<rect x="-206.1" y="403.7" class="st3" width="17.8" height="28.3"/>
	<path class="st5" d="M-196.2,402.5h-2c-0.1,0-0.3-0.1-0.3-0.3l0,0c0-0.1,0.1-0.3,0.3-0.3h2c0.1,0,0.3,0.1,0.3,0.3l0,0
		C-196,402.5-196,402.5-196.2,402.5z"/>
	<path class="st5" d="M-197.1,436.3c-0.8,0-1.7-0.7-1.7-1.7c0-0.8,0.7-1.7,1.7-1.7c0.8,0,1.7,0.7,1.7,1.7
		C-195.6,435.6-196.3,436.3-197.1,436.3z M-197.1,433.4c-0.7,0-1.4,0.6-1.4,1.4c0,0.7,0.6,1.4,1.4,1.4c0.7,0,1.4-0.6,1.4-1.4
		C-195.9,433.9-196.4,433.4-197.1,433.4z"/>
	<polygon class="st0" points="-197.1,412.9 -195.5,416.1 -191.8,416.7 -194.5,419.2 -193.9,423 -197.1,421.3 -200.5,423 
		-199.9,419.2 -202.5,416.7 -198.8,416.1 	"/>
	<path class="st2" d="M-211,422.1c-0.1-0.1-1.5-0.7-1.7-2.5c-0.1-1.8,1.7-2.5,2.2-2.5s1-0.1,1.5,0.4c0.6,0.6,2.5,2.2,3.1,3.2
		s0.4,2.2-0.4,2.8c-0.8,0.7-2.5,1-3.6-0.3C-211,422.1-211,422.1-211,422.1z"/>
	<path class="st2" d="M-209,424.4c-0.3-0.3-0.8-0.7-1.5-0.4c-0.7,0.4-1.7,1.3-1.8,2.5c-0.1,1.4,0.1,1.7,1,2.7
		c0.7,0.8,1.7,2.2,2.9,2.2s1.8-0.3,2.5-1.1c0.7-0.8,0.7-2.4-0.3-3.5C-207.4,425.8-209,424.4-209,424.4z"/>
	<path class="st2" d="M-211.1,435.6c-0.4-0.3-1.4-1.3-1-2.7s2-2.1,2.9-1.4s3.6,2.9,4.3,3.5c0.7,0.6,1.4,2.1,0.6,3.2s-2.2,1-3.4,0.3
		C-208.9,437.7-211.1,435.6-211.1,435.6z"/>
	<path class="st6" d="M-208.9,423c-0.1-0.1-0.3-0.8,0-1.3c0.3-0.4,1-0.8,1.4-1c0.3-0.1,0.8-0.1,1.1,0.3s0.7,1.3-0.3,2.1
		C-207.5,424-208.3,423.5-208.9,423z"/>
	<path class="st6" d="M-208.9,430c-0.3-0.3-0.4-1,0.1-1.5c0.6-0.7,1.3-1,1.7-0.7s1.1,0.8,0.6,1.8
		C-207.1,430.5-207.9,430.8-208.9,430z"/>
	<path class="st6" d="M-207.5,437.5c-0.1-0.3-0.1-1,0.3-1.4c0.4-0.4,1.4-1.1,1.8-0.8c0.4,0.3,1,0.8,0.7,1.7c-0.3,0.8-1,1.4-1.7,1.4
		S-207.5,437.5-207.5,437.5z"/>
	<path class="st7" d="M-211,418.4c-0.3-0.3,0-0.6,0.3-0.7c0.3-0.1,1-0.8,1.7-0.1c0.7,0.6,2,2,1.4,2.7c-0.6,0.7-1,1-1.4,0.7
		C-209.5,420.3-211,418.4-211,418.4z"/>
	<path class="st7" d="M-211.1,425.4c-0.1-0.3-0.1-0.7,0.3-1c0.4-0.3,0.8-0.8,1.5-0.3c0.7,0.6,1.4,1.1,1.8,1.7
		c0.4,0.4,0.3,1.3-0.4,1.5c-0.7,0.4-1,0.6-1.3,0.3C-209.3,427.5-211.1,425.4-211.1,425.4z"/>
	<path class="st7" d="M-210.9,432.9c-0.3-0.3-0.3-0.4,0-0.7s1-1.1,1.7-0.8c0.7,0.3,2.4,2.4,2.5,2.7c0.3,0.3,0,1-0.4,1.4
		c-0.4,0.4-0.4,0.3-0.8,0S-210.9,432.9-210.9,432.9z"/>
	<path class="st2" d="M-182,423c-0.4-1.1-1-4.8-1.1-5.7s-1.3-2.9-1.7-3.1c-0.4-0.1-2.1,0-2.9,1.7s0.1,5.2,0.7,6.6
		c0.4,1.1,1,2.7,1.1,3.1h4.6C-181.5,424.5-181.7,423.8-182,423z"/>
	<path class="st1" d="M-186.6,423.5c0,0,0.4,1.4,0.6,2c0.1,0.6-0.3,2-0.6,2.2V423.5z"/>
	<path class="st6" d="M-183.3,417.8c0,0-0.8,0.3-1.3-1.1c-0.3-1.4-0.4-2.1-0.3-2.4c0-0.3,0.3-0.3,0.6-0.3c0.3,0,0.4,0.3,0.7,0.8
		C-183.4,415.4-183,417.8-183.3,417.8z"/>
	<path class="st7" d="M-181.3,426.5c0-0.4,0-0.7,0-1c-0.1-1-0.3-1.7-0.6-2.5c-0.4-0.8-0.8-3.5-1.1-4.9c-0.3,0-0.8-0.1-0.8,0
		c0,0.3,0.4,3.1,0.7,3.5c0.1,0.4,0.6,1.5,0.8,2.4s0.8,3.8-0.3,7.7c-1,3.2-2.9,6.3-3.9,7.7c1.5-1.1,2.5-2.4,3.6-4.9
		C-181.5,431.1-181.3,427.9-181.3,426.5z"/>
	<path class="st7" d="M-187.9,444.7v-4.5c0.3-0.1,0.7-0.4,1-0.6l0,0c-0.7,0.4-1.5,1.1-3.1,0.4v4.6H-187.9z"/>
	<path class="st4" d="M-186.1,449.9h-20.3c-0.4,0-0.8-0.3-0.8-0.8v-4.6c0-0.4,0.3-0.8,0.8-0.8h20.3c0.4,0,0.8,0.3,0.8,0.8v4.6
		C-185.4,449.5-185.7,449.9-186.1,449.9z"/>
	<path class="st8" d="M-187.5,448h-0.7c-0.6,0-1-0.4-1-1v-0.7c0-0.6,0.4-1,1-1h0.7c0.6,0,1,0.4,1,1v0.7
		C-186.5,447.6-186.9,448-187.5,448z"/>
	<circle class="st4" cx="-188.3" cy="447.1" r="0.3"/>
	<circle class="st4" cx="-188.3" cy="446.4" r="0.3"/>
	<circle class="st4" cx="-187.5" cy="447.1" r="0.3"/>
	<circle class="st4" cx="-187.5" cy="446.4" r="0.3"/>
</g>
</svg>
