<?xml version="1.0" encoding="utf-8"?>
<!-- Generator: Adobe Illustrator 19.1.1, SVG Export Plug-In . SVG Version: 6.00 Build 0)  -->
<svg version="1.1" id="Camada_1" xmlns="http://www.w3.org/2000/svg" xmlns:xlink="http://www.w3.org/1999/xlink" x="0px" y="0px"
	 viewBox="-247 380.9 100 80" style="enable-background:new -247 380.9 100 80;" xml:space="preserve">
<style type="text/css">
	.st0{fill:#FFFFFF;}
</style>
<g>
	<g>
		<path class="st0" d="M-187.9,425.9h-1.8l-1.5-4.5l-1.5,4.5h-1.8l-2.4-9.1h2.4l1.3,4.8l1.5-4.8h1.5l1.5,4.8l1.3-4.8h2.4
			L-187.9,425.9z"/>
		<path class="st0" d="M-176.3,425.9h-1.8l-1.5-4.5l-1.5,4.5h-1.8l-2.5-9.1h2.4l1.3,4.8l1.5-4.8h1.5l1.5,4.8l1.3-4.8h2.4
			L-176.3,425.9z"/>
		<path class="st0" d="M-164.7,425.9h-1.8l-1.5-4.5l-1.5,4.5h-1.8l-2.5-9.1h2.4l1.3,4.8l1.5-4.8h1.5l1.5,4.8l1.3-4.8h2.4
			L-164.7,425.9z"/>
		<path class="st0" d="M-159.5,424.7c0,0.1,0,0.4-0.1,0.6c0,0.1-0.1,0.3-0.3,0.4c-0.1,0.1-0.3,0.3-0.4,0.3c-0.1,0.1-0.3,0.1-0.6,0.1
			c-0.1,0-0.4,0-0.6-0.1c-0.1-0.1-0.3-0.1-0.4-0.3c-0.1-0.1-0.1-0.3-0.3-0.6c-0.1-0.1-0.1-0.3-0.1-0.6c0-0.1,0-0.4,0.1-0.6
			c0.1-0.1,0.1-0.3,0.3-0.4c0.1-0.1,0.3-0.3,0.4-0.3c0.1,0,0.3-0.1,0.6-0.1c0.1,0,0.4,0,0.6,0.1c0.1,0,0.3,0.1,0.4,0.3
			c0.1,0.1,0.3,0.3,0.3,0.4C-159.6,424.1-159.5,424.4-159.5,424.7z"/>
	</g>
	<path class="st0" d="M-197,411.8h13.2v-16.2h-50.7v50.7h50.7V430H-197c-2.1,0-3.9-1.7-3.9-3.9v-10.5
		C-200.8,413.5-199.1,411.8-197,411.8z M-213.9,430.5c-5.3,0-9.7-4.3-9.7-9.7c0-5.3,4.3-9.7,9.7-9.7c2.8,0,5.3,1.3,7.1,3.2l1.7-1.7
		v5.3h-5.3l2-2c-1.4-1.5-3.5-2.5-5.6-2.5c-4.2,0-7.6,3.4-7.6,7.6c0,4.2,3.4,7.6,7.6,7.6c4.2,0,7.6-3.4,7.6-7.6
		c0-0.6,0.4-1.1,1.1-1.1s1.1,0.4,1.1,1.1C-204.3,426.2-208.6,430.5-213.9,430.5z"/>
</g>
</svg>
