<?xml version="1.0" encoding="utf-8"?>
<!-- Generator: Adobe Illustrator 19.1.1, SVG Export Plug-In . SVG Version: 6.00 Build 0)  -->
<svg version="1.1" id="Camada_1" xmlns="http://www.w3.org/2000/svg" xmlns:xlink="http://www.w3.org/1999/xlink" x="0px" y="0px"
	 viewBox="-247 380.9 100 80" style="enable-background:new -247 380.9 100 80;" xml:space="preserve">
<style type="text/css">
	.st0{fill:#FFFFFF;}
</style>
<g>
	<g>
		<path class="st0" d="M-167.6,415.9c2-1.7,5-2,7.3-0.6v-2.5c0-2-1.7-3.5-3.5-3.2l0,0h-0.1h-15.4c-1.1,0-2.1,1-2.1,2.1
			s1,2.1,2.1,2.1h12.9l-0.7,0.8C-167.3,415-167.6,415.4-167.6,415.9z"/>
		<circle class="st0" cx="-163.5" cy="420.9" r="5.5"/>
		<path class="st0" d="M-179.4,432.2h15.5c1.8,0.1,3.5-1.4,3.5-3.2v-2.5c-2.2,1.4-5.3,1.1-7.3-0.6c0,0.4,0.1,1,0.4,1.3l0.7,0.8
			h-12.9c-1.1,0-2.1,0.8-2.1,1.8c0,0.6,0.1,1.1,0.6,1.5C-180.5,432-179.9,432.2-179.4,432.2z"/>
	</g>
	<g>
		<path class="st0" d="M-226.4,425.9c-2,1.7-5,2-7.3,0.6v2.5c0,2,1.7,3.5,3.5,3.2l0,0h0.1h15.4c1.1,0,2.1-1,2.1-2.1s-1-2.1-2.1-2.1
			h-12.9l0.7-0.8C-226.7,426.8-226.4,426.4-226.4,425.9z"/>
		<circle class="st0" cx="-230.5" cy="420.9" r="5.5"/>
		<path class="st0" d="M-214.6,409.5h-15.5c-1.8-0.1-3.5,1.4-3.5,3.2v2.5c2.2-1.4,5.3-1.1,7.3,0.6c0-0.4-0.1-1-0.4-1.3l-0.7-0.8
			h12.9c1.1,0,2.1-0.8,2.1-1.8c0-0.6-0.1-1.1-0.6-1.5C-213.5,409.8-214.1,409.5-214.6,409.5z"/>
	</g>
	<g>
		<path class="st0" d="M-202,391.5c-1.7-2-2-5-0.6-7.3h-2.5c-2,0-3.5,1.7-3.2,3.5l0,0v0.1v15.4c0,1.1,1,2.1,2.1,2.1
			c1.1,0,2.1-1,2.1-2.1v-12.9l0.8,0.7C-202.9,391.2-202.5,391.5-202,391.5z"/>
		<circle class="st0" cx="-197" cy="387.4" r="5.5"/>
		<path class="st0" d="M-185.7,403.3v-15.5c0.1-1.8-1.4-3.5-3.2-3.5h-2.5c1.4,2.2,1.1,5.3-0.6,7.3c0.4,0,1-0.1,1.3-0.4l0.8-0.7v12.9
			c0,1.1,0.8,2.1,1.8,2.1c0.6,0,1.1-0.1,1.5-0.6C-185.9,404.4-185.7,403.8-185.7,403.3z"/>
	</g>
	<g>
		<path class="st0" d="M-192,450.3c1.7,2,2,5,0.6,7.3h2.5c2,0,3.5-1.7,3.2-3.5l0,0v-0.1v-15.4c0-1.1-1-2.1-2.1-2.1
			c-1.1,0-2.1,1-2.1,2.1v12.9l-0.8-0.7C-191.1,450.6-191.5,450.3-192,450.3z"/>
		<circle class="st0" cx="-197" cy="454.4" r="5.5"/>
		<path class="st0" d="M-208.3,438.5v15.5c-0.1,1.8,1.4,3.5,3.2,3.5h2.5c-1.4-2.2-1.1-5.3,0.6-7.3c-0.4,0-1,0.1-1.3,0.4l-0.8,0.7
			v-12.9c0-1.1-0.8-2.1-1.8-2.1c-0.6,0-1.1,0.1-1.5,0.6C-208.1,437.4-208.3,438-208.3,438.5z"/>
	</g>
	<g>
		<path class="st0" d="M-204.1,438.7c0-1.1-0.8-2.1-1.8-2.1c-0.6,0-1.1,0.1-1.5,0.6c-0.4,0.4-0.7,1-0.7,1.5v6.9
			c1.3,0.6,2.7,1.1,4.1,1.5C-204.1,447.1-204.1,438.7-204.1,438.7z"/>
		<path class="st0" d="M-179.2,426.9h8.5c0.4-2,0.7-3.9,0.7-6c0-2.1-0.3-4.1-0.7-6h-8.7c-1.7,0-3.2-1.4-3.2-3.2
			c0-1.7,1.4-3.2,3.2-3.2h6.3c-2.5-5-6.7-9.1-11.6-11.6v6.3c0,0.8-0.4,1.7-1,2.4c-0.6,0.7-1.5,0.8-2.4,0.8c-1.5-0.1-2.8-1.5-2.8-3.2
			v-8.5c-2-0.4-3.9-0.7-6-0.7c-2.1,0-4.1,0.3-6,0.7v8.7c0,1.7-1.4,3.2-3.2,3.2c-1.7,0-3.2-1.4-3.2-3.2V397c-5,2.5-9.1,6.7-11.6,11.6
			h6.3c0.8,0,1.7,0.4,2.4,1c0.7,0.6,0.8,1.5,0.8,2.4c-0.1,1.5-1.5,2.8-3.2,2.8h-8.5c-0.4,2-0.7,3.9-0.7,6s0.3,4.1,0.7,6h8.7
			c1.7,0,3.2,1.4,3.2,3.2c0,1.7-1.4,3.2-3.2,3.2h-6.3c2.5,5,6.7,9.1,11.6,11.6v-6.3c0-0.8,0.4-1.7,1-2.4c0.6-0.7,1.5-0.8,2.4-0.8
			c1.5,0.1,2.8,1.5,2.8,3.2v8.5c2,0.4,3.9,0.7,6,0.7c2.1,0,4.1-0.3,6-0.7v-8.7c0-1.7,1.4-3.2,3.2-3.2c1.7,0,3.2,1.4,3.2,3.2v6.3
			c5-2.5,9.1-6.7,11.6-11.6h-6.3c-0.8,0-1.7-0.4-2.4-1s-0.8-1.5-0.8-2.4C-182.3,428.2-180.9,426.9-179.2,426.9z"/>
		<path class="st0" d="M-187.8,436.6c-1.1,0-2.1,1-2.1,2.1v8.4c1.4-0.4,2.8-0.8,4.1-1.5v-6.9C-185.7,437.4-186.6,436.6-187.8,436.6z
			"/>
	</g>
</g>
</svg>
