<?xml version="1.0" encoding="utf-8"?>
<!-- Generator: Adobe Illustrator 19.1.1, SVG Export Plug-In . SVG Version: 6.00 Build 0)  -->
<svg version="1.1" id="Camada_1" xmlns="http://www.w3.org/2000/svg" xmlns:xlink="http://www.w3.org/1999/xlink" x="0px" y="0px"
	 viewBox="-247 380.9 100 80" style="enable-background:new -247 380.9 100 80;" xml:space="preserve">
<style type="text/css">
	.st0{fill:#FFFFFF;}
</style>
<g>
	<path class="st0" d="M-211.5,401.1c-3.9,5.3-6,12.5-6,20c0,7.5,2.1,14.6,6,20c3.9,5.4,9.2,8.4,14.8,8.4s10.8-3,14.8-8.4
		c3.9-5.3,6-12.5,6-20c0-7.5-2.1-14.6-6-20c-3.9-5.4-9.2-8.4-14.8-8.4S-207.6,395.7-211.5,401.1z M-179.8,408.1c0,0.1,0,0.1,0.1,0.2
		c0,0.4-0.1,0.8-0.2,1.2h-6.3c-0.2,0-0.3,0.2-0.3,0.3c0,0.2,0.2,0.3,0.3,0.3h6.1c-0.1,0.3-0.3,0.7-0.5,1h-4.8
		c-0.2,0-0.3,0.2-0.3,0.3c0,0.2,0.2,0.3,0.3,0.3h4.3c-1,1-2.3,1.7-3.9,1.7h-4.9l-0.3,0.5c1.1,0,2.3,0,3.6,0.2c0.6,0.1,0.9,0.5,1,1.1
		c0,0,0.1,0,0.1,0c0.7,0,1.2,0.6,1.2,1.3l0,0.6c-11.1-0.8-13.4,6-13.4,6.1l-0.1,0.2c0.4,0,0.8-0.1,1.1-0.1c0.3,0,0.6,0,0.9,0
		l-0.1-0.2c0,0-0.2-0.6-0.7-1.3c0.3-0.5,0.8-1,1.3-1.5c0.7-0.6,1.4-1.1,2.3-1.5c0.8,1,1.2,1.9,1.3,2.2h-3.3l-0.6,2.3
		c5.5,0.6,9.8,5.3,9.8,10.9c0,6.1-4.9,11-11,11c-6.1,0-11-4.9-11-11c0-5.6,4.2-10.2,9.6-10.9l-0.6-2.3h-3.3c0.2-0.4,0.7-1.5,1.8-2.7
		c-0.6-0.2-1.2-0.7-1.5-1.3l-2.2-3.7h-4.9c-1.5,0-2.9-0.6-3.9-1.7h4.3c0.2,0,0.3-0.2,0.3-0.3c0-0.2-0.2-0.3-0.3-0.3h-4.8
		c-0.2-0.3-0.4-0.6-0.5-1h6.1c0.2,0,0.3-0.2,0.3-0.3c0-0.2-0.2-0.3-0.3-0.3h-6.3c0-0.1-0.1-0.3-0.1-0.4c0.1-0.3,0.2-0.6,0.4-1h11.6
		c0,0,0,0,0,0c1.1-0.1,2.3,0.4,2.9,1.5l2.3,3.8l2.3-3.8c0.6-1.1,1.8-1.6,2.9-1.5c0,0,0,0,0,0L-179.8,408.1L-179.8,408.1z
		 M-214.4,410c0.2,0.5,0.6,1.4,1.3,2.1c1,1.2,2.4,1.7,3.9,1.8l-1.4,2.8l-4.9-2.2C-215.3,413-214.9,411.5-214.4,410z M-200.1,423.1
		c-4.9,1.4-8.5,6-8.6,11.3h-5c-1.4-3.4-2.3-7.2-2.5-11.3H-200.1z M-184.9,434.4c0-5.4-3.6-9.9-8.6-11.3h16
		c-0.2,4.1-1.1,7.9-2.5,11.3H-184.9z M-182.9,402.2l-4.2,5.4h-4.7c0,0-0.1,0-0.1,0c-0.1,0-0.2,0-0.2,0c-0.2,0-0.3,0-0.5,0v-11.5
		c0-0.9-0.7-1.6-1.6-1.6h0c-0.9,0-1.6,0.7-1.6,1.6v9.6c0-0.9-0.7-1.6-1.6-1.6s-1.6,0.7-1.6,1.6c0-0.9-0.7-1.6-1.6-1.6
		c-0.9,0-1.6,0.7-1.6,1.6v0.7c0-0.9-0.7-1.6-1.6-1.6h0c-0.7,0-1.3,0.5-1.5,1.1l-0.8,1.7h-7.5c3.4-8.1,9.6-13.5,16.8-13.5
		C-191.3,394.1-186.4,397.2-182.9,402.2z"/>
	<path class="st0" d="M-201.2,439.7c1.2,1,2.8,1.7,4.5,1.7c3.8,0,6.9-3.1,6.9-6.9c0-0.1,0-0.3,0-0.4
		C-196.5,434.3-200.1,438.2-201.2,439.7z"/>
	<path class="st0" d="M-194.7,429c0.1,0,0.1,0.1,0,0.1l-1.3,0.8l0.5,1.4c1.3-0.4,2.7-0.8,4.3-0.9c-1.2-1.7-3.3-2.9-5.6-2.9l0.4,1.4
		L-194.7,429z"/>
	<path class="st0" d="M-203.6,434.5c0,0.7,0.1,1.4,0.3,2c1.4-1.6,3.9-3.7,7.6-5l-1.1-0.9l-1.2,1c-0.1,0-0.1,0-0.1-0.1l0.5-1.5
		l-1.3-0.8c-0.1,0,0-0.1,0-0.1l1.6,0l0.4-1.4C-200.6,427.7-203.6,430.7-203.6,434.5z"/>
	<polygon class="st0" points="-200,392.2 -196.8,389.8 -193.7,392.2 -194.8,388.4 -191.7,386.1 -195.6,386 -196.8,382.5 -198.1,386 
		-201.9,386.1 -198.8,388.4 	"/>
	<path class="st0" d="M-169,427.6c-0.2,0.1-0.3,0.2-0.5,0.4c0.2-1,0.1-2-0.4-2.9c-0.1-0.1-0.1-0.2-0.2-0.3c0.2,0,0.5-0.1,0.6-0.3
		c0.3-0.3,0.3-0.9,0-1.2c0,0-0.1-0.1-0.1-0.1c0.1,0,0.1-0.1,0.2-0.1c0,0,0.1-0.1,0.1-0.1c0,0.1,0.1,0.1,0.1,0.1
		c0.3,0.3,0.9,0.3,1.2,0c0.3-0.3,0.3-0.9,0-1.2c-0.3-0.3-0.9-0.3-1.2,0c0,0-0.1,0.1-0.1,0.1c0-0.1-0.1-0.1-0.1-0.2
		c0,0-0.1-0.1-0.1-0.1c0.1,0,0.1-0.1,0.1-0.1c0.3-0.3,0.3-0.9,0-1.2c-0.1-0.1-0.2-0.1-0.3-0.2c0,0,0,0,0,0c0,0,0.1,0,0.1,0
		c0,0,0,0,0.1,0c0,0,0,0,0.1,0c0,0,0.1,0,0.1,0c0,0,0,0,0.1,0c0,0,0.1,0,0.1,0c0,0,0,0,0,0c0,0,0.1,0,0.1,0c0,0,0,0,0,0
		c0,0,0.1,0,0.1,0c0,0,0,0,0,0c0,0,0.1,0,0.1,0c0,0,0,0,0,0c0.4-0.2,0.8-0.4,1.2-0.8c0.9-0.9,1.2-2,1.1-3.1c-0.8,0.1-1.5,0.5-2.1,1
		c-0.1,0.1-0.3,0.3-0.4,0.5c0-1-0.3-2-1.1-2.7c-0.1-0.1-0.2-0.1-0.2-0.2c0.2-0.1,0.4-0.2,0.5-0.4c0.2-0.4,0.1-0.9-0.3-1.2
		c0,0-0.1,0-0.1-0.1c0.1,0,0.1-0.1,0.1-0.2c0,0,0-0.1,0.1-0.1c0,0,0.1,0.1,0.2,0.1c0.4,0.2,0.9,0.1,1.2-0.3c0.2-0.4,0.1-0.9-0.3-1.2
		c-0.4-0.2-0.9-0.1-1.2,0.3c0,0,0,0.1-0.1,0.1c0-0.1-0.1-0.1-0.2-0.1c0,0-0.1,0-0.1-0.1c0,0,0.1-0.1,0.1-0.2
		c0.2-0.4,0.1-0.9-0.3-1.2c-0.1-0.1-0.3-0.1-0.5-0.1l0,0c0,0,0,0,0,0c0,0,0.1,0,0.1,0c0,0,0,0,0,0c0,0,0.1,0,0.1,0c0,0,0,0,0,0
		c0,0,0.1,0,0.1-0.1c0,0,0,0,0,0c0,0,0.1,0,0.1-0.1c0,0,0,0,0,0c0.4-0.3,0.8-0.6,1.1-1c0.7-1,0.9-2.2,0.6-3.3
		c-0.7,0.2-1.4,0.7-1.9,1.4c-0.1,0.2-0.2,0.3-0.3,0.5c-0.1-1-0.7-1.9-1.5-2.5c-0.1,0-0.1-0.1-0.2-0.1c0.2-0.1,0.3-0.3,0.4-0.5
		c0.1-0.4-0.1-0.9-0.6-1c0,0-0.1,0-0.1,0c0-0.1,0.1-0.1,0.1-0.2c0,0,0-0.1,0-0.1c0.1,0,0.1,0.1,0.2,0.1c0.4,0.1,0.9-0.1,1-0.6
		c0.1-0.4-0.1-0.9-0.6-1c-0.4-0.1-0.9,0.1-1,0.6c0,0,0,0.1,0,0.1c-0.1,0-0.1-0.1-0.2-0.1c0,0-0.1,0-0.1,0c0-0.1,0.1-0.1,0.1-0.2
		c0.1-0.4-0.1-0.9-0.6-1c-0.2-0.1-0.3,0-0.5,0c0,0,0,0,0,0c0,0,0,0,0,0c0,0,0,0,0.1-0.1c0,0,0,0,0,0c0,0,0,0,0.1-0.1c0,0,0,0,0,0
		c0,0,0,0,0.1-0.1c0,0,0,0,0,0c0,0,0-0.1,0.1-0.1c0,0,0,0,0,0c0,0,0.1-0.1,0.1-0.1c0,0,0,0,0,0c0.3-0.4,0.6-0.8,0.7-1.3
		c0.4-1.1,0.2-2.4-0.4-3.3c-0.6,0.4-1.1,1.1-1.4,1.9c-0.1,0.2-0.1,0.4-0.2,0.6c-0.4-0.9-1.2-1.6-2.2-2c-0.1,0-0.2-0.1-0.4-0.1
		c0.1-0.2,0.2-0.4,0.2-0.6c0-0.5-0.4-0.8-0.9-0.8c0,0-0.1,0-0.1,0c0-0.1,0-0.1,0-0.2c0,0,0-0.1,0-0.1c0.1,0,0.1,0,0.2,0
		c0.5,0,0.8-0.4,0.8-0.9c0-0.5-0.4-0.8-0.9-0.8c-0.5,0-0.8,0.4-0.8,0.9c0,0,0,0.1,0,0.1c-0.1,0-0.1,0-0.2,0c0,0-0.1,0-0.1,0
		c0-0.1,0-0.1,0-0.2c0-0.5-0.4-0.8-0.9-0.8c-0.2,0-0.4,0.1-0.5,0.2c0,0,0,0,0,0c0,0,0,0,0-0.1c0,0,0,0,0-0.1c0,0,0,0,0,0
		c0,0,0-0.1,0-0.1c0,0,0,0,0,0c0,0,0-0.1,0-0.1c0,0,0,0,0,0c0,0,0-0.1,0-0.1c0,0,0,0,0,0c0,0,0-0.1,0-0.1c0,0,0,0,0,0
		c0.2-0.4,0.3-0.9,0.3-1.4c0-1.2-0.6-2.3-1.5-3c-0.5,0.6-0.7,1.4-0.7,2.2c0,0.2,0,0.4,0.1,0.6c-0.7-0.7-1.7-1.1-2.7-1.1
		c-0.2,0-0.3,0-0.5,0c0.1,1.2,0.8,2.2,1.8,2.8c-1.1,0.1-2,0.6-2.6,1.4c0.6,0.5,1.5,0.8,2.3,0.8c0.4,0,0.8-0.1,1.2-0.2l0,0
		c0,0,0.1,0,0.1,0c0,0,0,0,0.1,0c0,0,0.1,0,0.1-0.1c0,0,0,0,0.1,0c0.1,0,0.1,0,0.2-0.1c0,0,0,0,0,0c0,0,0.1,0,0.1-0.1c0,0,0,0,0,0
		c0.1,0,0.1-0.1,0.2-0.1c0,0,0,0,0,0c0.1,0,0.1-0.1,0.1-0.1c0,0,0,0,0,0c0.1,0,0.1-0.1,0.2-0.1c0,0,0,0,0,0c0.1,0,0.1-0.1,0.1-0.1
		l0,0c0,0,0.1-0.1,0.1-0.1c0,0,0,0,0,0c0,0,0.1-0.1,0.1-0.1c0,0,0,0,0,0c0,0,0.1-0.1,0.1-0.1c0,0.1-0.1,0.2-0.1,0.3
		c0,0.5,0.4,0.8,0.9,0.8c0,0,0.1,0,0.1,0c0,0.1,0,0.1,0,0.2c0,0,0,0.1,0,0.1c-0.1,0-0.1,0-0.2,0c-0.5,0-0.8,0.4-0.8,0.9
		c0,0.5,0.4,0.8,0.9,0.8c0.5,0,0.8-0.4,0.8-0.9c0,0,0-0.1,0-0.1c0.1,0,0.1,0,0.2,0c0,0,0.1,0,0.1,0c0,0.1,0,0.1,0,0.2
		c0,0.5,0.4,0.8,0.9,0.8c0.2,0,0.3-0.1,0.4-0.1c-0.2,1.1,0.1,2.2,0.8,3.1c-1-0.2-2.1,0-2.9,0.5c0.4,0.7,1.1,1.2,2,1.5
		c0.4,0.1,0.8,0.2,1.2,0.2l0,0c0,0,0.1,0,0.1,0c0,0,0.1,0,0.1,0c0,0,0.1,0,0.1,0c0,0,0,0,0.1,0c0.1,0,0.1,0,0.2,0c0,0,0,0,0,0
		c0,0,0.1,0,0.1,0c0,0,0,0,0,0c0.1,0,0.1,0,0.2,0c0,0,0,0,0,0c0.1,0,0.1,0,0.2,0c0,0,0,0,0,0c0.1,0,0.1,0,0.2-0.1c0,0,0,0,0,0
		c0.1,0,0.1,0,0.2-0.1c0,0,0,0,0,0c0.1,0,0.1-0.1,0.2-0.1c0,0,0,0,0,0c0.1,0,0.1-0.1,0.2-0.1c0,0,0,0,0,0c0,0,0,0,0,0
		c-0.1,0.1-0.1,0.2-0.2,0.3c-0.1,0.4,0.1,0.9,0.6,1c0,0,0.1,0,0.1,0c0,0.1-0.1,0.1-0.1,0.2c0,0,0,0.1,0,0.1c-0.1,0-0.1-0.1-0.2-0.1
		c-0.4-0.1-0.9,0.1-1,0.6c-0.1,0.4,0.1,0.9,0.6,1c0.4,0.1,0.9-0.1,1-0.6c0,0,0-0.1,0-0.1c0.1,0,0.1,0.1,0.2,0.1c0,0,0.1,0,0.1,0
		c0,0.1-0.1,0.1-0.1,0.2c-0.1,0.4,0.1,0.9,0.6,1c0.1,0,0.2,0,0.3,0c-0.5,1-0.5,2.1-0.1,3.1c-0.9-0.5-2-0.6-2.9-0.4
		c0.2,0.8,0.7,1.5,1.4,2c0.3,0.2,0.7,0.4,1,0.5l0,0c0,0,0.1,0,0.1,0c0,0,0.1,0,0.1,0c0,0,0.1,0,0.1,0c0,0,0,0,0.1,0
		c0.1,0,0.1,0,0.2,0c0,0,0,0,0,0c0,0,0.1,0,0.1,0c0,0,0,0,0,0c0.1,0,0.1,0,0.2,0l0,0c0.1,0,0.1,0,0.2,0l0,0c0.1,0,0.1,0,0.2,0
		c0,0,0,0,0,0c0.1,0,0.1,0,0.2,0l0,0c0.1,0,0.1,0,0.2,0c0,0,0,0,0,0c0.1,0,0.1,0,0.2,0c0,0,0,0,0,0c0.1,0,0.1,0,0.2,0
		c-0.1,0.1-0.2,0.1-0.2,0.2c-0.2,0.4-0.1,0.9,0.3,1.2c0,0,0.1,0,0.1,0.1c-0.1,0-0.1,0.1-0.1,0.2c0,0,0,0.1-0.1,0.1
		c0,0-0.1-0.1-0.2-0.1c-0.4-0.2-0.9-0.1-1.2,0.3c-0.2,0.4-0.1,0.9,0.3,1.2c0.4,0.2,0.9,0.1,1.2-0.3c0,0,0-0.1,0.1-0.1
		c0,0.1,0.1,0.1,0.2,0.1c0,0,0.1,0,0.1,0.1c0,0-0.1,0.1-0.1,0.2c-0.2,0.4-0.1,0.9,0.3,1.2c0.1,0.1,0.3,0.1,0.4,0.1
		c-0.7,0.9-0.9,2.1-0.6,3.1c-0.8-0.7-1.8-1-2.8-0.9c0.1,0.8,0.4,1.6,1.1,2.2c0.3,0.3,0.6,0.5,0.9,0.7l0,0c0,0,0.1,0,0.1,0
		c0,0,0,0,0.1,0c0,0,0.1,0,0.1,0.1c0,0,0,0,0.1,0c0.1,0,0.1,0,0.2,0.1c0,0,0,0,0,0c0,0,0.1,0,0.1,0c0,0,0,0,0,0c0.1,0,0.1,0,0.2,0
		c0,0,0,0,0,0c0.1,0,0.1,0,0.2,0c0,0,0,0,0,0c0.1,0,0.1,0,0.2,0c0,0,0,0,0,0c0.1,0,0.1,0,0.2,0l0,0c0,0,0.1,0,0.1,0
		c-0.1,0-0.1,0.1-0.2,0.2c-0.3,0.3-0.3,0.9,0,1.2c0,0,0.1,0.1,0.1,0.1c-0.1,0-0.1,0.1-0.2,0.1c0,0-0.1,0.1-0.1,0.1
		c0-0.1-0.1-0.1-0.1-0.1c-0.3-0.3-0.9-0.3-1.2,0c-0.3,0.3-0.3,0.9,0,1.2c0.3,0.3,0.9,0.3,1.2,0c0,0,0.1-0.1,0.1-0.1
		c0,0.1,0.1,0.1,0.1,0.2c0,0,0.1,0.1,0.1,0.1c-0.1,0-0.1,0.1-0.1,0.1c-0.3,0.3-0.3,0.9,0,1.2c0.1,0.1,0.2,0.2,0.4,0.2
		c-0.9,0.7-1.3,1.8-1.3,2.9c-0.6-0.8-1.6-1.3-2.6-1.5c-0.1,0.8,0.1,1.7,0.5,2.4c0.2,0.3,0.5,0.6,0.8,0.9l0,0c0,0,0,0,0.1,0.1
		c0,0,0,0,0.1,0c0,0,0.1,0.1,0.1,0.1c0,0,0,0,0.1,0c0,0,0.1,0.1,0.1,0.1c0,0,0,0,0,0c0,0,0.1,0.1,0.1,0.1c0,0,0,0,0,0
		c0.1,0,0.1,0.1,0.2,0.1c0,0,0,0,0,0c0.1,0,0.1,0.1,0.2,0.1l0,0c0.1,0,0.1,0,0.2,0.1c0,0,0,0,0,0c0.1,0,0.1,0,0.2,0.1c0,0,0,0,0,0
		c0.1,0,0.1,0,0.2,0c0,0,0,0,0,0c0.1,0,0.1,0,0.1,0c-0.2,0-0.3,0-0.5,0.1c-0.4,0.2-0.5,0.8-0.3,1.2c0,0,0,0.1,0.1,0.1
		c-0.1,0-0.1,0.1-0.2,0.1c0,0-0.1,0.1-0.1,0.1c0-0.1,0-0.1-0.1-0.2c-0.2-0.4-0.8-0.5-1.2-0.3c-0.4,0.2-0.5,0.8-0.3,1.2
		c0.2,0.4,0.8,0.5,1.2,0.3c0,0,0.1,0,0.1-0.1c0,0.1,0.1,0.1,0.1,0.2c0,0,0.1,0.1,0.1,0.1c-0.1,0-0.1,0-0.2,0.1
		c-0.4,0.2-0.5,0.8-0.3,1.2c0.1,0.1,0.2,0.2,0.3,0.3c-1,0.5-1.8,1.4-2,2.5c-0.4-1-1.2-1.7-2.1-2c-0.3,0.8-0.3,1.6-0.1,2.5
		c0.1,0.4,0.3,0.7,0.5,1.1l0,0c0,0,0,0.1,0.1,0.1c0,0,0,0,0,0.1c0,0,0.1,0.1,0.1,0.1c0,0,0,0,0,0c0,0,0.1,0.1,0.1,0.1c0,0,0,0,0,0
		c0,0,0.1,0.1,0.1,0.1c0,0,0,0,0,0c0,0,0.1,0.1,0.1,0.1c0,0,0,0,0,0c0,0,0.1,0.1,0.1,0.1c0,0,0,0,0,0c0.1,0,0.1,0.1,0.2,0.1
		c0,0,0,0,0,0c0.1,0,0.1,0.1,0.2,0.1l0,0c0,0,0.1,0.1,0.1,0.1c-0.1,0-0.3,0-0.4,0c-0.4,0.1-0.7,0.6-0.6,1.1c0,0,0,0.1,0,0.1
		c-0.1,0-0.1,0-0.2,0c0,0-0.1,0-0.1,0.1c0-0.1,0-0.1,0-0.2c-0.1-0.4-0.6-0.7-1.1-0.6c-0.4,0.1-0.7,0.6-0.6,1.1
		c0.1,0.4,0.6,0.7,1.1,0.6c0,0,0.1,0,0.1,0c0,0.1,0,0.1,0,0.2c0,0,0,0.1,0.1,0.1c-0.1,0-0.1,0-0.2,0c-0.4,0.1-0.7,0.6-0.6,1.1
		c0,0.2,0.1,0.3,0.2,0.4c-1.1,0.2-2,0.9-2.6,1.9c-0.1-1-0.7-2-1.5-2.6c-0.5,0.7-0.8,1.5-0.7,2.4c0,0.4,0.1,0.8,0.2,1.2l0,0
		c0,0,0,0.1,0,0.1c0,0,0,0,0,0.1c0,0,0,0.1,0.1,0.1c0,0,0,0,0,0.1c0,0.1,0,0.1,0.1,0.2c0,0,0,0,0,0c0,0,0,0.1,0.1,0.1c0,0,0,0,0,0
		c0,0.1,0.1,0.1,0.1,0.2c0,0,0,0,0,0c0,0,0.1,0.1,0.1,0.1c0,0,0,0,0,0c0,0.1,0.1,0.1,0.1,0.2c0,0,0,0,0,0c0,0,0.1,0.1,0.1,0.1
		c-0.1,0-0.2-0.1-0.3-0.1c-0.5,0-0.8,0.4-0.9,0.8c0,0,0,0.1,0,0.1c-0.1,0-0.1,0-0.2,0c0,0-0.1,0-0.1,0c0-0.1,0-0.1,0-0.2
		c0-0.5-0.4-0.8-0.8-0.9c-0.5,0-0.8,0.4-0.9,0.8c0,0.5,0.4,0.8,0.8,0.9c0,0,0.1,0,0.1,0c0,0.1,0,0.1,0,0.2c0,0,0,0.1,0,0.1
		c-0.1,0-0.1,0-0.2,0c-0.5,0-0.8,0.4-0.9,0.8c0,0.5,0.4,0.8,0.8,0.9c0.5,0,0.8-0.4,0.9-0.8c0,0,0-0.1,0-0.1c0.1,0,0.1,0,0.2,0
		c0,0,0.1,0,0.1,0c0,0.1,0,0.1,0,0.2c0,0.5,0.4,0.8,0.8,0.9c0.5,0,0.8-0.4,0.9-0.8c0-0.5-0.4-0.8-0.8-0.9c0,0-0.1,0-0.1,0
		c0-0.1,0-0.1,0-0.2c0,0,0-0.1,0-0.1c0.1,0,0.1,0,0.2,0c0.5,0,0.8-0.4,0.9-0.8c0-0.1,0-0.3-0.1-0.4c0,0,0,0,0,0l0,0l0,0
		c0,0,0.1,0.1,0.1,0.1l0,0c0,0,0,0,0,0c0,0,0,0,0.1,0c0,0,0,0,0.1,0c0,0,0,0,0.1,0c0,0,0,0,0.1,0c0,0,0,0,0,0c0,0,0.1,0,0.1,0
		c0,0,0,0,0,0c0,0,0.1,0,0.1,0c0,0,0,0,0,0c0,0,0.1,0,0.1,0c0,0,0,0,0,0c0,0,0.1,0,0.1,0l0,0c0.4,0.2,0.9,0.2,1.4,0.2
		c1.2,0,2.3-0.6,2.9-1.5c-0.6-0.4-1.4-0.7-2.3-0.7c-0.2,0-0.4,0-0.6,0.1c0.7-0.7,1.1-1.7,1.1-2.7c0-0.1,0-0.2,0-0.3
		c0.2,0.1,0.4,0.1,0.6,0c0.4-0.1,0.7-0.6,0.6-1.1c0,0,0-0.1,0-0.1c0.1,0,0.1,0,0.2,0c0,0,0.1,0,0.1-0.1c0,0.1,0,0.1,0,0.2
		c0.1,0.4,0.6,0.7,1.1,0.6c0.4-0.1,0.7-0.6,0.6-1.1c-0.1-0.4-0.6-0.7-1.1-0.6c0,0-0.1,0-0.1,0c0-0.1,0-0.1,0-0.2c0,0,0-0.1-0.1-0.1
		c0.1,0,0.1,0,0.2,0c0.4-0.1,0.7-0.6,0.6-1.1c0-0.2-0.1-0.3-0.3-0.4c0,0,0,0,0,0c0,0,0,0,0,0l0,0c0,0,0.1,0,0.1,0.1l0,0
		c0,0,0,0,0.1,0c0,0,0.1,0,0.1,0c0,0,0,0,0.1,0c0,0,0,0,0.1,0c0,0,0.1,0,0.1,0c0,0,0,0,0.1,0c0,0,0.1,0,0.1,0c0,0,0,0,0,0
		c0,0,0.1,0,0.1,0c0,0,0,0,0,0c0,0,0.1,0,0.1,0c0,0,0,0,0,0c0,0,0.1,0,0.1,0l0,0c0.5,0,1,0,1.4-0.2c1.2-0.4,2-1.2,2.4-2.3
		c-0.7-0.2-1.6-0.3-2.4,0c-0.2,0.1-0.4,0.1-0.6,0.2c0.5-0.9,0.6-1.9,0.3-2.9c0-0.1-0.1-0.2-0.1-0.4c0.2,0,0.4,0,0.6-0.1
		c0.4-0.2,0.5-0.8,0.3-1.2c0,0,0-0.1-0.1-0.1c0.1,0,0.1-0.1,0.2-0.1c0,0,0.1-0.1,0.1-0.1c0,0.1,0,0.1,0.1,0.2
		c0.2,0.4,0.8,0.5,1.2,0.3c0.4-0.2,0.5-0.8,0.3-1.2c-0.2-0.4-0.8-0.5-1.2-0.3c0,0-0.1,0-0.1,0.1c0-0.1-0.1-0.1-0.1-0.2
		c0,0-0.1-0.1-0.1-0.1c0.1,0,0.1,0,0.2-0.1c0.4-0.2,0.5-0.8,0.3-1.2c-0.1-0.2-0.3-0.3-0.4-0.4c0,0,0,0,0,0l0,0v0c0,0,0.1,0,0.1,0v0
		c0,0,0,0,0.1,0c0,0,0.1,0,0.1,0c0,0,0.1,0,0.1,0c0,0,0,0,0.1,0c0,0,0.1,0,0.1,0c0,0,0,0,0.1,0c0,0,0.1,0,0.1,0c0,0,0,0,0,0
		c0,0,0.1,0,0.1,0c0,0,0,0,0,0c0,0,0.1,0,0.1,0c0,0,0,0,0,0c0,0,0.1,0,0.1,0c0,0,0,0,0,0c0.5-0.1,0.9-0.2,1.4-0.5
		c1-0.6,1.7-1.7,1.8-2.8C-167.5,427-168.3,427.2-169,427.6z"/>
	<path class="st0" d="M-217,449.7l-1.7-4.1c0-0.1,0.1-0.2,0.1-0.1l3.8,2.1c0.5,0.5,1,1,1.5,1.5c0.3,0.3,0.8,0.3,1.1,0
		c0.3-0.3,0.3-0.8,0-1.1c-0.6-0.6-1.2-1.2-1.8-1.9l-0.3-3.5c0-0.1,0.1-0.1,0.2-0.1l3.1,3.2c0.1,0.1,0.2,0,0.1-0.1l-3.9-6.3
		c0,0-0.1-0.1-0.1,0l-1.4,0.7c0,0-0.1,0.1,0,0.1l1.7,5.1c-0.3-0.4-0.6-0.8-0.9-1.1c-1.7-2.4-3.1-5-4.2-7.9l0.7-3.2
		c0-0.1,0.1-0.1,0.2,0l1.9,4.1c0,0.1,0.2,0,0.2-0.1l-1.7-7.2c0,0-0.1-0.1-0.1-0.1l-1.5,0.2c0,0-0.1,0-0.1,0.1l0,5
		c-1-2.9-1.7-6-2-9.2l1.7-3.4c0-0.1,0.2-0.1,0.2,0l0.9,4.4c0,0.1,0.2,0.1,0.2,0l0-7.4c0,0,0-0.1-0.1-0.1l-1.6-0.1c0,0-0.1,0-0.1,0.1
		l-1.3,5.5c-0.1-1.2-0.2-2.4-0.2-3.7c0-2.2,0.2-4.4,0.5-6.5l2.4-2.8c0.1-0.1,0.2,0,0.2,0.1l-0.3,4.5c0,0.1,0.2,0.1,0.2,0l2-7.2
		c0,0,0-0.1-0.1-0.1l-1.5-0.5c0,0-0.1,0-0.1,0l-2.7,4.9c0.6-3.6,1.7-6.9,3.2-10l3.1-1.9c0.1,0,0.2,0,0.1,0.1l-1.5,4.2
		c0,0.1,0.1,0.2,0.2,0.1l4-6.3c0,0,0-0.1,0-0.1l-1.2-0.9c0,0-0.1,0-0.1,0l-3.9,3.8c0.8-1.5,1.7-3,2.7-4.4c0.8-1.1,1.6-2.1,2.5-3.1
		l4.1-3.5c0.1-0.1,0-0.2-0.1-0.2l-2.2,1.2l3.1-4c0.1-0.1-0.1-0.2-0.2-0.1l-3.5,3.3l0.9-2.2c0-0.1-0.1-0.2-0.2-0.1l-4.8,6.6l0,0
		c-0.3,0.4-0.5,0.7-0.8,1.1c-1,1.4-1.9,2.9-2.7,4.5l1.5-5.1c0,0,0-0.1-0.1-0.1l-1.4-0.6c0,0-0.1,0-0.1,0l-3.6,6.5
		c-0.1,0.1,0.1,0.2,0.1,0.1l2.9-3.4c0.1-0.1,0.2,0,0.2,0.1l-0.2,4c-1.4,3-2.4,6.3-3.1,9.7l-0.1-5.1c0,0,0-0.1-0.1-0.1l-1.5-0.2
		c0,0-0.1,0-0.1,0.1l-1.6,7.3c0,0.1,0.1,0.2,0.2,0.1l1.8-4.1c0-0.1,0.2-0.1,0.2,0l0.9,3.8c-0.3,2.2-0.5,4.4-0.5,6.6
		c0,1.1,0,2.1,0.1,3.2l-1.4-4.8c0,0-0.1-0.1-0.1-0.1l-1.5,0.2c0,0-0.1,0-0.1,0.1l0.4,7.4c0,0.1,0.2,0.1,0.2,0l0.7-4.4
		c0-0.1,0.1-0.1,0.2,0l1.8,3.3c0.4,3.8,1.3,7.5,2.6,10.9l-3.1-5.6c0,0-0.1-0.1-0.1,0l-1.5,0.6c0,0-0.1,0.1-0.1,0.1l2.1,7.1
		c0,0.1,0.2,0.1,0.2,0l-0.3-4.5c0-0.1,0.1-0.1,0.2-0.1l3.1,3.4c1.1,2.6,2.4,5,4,7.1c0.3,0.5,0.7,0.9,1,1.3l-4.2-3.7c0,0-0.1,0-0.1,0
		l-1.2,1c0,0,0,0.1,0,0.1l4.2,6.1C-217.1,449.9-216.9,449.8-217,449.7z"/>
	<path class="st0" d="M-191.7,450.7l-1.6,2.9l-5-3.1l-1.7,2.7c-5.8-3-11-2.8-14.3-2.1c-3.7,0.8-6,2.4-6.3,2.6l3.1,4.4l0,0
		c0,0,1.8-1.2,4.5-1.8c3.7-0.7,7.4-0.1,11,1.9l1.5-2.8l4.8,3l1.8-2.8c3.8,2,7.3,2.6,10.2,2.6c1.6,0,3.1-0.2,4.3-0.5
		c3.7-0.8,6-2.4,6.3-2.6l-3.1-4.4C-176.2,450.9-182.9,455.6-191.7,450.7z"/>
</g>
</svg>
