<?xml version="1.0" encoding="utf-8"?>
<!-- Generator: Adobe Illustrator 21.1.0, SVG Export Plug-In . SVG Version: 6.00 Build 0)  -->
<svg version="1.1" id="Camada_1" xmlns="http://www.w3.org/2000/svg" xmlns:xlink="http://www.w3.org/1999/xlink" x="0px" y="0px"
	 viewBox="0 0 100 80" style="enable-background:new 0 0 100 80;" xml:space="preserve">
<style type="text/css">
	.st0{fill:#FFFFFF;}
</style>
<g>
	<path class="st0" d="M49,49.9c-8.3,0-15-6.7-15-15c0-8.3,6.7-15,15-15c8.3,0,15,6.7,15,15C64.1,43.2,57.3,49.9,49,49.9z M49,23.4
		c-6.3,0-11.5,5.2-11.5,11.5c0,6.3,5.2,11.5,11.5,11.5c6.3,0,11.5-5.2,11.5-11.5C60.5,28.5,55.4,23.4,49,23.4z"/>
	<path class="st0" d="M65.5,55.5L59.9,46c0-0.1-0.1-0.2-0.1-0.2c-1.5,1.4-3.2,2.6-5.1,3.3c0,0,0,0,0,0l5.7,9.5
		c0.6,1,1.6,1.5,2.6,1.5c0.5,0,1.1-0.1,1.6-0.4C65.9,58.8,66.4,57,65.5,55.5z"/>
	<path class="st0" d="M48.2,33.6c0.2,0,0.5,0.1,0.6,0.3l5.8,5.5c0.2,0.2,0.3,0.4,0.3,0.7v4.5c0.6-0.4,1.2-0.8,1.8-1.3v-3.2
		c0-0.7-0.3-1.4-0.8-1.9L50,32.6c-0.5-0.5-1.2-0.7-1.8-0.7h-10c-0.2,0.6-0.3,1.2-0.3,1.8H48.2z"/>
	<g>
		<polygon class="st0" points="55.7,40.5 47.3,40.5 47.3,33.2 49,33.2 49,38.8 55.7,38.8 		"/>
	</g>
	<g>
		<rect x="37.2" y="52.3" class="st0" width="7.1" height="1.8"/>
	</g>
	<g>
		<rect x="37.2" y="49.9" class="st0" width="5.5" height="1.8"/>
	</g>
	<g>
		<path class="st0" d="M51.2,58.8H34.2V34.5h2.5l0,0.8c0.3,7.1,6.4,12.5,13.6,11.8l1-0.1V58.8z M35.9,57.1h13.6V49
			c-6.2,0.2-11.4-3.5-13.6-8.8V57.1z"/>
	</g>
</g>
</svg>
