<?xml version="1.0" encoding="utf-8"?>
<!-- Generator: Adobe Illustrator 21.1.0, SVG Export Plug-In . SVG Version: 6.00 Build 0)  -->
<svg version="1.1" id="Camada_1" xmlns="http://www.w3.org/2000/svg" xmlns:xlink="http://www.w3.org/1999/xlink" x="0px" y="0px"
	 viewBox="0 0 100 80" style="enable-background:new 0 0 100 80;" xml:space="preserve">
<style type="text/css">
	.st0{fill:#FFFFFF;}
</style>
<g>
	<path class="st0" d="M42.6,35.5V51c0,1.4,1.1,2.5,2.5,2.5h20.3c1.3,0,2.5,0.5,3.5,1.3l4.9,4.2c0.5,0.5,1.4,0.1,1.4-0.6v-4.8v-1.6
		V35.5c0-1.4-1.1-2.5-2.5-2.5H45.1C43.7,33,42.6,34.1,42.6,35.5z"/>
	<path class="st0" d="M40.5,35.5c0-2.5,2.1-4.6,4.6-4.6h12.4v-2c0-1.4-1.1-2.5-2.5-2.5H34.6c-1.3,0-2.5-0.5-3.5-1.3L26.3,21
		c-0.5-0.5-1.4-0.1-1.4,0.6v4.8v1.6v16.4c0,1.4,1.1,2.5,2.5,2.5h13.1V35.5z"/>
</g>
</svg>
