<?xml version="1.0" encoding="utf-8"?>
<!-- Generator: Adobe Illustrator 21.1.0, SVG Export Plug-In . SVG Version: 6.00 Build 0)  -->
<svg version="1.1" id="Camada_1" xmlns="http://www.w3.org/2000/svg" xmlns:xlink="http://www.w3.org/1999/xlink" x="0px" y="0px"
	 viewBox="0 0 100 80" style="enable-background:new 0 0 100 80;" xml:space="preserve">
<style type="text/css">
	.st0{fill:#FFFFFF;}
</style>
<g>
	<path class="st0" d="M40.2,27c-2.6,3.6-4,8.4-4,13.4s1.4,9.8,4,13.4c2.6,3.6,6.2,5.6,9.9,5.6s7.3-2,9.9-5.6c2.6-3.6,4-8.4,4-13.4
		s-1.4-9.8-4-13.4c-2.6-3.6-6.2-5.6-9.9-5.6S42.8,23.3,40.2,27z M61.5,31.7c0,0,0,0.1,0,0.1c0,0.3,0,0.5-0.1,0.8h-4.2
		c-0.1,0-0.2,0.1-0.2,0.2c0,0.1,0.1,0.2,0.2,0.2h4.1c-0.1,0.2-0.2,0.5-0.3,0.7h-3.2c-0.1,0-0.2,0.1-0.2,0.2c0,0.1,0.1,0.2,0.2,0.2
		h2.9C60,34.9,59,35.3,58,35.3h-3.3l-0.2,0.4c0.7,0,1.6,0,2.4,0.2c0.4,0.1,0.6,0.4,0.7,0.7c0,0,0,0,0.1,0c0.5,0,0.8,0.4,0.8,0.9
		l0,0.4c-7.5-0.6-9,4-9,4.1L49.3,42c0.3,0,0.5,0,0.8,0c0.2,0,0.4,0,0.6,0l-0.1-0.1c0,0-0.1-0.4-0.5-0.9c0.2-0.3,0.5-0.7,0.9-1
		c0.4-0.4,1-0.7,1.5-1c0.5,0.7,0.8,1.3,0.9,1.5h-2.2L50.9,42c3.7,0.4,6.6,3.6,6.6,7.4c0,4.1-3.3,7.4-7.4,7.4s-7.4-3.3-7.4-7.4
		c0-3.8,2.8-6.9,6.4-7.3l-0.4-1.6h-2.2c0.1-0.3,0.5-1,1.2-1.8c-0.4-0.2-0.8-0.5-1-0.9l-1.5-2.5h-3.3c-1,0-2-0.4-2.6-1.1h2.9
		c0.1,0,0.2-0.1,0.2-0.2c0-0.1-0.1-0.2-0.2-0.2H39c-0.1-0.2-0.3-0.4-0.3-0.7h4.1c0.1,0,0.2-0.1,0.2-0.2c0-0.1-0.1-0.2-0.2-0.2h-4.2
		c0-0.1,0-0.2-0.1-0.3c0.1-0.2,0.2-0.4,0.2-0.6h7.8c0,0,0,0,0,0c0.8-0.1,1.5,0.3,2,1l1.5,2.6l1.5-2.6c0.4-0.7,1.2-1.1,2-1
		c0,0,0,0,0,0L61.5,31.7L61.5,31.7z M38.2,33c0.1,0.3,0.4,0.9,0.9,1.4c0.7,0.8,1.6,1.2,2.6,1.2l-0.9,1.9L37.5,36
		C37.6,35,37.9,34,38.2,33z M47.9,41.7c-3.3,1-5.7,4-5.8,7.6h-3.3c-0.9-2.3-1.5-4.9-1.7-7.6H47.9z M58.1,49.3c0-3.6-2.5-6.7-5.8-7.6
		h10.8c-0.1,2.8-0.7,5.3-1.7,7.6H58.1z M59.4,27.7l-2.8,3.6h-3.1c0,0,0,0-0.1,0c-0.1,0-0.1,0-0.2,0c-0.1,0-0.2,0-0.3,0v-7.7
		c0-0.6-0.5-1.1-1.1-1.1h0c-0.6,0-1.1,0.5-1.1,1.1v6.4c0-0.6-0.5-1.1-1.1-1.1s-1.1,0.5-1.1,1.1c0-0.6-0.5-1.1-1.1-1.1
		s-1.1,0.5-1.1,1.1v0.5c0-0.6-0.5-1.1-1.1-1.1h0c-0.5,0-0.9,0.3-1,0.7l-0.6,1.1h-5c2.3-5.4,6.5-9.1,11.3-9.1
		C53.7,22.2,57,24.4,59.4,27.7z"/>
	<path class="st0" d="M47.1,52.9c0.8,0.7,1.9,1.1,3,1.1c2.5,0,4.6-2.1,4.6-4.6c0-0.1,0-0.2,0-0.3C50.3,49.3,47.8,51.9,47.1,52.9z"/>
	<path class="st0" d="M51.5,45.7C51.5,45.7,51.5,45.8,51.5,45.7l-0.8,0.6l0.3,1c0.9-0.3,1.8-0.5,2.9-0.6c-0.8-1.2-2.2-1.9-3.7-1.9
		l0.3,0.9L51.5,45.7z"/>
	<path class="st0" d="M45.5,49.4c0,0.5,0.1,0.9,0.2,1.4c0.9-1,2.6-2.5,5.1-3.4L50,46.8l-0.8,0.7c0,0-0.1,0-0.1-0.1l0.4-1l-0.9-0.6
		c0,0,0-0.1,0-0.1l1.1,0l0.3-0.9C47.5,44.8,45.5,46.9,45.5,49.4z"/>
	<polygon class="st0" points="47.9,21 50,19.4 52.2,21 51.4,18.4 53.5,16.9 50.9,16.8 50,14.4 49.2,16.8 46.6,16.9 48.7,18.4 	"/>
	<path class="st0" d="M68.7,44.8c-0.1,0.1-0.2,0.2-0.3,0.2c0.2-0.6,0.1-1.3-0.3-2c0-0.1-0.1-0.1-0.1-0.2c0.2,0,0.3-0.1,0.4-0.2
		c0.2-0.2,0.2-0.6,0-0.8c0,0,0,0-0.1-0.1c0,0,0.1-0.1,0.1-0.1c0,0,0,0,0.1-0.1c0,0,0.1,0.1,0.1,0.1c0.2,0.2,0.6,0.2,0.8,0
		c0.2-0.2,0.2-0.6,0-0.8c-0.2-0.2-0.6-0.2-0.8,0c0,0,0,0-0.1,0.1c0,0-0.1-0.1-0.1-0.1c0,0,0,0-0.1-0.1c0,0,0.1-0.1,0.1-0.1
		c0.2-0.2,0.2-0.6,0-0.8c-0.1-0.1-0.1-0.1-0.2-0.1c0,0,0,0,0,0c0,0,0,0,0.1,0c0,0,0,0,0.1,0c0,0,0,0,0,0c0,0,0,0,0.1,0c0,0,0,0,0,0
		c0,0,0,0,0.1,0c0,0,0,0,0,0c0,0,0,0,0.1,0c0,0,0,0,0,0c0,0,0,0,0.1,0c0,0,0,0,0,0c0,0,0,0,0.1,0c0,0,0,0,0,0
		c0.3-0.1,0.6-0.3,0.8-0.5c0.6-0.6,0.8-1.4,0.7-2.1c-0.5,0.1-1,0.3-1.4,0.7c-0.1,0.1-0.2,0.2-0.3,0.3c0-0.7-0.2-1.3-0.7-1.8
		c-0.1-0.1-0.1-0.1-0.2-0.1c0.1,0,0.2-0.1,0.3-0.2c0.2-0.3,0.1-0.6-0.2-0.8c0,0,0,0-0.1,0c0,0,0.1-0.1,0.1-0.1c0,0,0-0.1,0-0.1
		c0,0,0.1,0.1,0.1,0.1c0.3,0.2,0.6,0.1,0.8-0.2c0.2-0.3,0.1-0.6-0.2-0.8c-0.3-0.2-0.6-0.1-0.8,0.2c0,0,0,0,0,0.1
		c0,0-0.1-0.1-0.1-0.1c0,0-0.1,0-0.1,0c0,0,0.1-0.1,0.1-0.1c0.2-0.3,0.1-0.6-0.2-0.8c-0.1-0.1-0.2-0.1-0.3-0.1l0,0c0,0,0,0,0,0
		c0,0,0,0,0.1,0c0,0,0,0,0,0c0,0,0,0,0.1,0c0,0,0,0,0,0c0,0,0,0,0.1,0c0,0,0,0,0,0c0,0,0,0,0.1,0c0,0,0,0,0,0
		c0.3-0.2,0.5-0.4,0.7-0.7c0.5-0.7,0.6-1.5,0.4-2.2c-0.5,0.2-0.9,0.5-1.3,0.9c-0.1,0.1-0.2,0.2-0.2,0.4c-0.1-0.7-0.4-1.3-1-1.7
		c0,0-0.1-0.1-0.1-0.1c0.1-0.1,0.2-0.2,0.3-0.3c0.1-0.3-0.1-0.6-0.4-0.7c0,0-0.1,0-0.1,0c0,0,0-0.1,0.1-0.1c0,0,0-0.1,0-0.1
		c0,0,0.1,0,0.1,0.1c0.3,0.1,0.6-0.1,0.7-0.4c0.1-0.3-0.1-0.6-0.4-0.7c-0.3-0.1-0.6,0.1-0.7,0.4c0,0,0,0.1,0,0.1c0,0-0.1,0-0.1-0.1
		c0,0-0.1,0-0.1,0c0,0,0-0.1,0.1-0.1c0.1-0.3-0.1-0.6-0.4-0.7c-0.1,0-0.2,0-0.3,0c0,0,0,0,0,0c0,0,0,0,0,0c0,0,0,0,0,0c0,0,0,0,0,0
		c0,0,0,0,0,0c0,0,0,0,0,0c0,0,0,0,0,0c0,0,0,0,0,0c0,0,0,0,0-0.1c0,0,0,0,0,0c0,0,0,0,0.1-0.1c0,0,0,0,0,0c0.2-0.2,0.4-0.5,0.5-0.8
		c0.3-0.8,0.1-1.6-0.3-2.2c-0.4,0.3-0.8,0.7-0.9,1.3c0,0.1-0.1,0.3-0.1,0.4c-0.3-0.6-0.8-1.1-1.5-1.3c-0.1,0-0.2,0-0.2-0.1
		c0.1-0.1,0.2-0.2,0.2-0.4c0-0.3-0.3-0.6-0.6-0.6c0,0-0.1,0-0.1,0c0,0,0-0.1,0-0.1c0,0,0-0.1,0-0.1c0,0,0.1,0,0.1,0
		c0.3,0,0.6-0.3,0.6-0.6c0-0.3-0.3-0.6-0.6-0.6c-0.3,0-0.6,0.3-0.6,0.6c0,0,0,0.1,0,0.1c0,0-0.1,0-0.1,0c0,0-0.1,0-0.1,0
		c0,0,0-0.1,0-0.1c0-0.3-0.3-0.6-0.6-0.6c-0.1,0-0.3,0.1-0.4,0.1c0,0,0,0,0,0c0,0,0,0,0,0c0,0,0,0,0,0c0,0,0,0,0,0c0,0,0,0,0-0.1
		c0,0,0,0,0,0c0,0,0,0,0-0.1c0,0,0,0,0,0c0,0,0,0,0-0.1c0,0,0,0,0,0c0,0,0,0,0-0.1c0,0,0,0,0,0c0.1-0.3,0.2-0.6,0.2-1
		c0-0.8-0.4-1.5-1-2c-0.3,0.4-0.5,0.9-0.5,1.5c0,0.1,0,0.3,0,0.4c-0.5-0.5-1.1-0.8-1.8-0.8c-0.1,0-0.2,0-0.3,0
		c0.1,0.8,0.6,1.5,1.2,1.9c-0.7,0.1-1.3,0.4-1.7,1c0.4,0.3,1,0.5,1.6,0.5c0.3,0,0.5,0,0.8-0.1l0,0c0,0,0,0,0.1,0c0,0,0,0,0,0
		c0,0,0.1,0,0.1,0c0,0,0,0,0,0c0,0,0.1,0,0.1,0c0,0,0,0,0,0c0,0,0.1,0,0.1,0c0,0,0,0,0,0c0,0,0.1,0,0.1-0.1c0,0,0,0,0,0
		c0,0,0.1,0,0.1-0.1c0,0,0,0,0,0c0,0,0.1-0.1,0.1-0.1c0,0,0,0,0,0c0,0,0.1-0.1,0.1-0.1l0,0c0,0,0.1-0.1,0.1-0.1c0,0,0,0,0,0
		c0,0,0.1-0.1,0.1-0.1c0,0,0,0,0,0c0,0,0,0,0.1-0.1c0,0.1,0,0.1,0,0.2c0,0.3,0.3,0.6,0.6,0.6c0,0,0.1,0,0.1,0c0,0,0,0.1,0,0.1
		c0,0,0,0.1,0,0.1c0,0-0.1,0-0.1,0c-0.3,0-0.6,0.3-0.6,0.6c0,0.3,0.3,0.6,0.6,0.6c0.3,0,0.6-0.3,0.6-0.6c0,0,0-0.1,0-0.1
		c0,0,0.1,0,0.1,0c0,0,0.1,0,0.1,0c0,0,0,0.1,0,0.1c0,0.3,0.3,0.6,0.6,0.6c0.1,0,0.2,0,0.3-0.1c-0.1,0.8,0.1,1.5,0.6,2.1
		c-0.7-0.2-1.4,0-2,0.3c0.3,0.5,0.8,0.8,1.3,1c0.3,0.1,0.5,0.1,0.8,0.1l0,0c0,0,0,0,0.1,0c0,0,0,0,0.1,0c0,0,0.1,0,0.1,0
		c0,0,0,0,0,0c0,0,0.1,0,0.1,0c0,0,0,0,0,0c0,0,0.1,0,0.1,0c0,0,0,0,0,0c0,0,0.1,0,0.1,0c0,0,0,0,0,0c0,0,0.1,0,0.1,0c0,0,0,0,0,0
		c0,0,0.1,0,0.1,0c0,0,0,0,0,0c0,0,0.1,0,0.1,0c0,0,0,0,0,0c0,0,0.1,0,0.1-0.1c0,0,0,0,0,0c0,0,0.1,0,0.1-0.1c0,0,0,0,0,0
		c0,0,0,0,0,0c-0.1,0.1-0.1,0.1-0.1,0.2c-0.1,0.3,0.1,0.6,0.4,0.7c0,0,0.1,0,0.1,0c0,0,0,0.1-0.1,0.1c0,0,0,0.1,0,0.1
		c0,0-0.1,0-0.1-0.1c-0.3-0.1-0.6,0.1-0.7,0.4c-0.1,0.3,0.1,0.6,0.4,0.7c0.3,0.1,0.6-0.1,0.7-0.4c0,0,0-0.1,0-0.1c0,0,0.1,0,0.1,0.1
		c0,0,0.1,0,0.1,0c0,0,0,0.1-0.1,0.1c-0.1,0.3,0.1,0.6,0.4,0.7c0.1,0,0.1,0,0.2,0c-0.3,0.7-0.3,1.4,0,2.1c-0.6-0.4-1.3-0.4-2-0.3
		c0.2,0.5,0.5,1,1,1.4c0.2,0.2,0.5,0.3,0.7,0.4l0,0c0,0,0,0,0.1,0c0,0,0,0,0.1,0c0,0,0.1,0,0.1,0c0,0,0,0,0,0c0,0,0.1,0,0.1,0
		c0,0,0,0,0,0c0,0,0.1,0,0.1,0c0,0,0,0,0,0c0,0,0.1,0,0.1,0l0,0c0,0,0.1,0,0.1,0l0,0c0,0,0.1,0,0.1,0c0,0,0,0,0,0c0,0,0.1,0,0.1,0
		l0,0c0,0,0.1,0,0.1,0c0,0,0,0,0,0c0,0,0.1,0,0.1,0c0,0,0,0,0,0c0,0,0.1,0,0.1,0c-0.1,0-0.1,0.1-0.1,0.2c-0.2,0.3-0.1,0.6,0.2,0.8
		c0,0,0,0,0.1,0c0,0-0.1,0.1-0.1,0.1c0,0,0,0.1,0,0.1c0,0-0.1-0.1-0.1-0.1c-0.3-0.2-0.6-0.1-0.8,0.2c-0.2,0.3-0.1,0.6,0.2,0.8
		c0.3,0.2,0.6,0.1,0.8-0.2c0,0,0,0,0-0.1c0,0,0.1,0.1,0.1,0.1c0,0,0.1,0,0.1,0c0,0-0.1,0.1-0.1,0.1c-0.2,0.3-0.1,0.6,0.2,0.8
		c0.1,0.1,0.2,0.1,0.3,0.1c-0.4,0.6-0.6,1.4-0.4,2.1c-0.5-0.5-1.2-0.6-1.9-0.6c0.1,0.5,0.3,1.1,0.7,1.5c0.2,0.2,0.4,0.4,0.6,0.5l0,0
		c0,0,0,0,0.1,0c0,0,0,0,0,0c0,0,0.1,0,0.1,0c0,0,0,0,0,0c0,0,0.1,0,0.1,0c0,0,0,0,0,0c0,0,0.1,0,0.1,0c0,0,0,0,0,0c0,0,0.1,0,0.1,0
		c0,0,0,0,0,0c0,0,0.1,0,0.1,0c0,0,0,0,0,0c0,0,0.1,0,0.1,0c0,0,0,0,0,0c0,0,0.1,0,0.1,0l0,0c0,0,0,0,0.1,0c0,0-0.1,0.1-0.1,0.1
		c-0.2,0.2-0.2,0.6,0,0.8c0,0,0,0,0.1,0.1c0,0-0.1,0.1-0.1,0.1c0,0,0,0-0.1,0.1c0,0-0.1-0.1-0.1-0.1c-0.2-0.2-0.6-0.2-0.8,0
		c-0.2,0.2-0.2,0.6,0,0.8c0.2,0.2,0.6,0.2,0.8,0c0,0,0,0,0.1-0.1c0,0,0.1,0.1,0.1,0.1c0,0,0,0,0.1,0.1c0,0-0.1,0.1-0.1,0.1
		c-0.2,0.2-0.2,0.6,0,0.8c0.1,0.1,0.2,0.1,0.2,0.1c-0.6,0.5-0.9,1.2-0.9,2c-0.4-0.6-1.1-0.9-1.7-1c-0.1,0.5,0,1.1,0.4,1.6
		c0.1,0.2,0.3,0.4,0.5,0.6l0,0c0,0,0,0,0,0c0,0,0,0,0,0c0,0,0,0,0.1,0.1c0,0,0,0,0,0c0,0,0.1,0,0.1,0.1c0,0,0,0,0,0
		c0,0,0.1,0,0.1,0.1c0,0,0,0,0,0c0,0,0.1,0,0.1,0.1c0,0,0,0,0,0c0,0,0.1,0,0.1,0l0,0c0,0,0.1,0,0.1,0c0,0,0,0,0,0c0,0,0.1,0,0.1,0
		c0,0,0,0,0,0c0,0,0.1,0,0.1,0c0,0,0,0,0,0c0,0,0.1,0,0.1,0c-0.1,0-0.2,0-0.3,0.1c-0.3,0.2-0.3,0.5-0.2,0.8c0,0,0,0,0,0.1
		c0,0-0.1,0-0.1,0.1c0,0-0.1,0-0.1,0.1c0,0,0-0.1-0.1-0.1c-0.2-0.3-0.5-0.3-0.8-0.2c-0.3,0.2-0.3,0.5-0.2,0.8
		c0.2,0.3,0.5,0.3,0.8,0.2c0,0,0,0,0.1,0c0,0,0,0.1,0.1,0.1c0,0,0,0.1,0.1,0.1c0,0-0.1,0-0.1,0.1c-0.3,0.2-0.3,0.5-0.2,0.8
		c0.1,0.1,0.1,0.2,0.2,0.2c-0.7,0.3-1.2,1-1.4,1.7c-0.3-0.7-0.8-1.1-1.4-1.4c-0.2,0.5-0.2,1.1,0,1.7c0.1,0.3,0.2,0.5,0.4,0.7l0,0
		c0,0,0,0,0,0.1c0,0,0,0,0,0c0,0,0,0,0.1,0.1c0,0,0,0,0,0c0,0,0.1,0.1,0.1,0.1c0,0,0,0,0,0c0,0,0,0,0.1,0.1c0,0,0,0,0,0
		c0,0,0.1,0.1,0.1,0.1c0,0,0,0,0,0c0,0,0.1,0.1,0.1,0.1c0,0,0,0,0,0c0,0,0.1,0.1,0.1,0.1c0,0,0,0,0,0c0,0,0.1,0,0.1,0.1l0,0
		c0,0,0.1,0,0.1,0.1c-0.1,0-0.2,0-0.3,0c-0.3,0.1-0.5,0.4-0.4,0.7c0,0,0,0.1,0,0.1c0,0-0.1,0-0.1,0c0,0-0.1,0-0.1,0c0,0,0-0.1,0-0.1
		c-0.1-0.3-0.4-0.5-0.7-0.4c-0.3,0.1-0.5,0.4-0.4,0.7c0.1,0.3,0.4,0.5,0.7,0.4c0,0,0.1,0,0.1,0c0,0,0,0.1,0,0.1c0,0,0,0.1,0,0.1
		c0,0-0.1,0-0.1,0c-0.3,0.1-0.5,0.4-0.4,0.7c0,0.1,0.1,0.2,0.2,0.3c-0.7,0.1-1.4,0.6-1.7,1.2c-0.1-0.7-0.5-1.3-1-1.7
		c-0.3,0.4-0.5,1-0.5,1.6c0,0.3,0.1,0.5,0.1,0.8l0,0c0,0,0,0,0,0.1c0,0,0,0,0,0c0,0,0,0.1,0,0.1c0,0,0,0,0,0c0,0,0,0.1,0.1,0.1
		c0,0,0,0,0,0c0,0,0,0.1,0,0.1c0,0,0,0,0,0c0,0,0,0.1,0.1,0.1c0,0,0,0,0,0c0,0,0,0.1,0.1,0.1c0,0,0,0,0,0c0,0,0.1,0.1,0.1,0.1
		c0,0,0,0,0,0c0,0,0.1,0.1,0.1,0.1c-0.1,0-0.1,0-0.2,0c-0.3,0-0.6,0.2-0.6,0.6c0,0,0,0.1,0,0.1c0,0-0.1,0-0.1,0c0,0-0.1,0-0.1,0
		c0,0,0-0.1,0-0.1c0-0.3-0.2-0.6-0.6-0.6c-0.3,0-0.6,0.2-0.6,0.6c0,0.3,0.2,0.6,0.6,0.6c0,0,0.1,0,0.1,0c0,0,0,0.1,0,0.1
		c0,0,0,0.1,0,0.1c0,0-0.1,0-0.1,0c-0.3,0-0.6,0.2-0.6,0.6c0,0.3,0.2,0.6,0.6,0.6c0.3,0,0.6-0.2,0.6-0.6c0,0,0-0.1,0-0.1
		c0,0,0.1,0,0.1,0c0,0,0.1,0,0.1,0c0,0,0,0.1,0,0.1c0,0.3,0.2,0.6,0.6,0.6c0.3,0,0.6-0.2,0.6-0.6c0-0.3-0.2-0.6-0.6-0.6
		c0,0-0.1,0-0.1,0c0,0,0-0.1,0-0.1c0,0,0-0.1,0-0.1c0,0,0.1,0,0.1,0c0.3,0,0.6-0.2,0.6-0.6c0-0.1,0-0.2-0.1-0.3c0,0,0,0,0,0l0,0l0,0
		c0,0,0.1,0,0.1,0.1l0,0c0,0,0,0,0,0c0,0,0,0,0,0c0,0,0,0,0,0c0,0,0,0,0,0c0,0,0,0,0,0c0,0,0,0,0,0c0,0,0,0,0.1,0c0,0,0,0,0,0
		c0,0,0,0,0.1,0c0,0,0,0,0,0c0,0,0,0,0.1,0c0,0,0,0,0,0c0,0,0,0,0.1,0l0,0c0.3,0.1,0.6,0.2,1,0.2c0.8,0,1.5-0.4,2-1
		c-0.4-0.3-1-0.5-1.5-0.4c-0.1,0-0.3,0-0.4,0c0.5-0.5,0.7-1.1,0.7-1.8c0-0.1,0-0.2,0-0.2c0.1,0.1,0.3,0.1,0.4,0
		c0.3-0.1,0.5-0.4,0.4-0.7c0,0,0-0.1,0-0.1c0,0,0.1,0,0.1,0c0,0,0.1,0,0.1,0c0,0,0,0.1,0,0.1c0.1,0.3,0.4,0.5,0.7,0.4
		c0.3-0.1,0.5-0.4,0.4-0.7c-0.1-0.3-0.4-0.5-0.7-0.4c0,0-0.1,0-0.1,0c0,0,0-0.1,0-0.1c0,0,0-0.1,0-0.1c0,0,0.1,0,0.1,0
		c0.3-0.1,0.5-0.4,0.4-0.7c0-0.1-0.1-0.2-0.2-0.3c0,0,0,0,0,0c0,0,0,0,0,0l0,0c0,0,0.1,0,0.1,0l0,0c0,0,0,0,0,0c0,0,0,0,0.1,0
		c0,0,0,0,0,0c0,0,0,0,0,0c0,0,0,0,0.1,0c0,0,0,0,0,0c0,0,0,0,0.1,0c0,0,0,0,0,0c0,0,0,0,0.1,0c0,0,0,0,0,0c0,0,0,0,0.1,0
		c0,0,0,0,0,0c0,0,0.1,0,0.1,0l0,0c0.3,0,0.6,0,1-0.1c0.8-0.2,1.4-0.8,1.6-1.5c-0.5-0.2-1-0.2-1.6,0c-0.1,0-0.3,0.1-0.4,0.2
		c0.3-0.6,0.4-1.3,0.2-2c0-0.1-0.1-0.2-0.1-0.2c0.1,0,0.3,0,0.4-0.1c0.3-0.2,0.3-0.5,0.2-0.8c0,0,0,0,0-0.1c0,0,0.1,0,0.1-0.1
		c0,0,0.1,0,0.1-0.1c0,0,0,0.1,0.1,0.1c0.2,0.3,0.5,0.3,0.8,0.2c0.3-0.2,0.3-0.5,0.2-0.8c-0.2-0.3-0.5-0.3-0.8-0.2c0,0,0,0-0.1,0
		c0,0,0-0.1-0.1-0.1c0,0,0-0.1-0.1-0.1c0,0,0.1,0,0.1-0.1c0.3-0.2,0.3-0.5,0.2-0.8c-0.1-0.1-0.2-0.2-0.3-0.2c0,0,0,0,0,0l0,0v0
		c0,0,0.1,0,0.1,0v0c0,0,0,0,0,0c0,0,0,0,0.1,0c0,0,0,0,0.1,0c0,0,0,0,0,0c0,0,0,0,0.1,0c0,0,0,0,0,0c0,0,0,0,0.1,0c0,0,0,0,0,0
		c0,0,0.1,0,0.1,0c0,0,0,0,0,0c0,0,0.1,0,0.1,0c0,0,0,0,0,0c0,0,0.1,0,0.1,0c0,0,0,0,0,0c0.3-0.1,0.6-0.2,0.9-0.3
		c0.7-0.4,1.1-1.1,1.2-1.9C69.8,44.4,69.2,44.5,68.7,44.8z"/>
	<path class="st0" d="M36.5,59.7l-1.2-2.8c0-0.1,0-0.1,0.1-0.1l2.5,1.4c0.3,0.4,0.7,0.7,1,1c0.2,0.2,0.6,0.2,0.8,0
		c0.2-0.2,0.2-0.5,0-0.7c-0.4-0.4-0.8-0.8-1.2-1.3l-0.2-2.3c0-0.1,0.1-0.1,0.1,0l2.1,2.2c0.1,0.1,0.1,0,0.1-0.1l-2.6-4.2
		c0,0-0.1,0-0.1,0l-0.9,0.5c0,0,0,0,0,0.1l1.1,3.4c-0.2-0.2-0.4-0.5-0.6-0.8c-1.2-1.6-2.1-3.4-2.8-5.3l0.5-2.1c0-0.1,0.1-0.1,0.1,0
		l1.3,2.7c0,0.1,0.1,0,0.1,0l-1.1-4.9c0,0,0-0.1-0.1,0l-1,0.1c0,0-0.1,0-0.1,0.1l0,3.3c-0.7-2-1.1-4-1.4-6.2l1.1-2.3
		c0-0.1,0.1,0,0.1,0l0.6,2.9c0,0.1,0.1,0.1,0.1,0l0-5c0,0,0-0.1-0.1-0.1l-1-0.1c0,0-0.1,0-0.1,0l-0.9,3.7c-0.1-0.8-0.1-1.6-0.1-2.5
		c0-1.5,0.1-2.9,0.3-4.4l1.6-1.9c0,0,0.1,0,0.1,0l-0.2,3c0,0.1,0.1,0.1,0.1,0l1.3-4.8c0,0,0-0.1,0-0.1L35,32c0,0-0.1,0-0.1,0
		l-1.8,3.3c0.4-2.4,1.1-4.7,2.1-6.7l2.1-1.3c0,0,0.1,0,0.1,0.1l-1,2.8c0,0.1,0.1,0.1,0.1,0.1l2.7-4.2c0,0,0-0.1,0-0.1l-0.8-0.6
		c0,0-0.1,0-0.1,0l-2.6,2.6c0.5-1,1.1-2,1.8-2.9c0.5-0.7,1.1-1.4,1.7-2.1l2.7-2.3c0.1-0.1,0-0.2-0.1-0.1l-1.5,0.8l2.1-2.7
		c0.1-0.1,0-0.2-0.1-0.1l-2.4,2.2l0.6-1.5c0-0.1-0.1-0.1-0.1-0.1l-3.2,4.4l0,0c-0.2,0.2-0.4,0.5-0.5,0.7c-0.7,0.9-1.3,1.9-1.8,3
		l1-3.5c0,0,0-0.1,0-0.1l-1-0.4c0,0-0.1,0-0.1,0l-2.4,4.4c0,0.1,0.1,0.1,0.1,0.1l2-2.3c0,0,0.1,0,0.1,0l-0.1,2.7
		c-0.9,2-1.6,4.2-2.1,6.5l-0.1-3.4c0,0,0-0.1-0.1-0.1l-1-0.1c0,0-0.1,0-0.1,0l-1.1,4.9c0,0.1,0.1,0.1,0.1,0l1.2-2.7
		c0-0.1,0.1,0,0.1,0L32,36c-0.2,1.4-0.3,2.9-0.3,4.4c0,0.7,0,1.4,0.1,2.1l-0.9-3.2c0,0,0,0-0.1,0l-1,0.1c0,0-0.1,0-0.1,0.1l0.3,5
		c0,0.1,0.1,0.1,0.1,0l0.5-3c0-0.1,0.1-0.1,0.1,0l1.2,2.2c0.3,2.6,0.9,5,1.8,7.3l-2.1-3.7c0,0,0,0-0.1,0l-1,0.4c0,0,0,0,0,0.1
		l1.4,4.8c0,0.1,0.1,0.1,0.1,0l-0.2-3c0-0.1,0.1-0.1,0.1,0l2.1,2.3c0.7,1.7,1.6,3.3,2.7,4.8c0.2,0.3,0.5,0.6,0.7,0.9l-2.8-2.5
		c0,0-0.1,0-0.1,0l-0.8,0.7c0,0,0,0.1,0,0.1l2.8,4.1C36.4,59.8,36.5,59.7,36.5,59.7z"/>
	<path class="st0" d="M53.5,60.3l-1.1,2l-3.3-2.1L47.9,62c-3.9-2-7.4-1.9-9.6-1.4c-2.5,0.5-4.1,1.6-4.2,1.8l2.1,2.9l0,0
		c0,0,1.2-0.8,3.1-1.2c2.5-0.5,4.9-0.1,7.4,1.3l1-1.9l3.2,2l1.2-1.9c2.5,1.3,4.9,1.8,6.8,1.8c1.1,0,2.1-0.1,2.9-0.3
		c2.5-0.5,4.1-1.6,4.2-1.8l-2.1-2.9C63.9,60.4,59.4,63.6,53.5,60.3z"/>
</g>
</svg>
