<?xml version="1.0" encoding="utf-8"?>
<!-- Generator: Adobe Illustrator 21.1.0, SVG Export Plug-In . SVG Version: 6.00 Build 0)  -->
<svg version="1.1" id="Camada_1" xmlns="http://www.w3.org/2000/svg" xmlns:xlink="http://www.w3.org/1999/xlink" x="0px" y="0px"
	 viewBox="0 0 100 80" style="enable-background:new 0 0 100 80;" xml:space="preserve">
<style type="text/css">
	.st0{fill:#FFFFFF;}
	.st1{fill:none;stroke:#FFFFFF;stroke-width:3.4169;stroke-linecap:round;stroke-miterlimit:10;}
	.st2{fill:none;stroke:#FFFFFF;stroke-width:1.4762;stroke-linecap:round;stroke-miterlimit:10;}
</style>
<g>
	<g>
		<path class="st0" d="M36.3,17.7c-3.7,0-6.7,3-6.7,6.7s3,6.7,6.7,6.7c3.7,0,6.7-3,6.7-6.7S40.1,17.7,36.3,17.7z M36.3,30.3
			c-3.2,0-5.8-2.6-5.8-5.8s2.6-5.8,5.8-5.8c3.2,0,5.8,2.6,5.8,5.8S39.6,30.3,36.3,30.3z"/>
		<path class="st0" d="M36.3,19.1c-3,0-5.4,2.4-5.4,5.4s2.4,5.4,5.4,5.4c3,0,5.4-2.4,5.4-5.4S39.3,19.1,36.3,19.1z M39,23.6
			l-2.1,1.6c-0.2,0.1-0.4,0.2-0.6,0.2c0,0-0.1,0-0.1,0c-0.2,0-0.5-0.2-0.6-0.4l-2.4-3.2c-0.3-0.4-0.2-1,0.2-1.3
			c0.4-0.3,1-0.2,1.3,0.2l1.8,2.5l1.4-1c0.4-0.3,1-0.2,1.3,0.2C39.5,22.7,39.5,23.3,39,23.6z"/>
	</g>
	<g>
		<path class="st0" d="M36.3,33.9c-3.7,0-6.7,3-6.7,6.7c0,3.7,3,6.7,6.7,6.7c3.7,0,6.7-3,6.7-6.7C43.1,36.9,40.1,33.9,36.3,33.9z
			 M36.3,46.4c-3.2,0-5.8-2.6-5.8-5.8c0-3.2,2.6-5.8,5.8-5.8c3.2,0,5.8,2.6,5.8,5.8C42.2,43.8,39.6,46.4,36.3,46.4z"/>
		<path class="st0" d="M36.3,35.3c-3,0-5.4,2.4-5.4,5.4c0,3,2.4,5.4,5.4,5.4c3,0,5.4-2.4,5.4-5.4C41.7,37.7,39.3,35.3,36.3,35.3z
			 M39.1,41.6h-2.8c-0.3,0-0.6-0.2-0.8-0.4c-0.2-0.3-0.2-0.6-0.1-0.9l1.5-3.9c0.2-0.5,0.7-0.7,1.2-0.5c0.5,0.2,0.7,0.7,0.5,1.2
			l-1,2.6h1.4c0.5,0,0.9,0.4,0.9,0.9C40.1,41.1,39.7,41.6,39.1,41.6z"/>
	</g>
	<g>
		<path class="st0" d="M36.3,48.8c-3.7,0-6.7,3-6.7,6.7c0,3.7,3,6.7,6.7,6.7c3.7,0,6.7-3,6.7-6.7C43.1,51.9,40.1,48.8,36.3,48.8z
			 M36.3,61.4c-3.2,0-5.8-2.6-5.8-5.8s2.6-5.8,5.8-5.8c3.2,0,5.8,2.6,5.8,5.8S39.6,61.4,36.3,61.4z"/>
		<path class="st0" d="M36.3,50.2c-3,0-5.4,2.4-5.4,5.4s2.4,5.4,5.4,5.4c3,0,5.4-2.4,5.4-5.4S39.3,50.2,36.3,50.2z M39.2,57.9
			c-0.3,0.4-0.9,0.5-1.3,0.1l-1.6-1.3L33.7,59c-0.2,0.1-0.4,0.2-0.6,0.2c-0.3,0-0.5-0.1-0.7-0.3c-0.3-0.4-0.3-1,0.1-1.3l3.2-2.7
			c0.3-0.3,0.8-0.3,1.2,0l2.2,1.8C39.5,56.9,39.6,57.5,39.2,57.9z"/>
	</g>
	<g>
		<line class="st1" x1="47.7" y1="20.6" x2="62.9" y2="20.6"/>
		<line class="st2" x1="46.8" y1="25.4" x2="70.4" y2="25.4"/>
		<line class="st2" x1="46.8" y1="28.3" x2="70.4" y2="28.3"/>
	</g>
	<g>
		<line class="st1" x1="47.7" y1="36.7" x2="62.9" y2="36.7"/>
		<line class="st2" x1="46.8" y1="41.6" x2="70.4" y2="41.6"/>
		<line class="st2" x1="46.8" y1="44.5" x2="70.4" y2="44.5"/>
	</g>
	<g>
		<line class="st1" x1="47.7" y1="51.7" x2="62.9" y2="51.7"/>
		<line class="st2" x1="46.8" y1="56.5" x2="70.4" y2="56.5"/>
		<line class="st2" x1="46.8" y1="59.4" x2="70.4" y2="59.4"/>
	</g>
</g>
</svg>
