<?xml version="1.0" encoding="utf-8"?>
<!-- Generator: Adobe Illustrator 19.1.1, SVG Export Plug-In . SVG Version: 6.00 Build 0)  -->
<svg version="1.1" id="Camada_1" xmlns="http://www.w3.org/2000/svg" xmlns:xlink="http://www.w3.org/1999/xlink" x="0px" y="0px"
	 viewBox="-247 380.9 100 80" style="enable-background:new -247 380.9 100 80;" xml:space="preserve">
<style type="text/css">
	.st0{fill:#FFFFFF;}
</style>
<g>
	<g>
		<path class="st0" d="M-169.3,422.9c1,0.1,3.1,0.3,3.9,0.3c1.4,0,1.7-0.1,1.7-0.4c0-0.4-0.1-7.4,0-9.9c0.1-2.5-0.1-9.7-1.8-13.3
			c-1.7-3.6-4.2-4.8-9.7-3.9c0,0-3.4-3.4-7.1,0.1s-5.7,6.4-5.7,13.3c0,6.7,0.1,12.7,0.1,13.3c0,0.4,0,0.8,1.1,1c1,0.1,3.5,0.1,4.8,0
			c0.7,0.7,1.3,1.3,1.7,1.8c1.1,1.1,2.5,2.5,4.3,2.5h0.1c1.8,0,3.4-1.4,4.3-2.5C-170.8,424.4-170.1,423.7-169.3,422.9z
			 M-175.9,426.4h-0.1c-1.4,0-2.7-1.3-3.5-2.2c-1-1-2.4-2.4-3.5-4.1c-0.7-1.1-0.8-2.8-1-4.3c0-0.7-0.1-1.4-0.3-2
			c0-0.6-0.1-1.1-0.1-1.5c-0.1-1.7-0.1-6-0.3-6.4c0,0,2.1,0.7,6.4,0c4.2-0.7,4.5-2.7,4.5-2.7s2.1,3.5,7,2.7c0,0,0.1,2.8,0.1,4.3
			c0,1.5-0.3,3.4-0.6,4.5c0,0.1,0,0.1,0,0.3c-0.1,0.3-0.1,0.7-0.3,1c-0.3,1.7-0.7,3.2-1.4,4.5c-1.1,1.7-2.5,3.1-3.5,4.1
			C-173.2,425.1-174.5,426.4-175.9,426.4z"/>
		<path class="st0" d="M-168.6,431.4l3.1-1.3c-0.3-0.7-0.6-1.8-1-2.5c-0.3-0.4-0.6-1-1-1.5c-0.6,1.7-1.4,4.1-2.4,6.2
			c-1.5,3.6-4.5,9.4-4.5,9.4s0.7,0,2,0c2.4-2.1,5.7-6,6.9-7.4L-168.6,431.4z"/>
		<path class="st0" d="M-166.6,424.3c0.4,0.6,1.1,1.7,1.7,2.5c0.7,1.3,1.4,3.5,1.4,3.6l0.1,0.7l-2,0.8l2.4,2.2l-0.6,0.6
			c-0.1,0.1-3.4,4.1-6.2,6.9c2.5-0.1,5.6-0.4,8-0.8c4.8-1,10.1-3.5,10.1-3.5C-152.1,426.5-165.8,424.4-166.6,424.3z"/>
		<path class="st0" d="M-185.1,426.1c-0.3,0.4-0.7,1-1,1.5c-0.4,0.7-0.8,1.8-1,2.5l3.1,1.3l-3.2,2.9c1.3,1.5,4.5,5.3,6.9,7.4
			c1.1,0,2,0,2,0s-2.8-5.7-4.5-9.4C-183.6,430.1-184.5,427.8-185.1,426.1z"/>
		<path class="st0" d="M-189.4,434l2.4-2.2l-2-0.8l0.1-0.7c0-0.1,0.7-2.4,1.4-3.6c0.6-1,1.3-2.1,1.7-2.5c-1,0.1-14.7,2.2-15.1,13
			c0,0,5.5,2.5,10.1,3.5c2.4,0.6,5.5,0.7,8,0.8c-2.9-2.8-6-6.7-6.2-6.9L-189.4,434z"/>
	</g>
	<g>
		<path class="st0" d="M-227.8,421.6c0.3,0.1,0.6,0.1,0.7,0.1c0.4,0.7,1.1,2.2,1.8,3.5c1.5,2.8,4.1,6.6,6.6,6.7c0.7,0,0.8,0,0.8,0h2
			c0,0,0.1,0,0.8,0c2.5-0.1,5-3.9,6.6-6.7c0.7-1.1,1.4-2.7,1.8-3.5c0.1,0,0.4,0,0.7-0.1c1.1-0.6,2.2-2.2,2.8-4.5
			c0.6-2,0.3-3.8-0.4-4.8c-0.4-0.6-1-0.8-1.5-0.8l0,0c0.1-1,0.3-3.4,0.1-5.3c-0.1-2.5-1.4-8.8-7.1-9.1c-5.7-0.3-10.5-0.8-13.2,3.2
			c0,0-3.4-0.3-4.1,4.3c-0.6,3.5,0.6,5.6,1.4,7c-0.1,0-0.3,0-0.4,0c-0.6,0-1.1,0.3-1.5,0.8c-0.7,1-1,2.8-0.4,4.8
			C-230,419.4-228.9,421-227.8,421.6z M-229.1,413.2c0.1-0.3,0.4-0.3,0.6-0.3c0.6,0,0.7,0.6,0.7,0.8c0,0.4,0.3,0.7,0.7,0.7
			s0.7-0.3,0.7-0.7c0-0.3-0.1-0.7-0.3-1c0-0.4,0.1-1.1,0.1-2c0-1.5-0.3-2.2,0.6-3.5c0.7-1.1,1.4-3.1,1.5-4.6c0,0,2.1,1.7,7.4,1.7
			c5.3,0,6.9-1.1,7.7-0.1c1,1,1,3.2,2.1,4.2c1,0.8,0.7,2.7,0.6,3.9c-0.3,0.4-0.4,0.8-0.4,1.3c0,0.4,0.3,0.7,0.7,0.7l0,0
			c0.4,0,0.7-0.3,0.7-0.7c0-0.3,0.1-0.8,0.7-0.8c0.1,0,0.3,0,0.6,0.3c0.4,0.6,0.7,1.7,0.1,3.6c-0.4,2-1.4,3.2-2.1,3.6
			c-0.1,0.1-0.3,0-0.3,0l-0.6-0.3l-0.3,0.6c0,0-1.1,2.2-2,3.8c-2.5,4.1-4.3,6.2-5.7,6.3c-0.6,0-0.7,0-0.7,0h-2c0,0-0.1,0-0.8,0
			c-1.4-0.1-3.4-2.1-5.5-6c-0.8-1.5-2-3.8-2-3.8l-0.3-0.7l-0.6,0.3c0,0-0.1,0-0.3,0c-0.6-0.3-1.5-1.7-2.1-3.6
			C-229.8,415-229.5,413.8-229.1,413.2z"/>
		<path class="st0" d="M-192,439.2c-2-4.3-10.1-9.9-15.8-10.4c0,0-2.4,4.8-3.5,8.1c-1.1,3.4-2,6-2,6l-2.2-4.8l0.7-1.4
			c0,0,1.1-2-0.1-3.1c-1-0.8-1.7-1-2.1-0.8c-0.4,0-1.1,0-2.1,0.8c-1.3,1.1-0.1,3.1-0.1,3.1l0.7,1.4l-2.2,4.8c0,0-0.7-2.7-2-6
			c-1.1-3.4-3.5-8.1-3.5-8.1c-5.9,0.4-14,6-15.8,10.4c-2,4.3,1.5,5.7,3.4,6.3c7.6,2.1,17.4,2.1,21.6,2.1c4.2,0,14.1,0,21.7-2.1
			C-193.5,445-190.1,443.7-192,439.2z"/>
	</g>
</g>
</svg>
