<?xml version="1.0" encoding="utf-8"?>
<!-- Generator: Adobe Illustrator 21.1.0, SVG Export Plug-In . SVG Version: 6.00 Build 0)  -->
<svg version="1.1" id="Camada_1" xmlns="http://www.w3.org/2000/svg" xmlns:xlink="http://www.w3.org/1999/xlink" x="0px" y="0px"
	 viewBox="0 0 100 80" style="enable-background:new 0 0 100 80;" xml:space="preserve">
<style type="text/css">
	.st0{fill:#FFFFFF;}
</style>
<g>
	<g>
		<path class="st0" d="M71,36.4c1.4-1.2,3.6-1.4,5.2-0.4v-1.8c0-1.4-1.2-2.5-2.5-2.3l0,0l-0.1,0l-11,0c-0.8,0-1.5,0.7-1.5,1.5
			c0,0.8,0.7,1.5,1.5,1.5h9.2l-0.5,0.6C71.2,35.8,71,36.1,71,36.4z"/>
		<circle class="st0" cx="73.9" cy="40" r="3.9"/>
		<path class="st0" d="M62.6,48.1l11.1,0c1.3,0.1,2.5-1,2.5-2.3V44c-1.6,1-3.8,0.8-5.2-0.4c0,0.3,0.1,0.7,0.3,0.9l0.5,0.6h-9.2
			c-0.8,0-1.5,0.6-1.5,1.3c0,0.4,0.1,0.8,0.4,1.1C61.8,47.9,62.2,48.1,62.6,48.1z"/>
	</g>
	<g>
		<path class="st0" d="M29,43.6c-1.4,1.2-3.6,1.4-5.2,0.4v1.8c0,1.4,1.2,2.5,2.5,2.3l0,0l0.1,0l11,0c0.8,0,1.5-0.7,1.5-1.5
			c0-0.8-0.7-1.5-1.5-1.5h-9.2l0.5-0.6C28.8,44.2,29,43.9,29,43.6z"/>
		<circle class="st0" cx="26.1" cy="40" r="3.9"/>
		<path class="st0" d="M37.4,31.9l-11.1,0c-1.3-0.1-2.5,1-2.5,2.3V36c1.6-1,3.8-0.8,5.2,0.4c0-0.3-0.1-0.7-0.3-0.9l-0.5-0.6h9.2
			c0.8,0,1.5-0.6,1.5-1.3c0-0.4-0.1-0.8-0.4-1.1C38.2,32.1,37.8,31.9,37.4,31.9z"/>
	</g>
	<g>
		<path class="st0" d="M46.4,19c-1.2-1.4-1.4-3.6-0.4-5.2h-1.8c-1.4,0-2.5,1.2-2.3,2.5l0,0l0,0.1l0,11c0,0.8,0.7,1.5,1.5,1.5
			c0.8,0,1.5-0.7,1.5-1.5v-9.2l0.6,0.5C45.8,18.8,46.1,19,46.4,19z"/>
		<circle class="st0" cx="50" cy="16.1" r="3.9"/>
		<path class="st0" d="M58.1,27.4l0-11.1c0.1-1.3-1-2.5-2.3-2.5H54c1,1.6,0.8,3.8-0.4,5.2c0.3,0,0.7-0.1,0.9-0.3l0.6-0.5v9.2
			c0,0.8,0.6,1.5,1.3,1.5c0.4,0,0.8-0.1,1.1-0.4C57.9,28.2,58.1,27.8,58.1,27.4z"/>
	</g>
	<g>
		<path class="st0" d="M53.6,61c1.2,1.4,1.4,3.6,0.4,5.2h1.8c1.4,0,2.5-1.2,2.3-2.5l0,0l0-0.1l0-11c0-0.8-0.7-1.5-1.5-1.5
			c-0.8,0-1.5,0.7-1.5,1.5v9.2l-0.6-0.5C54.2,61.2,53.9,61,53.6,61z"/>
		<circle class="st0" cx="50" cy="63.9" r="3.9"/>
		<path class="st0" d="M41.9,52.6l0,11.1c-0.1,1.3,1,2.5,2.3,2.5H46c-1-1.6-0.8-3.8,0.4-5.2c-0.3,0-0.7,0.1-0.9,0.3l-0.6,0.5v-9.2
			c0-0.8-0.6-1.5-1.3-1.5c-0.4,0-0.8,0.1-1.1,0.4C42.1,51.8,41.9,52.2,41.9,52.6z"/>
	</g>
	<g>
		<path class="st0" d="M44.9,52.7c0-0.8-0.6-1.5-1.3-1.5c-0.4,0-0.8,0.1-1.1,0.4c-0.3,0.3-0.5,0.7-0.5,1.1l0,4.9
			c0.9,0.4,1.9,0.8,2.9,1.1V52.7z"/>
		<path class="st0" d="M62.7,44.3h6.1c0.3-1.4,0.5-2.8,0.5-4.3c0-1.5-0.2-2.9-0.5-4.3l-6.2,0c-1.2,0-2.3-1-2.3-2.3
			c0-1.2,1-2.3,2.3-2.3l4.5,0c-1.8-3.6-4.8-6.5-8.3-8.3v4.5c0,0.6-0.3,1.2-0.7,1.7s-1.1,0.6-1.7,0.6c-1.1-0.1-2-1.1-2-2.3v-6.1
			c-1.4-0.3-2.8-0.5-4.3-0.5s-2.9,0.2-4.3,0.5l0,6.2c0,1.2-1,2.3-2.3,2.3c-1.2,0-2.3-1-2.3-2.3l0-4.5c-3.6,1.8-6.5,4.8-8.3,8.3h4.5
			c0.6,0,1.2,0.3,1.7,0.7s0.6,1.1,0.6,1.7c-0.1,1.1-1.1,2-2.3,2h-6.1c-0.3,1.4-0.5,2.8-0.5,4.3c0,1.5,0.2,2.9,0.5,4.3l6.2,0
			c1.2,0,2.3,1,2.3,2.3c0,1.2-1,2.3-2.3,2.3l-4.5,0c1.8,3.6,4.8,6.5,8.3,8.3v-4.5c0-0.6,0.3-1.2,0.7-1.7s1.1-0.6,1.7-0.6
			c1.1,0.1,2,1.1,2,2.3v6.1c1.4,0.3,2.8,0.5,4.3,0.5s2.9-0.2,4.3-0.5l0-6.2c0-1.2,1-2.3,2.3-2.3c1.2,0,2.3,1,2.3,2.3l0,4.5
			c3.6-1.8,6.5-4.8,8.3-8.3h-4.5c-0.6,0-1.2-0.3-1.7-0.7s-0.6-1.1-0.6-1.7C60.5,45.2,61.5,44.3,62.7,44.3z"/>
		<path class="st0" d="M56.6,51.2c-0.8,0-1.5,0.7-1.5,1.5v6c1-0.3,2-0.6,2.9-1.1l0-4.9C58.1,51.8,57.4,51.2,56.6,51.2z"/>
	</g>
</g>
</svg>
