<?xml version="1.0" encoding="utf-8"?>
<!-- Generator: Adobe Illustrator 19.1.1, SVG Export Plug-In . SVG Version: 6.00 Build 0)  -->
<svg version="1.1" id="Camada_1" xmlns="http://www.w3.org/2000/svg" xmlns:xlink="http://www.w3.org/1999/xlink" x="0px" y="0px"
	 viewBox="-247 380.9 100 80" style="enable-background:new -247 380.9 100 80;" xml:space="preserve">
<style type="text/css">
	.st0{fill:#FFFFFF;}
</style>
<g>
	<g>
		<path class="st0" d="M-216.4,421.3l-0.4-1.5h-3.1l-0.6,1.5h-2.7l3.6-10.2h2l3.6,10.2H-216.4z M-218.4,415l-1,2.7h1.8L-218.4,415z"
			/>
		<path class="st0" d="M-205.5,416.3c0,0.4,0,0.7,0,1.1c0,0.4,0,0.7-0.1,1.1c0,0.3-0.1,0.7-0.3,1s-0.3,0.6-0.6,0.8
			c-0.4,0.4-0.8,0.7-1.3,0.8c-0.4,0.1-1,0.3-1.7,0.3c-0.6,0-1.1-0.1-1.7-0.3c-0.4-0.1-0.8-0.4-1.3-0.8c-0.3-0.3-0.4-0.6-0.6-0.8
			s-0.3-0.7-0.3-1s-0.1-0.7-0.1-1.1c0-0.4,0-0.7,0-1.1c0-0.4,0-0.7,0-1.1c0-0.4,0-0.7,0.1-1.1c0-0.3,0.1-0.7,0.3-1
			c0.1-0.3,0.3-0.6,0.6-0.8c0.4-0.4,0.8-0.7,1.3-0.8s1-0.3,1.7-0.3c0.6,0,1.1,0.1,1.7,0.3c0.4,0.1,0.8,0.4,1.3,0.8
			c0.3,0.3,0.4,0.6,0.6,0.8s0.3,0.7,0.3,1s0.1,0.7,0.1,1.1C-205.5,415.5-205.5,415.8-205.5,416.3z M-207.9,416.3c0-0.4,0-0.8,0-1.1
			s0-0.6-0.1-0.7c-0.1-0.1,0-0.3-0.1-0.4c0-0.1-0.1-0.1-0.1-0.3c-0.1-0.1-0.3-0.3-0.4-0.3c-0.1-0.1-0.4-0.1-0.6-0.1
			c-0.1,0-0.4,0-0.6,0.1c-0.1,0.1-0.3,0.1-0.4,0.3c0,0.1-0.1,0.1-0.1,0.3c0,0.1-0.1,0.3-0.1,0.4c0,0.1,0,0.4-0.1,0.7
			c0,0.3,0,0.7,0,1.1c0,0.4,0,0.8,0,1.1s0,0.6,0.1,0.7c0,0.1,0,0.3,0.1,0.4c0,0.1,0.1,0.1,0.1,0.3c0.1,0.1,0.3,0.3,0.4,0.3
			c0.1,0.1,0.4,0.1,0.6,0.1c0.1,0,0.4,0,0.6-0.1c0.1-0.1,0.3-0.1,0.4-0.3c0-0.1,0.1-0.1,0.1-0.3c0-0.1,0.1-0.3,0.1-0.4
			c0-0.1,0-0.4,0.1-0.7C-208,417.1-207.9,416.7-207.9,416.3z"/>
		<path class="st0" d="M-196.4,421.3h-1.8l-3.4-10.2h2.5l1.7,5.7l1.7-5.7h2.7L-196.4,421.3z"/>
		<path class="st0" d="M-191.9,421.3v-10.2h2.5v10.2H-191.9z"/>
		<path class="st0" d="M-183.3,421.3h-1.8l-3.4-10.2h2.5l1.7,5.7l1.7-5.7h2.7L-183.3,421.3z"/>
		<path class="st0" d="M-171.5,416.3c0,0.4,0,0.7,0,1.1c0,0.4,0,0.7-0.1,1.1c0,0.3-0.1,0.7-0.3,1s-0.3,0.6-0.6,0.8
			c-0.4,0.4-0.8,0.7-1.3,0.8c-0.4,0.1-1,0.3-1.7,0.3c-0.6,0-1.1-0.1-1.7-0.3c-0.4-0.1-0.8-0.4-1.3-0.8c-0.3-0.3-0.4-0.6-0.6-0.8
			s-0.3-0.7-0.3-1s-0.1-0.7-0.1-1.1c0-0.4,0-0.7,0-1.1c0-0.4,0-0.7,0-1.1c0-0.4,0-0.7,0.1-1.1c0-0.3,0.1-0.7,0.3-1s0.3-0.6,0.6-0.8
			c0.4-0.4,0.8-0.7,1.3-0.8c0.4-0.1,1-0.3,1.7-0.3c0.6,0,1.1,0.1,1.7,0.3c0.4,0.1,0.8,0.4,1.3,0.8c0.3,0.3,0.4,0.6,0.6,0.8
			s0.3,0.7,0.3,1s0.1,0.7,0.1,1.1C-171.5,415.5-171.5,415.8-171.5,416.3z M-174,416.3c0-0.4,0-0.8,0-1.1s0-0.6-0.1-0.7
			c-0.1-0.1,0-0.3-0.1-0.4c0-0.1-0.1-0.1-0.1-0.3c-0.1-0.1-0.3-0.3-0.4-0.3c-0.1-0.1-0.4-0.1-0.6-0.1c-0.3,0-0.4,0-0.6,0.1
			c-0.1,0.1-0.3,0.1-0.4,0.3c0,0.1-0.1,0.1-0.1,0.3c0,0.1-0.1,0.3-0.1,0.4c0,0.1,0,0.4-0.1,0.7c0,0.3,0,0.7,0,1.1c0,0.4,0,0.8,0,1.1
			s0,0.6,0.1,0.7c0,0.1,0,0.3,0.1,0.4c0,0.1,0.1,0.1,0.1,0.3c0.1,0.1,0.3,0.3,0.4,0.3c0.1,0.1,0.4,0.1,0.6,0.1c0.3,0,0.4,0,0.6-0.1
			c0.1-0.1,0.3-0.1,0.4-0.3c0-0.1,0.1-0.1,0.1-0.3c0-0.1,0.1-0.3,0.1-0.4c0-0.1,0-0.4,0.1-0.7C-174,417.1-174,416.7-174,416.3z"/>
	</g>
	<path class="st0" d="M-162.7,392.7h-68.6c-1.1,0-2.1,1-2.1,2.1v44c0,1.1,1,2.1,2.1,2.1h29.3v5.6h-8.7c-1.4,0-2.7,1.1-2.7,2.7h32.6
		c0-1.4-1.1-2.7-2.7-2.7h-8.7v-5.6h29.3c1.1,0,2.1-1,2.1-2.1v-44C-160.6,393.7-161.6,392.7-162.7,392.7z M-165.2,432.9
		c0,0.7-0.6,1.3-1.3,1.3h-60.9c-0.7,0-1.3-0.6-1.3-1.3v-34.3c0-0.7,0.6-1.3,1.3-1.3h60.9c0.7,0,1.3,0.6,1.3,1.3
		C-165.2,398.6-165.2,432.9-165.2,432.9z"/>
</g>
</svg>
