<?xml version="1.0" encoding="utf-8"?>
<!-- Generator: Adobe Illustrator 21.1.0, SVG Export Plug-In . SVG Version: 6.00 Build 0)  -->
<svg version="1.1" id="Camada_1" xmlns="http://www.w3.org/2000/svg" xmlns:xlink="http://www.w3.org/1999/xlink" x="0px" y="0px"
	 viewBox="0 0 100 80" style="enable-background:new 0 0 100 80;" xml:space="preserve">
<style type="text/css">
	.st0{fill:#FFFFFF;}
</style>
<g>
	<circle class="st0" cx="50" cy="24.3" r="1.1"/>
	<path class="st0" d="M67.2,30.6c0-0.5-0.3-1-0.8-1.2c0,0-0.1,0-0.1,0c-0.1,0-0.1,0-0.2,0c-0.4,0-0.6-0.1-0.8-0.1
		c-0.1,0-0.1,0-0.1,0c-0.6,0-1.2,0.5-1.2,1.2v0.1l3.2,1.9V30.6z"/>
	<path class="st0" d="M52.1,27.3c0-0.7-0.6-1.3-1.3-1.3h-1.5c-0.7,0-1.3,0.6-1.3,1.3v0.4h4.2V27.3z"/>
	<path class="st0" d="M81.4,37.6c0-0.8-0.5-1.5-1.3-1.7c-0.1,0-0.1,0-0.2,0c-0.1,0-0.2,0-0.3,0c-0.6-0.1-1-0.1-1.2-0.1
		c-0.1,0-0.1,0-0.2,0c-1,0-1.7,0.8-1.7,1.7v0.5l4.8,2.8V37.6z"/>
	<polygon class="st0" points="43.4,29.4 43.4,29.4 43.4,29.4 43.4,29.4 	"/>
	<path class="st0" d="M36.1,30.4c0-0.6-0.5-1.2-1.2-1.2c0,0-0.1,0-0.1,0c-0.2,0-0.4,0-0.8,0.1c-0.1,0-0.1,0-0.2,0c0,0-0.1,0-0.1,0
		c-0.5,0.2-0.9,0.6-0.9,1.2v1.8L36.1,30.4L36.1,30.4z"/>
	<polygon class="st0" points="56.6,29.4 56.6,29.4 56.6,29.4 56.6,29.4 	"/>
	<path class="st0" d="M23.4,37.4c0-1-0.8-1.7-1.7-1.7c-0.1,0-0.1,0-0.2,0c-0.2,0-0.6,0-1.2,0.1c-0.1,0-0.2,0-0.3,0
		c-0.1,0-0.1,0-0.2,0c-0.8,0.2-1.3,0.9-1.3,1.7v3.1l4.8-2.8V37.4z"/>
	<path class="st0" d="M30.1,33.7c0-0.8-0.6-1.4-1.4-1.4c-0.1,0-0.1,0-0.2,0c-0.2,0-0.5,0-1,0.1c-0.1,0-0.2,0-0.2,0
		c-0.1,0-0.1,0-0.1,0c-0.6,0.2-1,0.8-1,1.4v2.4l4-2.3V33.7z"/>
	<path class="st0" d="M73.8,33.9c0-0.6-0.4-1.2-1-1.4c-0.1,0-0.1,0-0.1,0c-0.1,0-0.2,0-0.2,0c-0.4-0.1-0.8-0.1-1-0.1
		c-0.1,0-0.1,0-0.2,0c-0.8,0-1.4,0.6-1.4,1.4V34l4,2.3V33.9z"/>
	<circle class="st0" cx="65.7" cy="27.8" r="1"/>
	<circle class="st0" cx="72" cy="30.6" r="1.2"/>
	<circle class="st0" cx="79.2" cy="33.6" r="1.5"/>
	<circle class="st0" cx="34.3" cy="27.8" r="1"/>
	<circle class="st0" cx="28" cy="30.6" r="1.2"/>
	<circle class="st0" cx="20.8" cy="33.6" r="1.5"/>
	<polygon class="st0" points="43.1,29.9 38.4,29.9 15.9,43 27.6,43 	"/>
	<polygon class="st0" points="72.3,56.8 85,56.8 85,44 72.6,44 	"/>
	<rect x="44.2" y="29.9" class="st0" width="11.7" height="7.5"/>
	<polygon class="st0" points="56.9,31.2 56.9,38 71.3,56.2 71.6,43.6 	"/>
	<polygon class="st0" points="72.5,43 84.1,43 61.6,29.9 57,29.9 	"/>
	<polygon class="st0" points="15,44 15,56.8 27.8,56.8 27.5,44 	"/>
	<polygon class="st0" points="28.4,43.6 28.8,56.1 43.2,37.9 43.2,31.2 	"/>
	<polygon class="st0" points="54.8,28.4 45.2,28.4 44.2,28.9 55.8,28.9 	"/>
</g>
</svg>
