<?xml version="1.0" encoding="utf-8"?>
<!-- Generator: Adobe Illustrator 21.1.0, SVG Export Plug-In . SVG Version: 6.00 Build 0)  -->
<svg version="1.1" id="Camada_1" xmlns="http://www.w3.org/2000/svg" xmlns:xlink="http://www.w3.org/1999/xlink" x="0px" y="0px"
	 viewBox="0 0 100 80" style="enable-background:new 0 0 100 80;" xml:space="preserve">
<style type="text/css">
	.st0{fill:#FFFFFF;}
</style>
<g>
	<g>
		<path class="st0" d="M36.1,40.3l-0.3-1.1h-2.2l-0.4,1.1h-1.9l2.6-7.3h1.4l2.6,7.3H36.1z M34.7,35.8l-0.7,1.9h1.3L34.7,35.8z"/>
		<path class="st0" d="M43.9,36.7c0,0.3,0,0.5,0,0.8c0,0.3,0,0.5-0.1,0.8c0,0.2-0.1,0.5-0.2,0.7c-0.1,0.2-0.2,0.4-0.4,0.6
			c-0.3,0.3-0.6,0.5-0.9,0.6c-0.3,0.1-0.7,0.2-1.2,0.2c-0.4,0-0.8-0.1-1.2-0.2c-0.3-0.1-0.6-0.3-0.9-0.6c-0.2-0.2-0.3-0.4-0.4-0.6
			c-0.1-0.2-0.2-0.5-0.2-0.7c0-0.2-0.1-0.5-0.1-0.8c0-0.3,0-0.5,0-0.8s0-0.5,0-0.8c0-0.3,0-0.5,0.1-0.8c0-0.2,0.1-0.5,0.2-0.7
			c0.1-0.2,0.2-0.4,0.4-0.6c0.3-0.3,0.6-0.5,0.9-0.6c0.3-0.1,0.7-0.2,1.2-0.2c0.4,0,0.8,0.1,1.2,0.2c0.3,0.1,0.6,0.3,0.9,0.6
			c0.2,0.2,0.3,0.4,0.4,0.6c0.1,0.2,0.2,0.5,0.2,0.7c0,0.2,0.1,0.5,0.1,0.8C43.9,36.2,43.9,36.4,43.9,36.7z M42.2,36.7
			c0-0.3,0-0.6,0-0.8c0-0.2,0-0.4-0.1-0.5s0-0.2-0.1-0.3c0-0.1-0.1-0.1-0.1-0.2c-0.1-0.1-0.2-0.2-0.3-0.2c-0.1-0.1-0.3-0.1-0.4-0.1
			s-0.3,0-0.4,0.1c-0.1,0.1-0.2,0.1-0.3,0.2c0,0.1-0.1,0.1-0.1,0.2c0,0.1-0.1,0.2-0.1,0.3c0,0.1,0,0.3-0.1,0.5c0,0.2,0,0.5,0,0.8
			c0,0.3,0,0.6,0,0.8c0,0.2,0,0.4,0.1,0.5c0,0.1,0,0.2,0.1,0.3c0,0.1,0.1,0.1,0.1,0.2c0.1,0.1,0.2,0.2,0.3,0.2
			c0.1,0.1,0.3,0.1,0.4,0.1s0.3,0,0.4-0.1c0.1-0.1,0.2-0.1,0.3-0.2c0-0.1,0.1-0.1,0.1-0.2c0-0.1,0.1-0.2,0.1-0.3s0-0.3,0.1-0.5
			C42.1,37.3,42.2,37,42.2,36.7z"/>
		<path class="st0" d="M50.4,40.3h-1.3l-2.4-7.3h1.8l1.2,4.1l1.2-4.1h1.9L50.4,40.3z"/>
		<path class="st0" d="M53.6,40.3v-7.3h1.8v7.3H53.6z"/>
		<path class="st0" d="M59.8,40.3h-1.3l-2.4-7.3h1.8l1.2,4.1l1.2-4.1h1.9L59.8,40.3z"/>
		<path class="st0" d="M68.2,36.7c0,0.3,0,0.5,0,0.8c0,0.3,0,0.5-0.1,0.8c0,0.2-0.1,0.5-0.2,0.7c-0.1,0.2-0.2,0.4-0.4,0.6
			c-0.3,0.3-0.6,0.5-0.9,0.6c-0.3,0.1-0.7,0.2-1.2,0.2c-0.4,0-0.8-0.1-1.2-0.2c-0.3-0.1-0.6-0.3-0.9-0.6c-0.2-0.2-0.3-0.4-0.4-0.6
			c-0.1-0.2-0.2-0.5-0.2-0.7c0-0.2-0.1-0.5-0.1-0.8c0-0.3,0-0.5,0-0.8s0-0.5,0-0.8c0-0.3,0-0.5,0.1-0.8c0-0.2,0.1-0.5,0.2-0.7
			c0.1-0.2,0.2-0.4,0.4-0.6c0.3-0.3,0.6-0.5,0.9-0.6c0.3-0.1,0.7-0.2,1.2-0.2c0.4,0,0.8,0.1,1.2,0.2c0.3,0.1,0.6,0.3,0.9,0.6
			c0.2,0.2,0.3,0.4,0.4,0.6c0.1,0.2,0.2,0.5,0.2,0.7c0,0.2,0.1,0.5,0.1,0.8C68.2,36.2,68.2,36.4,68.2,36.7z M66.4,36.7
			c0-0.3,0-0.6,0-0.8c0-0.2,0-0.4-0.1-0.5s0-0.2-0.1-0.3c0-0.1-0.1-0.1-0.1-0.2c-0.1-0.1-0.2-0.2-0.3-0.2c-0.1-0.1-0.3-0.1-0.4-0.1
			c-0.2,0-0.3,0-0.4,0.1c-0.1,0.1-0.2,0.1-0.3,0.2c0,0.1-0.1,0.1-0.1,0.2s-0.1,0.2-0.1,0.3c0,0.1,0,0.3-0.1,0.5c0,0.2,0,0.5,0,0.8
			c0,0.3,0,0.6,0,0.8c0,0.2,0,0.4,0.1,0.5c0,0.1,0,0.2,0.1,0.3c0,0.1,0.1,0.1,0.1,0.2c0.1,0.1,0.2,0.2,0.3,0.2
			c0.1,0.1,0.3,0.1,0.4,0.1c0.2,0,0.3,0,0.4-0.1c0.1-0.1,0.2-0.1,0.3-0.2c0-0.1,0.1-0.1,0.1-0.2c0-0.1,0.1-0.2,0.1-0.3
			s0-0.3,0.1-0.5C66.4,37.3,66.4,37,66.4,36.7z"/>
	</g>
	<path class="st0" d="M74.5,19.9h-49c-0.8,0-1.5,0.7-1.5,1.5v31.4c0,0.8,0.7,1.5,1.5,1.5h20.9v4h-6.2c-1,0-1.9,0.8-1.9,1.9h23.3
		c0-1-0.8-1.9-1.9-1.9h-6.2v-4h20.9c0.8,0,1.5-0.7,1.5-1.5V21.4C76,20.6,75.3,19.9,74.5,19.9z M72.7,48.6c0,0.5-0.4,0.9-0.9,0.9
		H28.3c-0.5,0-0.9-0.4-0.9-0.9V24.1c0-0.5,0.4-0.9,0.9-0.9h43.5c0.5,0,0.9,0.4,0.9,0.9V48.6z"/>
</g>
</svg>
