<?xml version="1.0" encoding="utf-8"?>
<!-- Generator: Adobe Illustrator 21.1.0, SVG Export Plug-In . SVG Version: 6.00 Build 0)  -->
<svg version="1.1" id="Camada_1" xmlns="http://www.w3.org/2000/svg" xmlns:xlink="http://www.w3.org/1999/xlink" x="0px" y="0px"
	 viewBox="0 0 100 80" style="enable-background:new 0 0 100 80;" xml:space="preserve">
<style type="text/css">
	.st0{fill:#FFFFFF;}
</style>
<g>
	<path class="st0" d="M31.1,30.5v27c0,1.5,1.2,2.8,2.8,2.8h32.2c1.5,0,2.8-1.2,2.8-2.8v-27H31.1z M38.2,56.1c-1.5,0-2.7-1.2-2.7-2.7
		s1.2-2.7,2.7-2.7c1.5,0,2.7,1.2,2.7,2.7S39.7,56.1,38.2,56.1z M38.2,48.1c-1.5,0-2.7-1.2-2.7-2.7s1.2-2.7,2.7-2.7
		c1.5,0,2.7,1.2,2.7,2.7S39.7,48.1,38.2,48.1z M46.1,56.1c-1.5,0-2.7-1.2-2.7-2.7s1.2-2.7,2.7-2.7s2.7,1.2,2.7,2.7
		S47.6,56.1,46.1,56.1z M46.1,48.1c-1.5,0-2.7-1.2-2.7-2.7s1.2-2.7,2.7-2.7s2.7,1.2,2.7,2.7S47.6,48.1,46.1,48.1z M53.9,56.1
		c-1.5,0-2.7-1.2-2.7-2.7s1.2-2.7,2.7-2.7s2.7,1.2,2.7,2.7S55.4,56.1,53.9,56.1z M53.9,48.1c-1.5,0-2.7-1.2-2.7-2.7s1.2-2.7,2.7-2.7
		s2.7,1.2,2.7,2.7S55.4,48.1,53.9,48.1z M53.9,40c-1.5,0-2.7-1.2-2.7-2.7s1.2-2.7,2.7-2.7s2.7,1.2,2.7,2.7S55.4,40,53.9,40z
		 M61.8,56.1c-1.5,0-2.7-1.2-2.7-2.7s1.2-2.7,2.7-2.7s2.7,1.2,2.7,2.7S63.2,56.1,61.8,56.1z M61.8,48.1c-1.5,0-2.7-1.2-2.7-2.7
		s1.2-2.7,2.7-2.7s2.7,1.2,2.7,2.7S63.2,48.1,61.8,48.1z M61.8,40c-1.5,0-2.7-1.2-2.7-2.7s1.2-2.7,2.7-2.7s2.7,1.2,2.7,2.7
		S63.2,40,61.8,40z"/>
	<path class="st0" d="M59.9,25.4c-0.5,0-1-0.4-1-1v-3.7c0-0.5,0.4-1,1-1c0.6,0,1,0.4,1,1v3.7C60.9,24.9,60.5,25.4,59.9,25.4
		L59.9,25.4z"/>
	<path class="st0" d="M66.1,22.5h-4v1.8c0,1.2-1,2.1-2.1,2.1h0c-1.2,0-2.1-1-2.1-2.1v-1.8H42.2v1.8c0,1.2-1,2.1-2.1,2.1h0
		c-1.2,0-2.1-1-2.1-2.1v-1.8h-4c-1.5,0-2.8,1.2-2.8,2.8v3.8h37.7v-3.8C68.9,23.8,67.6,22.5,66.1,22.5z"/>
	<path class="st0" d="M40.1,25.4c-0.5,0-1-0.4-1-1v-3.7c0-0.5,0.4-1,1-1c0.6,0,1,0.4,1,1v3.7C41.1,24.9,40.6,25.4,40.1,25.4
		L40.1,25.4z"/>
</g>
</svg>
