<?xml version="1.0" encoding="utf-8"?>
<!-- Generator: Adobe Illustrator 19.1.1, SVG Export Plug-In . SVG Version: 6.00 Build 0)  -->
<svg version="1.1" id="Camada_1" xmlns="http://www.w3.org/2000/svg" xmlns:xlink="http://www.w3.org/1999/xlink" x="0px" y="0px"
	 viewBox="-247 380.9 100 80" style="enable-background:new -247 380.9 100 80;" xml:space="preserve">
<style type="text/css">
	.st0{fill:#FFFFFF;}
</style>
<g>
	<path class="st0" d="M-198.4,434.8c-11.6,0-21-9.4-21-21s9.4-21,21-21s21,9.4,21,21C-177.3,425.4-186.8,434.8-198.4,434.8z
		 M-198.4,397.6c-8.8,0-16.1,7.3-16.1,16.1s7.3,16.1,16.1,16.1s16.1-7.3,16.1-16.1C-182.3,404.8-189.4,397.6-198.4,397.6z"/>
	<path class="st0" d="M-175.3,442.6l-7.8-13.3c0-0.1-0.1-0.3-0.1-0.3c-2.1,2-4.5,3.6-7.1,4.6l0,0l8,13.3c0.8,1.4,2.2,2.1,3.6,2.1
		c0.7,0,1.5-0.1,2.2-0.6C-174.7,447.2-174,444.7-175.3,442.6z"/>
	<path class="st0" d="M-199.5,411.9c0.3,0,0.7,0.1,0.8,0.4l8.1,7.7c0.3,0.3,0.4,0.6,0.4,1v6.3c0.8-0.6,1.7-1.1,2.5-1.8V421
		c0-1-0.4-2-1.1-2.7l-8.3-7.8c-0.7-0.7-1.7-1-2.5-1h-14c-0.3,0.8-0.4,1.7-0.4,2.5h14.4V411.9z"/>
	<g>
		<polygon class="st0" points="-189,421.6 -200.8,421.6 -200.8,411.4 -198.4,411.4 -198.4,419.2 -189,419.2 		"/>
	</g>
	<g>
		<rect x="-214.9" y="438.1" class="st0" width="9.9" height="2.5"/>
	</g>
	<g>
		<rect x="-214.9" y="434.8" class="st0" width="7.7" height="2.5"/>
	</g>
	<g>
		<path class="st0" d="M-195.3,447.2h-23.8v-34h3.5v1.1c0.4,9.9,9,17.5,19,16.5l1.4-0.1v16.5H-195.3z M-216.7,444.8h19v-11.3
			c-8.7,0.3-16-4.9-19-12.3V444.8z"/>
	</g>
</g>
</svg>
