<?xml version="1.0" encoding="utf-8"?>
<!-- Generator: Adobe Illustrator 21.1.0, SVG Export Plug-In . SVG Version: 6.00 Build 0)  -->
<svg version="1.1" id="Camada_1" xmlns="http://www.w3.org/2000/svg" xmlns:xlink="http://www.w3.org/1999/xlink" x="0px" y="0px"
	 viewBox="0 0 100 80" style="enable-background:new 0 0 100 80;" xml:space="preserve">
<style type="text/css">
	.st0{fill:#FFFFFF;}
</style>
<g>
	<path class="st0" d="M52.1,38.3h-4.3c-2.2,0-4.2-0.6-5.9-1.6v2.5c0,4.1,3.3,7.5,7.5,7.5h1.2c4.1,0,7.5-3.3,7.5-7.5v-2.5
		C56.3,37.8,54.3,38.3,52.1,38.3z"/>
	<path class="st0" d="M57.5,23C57.5,23,57.5,23,57.5,23c-0.1-0.6-0.3-1.1-0.5-1.6c-0.1,0-0.3-0.1-0.3-0.3c0,0,0-0.1,0-0.1
		c-0.1-0.1-0.2-0.3-0.3-0.4c0,0.2-0.1,0.3-0.3,0.3c-0.2,0-0.3-0.1-0.3-0.3s0.1-0.3,0.3-0.3c0,0,0,0,0.1,0c-0.8-1-1.9-1.8-3.1-2.3
		c0,0,0,0.1,0,0.1c0,0.2-0.1,0.3-0.3,0.3s-0.3-0.1-0.3-0.3c0-0.1,0.1-0.2,0.2-0.3c-0.2-0.1-0.4-0.1-0.6-0.2c0,0-0.1,0-0.1,0
		c-0.1,0-0.2,0-0.2-0.1c-0.4-0.1-0.8-0.1-1.2-0.1c0,0.1-0.1,0.2-0.3,0.2c-0.1,0-0.2-0.1-0.3-0.2h-0.8c-0.1,0-0.2,0-0.4,0
		c0,0.1-0.1,0.2-0.3,0.2c-0.1,0-0.2-0.1-0.2-0.2c-0.7,0.1-1.3,0.3-1.9,0.5c0,0,0,0,0,0c0,0.2-0.1,0.3-0.3,0.3c-0.1,0-0.1,0-0.2-0.1
		c-0.1,0.1-0.3,0.1-0.4,0.2c0,0,0.1,0.1,0.1,0.1c0,0.2-0.1,0.3-0.3,0.3c-0.1,0-0.2,0-0.2-0.1c-0.1,0.1-0.3,0.2-0.4,0.3
		c0,0.1,0.1,0.1,0.1,0.2c0,0.2-0.1,0.3-0.3,0.3c-0.1,0-0.2,0-0.2-0.1c-0.1,0.1-0.2,0.2-0.3,0.3c0,0,0,0,0,0c0,0.2-0.1,0.3-0.3,0.3
		c0,0,0,0,0,0c-0.3,0.4-0.6,0.8-0.8,1.3l0,0c0.2,0,0.3,0.1,0.3,0.3s-0.1,0.3-0.3,0.3c-0.1,0-0.2-0.1-0.2-0.1
		c-0.2,0.4-0.3,0.9-0.4,1.4c0.1,0.1,0.1,0.1,0.1,0.2c0,0.1-0.1,0.2-0.2,0.3c0,0.2,0,0.5-0.1,0.7c0.1,0,0.2,0.1,0.2,0.3
		c0,0.1-0.1,0.3-0.3,0.3v0.7c0.1,0,0.3,0.1,0.3,0.3s-0.1,0.3-0.3,0.3v0.7c0.1,0,0.3,0.1,0.3,0.3s-0.1,0.3-0.3,0.3v0.7
		c0.1,0,0.3,0.1,0.3,0.3s-0.1,0.3-0.3,0.3v0.7c0.1,0,0.3,0.1,0.3,0.3s-0.1,0.3-0.3,0.3v0.7c0.1,0,0.3,0.1,0.3,0.3s-0.1,0.3-0.3,0.3
		v0.7c0.1,0,0.3,0.1,0.3,0.3c0,0.1-0.1,0.3-0.3,0.3V33c0.1,0,0.3,0.1,0.3,0.3s-0.1,0.3-0.3,0.3v0.7c0.1,0,0.3,0.1,0.3,0.3
		s-0.1,0.3-0.3,0.3v0.7c0.1,0,0.3,0.1,0.3,0.3s-0.1,0.3-0.3,0.3v0.4c0.4,0.2,0.9,0.5,1.3,0.6c0,0-0.1-0.1-0.1-0.1
		c0-0.2,0.1-0.3,0.3-0.3s0.3,0.1,0.3,0.3c0,0.1-0.1,0.2-0.2,0.2c0.2,0.1,0.4,0.1,0.5,0.2c0,0,0.1-0.1,0.2-0.1c0.1,0,0.2,0.1,0.3,0.2
		c0.4,0.1,0.8,0.2,1.1,0.2c0,0-0.1-0.1-0.1-0.1c0-0.2,0.1-0.3,0.3-0.3s0.3,0.1,0.3,0.3c0,0.1,0,0.1-0.1,0.2c0.4,0.1,0.9,0.1,1.3,0.1
		h0.1c-0.1,0-0.3-0.1-0.3-0.3c0-0.2,0.1-0.3,0.3-0.3s0.3,0.1,0.3,0.3c0,0.1-0.1,0.3-0.3,0.3h0.7c0,0,0,0,0.1,0c0,0,0,0,0.1,0h0.7
		c-0.1,0-0.3-0.1-0.3-0.3c0-0.2,0.1-0.3,0.3-0.3s0.3,0.1,0.3,0.3c0,0.1-0.1,0.3-0.3,0.3h0.7c0,0,0,0,0.1,0s0,0,0.1,0h0.7
		c-0.1,0-0.3-0.1-0.3-0.3c0-0.2,0.1-0.3,0.3-0.3s0.3,0.1,0.3,0.3c0,0.1-0.1,0.3-0.3,0.3H52c0,0,0,0,0.1,0s0,0,0.1,0h0
		c0.2,0,0.4,0,0.6,0c-0.1,0-0.2-0.1-0.2-0.2c0-0.2,0.1-0.3,0.3-0.3s0.3,0.1,0.3,0.3c0,0.1-0.1,0.2-0.1,0.2c0.4,0,0.8-0.1,1.2-0.2
		c0,0,0,0,0-0.1c0-0.2,0.1-0.3,0.3-0.3c0.2,0,0.3,0.1,0.3,0.3c0.6-0.2,1.3-0.4,1.9-0.6c0,0,0,0,0,0c0-0.2,0.1-0.3,0.3-0.3
		c0.1,0,0.1,0,0.2,0.1c0.1-0.1,0.3-0.1,0.4-0.2c0,0-0.1-0.1-0.1-0.1c0-0.1,0.1-0.3,0.3-0.3v-0.7c-0.1,0-0.3-0.1-0.3-0.3
		s0.1-0.3,0.3-0.3v-0.7c-0.1,0-0.3-0.1-0.3-0.3s0.1-0.3,0.3-0.3V33c-0.1,0-0.3-0.1-0.3-0.3s0.1-0.3,0.3-0.3v-0.7
		c-0.1,0-0.3-0.1-0.3-0.3s0.1-0.3,0.3-0.3v-0.7c-0.1,0-0.3-0.1-0.3-0.3s0.1-0.3,0.3-0.3v-0.7c-0.1,0-0.3-0.1-0.3-0.3
		c0-0.1,0.1-0.3,0.3-0.3v-0.7c-0.1,0-0.3-0.1-0.3-0.3s0.1-0.3,0.3-0.3v-0.7c-0.1,0-0.3-0.1-0.3-0.3s0.1-0.3,0.3-0.3v-0.7
		c-0.1,0-0.3-0.1-0.3-0.3s0.1-0.3,0.3-0.3v-0.4c0-0.1,0-0.1,0-0.2c-0.1,0-0.2-0.1-0.2-0.3c0-0.1,0.1-0.2,0.2-0.3
		c0-0.2-0.1-0.5-0.1-0.7C57.5,23.2,57.5,23.1,57.5,23z M43,36.6c-0.2,0-0.3-0.1-0.3-0.3S42.9,36,43,36s0.3,0.1,0.3,0.3
		S43.2,36.6,43,36.6z M43,35.4c-0.2,0-0.3-0.1-0.3-0.3s0.1-0.3,0.3-0.3s0.3,0.1,0.3,0.3S43.2,35.4,43,35.4z M43,34.2
		c-0.2,0-0.3-0.1-0.3-0.3s0.1-0.3,0.3-0.3s0.3,0.1,0.3,0.3S43.2,34.2,43,34.2z M43,33c-0.2,0-0.3-0.1-0.3-0.3s0.1-0.3,0.3-0.3
		s0.3,0.1,0.3,0.3S43.2,33,43,33z M43,31.8c-0.2,0-0.3-0.1-0.3-0.3s0.1-0.3,0.3-0.3s0.3,0.1,0.3,0.3S43.2,31.8,43,31.8z M43,30.6
		c-0.2,0-0.3-0.1-0.3-0.3S42.9,30,43,30s0.3,0.1,0.3,0.3S43.2,30.6,43,30.6z M43,29.4c-0.2,0-0.3-0.1-0.3-0.3c0-0.2,0.1-0.3,0.3-0.3
		s0.3,0.1,0.3,0.3C43.3,29.2,43.2,29.4,43,29.4z M43,28.2c-0.2,0-0.3-0.1-0.3-0.3s0.1-0.3,0.3-0.3s0.3,0.1,0.3,0.3
		S43.2,28.2,43,28.2z M43,26.9c-0.2,0-0.3-0.1-0.3-0.3s0.1-0.3,0.3-0.3s0.3,0.1,0.3,0.3S43.2,26.9,43,26.9z M43,25.7
		c-0.2,0-0.3-0.1-0.3-0.3s0.1-0.3,0.3-0.3s0.3,0.1,0.3,0.3S43.2,25.7,43,25.7z M43,24.5c-0.2,0-0.3-0.1-0.3-0.3s0.1-0.3,0.3-0.3
		s0.3,0.1,0.3,0.3S43.2,24.5,43,24.5z M43,23.3c-0.2,0-0.3-0.1-0.3-0.3s0.1-0.3,0.3-0.3s0.3,0.1,0.3,0.3S43.2,23.3,43,23.3z
		 M43.9,36c-0.2,0-0.3-0.1-0.3-0.3s0.1-0.3,0.3-0.3s0.3,0.1,0.3,0.3S44,36,43.9,36z M43.9,34.8c-0.2,0-0.3-0.1-0.3-0.3
		s0.1-0.3,0.3-0.3s0.3,0.1,0.3,0.3S44,34.8,43.9,34.8z M43.9,33.5c-0.2,0-0.3-0.1-0.3-0.3s0.1-0.3,0.3-0.3s0.3,0.1,0.3,0.3
		S44,33.5,43.9,33.5z M43.9,32.3c-0.2,0-0.3-0.1-0.3-0.3c0-0.2,0.1-0.3,0.3-0.3s0.3,0.1,0.3,0.3C44.2,32.2,44,32.3,43.9,32.3z
		 M43.9,31.1c-0.2,0-0.3-0.1-0.3-0.3s0.1-0.3,0.3-0.3s0.3,0.1,0.3,0.3S44,31.1,43.9,31.1z M43.9,29.9c-0.2,0-0.3-0.1-0.3-0.3
		s0.1-0.3,0.3-0.3s0.3,0.1,0.3,0.3S44,29.9,43.9,29.9z M43.9,28.7c-0.2,0-0.3-0.1-0.3-0.3s0.1-0.3,0.3-0.3s0.3,0.1,0.3,0.3
		S44,28.7,43.9,28.7z M43.9,27.5c-0.2,0-0.3-0.1-0.3-0.3s0.1-0.3,0.3-0.3s0.3,0.1,0.3,0.3S44,27.5,43.9,27.5z M43.9,26.3
		c-0.2,0-0.3-0.1-0.3-0.3s0.1-0.3,0.3-0.3s0.3,0.1,0.3,0.3S44,26.3,43.9,26.3z M43.9,25.1c-0.2,0-0.3-0.1-0.3-0.3s0.1-0.3,0.3-0.3
		s0.3,0.1,0.3,0.3S44,25.1,43.9,25.1z M43.9,23.9c-0.2,0-0.3-0.1-0.3-0.3s0.1-0.3,0.3-0.3s0.3,0.1,0.3,0.3S44,23.9,43.9,23.9z
		 M43.9,22.7c-0.2,0-0.3-0.1-0.3-0.3s0.1-0.3,0.3-0.3s0.3,0.1,0.3,0.3S44,22.7,43.9,22.7z M43.9,21.4c-0.2,0-0.3-0.1-0.3-0.3
		s0.1-0.3,0.3-0.3s0.3,0.1,0.3,0.3S44,21.4,43.9,21.4z M44.7,36.6c-0.2,0-0.3-0.1-0.3-0.3s0.1-0.3,0.3-0.3s0.3,0.1,0.3,0.3
		S44.8,36.6,44.7,36.6z M44.7,35.4c-0.2,0-0.3-0.1-0.3-0.3s0.1-0.3,0.3-0.3s0.3,0.1,0.3,0.3S44.8,35.4,44.7,35.4z M44.7,34.2
		c-0.2,0-0.3-0.1-0.3-0.3s0.1-0.3,0.3-0.3s0.3,0.1,0.3,0.3S44.8,34.2,44.7,34.2z M44.7,33c-0.2,0-0.3-0.1-0.3-0.3s0.1-0.3,0.3-0.3
		s0.3,0.1,0.3,0.3S44.8,33,44.7,33z M44.7,31.8c-0.2,0-0.3-0.1-0.3-0.3s0.1-0.3,0.3-0.3s0.3,0.1,0.3,0.3S44.8,31.8,44.7,31.8z
		 M44.7,30.6c-0.2,0-0.3-0.1-0.3-0.3s0.1-0.3,0.3-0.3s0.3,0.1,0.3,0.3S44.8,30.6,44.7,30.6z M44.7,29.4c-0.2,0-0.3-0.1-0.3-0.3
		c0-0.2,0.1-0.3,0.3-0.3s0.3,0.1,0.3,0.3C45,29.2,44.8,29.4,44.7,29.4z M44.7,28.2c-0.2,0-0.3-0.1-0.3-0.3s0.1-0.3,0.3-0.3
		s0.3,0.1,0.3,0.3S44.8,28.2,44.7,28.2z M44.7,26.9c-0.2,0-0.3-0.1-0.3-0.3s0.1-0.3,0.3-0.3s0.3,0.1,0.3,0.3S44.8,26.9,44.7,26.9z
		 M44.7,25.7c-0.2,0-0.3-0.1-0.3-0.3s0.1-0.3,0.3-0.3s0.3,0.1,0.3,0.3S44.8,25.7,44.7,25.7z M44.7,24.5c-0.2,0-0.3-0.1-0.3-0.3
		s0.1-0.3,0.3-0.3s0.3,0.1,0.3,0.3S44.8,24.5,44.7,24.5z M44.7,23.3c-0.2,0-0.3-0.1-0.3-0.3s0.1-0.3,0.3-0.3S45,22.8,45,23
		S44.8,23.3,44.7,23.3z M44.7,22.1c-0.2,0-0.3-0.1-0.3-0.3s0.1-0.3,0.3-0.3s0.3,0.1,0.3,0.3S44.8,22.1,44.7,22.1z M44.7,20.9
		c-0.2,0-0.3-0.1-0.3-0.3s0.1-0.3,0.3-0.3s0.3,0.1,0.3,0.3S44.8,20.9,44.7,20.9z M45.5,37.2c-0.2,0-0.3-0.1-0.3-0.3s0.1-0.3,0.3-0.3
		s0.3,0.1,0.3,0.3S45.7,37.2,45.5,37.2z M45.5,36c-0.2,0-0.3-0.1-0.3-0.3s0.1-0.3,0.3-0.3s0.3,0.1,0.3,0.3S45.7,36,45.5,36z
		 M45.5,34.8c-0.2,0-0.3-0.1-0.3-0.3s0.1-0.3,0.3-0.3s0.3,0.1,0.3,0.3S45.7,34.8,45.5,34.8z M45.5,33.5c-0.2,0-0.3-0.1-0.3-0.3
		s0.1-0.3,0.3-0.3s0.3,0.1,0.3,0.3S45.7,33.5,45.5,33.5z M45.5,32.3c-0.2,0-0.3-0.1-0.3-0.3c0-0.2,0.1-0.3,0.3-0.3s0.3,0.1,0.3,0.3
		C45.8,32.2,45.7,32.3,45.5,32.3z M45.5,31.1c-0.2,0-0.3-0.1-0.3-0.3s0.1-0.3,0.3-0.3s0.3,0.1,0.3,0.3S45.7,31.1,45.5,31.1z
		 M45.5,29.9c-0.2,0-0.3-0.1-0.3-0.3s0.1-0.3,0.3-0.3s0.3,0.1,0.3,0.3S45.7,29.9,45.5,29.9z M45.5,28.7c-0.2,0-0.3-0.1-0.3-0.3
		s0.1-0.3,0.3-0.3s0.3,0.1,0.3,0.3S45.7,28.7,45.5,28.7z M45.5,27.5c-0.2,0-0.3-0.1-0.3-0.3s0.1-0.3,0.3-0.3s0.3,0.1,0.3,0.3
		S45.7,27.5,45.5,27.5z M45.5,26.3c-0.2,0-0.3-0.1-0.3-0.3s0.1-0.3,0.3-0.3s0.3,0.1,0.3,0.3S45.7,26.3,45.5,26.3z M45.5,25.1
		c-0.2,0-0.3-0.1-0.3-0.3s0.1-0.3,0.3-0.3s0.3,0.1,0.3,0.3S45.7,25.1,45.5,25.1z M45.5,23.9c-0.2,0-0.3-0.1-0.3-0.3s0.1-0.3,0.3-0.3
		s0.3,0.1,0.3,0.3S45.7,23.9,45.5,23.9z M45.5,22.7c-0.2,0-0.3-0.1-0.3-0.3s0.1-0.3,0.3-0.3s0.3,0.1,0.3,0.3S45.7,22.7,45.5,22.7z
		 M45.5,21.4c-0.2,0-0.3-0.1-0.3-0.3s0.1-0.3,0.3-0.3s0.3,0.1,0.3,0.3S45.7,21.4,45.5,21.4z M45.5,20.2c-0.2,0-0.3-0.1-0.3-0.3
		s0.1-0.3,0.3-0.3s0.3,0.1,0.3,0.3S45.7,20.2,45.5,20.2z M46.3,36.6c-0.2,0-0.3-0.1-0.3-0.3s0.1-0.3,0.3-0.3s0.3,0.1,0.3,0.3
		S46.5,36.6,46.3,36.6z M46.3,35.4c-0.2,0-0.3-0.1-0.3-0.3s0.1-0.3,0.3-0.3s0.3,0.1,0.3,0.3S46.5,35.4,46.3,35.4z M46.3,34.2
		c-0.2,0-0.3-0.1-0.3-0.3s0.1-0.3,0.3-0.3s0.3,0.1,0.3,0.3S46.5,34.2,46.3,34.2z M46.3,33c-0.2,0-0.3-0.1-0.3-0.3s0.1-0.3,0.3-0.3
		s0.3,0.1,0.3,0.3S46.5,33,46.3,33z M46.3,31.8c-0.2,0-0.3-0.1-0.3-0.3s0.1-0.3,0.3-0.3s0.3,0.1,0.3,0.3S46.5,31.8,46.3,31.8z
		 M46.3,30.6c-0.2,0-0.3-0.1-0.3-0.3s0.1-0.3,0.3-0.3s0.3,0.1,0.3,0.3S46.5,30.6,46.3,30.6z M46.3,29.4c-0.2,0-0.3-0.1-0.3-0.3
		c0-0.2,0.1-0.3,0.3-0.3s0.3,0.1,0.3,0.3C46.6,29.2,46.5,29.4,46.3,29.4z M46.3,28.2c-0.2,0-0.3-0.1-0.3-0.3s0.1-0.3,0.3-0.3
		s0.3,0.1,0.3,0.3S46.5,28.2,46.3,28.2z M46.3,26.9c-0.2,0-0.3-0.1-0.3-0.3s0.1-0.3,0.3-0.3s0.3,0.1,0.3,0.3S46.5,26.9,46.3,26.9z
		 M46.3,25.7c-0.2,0-0.3-0.1-0.3-0.3s0.1-0.3,0.3-0.3s0.3,0.1,0.3,0.3S46.5,25.7,46.3,25.7z M46.3,24.5c-0.2,0-0.3-0.1-0.3-0.3
		s0.1-0.3,0.3-0.3s0.3,0.1,0.3,0.3S46.5,24.5,46.3,24.5z M46.3,23.3c-0.2,0-0.3-0.1-0.3-0.3s0.1-0.3,0.3-0.3s0.3,0.1,0.3,0.3
		S46.5,23.3,46.3,23.3z M46.3,22.1c-0.2,0-0.3-0.1-0.3-0.3s0.1-0.3,0.3-0.3s0.3,0.1,0.3,0.3S46.5,22.1,46.3,22.1z M46.3,20.9
		c-0.2,0-0.3-0.1-0.3-0.3s0.1-0.3,0.3-0.3s0.3,0.1,0.3,0.3S46.5,20.9,46.3,20.9z M46.3,19.7c-0.2,0-0.3-0.1-0.3-0.3s0.1-0.3,0.3-0.3
		s0.3,0.1,0.3,0.3S46.5,19.7,46.3,19.7z M47.1,37.2c-0.2,0-0.3-0.1-0.3-0.3s0.1-0.3,0.3-0.3s0.3,0.1,0.3,0.3S47.3,37.2,47.1,37.2z
		 M47.1,36c-0.2,0-0.3-0.1-0.3-0.3s0.1-0.3,0.3-0.3s0.3,0.1,0.3,0.3S47.3,36,47.1,36z M47.1,34.8c-0.2,0-0.3-0.1-0.3-0.3
		s0.1-0.3,0.3-0.3s0.3,0.1,0.3,0.3S47.3,34.8,47.1,34.8z M47.1,33.5c-0.2,0-0.3-0.1-0.3-0.3s0.1-0.3,0.3-0.3s0.3,0.1,0.3,0.3
		S47.3,33.5,47.1,33.5z M47.1,32.3c-0.2,0-0.3-0.1-0.3-0.3c0-0.2,0.1-0.3,0.3-0.3s0.3,0.1,0.3,0.3C47.4,32.2,47.3,32.3,47.1,32.3z
		 M47.1,31.1c-0.2,0-0.3-0.1-0.3-0.3s0.1-0.3,0.3-0.3s0.3,0.1,0.3,0.3S47.3,31.1,47.1,31.1z M47.1,29.9c-0.2,0-0.3-0.1-0.3-0.3
		s0.1-0.3,0.3-0.3s0.3,0.1,0.3,0.3S47.3,29.9,47.1,29.9z M47.1,28.7c-0.2,0-0.3-0.1-0.3-0.3s0.1-0.3,0.3-0.3s0.3,0.1,0.3,0.3
		S47.3,28.7,47.1,28.7z M47.1,27.5c-0.2,0-0.3-0.1-0.3-0.3s0.1-0.3,0.3-0.3s0.3,0.1,0.3,0.3S47.3,27.5,47.1,27.5z M47.1,26.3
		c-0.2,0-0.3-0.1-0.3-0.3s0.1-0.3,0.3-0.3s0.3,0.1,0.3,0.3S47.3,26.3,47.1,26.3z M47.1,25.1c-0.2,0-0.3-0.1-0.3-0.3s0.1-0.3,0.3-0.3
		s0.3,0.1,0.3,0.3S47.3,25.1,47.1,25.1z M47.1,23.9c-0.2,0-0.3-0.1-0.3-0.3s0.1-0.3,0.3-0.3s0.3,0.1,0.3,0.3S47.3,23.9,47.1,23.9z
		 M47.1,22.7c-0.2,0-0.3-0.1-0.3-0.3s0.1-0.3,0.3-0.3s0.3,0.1,0.3,0.3S47.3,22.7,47.1,22.7z M47.1,21.4c-0.2,0-0.3-0.1-0.3-0.3
		s0.1-0.3,0.3-0.3s0.3,0.1,0.3,0.3S47.3,21.4,47.1,21.4z M47.1,20.2c-0.2,0-0.3-0.1-0.3-0.3s0.1-0.3,0.3-0.3s0.3,0.1,0.3,0.3
		S47.3,20.2,47.1,20.2z M47.1,19c-0.2,0-0.3-0.1-0.3-0.3s0.1-0.3,0.3-0.3s0.3,0.1,0.3,0.3S47.3,19,47.1,19z M48,36.6
		c-0.2,0-0.3-0.1-0.3-0.3S47.8,36,48,36s0.3,0.1,0.3,0.3S48.1,36.6,48,36.6z M48,35.4c-0.2,0-0.3-0.1-0.3-0.3s0.1-0.3,0.3-0.3
		s0.3,0.1,0.3,0.3S48.1,35.4,48,35.4z M48,34.2c-0.2,0-0.3-0.1-0.3-0.3s0.1-0.3,0.3-0.3s0.3,0.1,0.3,0.3S48.1,34.2,48,34.2z M48,33
		c-0.2,0-0.3-0.1-0.3-0.3s0.1-0.3,0.3-0.3s0.3,0.1,0.3,0.3S48.1,33,48,33z M48,31.8c-0.2,0-0.3-0.1-0.3-0.3s0.1-0.3,0.3-0.3
		s0.3,0.1,0.3,0.3S48.1,31.8,48,31.8z M48,30.6c-0.2,0-0.3-0.1-0.3-0.3S47.8,30,48,30s0.3,0.1,0.3,0.3S48.1,30.6,48,30.6z M48,29.4
		c-0.2,0-0.3-0.1-0.3-0.3c0-0.2,0.1-0.3,0.3-0.3s0.3,0.1,0.3,0.3C48.3,29.2,48.1,29.4,48,29.4z M48,28.2c-0.2,0-0.3-0.1-0.3-0.3
		s0.1-0.3,0.3-0.3s0.3,0.1,0.3,0.3S48.1,28.2,48,28.2z M48,26.9c-0.2,0-0.3-0.1-0.3-0.3s0.1-0.3,0.3-0.3s0.3,0.1,0.3,0.3
		S48.1,26.9,48,26.9z M48,25.7c-0.2,0-0.3-0.1-0.3-0.3s0.1-0.3,0.3-0.3s0.3,0.1,0.3,0.3S48.1,25.7,48,25.7z M48,24.5
		c-0.2,0-0.3-0.1-0.3-0.3s0.1-0.3,0.3-0.3s0.3,0.1,0.3,0.3S48.1,24.5,48,24.5z M48,23.3c-0.2,0-0.3-0.1-0.3-0.3s0.1-0.3,0.3-0.3
		s0.3,0.1,0.3,0.3S48.1,23.3,48,23.3z M48,22.1c-0.2,0-0.3-0.1-0.3-0.3s0.1-0.3,0.3-0.3s0.3,0.1,0.3,0.3S48.1,22.1,48,22.1z
		 M48,20.9c-0.2,0-0.3-0.1-0.3-0.3s0.1-0.3,0.3-0.3s0.3,0.1,0.3,0.3S48.1,20.9,48,20.9z M48,19.7c-0.2,0-0.3-0.1-0.3-0.3
		s0.1-0.3,0.3-0.3s0.3,0.1,0.3,0.3S48.1,19.7,48,19.7z M48,18.5c-0.2,0-0.3-0.1-0.3-0.3s0.1-0.3,0.3-0.3s0.3,0.1,0.3,0.3
		S48.1,18.5,48,18.5z M48.8,37.2c-0.2,0-0.3-0.1-0.3-0.3s0.1-0.3,0.3-0.3s0.3,0.1,0.3,0.3S48.9,37.2,48.8,37.2z M48.8,36
		c-0.2,0-0.3-0.1-0.3-0.3s0.1-0.3,0.3-0.3s0.3,0.1,0.3,0.3S48.9,36,48.8,36z M48.8,34.8c-0.2,0-0.3-0.1-0.3-0.3s0.1-0.3,0.3-0.3
		s0.3,0.1,0.3,0.3S48.9,34.8,48.8,34.8z M48.8,33.5c-0.2,0-0.3-0.1-0.3-0.3s0.1-0.3,0.3-0.3s0.3,0.1,0.3,0.3S48.9,33.5,48.8,33.5z
		 M48.8,32.3c-0.2,0-0.3-0.1-0.3-0.3c0-0.2,0.1-0.3,0.3-0.3s0.3,0.1,0.3,0.3C49.1,32.2,48.9,32.3,48.8,32.3z M48.8,31.1
		c-0.2,0-0.3-0.1-0.3-0.3s0.1-0.3,0.3-0.3s0.3,0.1,0.3,0.3S48.9,31.1,48.8,31.1z M48.8,29.9c-0.2,0-0.3-0.1-0.3-0.3s0.1-0.3,0.3-0.3
		s0.3,0.1,0.3,0.3S48.9,29.9,48.8,29.9z M48.8,28.7c-0.2,0-0.3-0.1-0.3-0.3s0.1-0.3,0.3-0.3s0.3,0.1,0.3,0.3S48.9,28.7,48.8,28.7z
		 M48.8,27.5c-0.2,0-0.3-0.1-0.3-0.3s0.1-0.3,0.3-0.3s0.3,0.1,0.3,0.3S48.9,27.5,48.8,27.5z M48.8,26.3c-0.2,0-0.3-0.1-0.3-0.3
		s0.1-0.3,0.3-0.3s0.3,0.1,0.3,0.3S48.9,26.3,48.8,26.3z M48.8,25.1c-0.2,0-0.3-0.1-0.3-0.3s0.1-0.3,0.3-0.3s0.3,0.1,0.3,0.3
		S48.9,25.1,48.8,25.1z M48.8,23.9c-0.2,0-0.3-0.1-0.3-0.3s0.1-0.3,0.3-0.3s0.3,0.1,0.3,0.3S48.9,23.9,48.8,23.9z M48.8,22.7
		c-0.2,0-0.3-0.1-0.3-0.3s0.1-0.3,0.3-0.3s0.3,0.1,0.3,0.3S48.9,22.7,48.8,22.7z M48.8,21.4c-0.2,0-0.3-0.1-0.3-0.3s0.1-0.3,0.3-0.3
		s0.3,0.1,0.3,0.3S48.9,21.4,48.8,21.4z M48.8,20.2c-0.2,0-0.3-0.1-0.3-0.3s0.1-0.3,0.3-0.3s0.3,0.1,0.3,0.3S48.9,20.2,48.8,20.2z
		 M48.8,19c-0.2,0-0.3-0.1-0.3-0.3s0.1-0.3,0.3-0.3s0.3,0.1,0.3,0.3S48.9,19,48.8,19z M49.6,36.6c-0.2,0-0.3-0.1-0.3-0.3
		s0.1-0.3,0.3-0.3s0.3,0.1,0.3,0.3S49.8,36.6,49.6,36.6z M49.6,35.4c-0.2,0-0.3-0.1-0.3-0.3s0.1-0.3,0.3-0.3s0.3,0.1,0.3,0.3
		S49.8,35.4,49.6,35.4z M49.6,34.2c-0.2,0-0.3-0.1-0.3-0.3s0.1-0.3,0.3-0.3s0.3,0.1,0.3,0.3S49.8,34.2,49.6,34.2z M49.6,33
		c-0.2,0-0.3-0.1-0.3-0.3s0.1-0.3,0.3-0.3s0.3,0.1,0.3,0.3S49.8,33,49.6,33z M49.6,31.8c-0.2,0-0.3-0.1-0.3-0.3s0.1-0.3,0.3-0.3
		s0.3,0.1,0.3,0.3S49.8,31.8,49.6,31.8z M49.6,30.6c-0.2,0-0.3-0.1-0.3-0.3s0.1-0.3,0.3-0.3s0.3,0.1,0.3,0.3S49.8,30.6,49.6,30.6z
		 M49.6,29.4c-0.2,0-0.3-0.1-0.3-0.3c0-0.2,0.1-0.3,0.3-0.3s0.3,0.1,0.3,0.3C49.9,29.2,49.8,29.4,49.6,29.4z M49.6,28.2
		c-0.2,0-0.3-0.1-0.3-0.3s0.1-0.3,0.3-0.3s0.3,0.1,0.3,0.3S49.8,28.2,49.6,28.2z M49.6,26.9c-0.2,0-0.3-0.1-0.3-0.3s0.1-0.3,0.3-0.3
		s0.3,0.1,0.3,0.3S49.8,26.9,49.6,26.9z M49.6,25.7c-0.2,0-0.3-0.1-0.3-0.3s0.1-0.3,0.3-0.3s0.3,0.1,0.3,0.3S49.8,25.7,49.6,25.7z
		 M49.6,24.5c-0.2,0-0.3-0.1-0.3-0.3s0.1-0.3,0.3-0.3s0.3,0.1,0.3,0.3S49.8,24.5,49.6,24.5z M49.6,23.3c-0.2,0-0.3-0.1-0.3-0.3
		s0.1-0.3,0.3-0.3s0.3,0.1,0.3,0.3S49.8,23.3,49.6,23.3z M49.6,22.1c-0.2,0-0.3-0.1-0.3-0.3s0.1-0.3,0.3-0.3s0.3,0.1,0.3,0.3
		S49.8,22.1,49.6,22.1z M49.6,20.9c-0.2,0-0.3-0.1-0.3-0.3s0.1-0.3,0.3-0.3s0.3,0.1,0.3,0.3S49.8,20.9,49.6,20.9z M49.6,19.7
		c-0.2,0-0.3-0.1-0.3-0.3s0.1-0.3,0.3-0.3s0.3,0.1,0.3,0.3S49.8,19.7,49.6,19.7z M49.6,18.5c-0.2,0-0.3-0.1-0.3-0.3s0.1-0.3,0.3-0.3
		s0.3,0.1,0.3,0.3S49.8,18.5,49.6,18.5z M50.4,37.2c-0.2,0-0.3-0.1-0.3-0.3s0.1-0.3,0.3-0.3s0.3,0.1,0.3,0.3S50.6,37.2,50.4,37.2z
		 M50.4,36c-0.2,0-0.3-0.1-0.3-0.3s0.1-0.3,0.3-0.3s0.3,0.1,0.3,0.3S50.6,36,50.4,36z M50.4,34.8c-0.2,0-0.3-0.1-0.3-0.3
		s0.1-0.3,0.3-0.3s0.3,0.1,0.3,0.3S50.6,34.8,50.4,34.8z M50.4,33.5c-0.2,0-0.3-0.1-0.3-0.3s0.1-0.3,0.3-0.3s0.3,0.1,0.3,0.3
		S50.6,33.5,50.4,33.5z M50.4,32.3c-0.2,0-0.3-0.1-0.3-0.3c0-0.2,0.1-0.3,0.3-0.3s0.3,0.1,0.3,0.3C50.7,32.2,50.6,32.3,50.4,32.3z
		 M50.4,31.1c-0.2,0-0.3-0.1-0.3-0.3s0.1-0.3,0.3-0.3s0.3,0.1,0.3,0.3S50.6,31.1,50.4,31.1z M50.4,29.9c-0.2,0-0.3-0.1-0.3-0.3
		s0.1-0.3,0.3-0.3s0.3,0.1,0.3,0.3S50.6,29.9,50.4,29.9z M50.4,28.7c-0.2,0-0.3-0.1-0.3-0.3s0.1-0.3,0.3-0.3s0.3,0.1,0.3,0.3
		S50.6,28.7,50.4,28.7z M50.4,27.5c-0.2,0-0.3-0.1-0.3-0.3s0.1-0.3,0.3-0.3s0.3,0.1,0.3,0.3S50.6,27.5,50.4,27.5z M50.4,26.3
		c-0.2,0-0.3-0.1-0.3-0.3s0.1-0.3,0.3-0.3s0.3,0.1,0.3,0.3S50.6,26.3,50.4,26.3z M50.4,25.1c-0.2,0-0.3-0.1-0.3-0.3s0.1-0.3,0.3-0.3
		s0.3,0.1,0.3,0.3S50.6,25.1,50.4,25.1z M50.4,23.9c-0.2,0-0.3-0.1-0.3-0.3s0.1-0.3,0.3-0.3s0.3,0.1,0.3,0.3S50.6,23.9,50.4,23.9z
		 M50.4,22.7c-0.2,0-0.3-0.1-0.3-0.3s0.1-0.3,0.3-0.3s0.3,0.1,0.3,0.3S50.6,22.7,50.4,22.7z M50.4,21.4c-0.2,0-0.3-0.1-0.3-0.3
		s0.1-0.3,0.3-0.3s0.3,0.1,0.3,0.3S50.6,21.4,50.4,21.4z M50.4,20.2c-0.2,0-0.3-0.1-0.3-0.3s0.1-0.3,0.3-0.3s0.3,0.1,0.3,0.3
		S50.6,20.2,50.4,20.2z M50.4,19c-0.2,0-0.3-0.1-0.3-0.3s0.1-0.3,0.3-0.3s0.3,0.1,0.3,0.3S50.6,19,50.4,19z M51.2,36.6
		c-0.2,0-0.3-0.1-0.3-0.3s0.1-0.3,0.3-0.3s0.3,0.1,0.3,0.3S51.4,36.6,51.2,36.6z M51.2,35.4c-0.2,0-0.3-0.1-0.3-0.3s0.1-0.3,0.3-0.3
		s0.3,0.1,0.3,0.3S51.4,35.4,51.2,35.4z M51.2,34.2c-0.2,0-0.3-0.1-0.3-0.3s0.1-0.3,0.3-0.3s0.3,0.1,0.3,0.3S51.4,34.2,51.2,34.2z
		 M51.2,33c-0.2,0-0.3-0.1-0.3-0.3s0.1-0.3,0.3-0.3s0.3,0.1,0.3,0.3S51.4,33,51.2,33z M51.2,31.8c-0.2,0-0.3-0.1-0.3-0.3
		s0.1-0.3,0.3-0.3s0.3,0.1,0.3,0.3S51.4,31.8,51.2,31.8z M51.2,30.6c-0.2,0-0.3-0.1-0.3-0.3s0.1-0.3,0.3-0.3s0.3,0.1,0.3,0.3
		S51.4,30.6,51.2,30.6z M51.2,29.4c-0.2,0-0.3-0.1-0.3-0.3c0-0.2,0.1-0.3,0.3-0.3s0.3,0.1,0.3,0.3C51.5,29.2,51.4,29.4,51.2,29.4z
		 M51.2,28.2c-0.2,0-0.3-0.1-0.3-0.3s0.1-0.3,0.3-0.3s0.3,0.1,0.3,0.3S51.4,28.2,51.2,28.2z M51.2,26.9c-0.2,0-0.3-0.1-0.3-0.3
		s0.1-0.3,0.3-0.3s0.3,0.1,0.3,0.3S51.4,26.9,51.2,26.9z M51.2,25.7c-0.2,0-0.3-0.1-0.3-0.3s0.1-0.3,0.3-0.3s0.3,0.1,0.3,0.3
		S51.4,25.7,51.2,25.7z M51.2,24.5c-0.2,0-0.3-0.1-0.3-0.3s0.1-0.3,0.3-0.3s0.3,0.1,0.3,0.3S51.4,24.5,51.2,24.5z M51.2,23.3
		c-0.2,0-0.3-0.1-0.3-0.3s0.1-0.3,0.3-0.3s0.3,0.1,0.3,0.3S51.4,23.3,51.2,23.3z M51.2,22.1c-0.2,0-0.3-0.1-0.3-0.3s0.1-0.3,0.3-0.3
		s0.3,0.1,0.3,0.3S51.4,22.1,51.2,22.1z M51.2,20.9c-0.2,0-0.3-0.1-0.3-0.3s0.1-0.3,0.3-0.3s0.3,0.1,0.3,0.3S51.4,20.9,51.2,20.9z
		 M51.2,19.7c-0.2,0-0.3-0.1-0.3-0.3s0.1-0.3,0.3-0.3s0.3,0.1,0.3,0.3S51.4,19.7,51.2,19.7z M51.2,18.5c-0.2,0-0.3-0.1-0.3-0.3
		s0.1-0.3,0.3-0.3s0.3,0.1,0.3,0.3S51.4,18.5,51.2,18.5z M52,37.2c-0.2,0-0.3-0.1-0.3-0.3s0.1-0.3,0.3-0.3s0.3,0.1,0.3,0.3
		S52.2,37.2,52,37.2z M52,36c-0.2,0-0.3-0.1-0.3-0.3s0.1-0.3,0.3-0.3s0.3,0.1,0.3,0.3S52.2,36,52,36z M52,34.8
		c-0.2,0-0.3-0.1-0.3-0.3s0.1-0.3,0.3-0.3s0.3,0.1,0.3,0.3S52.2,34.8,52,34.8z M52,33.5c-0.2,0-0.3-0.1-0.3-0.3s0.1-0.3,0.3-0.3
		s0.3,0.1,0.3,0.3S52.2,33.5,52,33.5z M52,32.3c-0.2,0-0.3-0.1-0.3-0.3c0-0.2,0.1-0.3,0.3-0.3s0.3,0.1,0.3,0.3
		C52.3,32.2,52.2,32.3,52,32.3z M52,31.1c-0.2,0-0.3-0.1-0.3-0.3s0.1-0.3,0.3-0.3s0.3,0.1,0.3,0.3S52.2,31.1,52,31.1z M52,29.9
		c-0.2,0-0.3-0.1-0.3-0.3s0.1-0.3,0.3-0.3s0.3,0.1,0.3,0.3S52.2,29.9,52,29.9z M52,28.7c-0.2,0-0.3-0.1-0.3-0.3s0.1-0.3,0.3-0.3
		s0.3,0.1,0.3,0.3S52.2,28.7,52,28.7z M52,27.5c-0.2,0-0.3-0.1-0.3-0.3s0.1-0.3,0.3-0.3s0.3,0.1,0.3,0.3S52.2,27.5,52,27.5z
		 M52,26.3c-0.2,0-0.3-0.1-0.3-0.3s0.1-0.3,0.3-0.3s0.3,0.1,0.3,0.3S52.2,26.3,52,26.3z M52,25.1c-0.2,0-0.3-0.1-0.3-0.3
		s0.1-0.3,0.3-0.3s0.3,0.1,0.3,0.3S52.2,25.1,52,25.1z M52,23.9c-0.2,0-0.3-0.1-0.3-0.3s0.1-0.3,0.3-0.3s0.3,0.1,0.3,0.3
		S52.2,23.9,52,23.9z M52,22.7c-0.2,0-0.3-0.1-0.3-0.3s0.1-0.3,0.3-0.3s0.3,0.1,0.3,0.3S52.2,22.7,52,22.7z M52,21.4
		c-0.2,0-0.3-0.1-0.3-0.3s0.1-0.3,0.3-0.3s0.3,0.1,0.3,0.3S52.2,21.4,52,21.4z M52,20.2c-0.2,0-0.3-0.1-0.3-0.3s0.1-0.3,0.3-0.3
		s0.3,0.1,0.3,0.3S52.2,20.2,52,20.2z M52,19c-0.2,0-0.3-0.1-0.3-0.3s0.1-0.3,0.3-0.3s0.3,0.1,0.3,0.3S52.2,19,52,19z M52.9,36.6
		c-0.2,0-0.3-0.1-0.3-0.3s0.1-0.3,0.3-0.3s0.3,0.1,0.3,0.3S53,36.6,52.9,36.6z M52.9,35.4c-0.2,0-0.3-0.1-0.3-0.3s0.1-0.3,0.3-0.3
		s0.3,0.1,0.3,0.3S53,35.4,52.9,35.4z M52.9,34.2c-0.2,0-0.3-0.1-0.3-0.3s0.1-0.3,0.3-0.3s0.3,0.1,0.3,0.3S53,34.2,52.9,34.2z
		 M52.9,33c-0.2,0-0.3-0.1-0.3-0.3s0.1-0.3,0.3-0.3s0.3,0.1,0.3,0.3S53,33,52.9,33z M52.9,31.8c-0.2,0-0.3-0.1-0.3-0.3
		s0.1-0.3,0.3-0.3s0.3,0.1,0.3,0.3S53,31.8,52.9,31.8z M52.9,30.6c-0.2,0-0.3-0.1-0.3-0.3s0.1-0.3,0.3-0.3s0.3,0.1,0.3,0.3
		S53,30.6,52.9,30.6z M52.9,29.4c-0.2,0-0.3-0.1-0.3-0.3c0-0.2,0.1-0.3,0.3-0.3s0.3,0.1,0.3,0.3C53.2,29.2,53,29.4,52.9,29.4z
		 M52.9,28.2c-0.2,0-0.3-0.1-0.3-0.3s0.1-0.3,0.3-0.3s0.3,0.1,0.3,0.3S53,28.2,52.9,28.2z M52.9,26.9c-0.2,0-0.3-0.1-0.3-0.3
		s0.1-0.3,0.3-0.3s0.3,0.1,0.3,0.3S53,26.9,52.9,26.9z M52.9,25.7c-0.2,0-0.3-0.1-0.3-0.3s0.1-0.3,0.3-0.3s0.3,0.1,0.3,0.3
		S53,25.7,52.9,25.7z M52.9,24.5c-0.2,0-0.3-0.1-0.3-0.3s0.1-0.3,0.3-0.3s0.3,0.1,0.3,0.3S53,24.5,52.9,24.5z M52.9,23.3
		c-0.2,0-0.3-0.1-0.3-0.3s0.1-0.3,0.3-0.3s0.3,0.1,0.3,0.3S53,23.3,52.9,23.3z M52.9,22.1c-0.2,0-0.3-0.1-0.3-0.3s0.1-0.3,0.3-0.3
		s0.3,0.1,0.3,0.3S53,22.1,52.9,22.1z M52.9,20.9c-0.2,0-0.3-0.1-0.3-0.3s0.1-0.3,0.3-0.3s0.3,0.1,0.3,0.3S53,20.9,52.9,20.9z
		 M52.9,19.7c-0.2,0-0.3-0.1-0.3-0.3s0.1-0.3,0.3-0.3s0.3,0.1,0.3,0.3S53,19.7,52.9,19.7z M53.7,37.2c-0.2,0-0.3-0.1-0.3-0.3
		s0.1-0.3,0.3-0.3s0.3,0.1,0.3,0.3S53.8,37.2,53.7,37.2z M53.7,36c-0.2,0-0.3-0.1-0.3-0.3s0.1-0.3,0.3-0.3s0.3,0.1,0.3,0.3
		S53.8,36,53.7,36z M53.7,34.8c-0.2,0-0.3-0.1-0.3-0.3s0.1-0.3,0.3-0.3s0.3,0.1,0.3,0.3S53.8,34.8,53.7,34.8z M53.7,33.5
		c-0.2,0-0.3-0.1-0.3-0.3s0.1-0.3,0.3-0.3s0.3,0.1,0.3,0.3S53.8,33.5,53.7,33.5z M53.7,32.3c-0.2,0-0.3-0.1-0.3-0.3
		c0-0.2,0.1-0.3,0.3-0.3S54,31.9,54,32C54,32.2,53.8,32.3,53.7,32.3z M53.7,31.1c-0.2,0-0.3-0.1-0.3-0.3s0.1-0.3,0.3-0.3
		s0.3,0.1,0.3,0.3S53.8,31.1,53.7,31.1z M53.7,29.9c-0.2,0-0.3-0.1-0.3-0.3s0.1-0.3,0.3-0.3s0.3,0.1,0.3,0.3S53.8,29.9,53.7,29.9z
		 M53.7,28.7c-0.2,0-0.3-0.1-0.3-0.3s0.1-0.3,0.3-0.3s0.3,0.1,0.3,0.3S53.8,28.7,53.7,28.7z M53.7,27.5c-0.2,0-0.3-0.1-0.3-0.3
		s0.1-0.3,0.3-0.3S54,27,54,27.2S53.8,27.5,53.7,27.5z M53.7,26.3c-0.2,0-0.3-0.1-0.3-0.3s0.1-0.3,0.3-0.3S54,25.8,54,26
		S53.8,26.3,53.7,26.3z M53.7,25.1c-0.2,0-0.3-0.1-0.3-0.3s0.1-0.3,0.3-0.3s0.3,0.1,0.3,0.3S53.8,25.1,53.7,25.1z M53.7,23.9
		c-0.2,0-0.3-0.1-0.3-0.3s0.1-0.3,0.3-0.3s0.3,0.1,0.3,0.3S53.8,23.9,53.7,23.9z M53.7,22.7c-0.2,0-0.3-0.1-0.3-0.3s0.1-0.3,0.3-0.3
		s0.3,0.1,0.3,0.3S53.8,22.7,53.7,22.7z M53.7,21.4c-0.2,0-0.3-0.1-0.3-0.3s0.1-0.3,0.3-0.3S54,21,54,21.1S53.8,21.4,53.7,21.4z
		 M53.7,20.2c-0.2,0-0.3-0.1-0.3-0.3s0.1-0.3,0.3-0.3s0.3,0.1,0.3,0.3S53.8,20.2,53.7,20.2z M53.7,19c-0.2,0-0.3-0.1-0.3-0.3
		s0.1-0.3,0.3-0.3s0.3,0.1,0.3,0.3S53.8,19,53.7,19z M54.5,36.6c-0.2,0-0.3-0.1-0.3-0.3s0.1-0.3,0.3-0.3s0.3,0.1,0.3,0.3
		S54.7,36.6,54.5,36.6z M54.5,35.4c-0.2,0-0.3-0.1-0.3-0.3s0.1-0.3,0.3-0.3s0.3,0.1,0.3,0.3S54.7,35.4,54.5,35.4z M54.5,34.2
		c-0.2,0-0.3-0.1-0.3-0.3s0.1-0.3,0.3-0.3s0.3,0.1,0.3,0.3S54.7,34.2,54.5,34.2z M54.5,33c-0.2,0-0.3-0.1-0.3-0.3s0.1-0.3,0.3-0.3
		s0.3,0.1,0.3,0.3S54.7,33,54.5,33z M54.5,31.8c-0.2,0-0.3-0.1-0.3-0.3s0.1-0.3,0.3-0.3s0.3,0.1,0.3,0.3S54.7,31.8,54.5,31.8z
		 M54.5,30.6c-0.2,0-0.3-0.1-0.3-0.3s0.1-0.3,0.3-0.3s0.3,0.1,0.3,0.3S54.7,30.6,54.5,30.6z M54.5,29.4c-0.2,0-0.3-0.1-0.3-0.3
		c0-0.2,0.1-0.3,0.3-0.3s0.3,0.1,0.3,0.3C54.8,29.2,54.7,29.4,54.5,29.4z M54.5,28.2c-0.2,0-0.3-0.1-0.3-0.3s0.1-0.3,0.3-0.3
		s0.3,0.1,0.3,0.3S54.7,28.2,54.5,28.2z M54.5,26.9c-0.2,0-0.3-0.1-0.3-0.3s0.1-0.3,0.3-0.3s0.3,0.1,0.3,0.3S54.7,26.9,54.5,26.9z
		 M54.5,25.7c-0.2,0-0.3-0.1-0.3-0.3s0.1-0.3,0.3-0.3s0.3,0.1,0.3,0.3S54.7,25.7,54.5,25.7z M54.5,24.5c-0.2,0-0.3-0.1-0.3-0.3
		s0.1-0.3,0.3-0.3s0.3,0.1,0.3,0.3S54.7,24.5,54.5,24.5z M54.5,23.3c-0.2,0-0.3-0.1-0.3-0.3s0.1-0.3,0.3-0.3s0.3,0.1,0.3,0.3
		S54.7,23.3,54.5,23.3z M54.5,22.1c-0.2,0-0.3-0.1-0.3-0.3s0.1-0.3,0.3-0.3s0.3,0.1,0.3,0.3S54.7,22.1,54.5,22.1z M54.5,20.9
		c-0.2,0-0.3-0.1-0.3-0.3s0.1-0.3,0.3-0.3s0.3,0.1,0.3,0.3S54.7,20.9,54.5,20.9z M54.5,19.7c-0.2,0-0.3-0.1-0.3-0.3s0.1-0.3,0.3-0.3
		s0.3,0.1,0.3,0.3S54.7,19.7,54.5,19.7z M55.3,37.2c-0.2,0-0.3-0.1-0.3-0.3s0.1-0.3,0.3-0.3s0.3,0.1,0.3,0.3S55.5,37.2,55.3,37.2z
		 M55.3,36c-0.2,0-0.3-0.1-0.3-0.3s0.1-0.3,0.3-0.3s0.3,0.1,0.3,0.3S55.5,36,55.3,36z M55.3,34.8c-0.2,0-0.3-0.1-0.3-0.3
		s0.1-0.3,0.3-0.3s0.3,0.1,0.3,0.3S55.5,34.8,55.3,34.8z M55.3,33.5c-0.2,0-0.3-0.1-0.3-0.3s0.1-0.3,0.3-0.3s0.3,0.1,0.3,0.3
		S55.5,33.5,55.3,33.5z M55.3,32.3c-0.2,0-0.3-0.1-0.3-0.3c0-0.2,0.1-0.3,0.3-0.3s0.3,0.1,0.3,0.3C55.6,32.2,55.5,32.3,55.3,32.3z
		 M55.3,31.1c-0.2,0-0.3-0.1-0.3-0.3s0.1-0.3,0.3-0.3s0.3,0.1,0.3,0.3S55.5,31.1,55.3,31.1z M55.3,29.9c-0.2,0-0.3-0.1-0.3-0.3
		s0.1-0.3,0.3-0.3s0.3,0.1,0.3,0.3S55.5,29.9,55.3,29.9z M55.3,28.7c-0.2,0-0.3-0.1-0.3-0.3s0.1-0.3,0.3-0.3s0.3,0.1,0.3,0.3
		S55.5,28.7,55.3,28.7z M55.3,27.5c-0.2,0-0.3-0.1-0.3-0.3s0.1-0.3,0.3-0.3s0.3,0.1,0.3,0.3S55.5,27.5,55.3,27.5z M55.3,26.3
		c-0.2,0-0.3-0.1-0.3-0.3s0.1-0.3,0.3-0.3s0.3,0.1,0.3,0.3S55.5,26.3,55.3,26.3z M55.3,25.1c-0.2,0-0.3-0.1-0.3-0.3s0.1-0.3,0.3-0.3
		s0.3,0.1,0.3,0.3S55.5,25.1,55.3,25.1z M55.3,23.9c-0.2,0-0.3-0.1-0.3-0.3s0.1-0.3,0.3-0.3s0.3,0.1,0.3,0.3S55.5,23.9,55.3,23.9z
		 M55.3,22.7c-0.2,0-0.3-0.1-0.3-0.3s0.1-0.3,0.3-0.3s0.3,0.1,0.3,0.3S55.5,22.7,55.3,22.7z M55.3,21.4c-0.2,0-0.3-0.1-0.3-0.3
		s0.1-0.3,0.3-0.3s0.3,0.1,0.3,0.3S55.5,21.4,55.3,21.4z M55.3,20.2c-0.2,0-0.3-0.1-0.3-0.3s0.1-0.3,0.3-0.3s0.3,0.1,0.3,0.3
		S55.5,20.2,55.3,20.2z M56.1,36.6c-0.2,0-0.3-0.1-0.3-0.3S56,36,56.1,36s0.3,0.1,0.3,0.3S56.3,36.6,56.1,36.6z M56.1,35.4
		c-0.2,0-0.3-0.1-0.3-0.3s0.1-0.3,0.3-0.3s0.3,0.1,0.3,0.3S56.3,35.4,56.1,35.4z M56.1,34.2c-0.2,0-0.3-0.1-0.3-0.3s0.1-0.3,0.3-0.3
		s0.3,0.1,0.3,0.3S56.3,34.2,56.1,34.2z M56.1,33c-0.2,0-0.3-0.1-0.3-0.3s0.1-0.3,0.3-0.3s0.3,0.1,0.3,0.3S56.3,33,56.1,33z
		 M56.1,31.8c-0.2,0-0.3-0.1-0.3-0.3s0.1-0.3,0.3-0.3s0.3,0.1,0.3,0.3S56.3,31.8,56.1,31.8z M56.1,30.6c-0.2,0-0.3-0.1-0.3-0.3
		S56,30,56.1,30s0.3,0.1,0.3,0.3S56.3,30.6,56.1,30.6z M56.1,29.4c-0.2,0-0.3-0.1-0.3-0.3c0-0.2,0.1-0.3,0.3-0.3s0.3,0.1,0.3,0.3
		C56.4,29.2,56.3,29.4,56.1,29.4z M56.1,28.2c-0.2,0-0.3-0.1-0.3-0.3s0.1-0.3,0.3-0.3s0.3,0.1,0.3,0.3S56.3,28.2,56.1,28.2z
		 M56.1,26.9c-0.2,0-0.3-0.1-0.3-0.3s0.1-0.3,0.3-0.3s0.3,0.1,0.3,0.3S56.3,26.9,56.1,26.9z M56.1,25.7c-0.2,0-0.3-0.1-0.3-0.3
		s0.1-0.3,0.3-0.3s0.3,0.1,0.3,0.3S56.3,25.7,56.1,25.7z M56.1,24.5c-0.2,0-0.3-0.1-0.3-0.3s0.1-0.3,0.3-0.3s0.3,0.1,0.3,0.3
		S56.3,24.5,56.1,24.5z M56.1,23.3c-0.2,0-0.3-0.1-0.3-0.3s0.1-0.3,0.3-0.3s0.3,0.1,0.3,0.3S56.3,23.3,56.1,23.3z M56.1,22.1
		c-0.2,0-0.3-0.1-0.3-0.3s0.1-0.3,0.3-0.3s0.3,0.1,0.3,0.3S56.3,22.1,56.1,22.1z M57,36c-0.2,0-0.3-0.1-0.3-0.3s0.1-0.3,0.3-0.3
		s0.3,0.1,0.3,0.3S57.1,36,57,36z M57,34.8c-0.2,0-0.3-0.1-0.3-0.3s0.1-0.3,0.3-0.3s0.3,0.1,0.3,0.3S57.1,34.8,57,34.8z M57,33.5
		c-0.2,0-0.3-0.1-0.3-0.3s0.1-0.3,0.3-0.3s0.3,0.1,0.3,0.3S57.1,33.5,57,33.5z M57,32.3c-0.2,0-0.3-0.1-0.3-0.3
		c0-0.2,0.1-0.3,0.3-0.3s0.3,0.1,0.3,0.3C57.3,32.2,57.1,32.3,57,32.3z M57,31.1c-0.2,0-0.3-0.1-0.3-0.3s0.1-0.3,0.3-0.3
		s0.3,0.1,0.3,0.3S57.1,31.1,57,31.1z M57,29.9c-0.2,0-0.3-0.1-0.3-0.3s0.1-0.3,0.3-0.3s0.3,0.1,0.3,0.3S57.1,29.9,57,29.9z
		 M57,28.7c-0.2,0-0.3-0.1-0.3-0.3s0.1-0.3,0.3-0.3s0.3,0.1,0.3,0.3S57.1,28.7,57,28.7z M57,27.5c-0.2,0-0.3-0.1-0.3-0.3
		s0.1-0.3,0.3-0.3s0.3,0.1,0.3,0.3S57.1,27.5,57,27.5z M57,26.3c-0.2,0-0.3-0.1-0.3-0.3s0.1-0.3,0.3-0.3s0.3,0.1,0.3,0.3
		S57.1,26.3,57,26.3z M57,25.1c-0.2,0-0.3-0.1-0.3-0.3s0.1-0.3,0.3-0.3s0.3,0.1,0.3,0.3S57.1,25.1,57,25.1z M57,23.9
		c-0.2,0-0.3-0.1-0.3-0.3s0.1-0.3,0.3-0.3s0.3,0.1,0.3,0.3S57.1,23.9,57,23.9z M57,22.7c-0.2,0-0.3-0.1-0.3-0.3s0.1-0.3,0.3-0.3
		s0.3,0.1,0.3,0.3S57.1,22.7,57,22.7z"/>
	<g>
		<polygon class="st0" points="51.2,15 51.6,15.1 51.5,14.4 		"/>
		<path class="st0" d="M54,14.5l-0.3-0.1l-0.1,0.5l0.3,0.1c0.1,0,0.1,0,0.2,0c0.1,0,0.1-0.1,0.1-0.1s0-0.1,0-0.2
			C54.1,14.6,54,14.6,54,14.5z"/>
		<path class="st0" d="M48.8,14.4c0-0.1,0-0.1,0-0.2c0,0,0-0.1,0-0.1c0,0,0,0,0-0.1c0,0-0.1,0-0.1-0.1c0,0-0.1,0-0.1,0
			c-0.1,0-0.1,0-0.1,0s-0.1,0.1-0.1,0.1c0,0,0,0,0,0.1c0,0,0,0.1,0,0.1c0,0,0,0.1,0,0.2c0,0.1,0,0.2,0,0.3s0,0.2,0,0.3
			c0,0.1,0,0.1,0,0.2c0,0,0,0.1,0,0.1c0,0,0,0,0,0.1c0,0,0.1,0,0.1,0.1c0,0,0.1,0,0.1,0c0.1,0,0.1,0,0.1,0c0,0,0.1-0.1,0.1-0.1
			c0,0,0,0,0-0.1c0,0,0-0.1,0-0.1c0,0,0-0.1,0-0.2c0-0.1,0-0.2,0-0.3C48.8,14.6,48.8,14.5,48.8,14.4z"/>
		<path class="st0" d="M50.6,11.9h-1.2c-2.7,0-5.1,0.8-7.2,2.2l2,5.2c1.3-1.3,3.2-2.1,5.2-2.1h1.2c2,0,3.8,0.8,5.2,2.1l2-5.2
			C55.8,12.7,53.3,11.9,50.6,11.9z M47,16.2l-1.1-0.9l0.4,1.1l-0.5,0.2L45,14.4l0.5-0.2l1.1,0.9L46.2,14l0.5-0.2l0.7,2.2L47,16.2z
			 M49.4,15.3c0,0.1-0.1,0.1-0.1,0.2c-0.1,0.1-0.2,0.2-0.3,0.2c-0.1,0.1-0.2,0.1-0.4,0.1c-0.1,0-0.3,0-0.4,0c-0.1,0-0.2-0.1-0.3-0.2
			c-0.1-0.1-0.1-0.1-0.2-0.2c0-0.1-0.1-0.1-0.1-0.2s0-0.2,0-0.2s0-0.2,0-0.3c0-0.1,0-0.2,0-0.3c0-0.1,0-0.2,0-0.2c0-0.1,0-0.2,0-0.2
			c0-0.1,0.1-0.1,0.1-0.2c0.1-0.1,0.2-0.2,0.3-0.2c0.1-0.1,0.2-0.1,0.4-0.1c0.1,0,0.3,0,0.4,0s0.2,0.1,0.3,0.2
			c0.1,0.1,0.1,0.1,0.2,0.2c0,0.1,0.1,0.1,0.1,0.2c0,0.1,0,0.2,0,0.2s0,0.2,0,0.3s0,0.2,0,0.3c0,0.1,0,0.2,0,0.2
			C49.4,15.2,49.4,15.3,49.4,15.3z M51.8,15.9l-0.1-0.4L51,15.5l-0.1,0.3l-0.6-0.1l1.1-2.2l0.4,0l0.6,2.4L51.8,15.9z M54.7,15
			c0,0.1-0.1,0.1-0.1,0.2c0,0.1-0.1,0.1-0.1,0.1s-0.1,0.1-0.2,0.1c-0.1,0-0.1,0-0.2,0l0.2,1.1l-0.6-0.2l-0.1-1l-0.2-0.1l-0.3,0.8
			L52.5,16l0.7-2.2l0.9,0.3c0.1,0,0.2,0.1,0.3,0.2s0.1,0.2,0.2,0.2s0.1,0.2,0.1,0.3C54.7,14.8,54.7,14.9,54.7,15z"/>
	</g>
	<path class="st0" d="M58.8,35.1c-0.4,0-0.7,0.3-0.7,0.7v2.4c0,0.3,0.2,0.6,0.5,0.7v0.4c0,4.4-3.6,8-8,8h-1.2c-4.4,0-8-3.6-8-8v-0.4
		c0.3-0.1,0.5-0.4,0.5-0.7v-2.4c0-0.4-0.3-0.7-0.7-0.7s-0.7,0.3-0.7,0.7v2.4c0,0.2,0.1,0.4,0.3,0.6v1.9c0,4.8,3.9,8.6,8.6,8.6h1.2
		c4.8,0,8.6-3.9,8.6-8.6v-1.9c0.2-0.1,0.3-0.3,0.3-0.6v-2.4C59.5,35.4,59.2,35.1,58.8,35.1z"/>
	<path class="st0" d="M47.7,56.4L47.7,56.4c-0.3,0-0.5-0.2-0.5-0.5v-3.1c0-0.3,0.2-0.5,0.5-0.5l0,0c0.3,0,0.5,0.2,0.5,0.5v3.1
		C48.2,56.2,48,56.4,47.7,56.4z"/>
	<path class="st0" d="M51.3,55.8h-2.5c-0.2,0-0.3-0.1-0.3-0.3v-2.2c0-0.2,0.1-0.3,0.3-0.3h2.5c0.2,0,0.3,0.1,0.3,0.3v2.2
		C51.6,55.7,51.5,55.8,51.3,55.8z"/>
	<path class="st0" d="M51.5,59.4V62c0,0.5-0.4,0.8-0.8,0.8h-1.4c-0.5,0-0.8-0.4-0.8-0.8v-2.6c-4.5,0.2-8,1.4-8,2.9v2.9
		c0,1.6,4.2,2.9,9.5,2.9s9.5-1.3,9.5-2.9v-2.9C59.5,60.8,56,59.6,51.5,59.4z"/>
	<path class="st0" d="M48.8,56.1C48.8,56.1,48.8,56.1,48.8,56.1l0,5.9c0,0.3,0.3,0.6,0.6,0.6h1.4c0.3,0,0.6-0.3,0.6-0.6v-5.9H48.8z"
		/>
	<path class="st0" d="M50.6,49.6h-1.2c-0.2,0-0.4,0-0.6,0v3.1c0,0,0,0,0,0h2.5v-3.1C51,49.6,50.8,49.6,50.6,49.6z"/>
</g>
</svg>
