<?xml version="1.0" encoding="utf-8"?>
<!-- Generator: Adobe Illustrator 21.1.0, SVG Export Plug-In . SVG Version: 6.00 Build 0)  -->
<svg version="1.1" id="Camada_1" xmlns="http://www.w3.org/2000/svg" xmlns:xlink="http://www.w3.org/1999/xlink" x="0px" y="0px"
	 viewBox="0 0 100 80" style="enable-background:new 0 0 100 80;" xml:space="preserve">
<style type="text/css">
	.st0{fill:#FFFFFF;}
</style>
<g>
	<path class="st0" d="M26,16v7.8h48V16H26z M40.8,21.2c0,0.2-0.2,0.4-0.4,0.4h-8.9c-0.2,0-0.4-0.2-0.4-0.4v-2.7
		c0-0.2,0.2-0.4,0.4-0.4h8.9c0.2,0,0.4,0.2,0.4,0.4V21.2z"/>
	<path class="st0" d="M26,64h48V25.4H26V64z M68.5,60H51.1c-0.2,0-0.4-0.2-0.4-0.4c0-0.2,0.2-0.4,0.4-0.4h17.4
		c0.2,0,0.4,0.2,0.4,0.4C68.9,59.8,68.7,60,68.5,60z M68.5,58.2H51.1c-0.2,0-0.4-0.2-0.4-0.4c0-0.2,0.2-0.4,0.4-0.4h17.4
		c0.2,0,0.4,0.2,0.4,0.4C68.9,58,68.7,58.2,68.5,58.2z M68.5,56.4H51.1c-0.2,0-0.4-0.2-0.4-0.4c0-0.2,0.2-0.4,0.4-0.4h17.4
		c0.2,0,0.4,0.2,0.4,0.4C68.9,56.2,68.7,56.4,68.5,56.4z M68.5,54.5H51.1c-0.2,0-0.4-0.2-0.4-0.4c0-0.2,0.2-0.4,0.4-0.4h17.4
		c0.2,0,0.4,0.2,0.4,0.4C68.9,54.4,68.7,54.5,68.5,54.5z M68.5,52.7H51.1c-0.2,0-0.4-0.2-0.4-0.4c0-0.2,0.2-0.4,0.4-0.4h17.4
		c0.2,0,0.4,0.2,0.4,0.4C68.9,52.5,68.7,52.7,68.5,52.7z M68.5,50.9H51.1c-0.2,0-0.4-0.2-0.4-0.4c0-0.2,0.2-0.4,0.4-0.4h17.4
		c0.2,0,0.4,0.2,0.4,0.4C68.9,50.7,68.7,50.9,68.5,50.9z M68.5,49H51.1c-0.2,0-0.4-0.2-0.4-0.4c0-0.2,0.2-0.4,0.4-0.4h17.4
		c0.2,0,0.4,0.2,0.4,0.4C68.9,48.9,68.7,49,68.5,49z M68.9,32.6v12.9c0,0.2-0.2,0.4-0.4,0.4H56c-0.2,0-0.4-0.2-0.4-0.4V32.6
		c0-0.2,0.2-0.4,0.4-0.4h12.4C68.7,32.2,68.9,32.4,68.9,32.6z M31.1,28.6c0-0.2,0.2-0.4,0.4-0.4h33.2c0.2,0,0.4,0.2,0.4,0.4v1
		c0,0.2-0.2,0.4-0.4,0.4H31.5c-0.2,0-0.4-0.2-0.4-0.4V28.6z M31.1,32.6c0-0.2,0.2-0.4,0.4-0.4h22.9c0.2,0,0.4,0.2,0.4,0.4v12.9
		c0,0.2-0.2,0.4-0.4,0.4H31.5c-0.2,0-0.4-0.2-0.4-0.4V32.6z M31.5,48.2h17.4c0.2,0,0.4,0.2,0.4,0.4c0,0.2-0.2,0.4-0.4,0.4H31.5
		c-0.2,0-0.4-0.2-0.4-0.4C31.1,48.4,31.3,48.2,31.5,48.2z M31.5,50.1h17.4c0.2,0,0.4,0.2,0.4,0.4c0,0.2-0.2,0.4-0.4,0.4H31.5
		c-0.2,0-0.4-0.2-0.4-0.4C31.1,50.2,31.3,50.1,31.5,50.1z M31.5,51.9h17.4c0.2,0,0.4,0.2,0.4,0.4c0,0.2-0.2,0.4-0.4,0.4H31.5
		c-0.2,0-0.4-0.2-0.4-0.4C31.1,52.1,31.3,51.9,31.5,51.9z M31.5,53.7h17.4c0.2,0,0.4,0.2,0.4,0.4c0,0.2-0.2,0.4-0.4,0.4H31.5
		c-0.2,0-0.4-0.2-0.4-0.4C31.1,53.9,31.3,53.7,31.5,53.7z M31.5,55.6h17.4c0.2,0,0.4,0.2,0.4,0.4c0,0.2-0.2,0.4-0.4,0.4H31.5
		c-0.2,0-0.4-0.2-0.4-0.4C31.1,55.7,31.3,55.6,31.5,55.6z M31.5,57.4h17.4c0.2,0,0.4,0.2,0.4,0.4c0,0.2-0.2,0.4-0.4,0.4H31.5
		c-0.2,0-0.4-0.2-0.4-0.4C31.1,57.6,31.3,57.4,31.5,57.4z M31.5,59.2h17.4c0.2,0,0.4,0.2,0.4,0.4c0,0.2-0.2,0.4-0.4,0.4H31.5
		c-0.2,0-0.4-0.2-0.4-0.4C31.1,59.4,31.3,59.2,31.5,59.2z"/>
</g>
</svg>
