<?xml version="1.0" encoding="utf-8"?>
<!-- Generator: Adobe Illustrator 19.1.1, SVG Export Plug-In . SVG Version: 6.00 Build 0)  -->
<svg version="1.1" id="Camada_1" xmlns="http://www.w3.org/2000/svg" xmlns:xlink="http://www.w3.org/1999/xlink" x="0px" y="0px"
	 viewBox="-247 380.9 100 80" style="enable-background:new -247 380.9 100 80;" xml:space="preserve">
<style type="text/css">
	.st0{fill:#FFFFFF;}
</style>
<g>
	<path class="st0" d="M-223.5,407.6v37.8c0,2.1,1.7,3.9,3.9,3.9h45.1c2.1,0,3.9-1.7,3.9-3.9v-37.8H-223.5z M-213.5,443.4
		c-2.1,0-3.8-1.7-3.8-3.8s1.7-3.8,3.8-3.8c2.1,0,3.8,1.7,3.8,3.8S-211.4,443.4-213.5,443.4z M-213.5,432.2c-2.1,0-3.8-1.7-3.8-3.8
		c0-2.1,1.7-3.8,3.8-3.8c2.1,0,3.8,1.7,3.8,3.8C-209.7,430.5-211.4,432.2-213.5,432.2z M-202.5,443.4c-2.1,0-3.8-1.7-3.8-3.8
		s1.7-3.8,3.8-3.8c2.1,0,3.8,1.7,3.8,3.8S-200.4,443.4-202.5,443.4z M-202.5,432.2c-2.1,0-3.8-1.7-3.8-3.8c0-2.1,1.7-3.8,3.8-3.8
		c2.1,0,3.8,1.7,3.8,3.8C-198.7,430.5-200.4,432.2-202.5,432.2z M-191.5,443.4c-2.1,0-3.8-1.7-3.8-3.8s1.7-3.8,3.8-3.8
		c2.1,0,3.8,1.7,3.8,3.8S-189.4,443.4-191.5,443.4z M-191.5,432.2c-2.1,0-3.8-1.7-3.8-3.8c0-2.1,1.7-3.8,3.8-3.8
		c2.1,0,3.8,1.7,3.8,3.8C-187.8,430.5-189.4,432.2-191.5,432.2z M-191.5,420.9c-2.1,0-3.8-1.7-3.8-3.8c0-2.1,1.7-3.8,3.8-3.8
		c2.1,0,3.8,1.7,3.8,3.8C-187.8,419.2-189.4,420.9-191.5,420.9z M-180.5,443.4c-2.1,0-3.8-1.7-3.8-3.8s1.7-3.8,3.8-3.8
		c2.1,0,3.8,1.7,3.8,3.8S-178.5,443.4-180.5,443.4z M-180.5,432.2c-2.1,0-3.8-1.7-3.8-3.8c0-2.1,1.7-3.8,3.8-3.8
		c2.1,0,3.8,1.7,3.8,3.8C-176.7,430.5-178.5,432.2-180.5,432.2z M-180.5,420.9c-2.1,0-3.8-1.7-3.8-3.8c0-2.1,1.7-3.8,3.8-3.8
		c2.1,0,3.8,1.7,3.8,3.8C-176.7,419.2-178.5,420.9-180.5,420.9z"/>
	<path class="st0" d="M-183.1,400.5c-0.7,0-1.4-0.6-1.4-1.4v-5.2c0-0.7,0.6-1.4,1.4-1.4s1.4,0.6,1.4,1.4v5.2
		C-181.7,399.8-182.3,400.5-183.1,400.5L-183.1,400.5z"/>
	<path class="st0" d="M-174.5,396.4h-5.6v2.5c0,1.7-1.4,2.9-2.9,2.9l0,0c-1.7,0-2.9-1.4-2.9-2.9v-2.5h-22v2.5c0,1.7-1.4,2.9-2.9,2.9
		l0,0c-1.7,0-2.9-1.4-2.9-2.9v-2.5h-5.6c-2.1,0-3.9,1.7-3.9,3.9v5.3h52.8v-5.3C-170.5,398.2-172.4,396.4-174.5,396.4z"/>
	<path class="st0" d="M-210.9,400.5c-0.7,0-1.4-0.6-1.4-1.4v-5.2c0-0.7,0.6-1.4,1.4-1.4s1.4,0.6,1.4,1.4v5.2
		C-209.5,399.8-210.2,400.5-210.9,400.5L-210.9,400.5z"/>
</g>
</svg>
