<?xml version="1.0" encoding="utf-8"?>
<!-- Generator: Adobe Illustrator 21.1.0, SVG Export Plug-In . SVG Version: 6.00 Build 0)  -->
<svg version="1.1" id="Camada_1" xmlns="http://www.w3.org/2000/svg" xmlns:xlink="http://www.w3.org/1999/xlink" x="0px" y="0px"
	 viewBox="0 0 100 80" style="enable-background:new 0 0 100 80;" xml:space="preserve">
<style type="text/css">
	.st0{fill:#FFFFFF;}
</style>
<g>
	<g>
		<path class="st0" d="M69.8,41.4c0.7,0.1,2.2,0.2,2.8,0.2c1,0,1.2-0.1,1.2-0.3c0-0.3-0.1-5.3,0-7.1c0.1-1.8-0.1-6.9-1.3-9.5
			c-1.2-2.6-3-3.4-6.9-2.8c0,0-2.4-2.4-5.1,0.1c-2.7,2.5-4.1,4.6-4.1,9.5c0,4.8,0.1,9.1,0.1,9.5c0,0.3,0,0.6,0.8,0.7
			c0.7,0.1,2.5,0.1,3.4,0c0.5,0.5,0.9,0.9,1.2,1.3c0.8,0.8,1.8,1.8,3.1,1.8h0.1c1.3,0,2.4-1,3.1-1.8C68.7,42.5,69.2,42,69.8,41.4z
			 M65.1,43.9H65c-1,0-1.9-0.9-2.5-1.6c-0.7-0.7-1.7-1.7-2.5-2.9c-0.5-0.8-0.6-2-0.7-3.1c0-0.5-0.1-1-0.2-1.4c0-0.4-0.1-0.8-0.1-1.1
			c-0.1-1.2-0.1-4.3-0.2-4.6c0,0,1.5,0.5,4.6,0c3-0.5,3.2-1.9,3.2-1.9s1.5,2.5,5,1.9c0,0,0.1,2,0.1,3.1c0,1.1-0.2,2.4-0.4,3.2
			c0,0.1,0,0.1,0,0.2c-0.1,0.2-0.1,0.5-0.2,0.7c-0.2,1.2-0.5,2.3-1,3.2c-0.8,1.2-1.8,2.2-2.5,2.9C67,43,66.1,43.9,65.1,43.9z"/>
		<path class="st0" d="M70.3,47.5l2.2-0.9c-0.2-0.5-0.4-1.3-0.7-1.8c-0.2-0.3-0.4-0.7-0.7-1.1c-0.4,1.2-1,2.9-1.7,4.4
			c-1.1,2.6-3.2,6.7-3.2,6.7s0.5,0,1.4,0c1.7-1.5,4.1-4.3,4.9-5.3L70.3,47.5z"/>
		<path class="st0" d="M71.7,42.4c0.3,0.4,0.8,1.2,1.2,1.8c0.5,0.9,1,2.5,1,2.6l0.1,0.5l-1.4,0.6l1.7,1.6l-0.4,0.4
			c-0.1,0.1-2.4,2.9-4.4,4.9c1.8-0.1,4-0.3,5.7-0.6c3.4-0.7,7.2-2.5,7.2-2.5C82.1,44,72.3,42.5,71.7,42.4z"/>
		<path class="st0" d="M58.5,43.7c-0.2,0.3-0.5,0.7-0.7,1.1c-0.3,0.5-0.6,1.3-0.7,1.8l2.2,0.9l-2.3,2.1c0.9,1.1,3.2,3.8,4.9,5.3
			c0.8,0,1.4,0,1.4,0s-2-4.1-3.2-6.7C59.6,46.6,58.9,44.9,58.5,43.7z"/>
		<path class="st0" d="M55.4,49.4l1.7-1.6l-1.4-0.6l0.1-0.5c0-0.1,0.5-1.7,1-2.6c0.4-0.7,0.9-1.5,1.2-1.8
			c-0.7,0.1-10.5,1.6-10.8,9.3c0,0,3.9,1.8,7.2,2.5c1.7,0.4,3.9,0.5,5.7,0.6c-2.1-2-4.3-4.8-4.4-4.9L55.4,49.4z"/>
	</g>
	<g>
		<path class="st0" d="M28,40.5c0.2,0.1,0.4,0.1,0.5,0.1c0.3,0.5,0.8,1.6,1.3,2.5c1.1,2,2.9,4.7,4.7,4.8c0.5,0,0.6,0,0.6,0l1.4,0
			c0,0,0.1,0,0.6,0c1.8-0.1,3.6-2.8,4.7-4.8c0.5-0.8,1-1.9,1.3-2.5c0.1,0,0.3,0,0.5-0.1c0.8-0.4,1.6-1.6,2-3.2
			c0.4-1.4,0.2-2.7-0.3-3.4c-0.3-0.4-0.7-0.6-1.1-0.6c0,0,0,0,0,0c0.1-0.7,0.2-2.4,0.1-3.8c-0.1-1.8-1-6.3-5.1-6.5
			c-4.1-0.2-7.5-0.6-9.4,2.3c0,0-2.4-0.2-2.9,3.1c-0.4,2.5,0.4,4,1,5c-0.1,0-0.2,0-0.3,0c-0.4,0-0.8,0.2-1.1,0.6
			c-0.5,0.7-0.7,2-0.3,3.4C26.4,38.9,27.2,40.1,28,40.5z M27.1,34.5c0.1-0.2,0.3-0.2,0.4-0.2c0.4,0,0.5,0.4,0.5,0.6
			c0,0.3,0.2,0.5,0.5,0.5c0.3,0,0.5-0.2,0.5-0.5c0-0.2-0.1-0.5-0.2-0.7c0-0.3,0.1-0.8,0.1-1.4c0-1.1-0.2-1.6,0.4-2.5
			c0.5-0.8,1-2.2,1.1-3.3c0,0,1.5,1.2,5.3,1.2c3.8,0,4.9-0.8,5.5-0.1c0.7,0.7,0.7,2.3,1.5,3c0.7,0.6,0.5,1.9,0.4,2.8
			c-0.2,0.3-0.3,0.6-0.3,0.9c0,0.3,0.2,0.5,0.5,0.5h0c0.3,0,0.5-0.2,0.5-0.5c0-0.2,0.1-0.6,0.5-0.6c0.1,0,0.2,0,0.4,0.2
			c0.3,0.4,0.5,1.2,0.1,2.6c-0.3,1.4-1,2.3-1.5,2.6c-0.1,0.1-0.2,0-0.2,0l-0.4-0.2l-0.2,0.4c0,0-0.8,1.6-1.4,2.7
			C39.3,45.4,38,46.9,37,47c-0.4,0-0.5,0-0.5,0l-1.4,0c0,0-0.1,0-0.6,0c-1-0.1-2.4-1.5-3.9-4.3c-0.6-1.1-1.4-2.7-1.4-2.7L29,39.5
			l-0.4,0.2c0,0-0.1,0-0.2,0c-0.4-0.2-1.1-1.2-1.5-2.6C26.6,35.8,26.8,34.9,27.1,34.5z"/>
		<path class="st0" d="M53.6,53.1c-1.4-3.1-7.2-7.1-11.3-7.4c0,0-1.7,3.4-2.5,5.8c-0.8,2.4-1.4,4.3-1.4,4.3l-1.6-3.4l0.5-1
			c0,0,0.8-1.4-0.1-2.2c-0.7-0.6-1.2-0.7-1.5-0.6c-0.3,0-0.8,0-1.5,0.6c-0.9,0.8-0.1,2.2-0.1,2.2l0.5,1l-1.6,3.4
			c0,0-0.5-1.9-1.4-4.3c-0.8-2.4-2.5-5.8-2.5-5.8c-4.2,0.3-10,4.3-11.3,7.4c-1.4,3.1,1.1,4.1,2.4,4.5c5.4,1.5,12.4,1.5,15.4,1.5
			c3,0,10.1,0,15.5-1.5C52.5,57.2,54.9,56.3,53.6,53.1z"/>
	</g>
</g>
</svg>
