<?xml version="1.0" encoding="utf-8"?>
<!-- Generator: Adobe Illustrator 21.1.0, SVG Export Plug-In . SVG Version: 6.00 Build 0)  -->
<svg version="1.1" id="Camada_1" xmlns="http://www.w3.org/2000/svg" xmlns:xlink="http://www.w3.org/1999/xlink" x="0px" y="0px"
	 viewBox="0 0 100 80" style="enable-background:new 0 0 100 80;" xml:space="preserve">
<style type="text/css">
	.st0{fill:#FFFFFF;}
	.st1{fill:#68718A;}
	.st2{fill:#99A0B1;}
	.st3{fill:#606A83;}
	.st4{fill:#070C1A;}
	.st5{fill:#636C78;}
	.st6{fill:#EBEBEF;}
	.st7{fill:#ABAFBE;}
	.st8{fill:#F0E7D1;}
</style>
<g>
	<circle class="st0" cx="50" cy="40" r="24.4"/>
	<path class="st1" d="M40.9,37.3c0.4-0.1,1.7-0.4,1.7-0.4l0.1,13.3l-1.9-2.7l0.1-5.1l0.1-0.8L40.9,37.3z"/>
	<path class="st2" d="M42.6,36.7c0,0-2.2-0.4-2.5-0.5c-0.3-0.1-1.4-0.6-1.4-1.7c0-1.1,1.1-1.8,2-1.7s2.3,0.4,2.3,0.4L42.6,36.7z"/>
	<path class="st1" d="M42,36.6c0.4,0.1,0.6,0.1,0.6,0.1l0.3-3.5c0,0-0.4-0.1-1-0.2V36.6z"/>
	<path class="st3" d="M56.2,61.2v2.4c0.1,0,0.3-0.1,0.4-0.1v-2.2H56.2z"/>
	<path class="st3" d="M55.3,61.2v2.6c0.1,0,0.3-0.1,0.4-0.1v-2.5H55.3z"/>
	<path class="st3" d="M53.5,61.2v2.9c0.1,0,0.3,0,0.4-0.1v-2.8H53.5z"/>
	<path class="st3" d="M54.4,61.2V64c0.1,0,0.3-0.1,0.4-0.1v-2.7H54.4z"/>
	<path class="st3" d="M48,61.2v3.1c0.1,0,0.3,0,0.4,0v-3.1H48z"/>
	<path class="st3" d="M47.1,61.2v3c0.1,0,0.3,0,0.4,0v-3H47.1z"/>
	<path class="st3" d="M46.2,61.2v2.9c0.1,0,0.3,0,0.4,0.1v-2.9H46.2z"/>
	<path class="st3" d="M45.3,61.2v2.7c0.1,0,0.3,0.1,0.4,0.1v-2.8H45.3z"/>
	<path class="st3" d="M57.6,60.5v0.7h-0.5v2.1c0.2,0,0.3-0.1,0.5-0.1L57.6,60.5L57.6,60.5z"/>
	<path class="st3" d="M44.4,61.2v2.5c0.1,0,0.3,0.1,0.4,0.1v-2.6H44.4z"/>
	<path class="st3" d="M51.7,61.2v3.1c0.1,0,0.3,0,0.4,0v-3.1H51.7z"/>
	<path class="st3" d="M43.9,61.2h-0.5v2.3c0.2,0,0.3,0.1,0.5,0.1V61.2z"/>
	<path class="st3" d="M50.8,61.2v3.1c0.1,0,0.3,0,0.4,0v-3.1H50.8z"/>
	<path class="st3" d="M52.6,61.2v3c0.1,0,0.3,0,0.4-0.1v-3H52.6z"/>
	<path class="st3" d="M48.9,61.2v3.1c0.1,0,0.3,0,0.4,0v-3.1H48.9z"/>
	<path class="st3" d="M49.8,61.2v3.2c0.1,0,0.1,0,0.2,0c0.1,0,0.2,0,0.3,0v-3.2H49.8z"/>
	<path class="st4" d="M43.9,63.6c0.2,0,0.3,0.1,0.5,0.1v-2.5h0.4v2.6c0.2,0,0.3,0.1,0.5,0.1v-2.7h0.4V64c0.2,0,0.3,0.1,0.5,0.1v-2.9
		h0.4v2.9c0.2,0,0.3,0,0.5,0.1v-3h0.4v3c0.2,0,0.3,0,0.5,0v-3.1h0.4v3.1c0.2,0,0.3,0,0.5,0v-3.1h0.4v3.1c0.2,0,0.3,0,0.5,0v-3.2h0.4
		v3.2c0.2,0,0.3,0,0.5,0v-3.1h0.4v3.1c0.2,0,0.3,0,0.5,0v-3.1h0.4v3.1c0.2,0,0.3,0,0.5,0v-3H53v3c0.2,0,0.3,0,0.5-0.1v-2.9h0.4v2.8
		c0.2,0,0.3-0.1,0.5-0.1v-2.8h0.4v2.7c0.2,0,0.3-0.1,0.5-0.1v-2.6h0.4v2.5c0.2,0,0.3-0.1,0.5-0.1v-2.4h0.4v2.2
		c0.2,0,0.3-0.1,0.5-0.1v-2.1h0.5v-0.7h-0.5h-0.5h-0.4h-0.5h-0.4h-0.5h-0.4h-0.5h-0.4H53h-0.4h-0.5h-0.4h-0.5h-0.4h-0.5h-0.4h-0.5
		h-0.4h-0.5H48h-0.5h-0.4h-0.5h-0.4h-0.5h-0.4h-0.5h-0.4h-0.5h-0.5v0.7h0.5V63.6z"/>
	<path class="st2" d="M61.1,43.3l-4.5-2.4c0,0.1-3.6-1.1-3.6-1.1l-6.5,1.8c0,0-3.5,9.7-3,10.8s1.1,1.3,1.1,1.3v2.8L44.5,57h12v-3.2
		c1.7-1,2.5-1.9,3.6-4.2c1-2.3,1.2-4.6,1.1-5.7C61.2,43.7,61.2,43.5,61.1,43.3z"/>
	<path class="st4" d="M56,52.2H43.8c-0.8,0-1.5-0.7-1.5-1.5V27.1c0-0.8,0.7-1.5,1.5-1.5H56c0.8,0,1.5,0.7,1.5,1.5v23.6
		C57.4,51.5,56.8,52.2,56,52.2z"/>
	<rect x="43.5" y="27.7" class="st3" width="12.7" height="20.2"/>
	<path class="st5" d="M50.6,26.9h-1.4c-0.1,0-0.2-0.1-0.2-0.2l0,0c0-0.1,0.1-0.2,0.2-0.2h1.4c0.1,0,0.2,0.1,0.2,0.2l0,0
		C50.7,26.9,50.7,26.9,50.6,26.9z"/>
	<path class="st5" d="M49.9,51c-0.6,0-1.2-0.5-1.2-1.2c0-0.6,0.5-1.2,1.2-1.2c0.6,0,1.2,0.5,1.2,1.2C51,50.5,50.5,51,49.9,51z
		 M49.9,48.9c-0.5,0-1,0.4-1,1c0,0.5,0.4,1,1,1c0.5,0,1-0.4,1-1C50.8,49.3,50.4,48.9,49.9,48.9z"/>
	<polygon class="st0" points="49.9,34.3 51.1,36.6 53.7,37 51.8,38.8 52.2,41.5 49.9,40.3 47.5,41.5 47.9,38.8 46.1,37 48.7,36.6 	
		"/>
	<path class="st2" d="M40,40.9c-0.1-0.1-1.1-0.5-1.2-1.8s1.2-1.8,1.6-1.8s0.7-0.1,1.1,0.3c0.4,0.4,1.8,1.6,2.2,2.3
		c0.4,0.7,0.3,1.6-0.3,2c-0.6,0.5-1.8,0.7-2.6-0.2C40,40.9,40,40.9,40,40.9z"/>
	<path class="st2" d="M41.4,42.5c-0.2-0.2-0.6-0.5-1.1-0.3c-0.5,0.3-1.2,0.9-1.3,1.8c-0.1,1,0.1,1.2,0.7,1.9
		c0.5,0.6,1.2,1.6,2.1,1.6c0.9,0,1.3-0.2,1.8-0.8c0.5-0.6,0.5-1.7-0.2-2.5C42.6,43.5,41.4,42.5,41.4,42.5z"/>
	<path class="st2" d="M39.9,50.5c-0.3-0.2-1-0.9-0.7-1.9c0.3-1,1.4-1.5,2.1-1s2.6,2.1,3.1,2.5c0.5,0.4,1,1.5,0.4,2.3
		s-1.6,0.7-2.4,0.2C41.5,52,39.9,50.5,39.9,50.5z"/>
	<path class="st6" d="M41.5,41.5c-0.1-0.1-0.2-0.6,0-0.9c0.2-0.3,0.7-0.6,1-0.7c0.2-0.1,0.6-0.1,0.8,0.2c0.2,0.3,0.5,0.9-0.2,1.5
		C42.5,42.2,41.9,41.9,41.5,41.5z"/>
	<path class="st6" d="M41.5,46.5c-0.2-0.2-0.3-0.7,0.1-1.1c0.4-0.5,0.9-0.7,1.2-0.5c0.3,0.2,0.8,0.6,0.4,1.3S42.2,47.1,41.5,46.5z"
		/>
	<path class="st6" d="M42.5,51.9c-0.1-0.2-0.1-0.7,0.2-1s1-0.8,1.3-0.6c0.3,0.2,0.7,0.6,0.5,1.2s-0.7,1-1.2,1S42.5,51.9,42.5,51.9z"
		/>
	<path class="st7" d="M40,38.2c-0.2-0.2,0-0.4,0.2-0.5s0.7-0.6,1.2-0.1c0.5,0.4,1.4,1.4,1,1.9c-0.4,0.5-0.7,0.7-1,0.5
		C41.1,39.6,40,38.2,40,38.2z"/>
	<path class="st7" d="M39.9,43.2c-0.1-0.2-0.1-0.5,0.2-0.7c0.3-0.2,0.6-0.6,1.1-0.2c0.5,0.4,1,0.8,1.3,1.2c0.3,0.3,0.2,0.9-0.3,1.1
		c-0.5,0.3-0.7,0.4-0.9,0.2C41.2,44.7,39.9,43.2,39.9,43.2z"/>
	<path class="st7" d="M40.1,48.6c-0.2-0.2-0.2-0.3,0-0.5c0.2-0.2,0.7-0.8,1.2-0.6s1.7,1.7,1.8,1.9c0.2,0.2,0,0.7-0.3,1
		c-0.3,0.3-0.3,0.2-0.6,0C41.9,50.2,40.1,48.6,40.1,48.6z"/>
	<path class="st2" d="M60.7,41.5c-0.3-0.8-0.7-3.4-0.8-4.1c-0.1-0.7-0.9-2.1-1.2-2.2c-0.3-0.1-1.5,0-2.1,1.2
		c-0.6,1.2,0.1,3.7,0.5,4.7c0.3,0.8,0.7,1.9,0.8,2.2h3.3C61.1,42.6,60.9,42.1,60.7,41.5z"/>
	<path class="st1" d="M57.4,41.9c0,0,0.3,1,0.4,1.4s-0.2,1.4-0.4,1.6L57.4,41.9z"/>
	<path class="st6" d="M59.8,37.8c0,0-0.6,0.2-0.9-0.8c-0.2-1-0.3-1.5-0.2-1.7c0-0.2,0.2-0.2,0.4-0.2s0.3,0.2,0.5,0.6
		C59.7,36.1,60,37.8,59.8,37.8z"/>
	<path class="st7" d="M61.2,44c0-0.3,0-0.5,0-0.7c-0.1-0.7-0.2-1.2-0.4-1.8C60.5,40.9,60.2,39,60,38c-0.2,0-0.6-0.1-0.6,0
		c0,0.2,0.3,2.2,0.5,2.5c0.1,0.3,0.4,1.1,0.6,1.7s0.6,2.7-0.2,5.5c-0.7,2.3-2.1,4.5-2.8,5.5c1.1-0.8,1.8-1.7,2.6-3.5
		C61.1,47.3,61.2,45,61.2,44z"/>
	<path class="st7" d="M56.5,57v-3.2c0.2-0.1,0.5-0.3,0.7-0.4l0,0c-0.5,0.3-1.1,0.8-2.2,0.3V57H56.5z"/>
	<path class="st4" d="M57.8,60.7H43.3c-0.3,0-0.6-0.2-0.6-0.6v-3.3c0-0.3,0.2-0.6,0.6-0.6h14.5c0.3,0,0.6,0.2,0.6,0.6v3.3
		C58.3,60.4,58.1,60.7,57.8,60.7z"/>
	<path class="st8" d="M56.8,59.4h-0.5c-0.4,0-0.7-0.3-0.7-0.7v-0.5c0-0.4,0.3-0.7,0.7-0.7h0.5c0.4,0,0.7,0.3,0.7,0.7v0.5
		C57.5,59.1,57.2,59.4,56.8,59.4z"/>
	<circle class="st4" cx="56.2" cy="58.7" r="0.2"/>
	<circle class="st4" cx="56.2" cy="58.2" r="0.2"/>
	<circle class="st4" cx="56.8" cy="58.7" r="0.2"/>
	<circle class="st4" cx="56.8" cy="58.2" r="0.2"/>
</g>
</svg>
