<?xml version="1.0" encoding="utf-8"?>
<!-- Generator: Adobe Illustrator 21.1.0, SVG Export Plug-In . SVG Version: 6.00 Build 0)  -->
<svg version="1.1" id="Camada_1" xmlns="http://www.w3.org/2000/svg" xmlns:xlink="http://www.w3.org/1999/xlink" x="0px" y="0px"
	 viewBox="0 0 100 80" style="enable-background:new 0 0 100 80;" xml:space="preserve">
<style type="text/css">
	.st0{fill:#FFFFFF;}
</style>
<g>
	<g>
		<path class="st0" d="M56.5,43.6h-1.3l-1.1-3.2l-1.1,3.2h-1.3L50,37.1h1.7l0.9,3.4l1.1-3.4h1.1l1.1,3.4l0.9-3.4h1.7L56.5,43.6z"/>
		<path class="st0" d="M64.8,43.6h-1.3l-1.1-3.2l-1.1,3.2h-1.3l-1.8-6.5h1.7l0.9,3.4l1.1-3.4H63l1.1,3.4l0.9-3.4h1.7L64.8,43.6z"/>
		<path class="st0" d="M73.1,43.6h-1.3l-1.1-3.2l-1.1,3.2h-1.3l-1.8-6.5h1.7l0.9,3.4l1.1-3.4h1.1l1.1,3.4l0.9-3.4h1.7L73.1,43.6z"/>
		<path class="st0" d="M76.8,42.7c0,0.1,0,0.3-0.1,0.4c0,0.1-0.1,0.2-0.2,0.3c-0.1,0.1-0.2,0.2-0.3,0.2c-0.1,0.1-0.2,0.1-0.4,0.1
			c-0.1,0-0.3,0-0.4-0.1s-0.2-0.1-0.3-0.2C75,43.3,75,43.2,74.9,43c-0.1-0.1-0.1-0.2-0.1-0.4c0-0.1,0-0.3,0.1-0.4s0.1-0.2,0.2-0.3
			c0.1-0.1,0.2-0.2,0.3-0.2s0.2-0.1,0.4-0.1c0.1,0,0.3,0,0.4,0.1c0.1,0,0.2,0.1,0.3,0.2c0.1,0.1,0.2,0.2,0.2,0.3
			S76.8,42.5,76.8,42.7z"/>
	</g>
	<path class="st0" d="M50,33.5h9.4V21.9H23.2v36.2h36.2V46.5H50c-1.5,0-2.8-1.2-2.8-2.8v-7.5C47.3,34.7,48.5,33.5,50,33.5z
		 M37.9,46.9c-3.8,0-6.9-3.1-6.9-6.9c0-3.8,3.1-6.9,6.9-6.9c2,0,3.8,0.9,5.1,2.3l1.2-1.2v3.8h-3.8l1.4-1.4c-1-1.1-2.5-1.8-4-1.8
		c-3,0-5.4,2.4-5.4,5.4c0,3,2.4,5.4,5.4,5.4s5.4-2.4,5.4-5.4c0-0.4,0.3-0.8,0.8-0.8s0.8,0.3,0.8,0.8C44.8,43.8,41.7,46.9,37.9,46.9z
		"/>
</g>
</svg>
