<?xml version="1.0" encoding="utf-8"?>
<!-- Generator: Adobe Illustrator 19.1.1, SVG Export Plug-In . SVG Version: 6.00 Build 0)  -->
<svg version="1.1" id="Camada_1" xmlns="http://www.w3.org/2000/svg" xmlns:xlink="http://www.w3.org/1999/xlink" x="0px" y="0px"
	 viewBox="-247 380.9 100 80" style="enable-background:new -247 380.9 100 80;" xml:space="preserve">
<style type="text/css">
	.st0{fill:#FFFFFF;}
</style>
<g>
	<path class="st0" d="M-207.4,414.6v21.7c0,2,1.5,3.5,3.5,3.5h28.4c1.8,0,3.5,0.7,4.9,1.8l6.9,5.9c0.7,0.7,2,0.1,2-0.8v-6.7v-2.2
		v-23.1c0-2-1.5-3.5-3.5-3.5h-38.6C-205.8,411.1-207.4,412.6-207.4,414.6z"/>
	<path class="st0" d="M-210.3,414.6c0-3.5,2.9-6.4,6.4-6.4h17.4v-2.8c0-2-1.5-3.5-3.5-3.5h-28.6c-1.8,0-3.5-0.7-4.9-1.8l-6.7-5.7
		c-0.7-0.7-2-0.1-2,0.8v6.7v2.2v23c0,2,1.5,3.5,3.5,3.5h18.3V414.6z"/>
</g>
</svg>
