<?xml version="1.0" encoding="utf-8"?>
<!-- Generator: Adobe Illustrator 19.1.1, SVG Export Plug-In . SVG Version: 6.00 Build 0)  -->
<svg version="1.1" id="Camada_1" xmlns="http://www.w3.org/2000/svg" xmlns:xlink="http://www.w3.org/1999/xlink" x="0px" y="0px"
	 viewBox="-247 380.9 100 80" style="enable-background:new -247 380.9 100 80;" xml:space="preserve">
<style type="text/css">
	.st0{fill:#FFFFFF;}
	.st1{fill:none;stroke:#FFFFFF;stroke-width:3.4169;stroke-linecap:round;stroke-miterlimit:10;}
	.st2{fill:none;stroke:#FFFFFF;stroke-width:1.4762;stroke-linecap:round;stroke-miterlimit:10;}
</style>
<g>
	<g>
		<path class="st0" d="M-216.2,389.7c-5.2,0-9.4,4.2-9.4,9.4c0,5.2,4.2,9.4,9.4,9.4c5.2,0,9.4-4.2,9.4-9.4
			C-206.8,393.9-210.9,389.7-216.2,389.7z M-216.2,407.3c-4.5,0-8.1-3.6-8.1-8.1s3.6-8.1,8.1-8.1c4.5,0,8.1,3.6,8.1,8.1
			S-211.6,407.3-216.2,407.3z"/>
		<path class="st0" d="M-216.2,391.6c-4.2,0-7.6,3.4-7.6,7.6s3.4,7.6,7.6,7.6c4.2,0,7.6-3.4,7.6-7.6S-212,391.6-216.2,391.6z
			 M-212.4,397.9l-2.9,2.2c-0.3,0.1-0.6,0.3-0.8,0.3h-0.1c-0.3,0-0.7-0.3-0.8-0.6l-3.4-4.5c-0.4-0.6-0.3-1.4,0.3-1.8
			c0.6-0.4,1.4-0.3,1.8,0.3l2.5,3.5l2-1.4c0.6-0.4,1.4-0.3,1.8,0.3C-211.7,396.7-211.7,397.5-212.4,397.9z"/>
	</g>
	<g>
		<path class="st0" d="M-216.2,412.4c-5.2,0-9.4,4.2-9.4,9.4c0,5.2,4.2,9.4,9.4,9.4c5.2,0,9.4-4.2,9.4-9.4
			C-206.7,416.5-210.9,412.4-216.2,412.4z M-216.2,429.9c-4.5,0-8.1-3.6-8.1-8.1c0-4.5,3.6-8.1,8.1-8.1c4.5,0,8.1,3.6,8.1,8.1
			C-207.9,426.2-211.6,429.9-216.2,429.9z"/>
		<path class="st0" d="M-216.2,414.3c-4.2,0-7.6,3.4-7.6,7.6c0,4.2,3.4,7.6,7.6,7.6c4.2,0,7.6-3.4,7.6-7.6
			C-208.6,417.7-212,414.3-216.2,414.3z M-212.3,423.1h-3.9c-0.4,0-0.8-0.3-1.1-0.6c-0.3-0.4-0.3-0.8-0.1-1.3l2.1-5.5
			c0.3-0.7,1-1,1.7-0.7c0.7,0.3,1,1,0.7,1.7l-1.4,3.6h2c0.7,0,1.3,0.6,1.3,1.3C-210.9,422.4-211.4,423.1-212.3,423.1z"/>
	</g>
	<g>
		<path class="st0" d="M-216.2,433.2c-5.2,0-9.4,4.2-9.4,9.4s4.2,9.4,9.4,9.4c5.2,0,9.4-4.2,9.4-9.4
			C-206.7,437.5-210.9,433.2-216.2,433.2z M-216.2,450.9c-4.5,0-8.1-3.6-8.1-8.1c0-4.5,3.6-8.1,8.1-8.1c4.5,0,8.1,3.6,8.1,8.1
			C-208.1,447.2-211.6,450.9-216.2,450.9z"/>
		<path class="st0" d="M-216.2,435.2c-4.2,0-7.6,3.4-7.6,7.6c0,4.2,3.4,7.6,7.6,7.6c4.2,0,7.6-3.4,7.6-7.6
			C-208.6,438.5-212,435.2-216.2,435.2z M-212.1,446c-0.4,0.6-1.3,0.7-1.8,0.1l-2.2-1.8l-3.6,3.2c-0.3,0.1-0.6,0.3-0.8,0.3
			c-0.4,0-0.7-0.1-1-0.4c-0.4-0.6-0.4-1.4,0.1-1.8l4.5-3.8c0.4-0.4,1.1-0.4,1.7,0l3.1,2.5C-211.7,444.5-211.6,445.4-212.1,446z"/>
	</g>
	<g>
		<line class="st1" x1="-200.2" y1="393.7" x2="-178.9" y2="393.7"/>
		<line class="st2" x1="-201.5" y1="400.5" x2="-168.4" y2="400.5"/>
		<line class="st2" x1="-201.5" y1="404.5" x2="-168.4" y2="404.5"/>
	</g>
	<g>
		<line class="st1" x1="-200.2" y1="416.3" x2="-178.9" y2="416.3"/>
		<line class="st2" x1="-201.5" y1="423.1" x2="-168.4" y2="423.1"/>
		<line class="st2" x1="-201.5" y1="427.2" x2="-168.4" y2="427.2"/>
	</g>
	<g>
		<line class="st1" x1="-200.2" y1="437.3" x2="-178.9" y2="437.3"/>
		<line class="st2" x1="-201.5" y1="444" x2="-168.4" y2="444"/>
		<line class="st2" x1="-201.5" y1="448" x2="-168.4" y2="448"/>
	</g>
</g>
</svg>
