<?xml version="1.0" encoding="utf-8"?>
<!-- Generator: Adobe Illustrator 21.1.0, SVG Export Plug-In . SVG Version: 6.00 Build 0)  -->
<svg version="1.1" id="Camada_1" xmlns="http://www.w3.org/2000/svg" xmlns:xlink="http://www.w3.org/1999/xlink" x="0px" y="0px"
	 viewBox="0 0 100 80" style="enable-background:new 0 0 100 80;" xml:space="preserve">
<style type="text/css">
	.st0{fill:#FFFFFF;}
</style>
<g>
	<path class="st0" d="M68,23.7v30V57v2.4H34.9c-1.6,0-2.9-1.3-2.9-2.9c0-1.6,1.3-2.9,2.9-2.9h30.1V17.9H35.2c-3.2,0-5.8,2.6-5.8,5.8
		v32.5c0,3.2,2.6,5.8,5.8,5.8h35.5V23.7H68z M58.4,38.8l0.1,0.8h-1.7l-0.1-0.8l0-0.4h1.6L58.4,38.8z M58.3,37.9L58.3,37.9L56.7,38
		l0-0.1c-0.4-3.4-2.3-6.1-4.5-8.1l0.8,0C55.5,31.7,57.7,34.5,58.3,37.9z M47,37.9L47,37.9L44.2,38l0-0.1c0.4-3.3,2.1-6,4-8h0.9
		c-1.1,2.1-2,4.6-2.2,7.6C47,37.6,47,37.8,47,37.9z M47,38.4l0,0.4l0,0.8h-2.9l0.1-1.3H47z M50.6,29.9c0.9,2.6,1.5,4.9,1.5,7.3
		c0,0.3,0,0.5,0,0.8l0,0h-4.2l0-0.1c0-0.3,0-0.5,0-0.7c0.1-2.5,0.7-4.8,1.6-7.3L50.6,29.9z M49.7,29.4l0-0.8h0.7l0,0.8H49.7z
		 M47.9,38.4h4.3l0,0.4l0,0.8h-4.3L47.9,38.4z M51,29.9h0.9c1.9,2,3.5,4.7,3.9,8l0,0.1H53l0-0.1c0-0.2,0-0.3,0-0.5
		C52.9,34.5,52.1,32,51,29.9z M55.9,38.4l0.1,1.3h-2.9l0-1.3H55.9z M52.4,29.4h-0.7l0-0.8h0.7L52.4,29.4z M51.9,27.6
		c0.3,0,0.5,0.2,0.5,0.4l0,0.3h-0.9l0-0.3C51.5,27.7,51.7,27.6,51.9,27.6z M51.4,29.4h-0.8l0-0.8h0.8L51.4,29.4z M49.3,27.7
		c0-0.4,0.4-0.7,0.8-0.7c0.4,0,0.7,0.3,0.8,0.7l0,0.7l-1.6,0L49.3,27.7z M49.4,28.6l0,0.8h-0.7l0-0.8H49.4z M47.8,28
		c0-0.2,0.2-0.4,0.5-0.4c0.3,0,0.5,0.2,0.4,0.4l0,0.3h-0.9L47.8,28z M47.7,28.6h0.7l0,0.8h-0.7L47.7,28.6z M41.7,37.9
		c0.6-3.4,3-6.2,5.4-8.1c0.5,0,0.8,0,0.8,0c-2.2,2-4.2,4.7-4.6,8.1l0,0.1L41.7,37.9L41.7,37.9z M41.6,38.4h1.6l-0.1,1.3h-1.7
		L41.6,38.4z M40.2,40.1l19.5,0l0.1,0.7H40.2L40.2,40.1z M59.2,42.6h-0.5l-0.1-1.4h0.5L59.2,42.6z M58.1,42.6h-0.7l-0.1-1.4H58
		L58.1,42.6z M56.8,42.6h-0.9l-0.1-1.4h0.8L56.8,42.6z M55.3,42.6h-0.8l-0.1-1.4h0.8L55.3,42.6z M53.8,42.6h-0.9l0-1.4h0.9
		L53.8,42.6z M52.2,42.6h-1l0-1.4h1L52.2,42.6z M50.5,41.1l0,1.4h-1.1l0-1.4H50.5z M48.8,41.1l0,1.4h-1l0-1.4H48.8z M47.2,41.1
		l-0.1,1.4h-0.9l0.1-1.4H47.2z M45.6,41.1l-0.1,1.4h-0.8l0.1-1.4H45.6z M44.1,41.1L44,42.6h-0.9l0.1-1.4H44.1z M42.6,41.1l-0.1,1.4
		h-0.7l0.1-1.4H42.6z M41.3,41.1l-0.1,1.4h-0.5l0.2-1.4H41.3z M39.9,43.2H60l0.1,1l0.1,0.6H39.7L39.9,43.2z"/>
</g>
</svg>
