<?xml version="1.0" encoding="utf-8"?>
<!-- Generator: Adobe Illustrator 21.1.0, SVG Export Plug-In . SVG Version: 6.00 Build 0)  -->
<svg version="1.1" id="Camada_1" xmlns="http://www.w3.org/2000/svg" xmlns:xlink="http://www.w3.org/1999/xlink" x="0px" y="0px"
	 viewBox="0 0 100 80" style="enable-background:new 0 0 100 80;" xml:space="preserve">
<style type="text/css">
	.st0{fill:#FFFFFF;}
</style>
<g>
	<path class="st0" d="M51.6,63.3c4.2-0.3,8.1-1.9,11.2-4.4L50.6,44.1L51.6,63.3z"/>
	<path class="st0" d="M54.8,44.9l15,11.7c2.3-3,3.7-6.7,4-10.7L54.8,44.9z"/>
	<path class="st0" d="M29.8,44c0.1,1.1,0.2,2.2,0.4,3.2l16-3.7L29.8,44z"/>
	<path class="st0" d="M29.8,57.8c1.3,1.9,2.8,3.5,4.6,4.8L45,47.8L29.8,57.8z"/>
	<path class="st0" d="M26.1,41.9c0,0.1,0,0.1,0,0.2L45,41.5l-16.5-9.2C27,35.2,26.1,38.4,26.1,41.9z"/>
	<path class="st0" d="M49.1,41.1l-4.9-17.6c-2,0.6-3.8,1.5-5.5,2.6C39.7,27.6,49.1,41.1,49.1,41.1z"/>
	<path class="st0" d="M48.7,41.8c0,0-9.8-12.5-11.5-14.5c-1.9,1.5-3.4,3.4-4.7,5.4L48.7,41.8z"/>
	<path class="st0" d="M69.4,36.8l-17.3,5.9l18.3,1c0-0.2,0-0.5,0-0.7C70.4,40.8,70.1,38.8,69.4,36.8z"/>
	<path class="st0" d="M48.7,34.4l0.4-17.7c0,0-0.1,0-0.1,0c-1.8,0-3.5,0.2-5.1,0.6L48.7,34.4z"/>
	<path class="st0" d="M51,22.7l-0.4,18.2L57.3,24C55.3,23.2,53.2,22.8,51,22.7z"/>
	<line class="st0" x1="38.8" y1="26.1" x2="38.8" y2="26.1"/>
	<path class="st0" d="M58.9,24.7l-8.2,17.7l18.1-7.1C67,30.6,63.4,26.9,58.9,24.7z"/>
	<path class="st0" d="M32.8,53.7L48,43.9l-17.4,4.8C31.1,50.5,31.9,52.2,32.8,53.7z"/>
	<path class="st0" d="M49.8,44.1L38.5,59.7c3.3,2.3,7.3,3.6,11.6,3.6c0,0,0.1,0,0.1,0L49.8,44.1z"/>
	<path class="st0" d="M64,57.9c0.7-0.6,1.3-1.3,1.9-2L52.7,45.6l0.2,0.3L64,57.9z"/>
</g>
</svg>
