<?xml version="1.0" encoding="utf-8"?>
<!-- Generator: Adobe Illustrator 19.1.1, SVG Export Plug-In . SVG Version: 6.00 Build 0)  -->
<svg version="1.1" id="Camada_1" xmlns="http://www.w3.org/2000/svg" xmlns:xlink="http://www.w3.org/1999/xlink" x="0px" y="0px"
	 viewBox="0 0 374.2 166.2" style="enable-background:new 0 0 374.2 166.2;" xml:space="preserve">
<style type="text/css">
	.st0{fill:#172B53;stroke:#172B53;stroke-width:0.1632;stroke-miterlimit:10;}
	.st1{font-family:'DIN-Regular';}
	.st2{font-size:24.1629px;}
	.st3{fill:#172C53;}
	.st4{font-size:25.1414px;}
</style>
<g>
	<text transform="matrix(0.9848 0 -0.1736 0.9848 208.5605 146.4749)" class="st0 st1 st2">0800 0220008</text>
	<g>
		<text transform="matrix(0.9848 0 -0.1736 0.9848 12.396 146.2557)" class="st3 st1 st4">Aqui você tem voz.</text>
	</g>
	<path class="st3" d="M94,102.9l-2.9-16.1c-0.1-0.7-0.8-1.2-1.5-1.2H55.8c-0.6,0-1.1,0.3-1.3,0.8l-9,17c-0.3,0.5-0.8,0.8-1.3,0.8
		h-5.9c-1.1,0-1.9-1.2-1.3-2.2l43.2-79.3c0.3-0.5,0.8-0.8,1.3-0.8h5.3c0.7,0,1.3,0.5,1.5,1.2l15.1,79.3c0.2,0.9-0.5,1.8-1.5,1.8
		h-6.3C94.7,104.1,94.1,103.6,94,102.9z M80,38.2L60.1,75.6c-0.5,1,0.2,2.2,1.3,2.2h26.5c0.9,0,1.6-0.8,1.5-1.8l-6.5-37.4
		C82.6,37.3,80.7,37,80,38.2z"/>
	<path class="st3" d="M122,104.1c-5,0-8.4-1.4-10.2-4.3c-1.8-2.9-2.3-6.5-1.6-10.8l11.7-66.1c0.1-0.6,0.7-1.1,1.3-1.1h5.6
		c0.8,0,1.5,0.8,1.3,1.6l-11.5,65.3c-0.5,2.8-0.3,4.9,0.5,6.2c0.8,1.4,2.7,2.1,5.6,2.1h2.9c0.8,0,1.5,0.8,1.3,1.6l-0.8,4.5
		c-0.1,0.6-0.7,1.1-1.3,1.1H122z"/>
	<path class="st3" d="M178.1,88.1c-1.6,3.9-4,7.3-7.4,10.2c-2.4,2-5,3.6-7.9,4.7c-2.9,1.2-6.1,1.7-9.6,1.7c-3.5,0-6.4-0.6-8.9-1.7
		c-2.5-1.2-4.6-2.7-6.2-4.7c-1.2-1.5-2.1-3.1-2.7-4.8c-0.6-1.7-1-3.5-1.1-5.4c-0.2-1.9-0.2-3.9,0-6c0.2-2.1,0.5-4.2,0.9-6.5
		c0.4-2.2,0.9-4.3,1.4-6.4c0.6-2.1,1.3-4.1,2.1-6c0.8-1.9,1.8-3.7,3-5.4c1.2-1.7,2.6-3.3,4.4-4.8c2.4-2,5-3.6,7.9-4.7
		c2.9-1.2,6.1-1.7,9.6-1.7c3.5,0,6.4,0.6,8.9,1.7c2.5,1.2,4.6,2.7,6.2,4.7c2.3,2.9,3.6,6.3,3.8,10.2c0.2,3.9-0.1,8-0.9,12.4
		C180.9,80,179.7,84.2,178.1,88.1z M174.1,70.8c0.2-1.6,0.3-3.2,0.3-4.7c0-1.5-0.2-3-0.6-4.3c-0.4-1.3-1-2.6-1.8-3.6
		c-2.3-2.8-5.5-4.2-9.7-4.2c-4.1,0-7.8,1.4-11,4.2c-1.3,1.1-2.3,2.3-3.1,3.6c-0.8,1.3-1.5,2.8-2.2,4.3c-0.6,1.5-1.1,3.1-1.5,4.7
		c-0.4,1.6-0.7,3.2-1,4.9c-0.3,1.6-0.5,3.2-0.7,4.9c-0.2,1.6-0.3,3.2-0.2,4.7c0.1,1.5,0.3,3,0.6,4.4c0.3,1.4,1,2.6,1.9,3.6
		c2.3,2.8,5.5,4.2,9.6,4.2c4.2,0,7.9-1.4,11.1-4.2c1.2-1,2.2-2.2,3.1-3.6c0.9-1.4,1.6-2.9,2.2-4.4c0.6-1.5,1.1-3.1,1.4-4.7
		c0.4-1.6,0.7-3.2,1-4.9C173.6,74,173.8,72.4,174.1,70.8z"/>
	<path class="st3" d="M219.3,103.6l-1.5-8.5c-0.1-0.5-0.5-0.8-1-0.8h-16c-0.4,0-0.7,0.2-0.9,0.5l-4.8,9.1c-0.2,0.3-0.5,0.5-0.9,0.5
		h-5.6c-0.8,0-1.2-0.8-0.9-1.5l24.4-45.3c0.2-0.3,0.5-0.5,0.9-0.5h4.3c0.5,0,0.9,0.3,1,0.8l8.4,45.3c0.1,0.6-0.4,1.2-1,1.2h-5.6
		C219.8,104.5,219.4,104.1,219.3,103.6z M216.5,86.5L214,72c-0.2-0.9-1.4-1.1-1.9-0.3l-7.6,14.5c-0.3,0.7,0.1,1.5,0.9,1.5h10.1
		C216.1,87.7,216.6,87.1,216.5,86.5z"/>
	<path class="st3" d="M229.6,103.3l8-45.3c0.1-0.5,0.5-0.8,1-0.8h5.2c0.6,0,1.1,0.6,1,1.2L238,96.5c-0.1,0.6,0.4,1.2,1,1.2h20.2
		c0.6,0,1.1,0.6,1,1.2l-0.8,4.8c-0.1,0.5-0.5,0.8-1,0.8h-27.8C230,104.5,229.5,103.9,229.6,103.3z"/>
	<path class="st3" d="M262.6,103.3l8-45.3c0.1-0.5,0.5-0.8,1-0.8h27.9c0.6,0,1.1,0.6,1,1.2l-0.8,4.8c-0.1,0.5-0.5,0.8-1,0.8h-21
		c-0.5,0-0.9,0.3-1,0.8l-2,11.3c-0.1,0.6,0.4,1.2,1,1.2h17c0.6,0,1.1,0.6,1,1.2l-0.8,4.8c-0.1,0.5-0.5,0.8-1,0.8h-17.7
		c-0.5,0-0.9,0.3-1,0.8l-2.1,11.7c-0.1,0.6,0.4,1.2,1,1.2h20.3c0.6,0,1.1,0.6,1,1.2l-0.8,4.8c-0.1,0.5-0.5,0.8-1,0.8h-27.9
		C263,104.5,262.5,103.9,262.6,103.3z"/>
	<path class="st3" d="M321.2,103.8l-6.1-18.5c-0.1-0.4-0.5-0.7-0.9-0.7h-7.1c-0.5,0-0.9,0.3-1,0.8l-3.2,18.2c-0.1,0.5-0.5,0.8-1,0.8
		h-5.2c-0.6,0-1.1-0.6-1-1.2l8-45.3c0.1-0.5,0.5-0.8,1-0.8h17.1c2,0,3.9,0.3,5.6,0.9c1.7,0.6,3.1,1.6,4.2,2.8
		c1.1,1.2,1.9,2.7,2.3,4.5c0.4,1.7,0.4,3.6,0.1,5.7c-0.6,3.5-2.1,6.4-4.4,8.7c-1.7,1.7-3.7,2.9-5.9,3.7c-0.5,0.2-0.8,0.7-0.6,1.3
		l6.2,18.4c0.2,0.6-0.3,1.3-0.9,1.3h-6.1C321.7,104.5,321.3,104.2,321.2,103.8z M317.7,77.9c2.4,0,4.3-0.6,6-1.8
		c1.6-1.2,2.6-2.9,3-5.4c0.4-2.4,0.1-4-1-5.1c-1.1-1.1-2.9-1.7-5.1-1.7h-9.9c-0.5,0-0.9,0.3-1,0.8l-2.1,11.9c-0.1,0.6,0.4,1.2,1,1.2
		H317.7z"/>
	<path class="st3" d="M342.3,104.8c-2.3,0-4.3-0.4-5.9-1.1c-1.7-0.7-3.2-1.9-4.4-3.4l-0.8-0.9l5.7-4.9l0.8,1.1
		c0.5,0.7,1.2,1.3,2,1.8c0.5,0.3,1.5,0.7,3.4,0.7c2.6,0,4.6-0.8,6.3-2.3c1.7-1.6,2.8-3.9,3.3-6.9l5.4-30.8c0.1-0.5,0.5-0.8,1-0.8
		h5.2c0.6,0,1.1,0.6,1,1.2l-5.6,31.5c-0.4,2.3-1.1,4.4-2.2,6.2c-1.1,1.9-2.4,3.5-3.9,4.7c-1.5,1.3-3.3,2.3-5.2,3
		C346.5,104.5,344.4,104.8,342.3,104.8z"/>
	<path class="st3" d="M205.6,31.4c-4.9-5.9-11-10.6-18.1-13.9c-6-2.8-12.6-4.4-19.6-4.8c-0.6,0-1.7-0.1-2.6-0.1
		c-1,0-1.8,0.8-1.8,1.8v2.8c0,1,0.8,1.7,1.7,1.8c1.1,0,2.3,0.1,3.1,0.1c6,0.4,11.5,1.8,16.6,4.2c6.3,2.9,11.6,7,15.9,12.2
		c2.3,2.9,4.2,6,5.7,9.2c0.4,0.8,1.3,1.2,2.2,0.9l2.6-1c0.9-0.4,1.4-1.4,1-2.4C210.5,38.4,208.3,34.8,205.6,31.4z"/>
	<path class="st3" d="M196.8,38.6c-3.8-4.6-8.6-8.3-14.1-10.9c-4.3-2-9-3.2-14-3.6c-0.8-0.1-2.3-0.1-3.5-0.1c-1,0-1.8,0.8-1.8,1.8
		v2.8c0,1,0.8,1.7,1.7,1.8c1,0,2.3,0.1,3,0.1c4.3,0.4,8.3,1.4,11.9,3.1c4.7,2.2,8.7,5.3,11.9,9.2c1.5,1.9,2.8,3.9,3.8,6
		c0.4,0.8,1.3,1.1,2.2,0.8l2.6-1c1-0.4,1.4-1.5,0.9-2.4C200.3,43.5,198.7,41,196.8,38.6z"/>
	<path class="st3" d="M188.1,45.8c-2.7-3.3-6.2-5.9-10.2-7.8c-2.9-1.3-6.1-2.2-9.6-2.6c-0.7-0.1-2-0.1-3.1-0.2c-1,0-1.8,0.8-1.8,1.8
		v2.8c0,0.9,0.8,1.7,1.7,1.8c1,0,2.2,0.1,2.8,0.1c2.7,0.3,5.1,1,7.3,2c3.2,1.5,5.8,3.5,8,6.1c0.7,0.9,1.4,1.9,2,2.9
		c0.4,0.7,1.3,1.1,2.1,0.8l2.6-1c1-0.4,1.4-1.5,0.9-2.5C190.1,48.6,189.2,47.1,188.1,45.8z"/>
	<path class="st3" d="M354.4,117.5H29.6c-0.6,0-0.9-0.6-0.7-1.1l1.8-3.5c0.1-0.3,0.4-0.4,0.7-0.4H355c0.5,0,0.8,0.4,0.8,0.9
		l-0.6,3.5C355.1,117.3,354.7,117.5,354.4,117.5z"/>
</g>
</svg>
