<?xml version="1.0" encoding="utf-8"?>
<!-- Generator: Adobe Illustrator 19.1.1, SVG Export Plug-In . SVG Version: 6.00 Build 0)  -->
<svg version="1.1" id="Camada_1" xmlns="http://www.w3.org/2000/svg" xmlns:xlink="http://www.w3.org/1999/xlink" x="0px" y="0px"
	 viewBox="0 0 612 355" style="enable-background:new 0 0 612 355;" xml:space="preserve">
<style type="text/css">
	.st0{fill:#FFFFFF;}
</style>
<g>
	<path class="st0" d="M42,264.9l-5.2-13.1l-5.5,13.1H42z M39.7,245.5c0.5,1.7,1.1,3.2,1.7,4.7l7.5,19.3c2,5.2,2.8,5.3,4.2,5.3h0.5
		v1.2H41.9v-1.2h0.9c1.9,0,2.3-0.3,2.3-1.1c0-0.5-0.1-1.1-0.5-1.9l-2.2-5.7H30.8l-1.5,3.6c-0.9,2.1-1.1,3.1-1.1,3.8
		c0,1.4,1.3,1.4,2.8,1.4h0.6v1.2h-8.7v-1.2h0.5c1.3,0,2.3-0.4,3.3-2.9l9.2-22.1c0.6-1.4,1.1-2.8,1.5-4.3H39.7z"/>
	<path class="st0" d="M73.7,253h-1.5c-0.1-3.8-2.8-6.6-6.6-6.6c-3.6,0-6.6,1.9-6.6,5.8c0,6.9,16.1,4.4,16.1,15.3
		c0,5.8-4.8,9.1-10.3,9.1c-1.8,0-3.2-0.3-4.3-0.5c-1.1-0.3-1.9-0.5-2.3-0.5c-0.7,0-1.1,0.4-1.2,0.8h-1.5V268H57
		c0.9,4.4,3,7.4,7.9,7.4c3.9,0,6.7-2.2,6.7-6.3c0-7.5-16.1-5.6-16.1-14.9c0-5.8,4.4-9.1,10-9.1c2.2,0,4.6,1.2,6,1.2
		c0.6,0,0.8-0.3,1-1h1.3V253z"/>
	<path class="st0" d="M98.1,253h-1.5c-0.1-3.8-2.8-6.6-6.6-6.6c-3.6,0-6.5,1.9-6.5,5.8c0,6.9,16.1,4.4,16.1,15.3
		c0,5.8-4.8,9.1-10.3,9.1c-1.8,0-3.3-0.3-4.4-0.5c-1.1-0.3-1.9-0.5-2.3-0.5c-0.7,0-1.1,0.4-1.2,0.8h-1.5V268h1.5
		c0.9,4.4,3,7.4,7.9,7.4c3.9,0,6.7-2.2,6.7-6.3c0-7.5-16.1-5.6-16.1-14.9c0-5.8,4.4-9.1,10-9.1c2.2,0,4.6,1.2,6,1.2
		c0.6,0,0.8-0.3,1-1h1.3V253z"/>
	<path class="st0" d="M103.9,274.8h1.7c1.1,0,1.7-0.3,1.7-2.7V250c0-2.5-0.2-2.8-1.9-2.8h-1.5v-1.2H127v7h-1.5
		c0-4.1-2.1-5.8-6.2-5.8h-7.3v13h6.3c2.8,0,4-2,4-4.6h1.5V266h-1.5c0-2.7-1-4.7-4-4.7h-6.3v13.4h7.7c4,0,6.3-1.8,6.3-5.9h1.5v7.1
		h-23.6V274.8z"/>
	<path class="st0" d="M131.5,274.8h1.4c1.8,0,1.8-1.2,1.8-4.8v-20.6c0-1.6-0.2-2.2-1.8-2.2h-1.4v-1.2h8.3c0.3,0.9,0.9,2.8,1.7,4.4
		l7.7,17.7l7.7-18.1c0.7-1.6,1.2-3,1.4-4h8.4v1.2h-1.9c-1.4,0-1.5,1-1.5,2.5v21.1c0,3,0,4.1,1.9,4.1h1.5v1.2h-11.5v-1.2h1.5
		c1.7,0,1.9-0.3,1.9-4.1v-20.2h-0.1l-10.2,23.7h-1.5l-10.2-23.7h-0.1V270c0,3.6,0.1,4.8,2.2,4.8h1.6v1.2h-8.7V274.8z"/>
	<path class="st0" d="M178.1,274.8h3.1c4.9,0,7.8-2.5,7.8-7.3c0-5.2-4-6.6-8.5-6.7h-2.4V274.8z M178.1,259.6h2.3
		c5.2,0,7.6-1.7,7.6-6.8c0-3.8-3.1-5.6-6.1-5.6h-3.7V259.6z M169.9,274.8h1.8c1.5,0,1.6-0.8,1.6-4.3v-19c0-4.1-0.2-4.3-1.6-4.3h-1.8
		v-1.2h13.5c5,0,9.7,2,9.7,7.2c0,4-4.1,6.3-7.6,7v0.1c4,0.2,8.7,3,8.7,7.4c0,5-5.6,8.5-9.8,8.5h-14.5V274.8z"/>
	<path class="st0" d="M198.7,274.8h1.3c1.7,0,2.2-0.6,2.2-2.1v-23c0-2.2-0.6-2.5-2.3-2.5h-1.1v-1.2h11.6v1.2H209
		c-1.9,0-2.1,0.7-2.1,2.5v25.2h6.5c3.3,0,6.3-2.2,6.3-6.5h1.5v7.7h-22.4V274.8z"/>
	<path class="st0" d="M224.2,274.8h1.7c1.1,0,1.7-0.3,1.7-2.7V250c0-2.5-0.2-2.8-1.9-2.8h-1.5v-1.2h23.1v7h-1.5
		c0-4.1-2.1-5.8-6.2-5.8h-7.3v13h6.3c2.8,0,4-2,4-4.6h1.5V266h-1.5c0-2.7-1-4.7-4-4.7h-6.3v13.4h7.7c4,0,6.3-1.8,6.3-5.9h1.5v7.1
		h-23.6V274.8z"/>
	<path class="st0" d="M252.3,274.8h1.3c1.7,0,2.2-0.6,2.2-2.1v-23c0-2.2-0.6-2.5-2.3-2.5h-1.1v-1.2h11.7v1.2h-1.1
		c-1.7,0-2.3,0.3-2.3,2.5v23c0,1.5,0.4,2.1,2.2,2.1h1.3v1.2h-11.7V274.8z"/>
	<path class="st0" d="M284.4,264.9l-5.2-13.1l-5.5,13.1H284.4z M282,245.5c0.5,1.7,1.1,3.2,1.7,4.7l7.5,19.3c2,5.2,2.8,5.3,4.2,5.3
		h0.5v1.2h-11.6v-1.2h0.9c1.9,0,2.3-0.3,2.3-1.1c0-0.5-0.1-1.1-0.5-1.9l-2.2-5.7h-11.7l-1.5,3.6c-0.9,2.1-1.1,3.1-1.1,3.8
		c0,1.4,1.3,1.4,2.8,1.4h0.5v1.2h-8.7v-1.2h0.5c1.3,0,2.3-0.4,3.3-2.9l9.2-22.1c0.6-1.4,1.1-2.8,1.5-4.3H282z"/>
	<path class="st0" d="M309.8,274.8h1.3c1.7,0,2.2-0.6,2.2-2.1v-23c0-2.2-0.6-2.5-2.3-2.5h-1.2v-1.2h11.6v1.2h-1.4
		c-1.9,0-2.1,0.7-2.1,2.5v25.2h6.5c3.3,0,6.3-2.2,6.3-6.5h1.5v7.7h-22.4V274.8z"/>
	<path class="st0" d="M335.3,274.8h1.7c1.1,0,1.7-0.3,1.7-2.7V250c0-2.5-0.2-2.8-1.9-2.8h-1.5v-1.2h23.1v7H357
		c0-4.1-2.1-5.8-6.2-5.8h-7.3v13h6.3c2.8,0,4-2,4-4.6h1.5V266h-1.5c0-2.7-1-4.7-4-4.7h-6.3v13.4h7.7c4,0,6.3-1.8,6.3-5.9h1.5v7.1
		h-23.6V274.8z"/>
	<path class="st0" d="M387,253.6h-1.5c-0.3-4.1-3.3-7.1-7.5-7.1c-7.7,0-8.9,8.8-8.9,14.8c0,6.3,1.3,14,8.4,14.3c3,0.1,6-1.7,5.9-5.9
		v-3.4c0-1.6-0.4-2.2-1.5-2.2h-1.7v-1.2h10.5v1.2h-1.1c-1.4,0-1.6,0.6-1.6,2.7v9.8h-1.2c-0.1-0.5-0.3-1-1.3-1
		c-1.4,0-3.4,1.3-7.9,1.3c-10.1,0-13.6-6.9-13.6-16c0-8.3,5-15.4,13.8-15.4c2.1,0,3.6,0.3,4.6,0.7c1.1,0.3,1.9,0.7,2.5,0.7
		c0.5,0,0.7-0.5,0.7-1.1h1.5V253.6z"/>
	<path class="st0" d="M393.2,274.8h1.3c1.7,0,2.2-0.6,2.2-2.1v-23c0-2.2-0.6-2.5-2.3-2.5h-1.2v-1.2h11.7v1.2h-1.1
		c-1.7,0-2.3,0.3-2.3,2.5v23c0,1.5,0.4,2.1,2.2,2.1h1.3v1.2h-11.7V274.8z"/>
	<path class="st0" d="M427.2,253h-1.5c-0.1-3.8-2.8-6.6-6.6-6.6c-3.6,0-6.6,1.9-6.6,5.8c0,6.9,16.1,4.4,16.1,15.3
		c0,5.8-4.8,9.1-10.3,9.1c-1.8,0-3.2-0.3-4.3-0.5c-1.1-0.3-1.9-0.5-2.3-0.5c-0.7,0-1.1,0.4-1.2,0.8H409V268h1.5
		c0.9,4.4,3,7.4,7.9,7.4c3.9,0,6.7-2.2,6.7-6.3c0-7.5-16.1-5.6-16.1-14.9c0-5.8,4.4-9.1,10-9.1c2.2,0,4.6,1.2,6,1.2
		c0.6,0,0.8-0.3,1-1h1.3V253z"/>
	<path class="st0" d="M432.7,274.8h1.3c1.7,0,2.2-0.6,2.2-2.1v-23c0-2.2-0.6-2.5-2.3-2.5h-1.1v-1.2h11.6v1.2h-1.4
		c-1.9,0-2.1,0.7-2.1,2.5v25.2h6.5c3.3,0,6.3-2.2,6.3-6.5h1.5v7.7h-22.4V274.8z"/>
	<path class="st0" d="M474.9,264.9l-5.2-13.1l-5.5,13.1H474.9z M472.6,245.5c0.5,1.7,1.1,3.2,1.7,4.7l7.5,19.3
		c2,5.2,2.8,5.3,4.2,5.3h0.5v1.2h-11.6v-1.2h0.9c1.9,0,2.3-0.3,2.3-1.1c0-0.5-0.1-1.1-0.5-1.9l-2.2-5.7h-11.7l-1.5,3.6
		c-0.9,2.1-1.1,3.1-1.1,3.8c0,1.4,1.3,1.4,2.8,1.4h0.5v1.2h-8.7v-1.2h0.5c1.3,0,2.3-0.4,3.3-2.9l9.2-22.1c0.6-1.4,1.1-2.8,1.5-4.3
		H472.6z"/>
	<path class="st0" d="M491.1,274.8h2c1.7,0,1.7-0.8,1.7-4.4v-23.2h-2.3c-3.8,0-6.5,2.2-6.5,6.1h-1.5v-7.4h25.4v7.4h-1.5
		c-0.1-4-2.8-6.1-6.6-6.1h-2.3v23.2c0,3.6,0,4.4,1.7,4.4h2v1.2h-12.2V274.8z"/>
	<path class="st0" d="M513,274.8h1.3c1.7,0,2.2-0.6,2.2-2.1v-23c0-2.2-0.6-2.5-2.3-2.5H513v-1.2h11.7v1.2h-1.1
		c-1.7,0-2.3,0.3-2.3,2.5v23c0,1.5,0.4,2.1,2.2,2.1h1.3v1.2H513V274.8z"/>
	<path class="st0" d="M555.6,247.1H555c-1.7,0-2.1,1-3.8,5.5l-8.1,21.4c-0.3,0.8-0.6,1.6-0.9,2.4h-2.4c-0.6-2.2-1.5-4.3-2.3-6.5
		l-7.1-18.5c-1.3-3.5-1.6-4.3-3.1-4.3h-1.1v-1.2h11.7v1.2h-1.7c-0.9,0-1.6,0.4-1.6,1.2c0,0.7,0.2,1.4,1.3,4.4l6.7,17.6l7-18.8
		c0.5-1.3,0.8-2.4,0.8-3.2c0-0.9-0.6-1.2-1.7-1.2H547v-1.2h8.7V247.1z"/>
	<path class="st0" d="M570.3,264.9l-5.2-13.1l-5.5,13.1H570.3z M568,245.5c0.5,1.7,1.1,3.2,1.7,4.7l7.5,19.3c2,5.2,2.8,5.3,4.2,5.3
		h0.5v1.2h-11.6v-1.2h0.9c1.9,0,2.3-0.3,2.3-1.1c0-0.5-0.1-1.1-0.5-1.9l-2.2-5.7h-11.7l-1.5,3.6c-0.9,2.1-1.1,3.1-1.1,3.8
		c0,1.4,1.3,1.4,2.8,1.4h0.6v1.2h-8.7v-1.2h0.5c1.3,0,2.3-0.4,3.3-2.9l9.2-22.1c0.6-1.4,1.1-2.8,1.5-4.3H568z"/>
	<path class="st0" d="M32.6,328.1h3.7c8.1,0,10.1-7,10.1-13.7c0-7.1-2.1-13.9-10.4-13.9h-3.4V328.1z M24.4,299.2h12
		c9.8,0,15.3,5.7,15.3,15.4c0,10.5-7.8,14.8-14.9,14.8H24.4v-1.2h1.8c1.5,0,1.7-0.4,1.7-4.6v-19.1c0-2.9-0.2-3.9-1.6-3.9h-1.9V299.2
		z"/>
	<path class="st0" d="M68.8,328.8c7,0,7.5-9.5,7.5-14.5c0-5-0.5-14.5-7.5-14.5c-7,0-7.5,9.5-7.5,14.5
		C61.3,319.3,61.8,328.8,68.8,328.8 M68.8,298.5c8.8,0,12.8,7.8,12.8,15.7c0,7.9-4,15.7-12.8,15.7c-8.8,0-12.8-7.8-12.8-15.7
		C56.1,306.4,60.1,298.5,68.8,298.5"/>
	<path class="st0" d="M106.3,312.9h3.3c3.6,0,6.6-1.7,6.6-6.2c0-4.6-2.5-6.2-6.7-6.2h-3.2V312.9z M98.1,328.1h1.3
		c1.7,0,2.2-0.6,2.2-2.1v-23c0-2.2-0.6-2.5-2.3-2.5h-1.1v-1.2h13.8c5,0,9.5,1.8,9.5,6.7c0,3.7-3.7,6.9-7.4,7.5v0.1
		c5.2,1,6,2.1,6.3,7.8l0.2,5.2c0,0.7,0.2,1.5,1,1.5c1.1,0,1.7-1,2-2.2l1.2,0.5c-1.1,2.2-2.4,3.6-4.8,3.6c-3.7,0-4.4-2.9-4.6-5.7
		l-0.3-5.7c-0.2-3.3-1.9-4.5-6-4.5h-2.8v11.5c0,1.9,0.2,2.5,2.1,2.5h1.4v1.2H98.1V328.1z"/>
	<path class="st0" d="M127.2,328.1h1.3c1.7,0,2.2-0.6,2.2-2.1v-23c0-2.2-0.6-2.5-2.3-2.5h-1.1v-1.2h11.7v1.2h-1.1
		c-1.7,0-2.3,0.3-2.3,2.5v23c0,1.5,0.4,2.1,2.2,2.1h1.3v1.2h-11.7V328.1z"/>
	<path class="st0" d="M155.5,328.8c7,0,7.5-9.5,7.5-14.5c0-5-0.5-14.5-7.5-14.5c-7,0-7.5,9.5-7.5,14.5
		C148,319.3,148.5,328.8,155.5,328.8 M155.5,298.5c8.8,0,12.8,7.8,12.8,15.7c0,7.9-4,15.7-12.8,15.7c-8.7,0-12.8-7.8-12.8-15.7
		C142.7,306.4,146.7,298.5,155.5,298.5"/>
	<path class="st0" d="M192.5,328.1h3.7c8.1,0,10.2-7,10.2-13.7c0-7.1-2.1-13.9-10.4-13.9h-3.4V328.1z M184.3,299.2h12
		c9.8,0,15.3,5.7,15.3,15.4c0,10.5-7.8,14.8-14.9,14.8h-12.4v-1.2h1.8c1.5,0,1.7-0.4,1.7-4.6v-19.1c0-2.9-0.2-3.9-1.6-3.9h-1.9
		V299.2z"/>
	<path class="st0" d="M215.7,328.1h1.7c1.1,0,1.7-0.3,1.7-2.7v-22.1c0-2.4-0.2-2.8-1.9-2.8h-1.5v-1.2h23.1v7h-1.5
		c0-4.1-2.1-5.8-6.2-5.8h-7.3v13h6.3c2.8,0,4-2,4-4.6h1.5v10.4h-1.5c0-2.7-1-4.7-4-4.7h-6.3v13.4h7.7c4,0,6.3-1.8,6.3-5.9h1.5v7.1
		h-23.6V328.1z"/>
	<path class="st0" d="M262.8,299.2h11.9v1.2h-1.8c-1.5,0-1.7,0.6-1.7,4.9V322c0,4.3-2.7,8-9,8c-2.1,0-4.7-0.4-6.1-1.1v-7.2h1.5
		c0.1,3.1,1.1,7,4.9,7c3.5,0,4-3.1,4-7.2v-16.3c0-4.3-0.1-4.9-2-4.9h-1.6V299.2z"/>
	<path class="st0" d="M294,318.2l-5.2-13.1l-5.5,13.1H294z M291.6,298.8c0.5,1.7,1.1,3.2,1.7,4.7l7.5,19.3c2,5.2,2.8,5.3,4.2,5.3
		h0.5v1.2h-11.6v-1.2h0.9c1.9,0,2.3-0.3,2.3-1.1c0-0.5-0.1-1.1-0.5-1.9l-2.2-5.7h-11.7l-1.5,3.6c-0.9,2.1-1.1,3.1-1.1,3.8
		c0,1.4,1.3,1.4,2.8,1.4h0.5v1.2h-8.7v-1.2h0.5c1.3,0,2.3-0.4,3.3-2.9l9.2-22.1c0.6-1.4,1.1-2.8,1.5-4.3H291.6z"/>
	<path class="st0" d="M306.5,328.1h1.5c1.8,0,1.9-1.8,1.9-4.9v-17c0-5.4-0.3-5.7-1.8-5.7h-1.5v-1.2h8.2l15.2,23.3h0.1V305
		c0-3.8-0.1-4.6-2.4-4.6h-1.4v-1.2h8.9v1.2h-1c-2.2,0-2.4,1.1-2.4,4.6v24.6h-2.7l-17.4-26.4h-0.1v19.9c0,3.1,0,4.9,1.7,4.9h1.7v1.2
		h-8.5V328.1z"/>
	<path class="st0" d="M338.5,328.1h1.7c1.1,0,1.7-0.3,1.7-2.7v-22.1c0-2.4-0.2-2.8-1.9-2.8h-1.5v-1.2h23.1v7h-1.5
		c0-4.1-2.1-5.8-6.2-5.8h-7.3v13h6.3c2.8,0,4-2,4-4.6h1.5v10.4H357c0-2.7-1-4.7-4-4.7h-6.3v13.4h7.7c4,0,6.3-1.8,6.3-5.9h1.5v7.1
		h-23.6V328.1z"/>
	<path class="st0" d="M366.6,328.1h1.3c1.7,0,2.2-0.6,2.2-2.1v-23c0-2.2-0.6-2.5-2.3-2.5h-1.1v-1.2h11.7v1.2h-1.1
		c-1.7,0-2.3,0.3-2.3,2.5v23c0,1.5,0.4,2.1,2.2,2.1h1.3v1.2h-11.7V328.1z"/>
	<path class="st0" d="M389.8,312.9h3.3c3.6,0,6.6-1.7,6.6-6.2c0-4.6-2.5-6.2-6.7-6.2h-3.2V312.9z M381.6,328.1h1.3
		c1.7,0,2.2-0.6,2.2-2.1v-23c0-2.2-0.6-2.5-2.3-2.5h-1.1v-1.2h13.8c5,0,9.5,1.8,9.5,6.7c0,3.7-3.7,6.9-7.4,7.5v0.1
		c5.2,1,6,2.1,6.3,7.8l0.2,5.2c0,0.7,0.2,1.5,1,1.5c1.1,0,1.6-1,2-2.2l1.2,0.5c-1.1,2.2-2.5,3.6-4.8,3.6c-3.7,0-4.4-2.9-4.6-5.7
		l-0.3-5.7c-0.2-3.3-1.9-4.5-6-4.5h-2.8v11.5c0,1.9,0.2,2.5,2.1,2.5h1.4v1.2h-11.6V328.1z"/>
	<path class="st0" d="M424,328.8c7,0,7.5-9.5,7.5-14.5c0-5-0.5-14.5-7.5-14.5c-7,0-7.5,9.5-7.5,14.5
		C416.4,319.3,416.9,328.8,424,328.8 M424,298.5c8.8,0,12.8,7.8,12.8,15.7c0,7.9-4,15.7-12.8,15.7c-8.8,0-12.8-7.8-12.8-15.7
		C411.2,306.4,415.2,298.5,424,298.5"/>
</g>
<rect x="22.8" y="203.6" class="st0" width="559.1" height="6.1"/>
<g>
	<path class="st0" d="M82.8,145.8l-16.4-41.6L49,145.8L82.8,145.8z M47.4,149.6l-7.9,19.9c-0.5,1.3-0.6,2.5-0.6,3.4
		c0,3.3,4.6,3.5,8.9,3.5h1.3v3.8l-26.3,0v-3.8c7.3,0,10.1-4.2,12.7-10.5l32.6-80.2h4.7l32.7,82.3c2,5,4.2,8.1,9,8.4h2v3.8l-33.5,0
		v-3.8h1.6c3.3,0,8.6-0.1,8.6-3.4c0-1.7-0.7-3.3-1.8-6.1l-7.1-17.3L47.4,149.6z"/>
	<path class="st0" d="M156.8,87.1v3.8l-3.9,0c-8,0-8,3.1-8,9l0,76.5l19,0c14,0,21.3-6.8,21.5-19.5h4.6v23.3l-67.8,0v-3.8h5.1
		c4.7,0,5.8-2.2,5.8-9.6l0-61.9c0-12.8-0.1-14.1-7.6-14.1h-3.3v-3.8L156.8,87.1z"/>
	<path class="st0" d="M199.4,176.4h5.1c4.7,0,5.8-2.2,5.8-9.6l0-61.9c0-12.8-0.1-14.1-7.6-14.1h-3.3V87l70.7,0l0,21.6h-4.6
		c0-12.6-6.8-17.8-19.1-17.8l-24.2,0v40.4l16.4,0c10.9,0,16.9-2.5,16.9-14.4h4.6v32.2h-4.6c0-12.4-7.8-14-14.1-14h-19.1l0,41.4
		l22.8,0c13.3,0,21.5-2.9,22.1-17.9h4.6v21.7l-72.2,0V176.4z"/>
	<path class="st0" d="M310.9,129.3h12.7c11.8,0,20.3-8.2,20.3-20c0-13.1-8-18.4-20.4-18.4h-12.6L310.9,129.3z M288.1,176.4h5.1
		c4.7,0,5.8-2.2,5.8-9.6l0-61.9c0-12.8-0.1-14.1-7.6-14.1h-3.3V87l34.3,0c15.2,0,35.3,2.9,35.3,22.1c0,13-12.3,19.8-23.6,21.9v0.3
		c9.2,1.6,18.3,6.4,18.3,17v18.4c0,2.9,0,9,4.3,9c4.1,0,5-3.8,6.5-6.5l3.9,1.4c-2.7,6-7.1,11.6-14.4,11.7c-9.9,0-12.3-6-12.3-16
		v-13.6c0-14.8-4.2-19.6-18.7-19.6l-11,0l0,31.9c0,9.4,0.4,11.4,6.8,11.4l4.1,0v3.8l-33.6,0V176.4z"/>
	<path class="st0" d="M410.9,97.1c-5.2,0-10.1-1.5-14.2-3.9c4.6,12.9,11.7,36.3,11.4,58.8c-0.1,13.3-1.5,23-13.6,23
		c-11,0-12.9-5.8-13.3-18.1h-4.6l0,21.7c6.2,2.9,12.6,3.7,19,3.7c22,0,29.8-27.8,32.6-38.6c4.9-19.2,4.7-45.4,4.3-56.7
		C427.2,93.1,419.5,97.1,410.9,97.1z"/>
	<path class="st0" d="M402.2,94.9c1.8,0.6,3.6,1.1,5.5,1.3l-3.4-3.4L402.2,94.9z"/>
	<path class="st0" d="M397.4,86l-3.9,3.8c1.5,1.3,3.1,2.5,4.8,3.4l3.2-3.1L397.4,86z"/>
	<polygon class="st0" points="400.2,69.8 404.3,73.9 408.3,69.9 404.2,65.8 	"/>
	<path class="st0" d="M414.7,96.1c1.8-0.2,3.5-0.7,5.2-1.3L418,93L414.7,96.1z"/>
	<path class="st0" d="M427.6,83.6l3.6,3.6c1.3-1.4,2.4-3,3.3-4.7l-2.9-2.8L427.6,83.6z"/>
	<polygon class="st0" points="424.8,67.4 428.8,63.5 424.7,59.4 420.6,63.3 	"/>
	<path class="st0" d="M384.7,73.2c0.2,1.8,0.6,3.5,1.2,5.1l2-2L384.7,73.2z"/>
	<path class="st0" d="M420.7,90.3l3,2.9c1.7-0.9,3.3-2,4.7-3.3l-3.6-3.6L420.7,90.3z"/>
	<path class="st0" d="M390.6,79.1l-3.1,3c0.9,1.8,2,3.4,3.3,4.9l3.9-3.8L390.6,79.1z"/>
	<path class="st0" d="M424.7,54l4.1-4c-1.5-1.3-3.1-2.5-4.8-3.4l-3.4,3.4L424.7,54z"/>
	<path class="st0" d="M431.6,60.8l3.2-3.1c-0.9-1.8-2-3.4-3.3-5l-4.1,4L431.6,60.8z"/>
	<path class="st0" d="M437.5,66.7c-0.2-1.8-0.6-3.5-1.1-5.2l-2.1,2L437.5,66.7z"/>
	<path class="st0" d="M407.9,43.3c-2.1,0.2-4.1,0.7-6,1.4l2.2,2.2L407.9,43.3z"/>
	<path class="st0" d="M401.4,49.6l-3.2-3.2c-1.7,0.9-3.3,2.1-4.7,3.3l3.9,3.9L401.4,49.6z"/>
	<path class="st0" d="M420.3,44.8c-2-0.7-4.1-1.3-6.3-1.5l3.9,3.8L420.3,44.8z"/>
	<path class="st0" d="M394.6,56.3l-3.8-3.8c-1.2,1.5-2.3,3-3.3,4.7l3,3L394.6,56.3z"/>
	<path class="st0" d="M385.9,61c-0.5,1.6-0.9,3.2-1.2,4.9l3.1-3L385.9,61z"/>
	<polygon class="st0" points="407.1,90.1 411.2,94.2 415.3,90.2 411.1,86.1 	"/>
	<polygon class="st0" points="397.4,72.5 393.3,76.4 397.5,80.5 401.5,76.6 	"/>
	<polygon class="st0" points="404.3,79.3 400.2,83.3 404.3,87.4 408.4,83.4 	"/>
	<polygon class="st0" points="390.5,65.7 386.5,69.6 390.6,73.7 394.7,69.8 	"/>
	<polygon class="st0" points="431.6,66.2 427.5,70.1 431.6,74.3 435.7,70.3 	"/>
	<polygon class="st0" points="413.9,83.4 418,87.6 422.1,83.6 417.9,79.5 	"/>
	<path class="st0" d="M434.4,77l1.8,1.8c0.5-1.5,0.9-3,1.2-4.6L434.4,77z"/>
	<polygon class="st0" points="401.5,63.1 397.3,59 393.3,63 397.4,67.1 	"/>
	<polygon class="st0" points="420.7,76.8 424.8,80.9 428.9,76.9 424.7,72.8 	"/>
	<polygon class="st0" points="415.1,49.8 411,45.7 406.9,49.7 411,53.8 	"/>
	<polygon class="st0" points="417.9,60.6 422,56.6 417.8,52.5 413.8,56.5 	"/>
	<polygon class="st0" points="422,70.1 417.9,66 413.8,70 418,74.1 	"/>
	<polygon class="st0" points="415.2,76.8 411.1,72.7 407,76.6 411.1,80.7 	"/>
	<polygon class="st0" points="408.3,56.5 404.2,52.4 400.1,56.3 404.2,60.4 	"/>
	<polygon class="st0" points="415.2,63.3 411,59.2 407,63.1 411.1,67.3 	"/>
</g>
<g>
	<path class="st0" d="M95.5,61.6h4.2c9.2,0,11.4-7.9,11.4-15.5c0-8.1-2.4-15.7-11.7-15.7h-3.9V61.6z M86.2,29h13.5
		c11.1,0,17.3,6.4,17.3,17.3c0,11.9-8.8,16.7-16.8,16.7h-14v-1.4h2c1.7,0,1.9-0.5,1.9-5.2V34.8c0-3.2-0.2-4.4-1.8-4.4h-2.2V29z"/>
	<path class="st0" d="M149.8,62.4c7.9,0,8.5-10.7,8.5-16.4c0-5.6-0.6-16.4-8.5-16.4c-7.9,0-8.5,10.7-8.5,16.4
		C141.3,51.6,141.9,62.4,149.8,62.4 M149.8,28.2c9.9,0,14.4,8.8,14.4,17.7c0,8.9-4.5,17.8-14.4,17.8c-9.9,0-14.4-8.8-14.4-17.8
		C135.4,37.1,139.9,28.2,149.8,28.2"/>
	<path class="st0" d="M120.3,61.6h1.5c2,0,2.4-0.7,2.4-2.4v-26c0-2.5-0.7-2.8-2.6-2.8h-1.3V29h13.2v1.4h-1.3c-2,0-2.6,0.3-2.6,2.8
		v26c0,1.7,0.5,2.4,2.4,2.4h1.5V63h-13.2V61.6z"/>
	<path class="st0" d="M74.1,50.4l-5.8-14.8L62,50.4H74.1z M71.4,28.5c0.5,1.9,1.2,3.6,1.9,5.3l8.5,21.8c2.2,5.8,3.2,6,4.7,6h0.6V63
		H74v-1.4h1c2.1,0,2.6-0.3,2.6-1.2c0-0.5-0.2-1.2-0.5-2.2l-2.5-6.4H61.4l-1.7,4c-1,2.4-1.3,3.5-1.3,4.2c0,1.5,1.4,1.5,3.2,1.5h0.6
		V63h-9.8v-1.4H53c1.4,0,2.6-0.5,3.8-3.3l10.4-25c0.7-1.6,1.3-3.2,1.7-4.8H71.4z"/>
	<path class="st0" d="M32.1,44.4h3.7c4,0,7.4-1.9,7.4-7c0-5.2-2.8-7-7.5-7h-3.6V44.4z M22.8,61.6h1.5c2,0,2.4-0.7,2.4-2.4v-26
		c0-2.5-0.7-2.8-2.6-2.8h-1.3V29h15.6c5.6,0,10.7,2,10.7,7.5c0,4.2-4.2,7.7-8.3,8.5v0.1c5.8,1.1,6.8,2.4,7.1,8.8l0.2,5.9
		c0,0.8,0.2,1.7,1.1,1.7c1.2,0,1.9-1.2,2.3-2.4l1.4,0.6c-1.2,2.5-2.8,4.1-5.4,4.1c-4.2,0-5-3.3-5.2-6.4L42,50.9
		c-0.2-3.8-2.2-5.1-6.8-5.1h-3.1v12.9c0,2.1,0.2,2.9,2.3,2.9h1.5V63H22.8V61.6z"/>
	<path class="st0" d="M75.9,21.9c-1.1,1.2-2.5,2.5-3.2,3.1c-0.7,0.6-1.2,1.2-2,0.5c-0.6-0.4-0.7-1.1-0.1-2.3s1-2.2,1.5-3.4
		c0.6-1.3,2-2.2,3.2-1.4S76.9,20.9,75.9,21.9z"/>
</g>
</svg>
