<?xml version="1.0" encoding="utf-8"?>
<!-- Generator: Adobe Illustrator 19.1.1, SVG Export Plug-In . SVG Version: 6.00 Build 0)  -->
<svg version="1.1" id="Camada_1" xmlns="http://www.w3.org/2000/svg" xmlns:xlink="http://www.w3.org/1999/xlink" x="0px" y="0px"
	 viewBox="-247 380.9 100 80" style="enable-background:new -247 380.9 100 80;" xml:space="preserve">
<style type="text/css">
	.st0{fill:#FFFFFF;}
</style>
<g>
	<path class="st0" d="M-210.7,402.7c-3.6,5-5.6,11.8-5.6,18.8s2,13.7,5.6,18.8c3.6,5,8.7,7.8,13.9,7.8s10.2-2.8,13.9-7.8
		c3.6-5,5.6-11.8,5.6-18.8s-2-13.7-5.6-18.8s-8.7-7.8-13.9-7.8C-202,394.9-207.1,397.5-210.7,402.7z M-180.9,409.3v0.1
		c0,0.4,0,0.7-0.1,1.1h-5.9c-0.1,0-0.3,0.1-0.3,0.3c0,0.1,0.1,0.3,0.3,0.3h5.7c-0.1,0.3-0.3,0.7-0.4,1h-4.5c-0.1,0-0.3,0.1-0.3,0.3
		s0.1,0.3,0.3,0.3h4.1c-1,1.1-2.4,1.7-3.8,1.7h-4.6l-0.3,0.6c1,0,2.2,0,3.4,0.3c0.6,0.1,0.8,0.6,1,1c0,0,0,0,0.1,0
		c0.7,0,1.1,0.6,1.1,1.3v0.6c-10.5-0.8-12.6,5.6-12.6,5.7h-0.3c0.4,0,0.7,0,1.1,0c0.3,0,0.6,0,0.8,0l-0.1-0.1c0,0-0.1-0.6-0.7-1.3
		c0.3-0.4,0.7-1,1.3-1.4c0.6-0.6,1.4-1,2.1-1.4c0.7,1,1.1,1.8,1.3,2.1h-3.1l-0.4,2.1c5.2,0.6,9.2,5,9.2,10.4
		c0,5.7-4.6,10.4-10.4,10.4s-10.4-4.6-10.4-10.4c0-5.3,3.9-9.7,9-10.2l-0.6-2.2h-3.1c0.1-0.4,0.7-1.4,1.7-2.5
		c-0.6-0.3-1.1-0.7-1.4-1.3l-2.1-3.5h-4.6c-1.4,0-2.8-0.6-3.6-1.5h4.1c0.1,0,0.3-0.1,0.3-0.3c0-0.1-0.1-0.3-0.3-0.3h-4.5
		c-0.1-0.3-0.4-0.6-0.4-1h5.7c0.1,0,0.3-0.1,0.3-0.3c0-0.1-0.1-0.3-0.3-0.3h-5.9c0-0.1,0-0.3-0.1-0.4c0.1-0.3,0.3-0.6,0.3-0.8h10.9
		l0,0c1.1-0.1,2.1,0.4,2.8,1.4l2.1,3.6l2.1-3.6c0.6-1,1.7-1.5,2.8-1.4l0,0L-180.9,409.3L-180.9,409.3z M-213.5,411.1
		c0.1,0.4,0.6,1.3,1.3,2c1,1.1,2.2,1.7,3.6,1.7l-1.3,2.7l-4.6-2.1C-214.4,413.9-213.9,412.5-213.5,411.1z M-199.9,423.3
		c-4.6,1.4-8,5.6-8.1,10.6h-4.6c-1.3-3.2-2.1-6.9-2.4-10.6H-199.9z M-185.7,433.9c0-5-3.5-9.4-8.1-10.6h15.1
		c-0.1,3.9-1,7.4-2.4,10.6H-185.7z M-183.8,403.7l-3.9,5h-4.3c0,0,0,0-0.1,0s-0.1,0-0.3,0s-0.3,0-0.4,0v-10.8c0-0.8-0.7-1.5-1.5-1.5
		l0,0c-0.8,0-1.5,0.7-1.5,1.5v9c0-0.8-0.7-1.5-1.5-1.5s-1.5,0.7-1.5,1.5c0-0.8-0.7-1.5-1.5-1.5s-1.5,0.7-1.5,1.5v0.7
		c0-0.8-0.7-1.5-1.5-1.5l0,0c-0.7,0-1.3,0.4-1.4,1l-0.8,1.5h-7c3.2-7.6,9.1-12.7,15.8-12.7C-191.8,396-187.2,399-183.8,403.7z"/>
	<path class="st0" d="M-201.1,439c1.1,1,2.7,1.5,4.2,1.5c3.5,0,6.4-2.9,6.4-6.4c0-0.1,0-0.3,0-0.4
		C-196.6,433.9-200.1,437.5-201.1,439z"/>
	<path class="st0" d="M-194.9,428.9C-194.9,428.9-194.9,429-194.9,428.9l-1.1,0.8l0.4,1.4c1.3-0.4,2.5-0.7,4.1-0.8
		c-1.1-1.7-3.1-2.7-5.2-2.7l0.4,1.3H-194.9z"/>
	<path class="st0" d="M-203.3,434c0,0.7,0.1,1.3,0.3,2c1.3-1.4,3.6-3.5,7.1-4.8l-1.1-0.8l-1.1,1c0,0-0.1,0-0.1-0.1l0.6-1.4l-1.3-0.8
		v-0.1h1.5l0.4-1.3C-200.5,427.6-203.3,430.5-203.3,434z"/>
	<polygon class="st0" points="-199.9,394.3 -197,392 -193.9,394.3 -195,390.6 -192.1,388.5 -195.7,388.4 -197,385 -198.1,388.4 
		-201.8,388.5 -198.8,390.6 	"/>
	<path class="st0" d="M-170.8,427.6c-0.1,0.1-0.3,0.3-0.4,0.3c0.3-0.8,0.1-1.8-0.4-2.8c0-0.1-0.1-0.1-0.1-0.3c0.3,0,0.4-0.1,0.6-0.3
		c0.3-0.3,0.3-0.8,0-1.1c0,0,0,0-0.1-0.1l0.1-0.1c0,0,0,0,0.1-0.1l0.1,0.1c0.3,0.3,0.8,0.3,1.1,0s0.3-0.8,0-1.1s-0.8-0.3-1.1,0
		c0,0,0,0-0.1,0.1l-0.1-0.1c0,0,0,0-0.1-0.1l0.1-0.1c0.3-0.3,0.3-0.8,0-1.1c-0.1-0.1-0.1-0.1-0.3-0.1l0,0c0,0,0,0,0.1,0
		c0,0,0,0,0.1,0l0,0c0,0,0,0,0.1,0l0,0c0,0,0,0,0.1,0l0,0c0,0,0,0,0.1,0l0,0c0,0,0,0,0.1,0l0,0c0,0,0,0,0.1,0l0,0
		c0.4-0.1,0.8-0.4,1.1-0.7c0.8-0.8,1.1-2,1-2.9c-0.7,0.1-1.4,0.4-2,1c-0.1,0.1-0.3,0.3-0.4,0.4c0-1-0.3-1.8-1-2.5
		c-0.1-0.1-0.1-0.1-0.3-0.1c0.1,0,0.3-0.1,0.4-0.3c0.3-0.4,0.1-0.8-0.3-1.1c0,0,0,0-0.1,0l0.1-0.1v-0.1l0.1,0.1
		c0.4,0.3,0.8,0.1,1.1-0.3c0.3-0.4,0.1-0.8-0.3-1.1c-0.4-0.3-0.8-0.1-1.1,0.3c0,0,0,0,0,0.1l-0.1-0.1h-0.1l0.1-0.1
		c0.3-0.4,0.1-0.8-0.3-1.1c-0.1-0.1-0.3-0.1-0.4-0.1l0,0l0,0c0,0,0,0,0.1,0l0,0c0,0,0,0,0.1,0l0,0c0,0,0,0,0.1,0l0,0c0,0,0,0,0.1,0
		l0,0c0.4-0.3,0.7-0.6,1-1c0.7-1,0.8-2.1,0.6-3.1c-0.7,0.3-1.3,0.7-1.8,1.3c-0.1,0.1-0.3,0.3-0.3,0.6c-0.1-1-0.6-1.8-1.4-2.4
		l-0.1-0.1c0.1-0.1,0.3-0.3,0.4-0.4c0.1-0.4-0.1-0.8-0.6-1h-0.1c0,0,0-0.1,0.1-0.1v-0.1c0,0,0.1,0,0.1,0.1c0.4,0.1,0.8-0.1,1-0.6
		c0.1-0.4-0.1-0.8-0.6-1c-0.4-0.1-0.8,0.1-1,0.6v0.1c0,0-0.1,0-0.1-0.1h-0.1c0,0,0-0.1,0.1-0.1c0.1-0.4-0.1-0.8-0.6-1
		c-0.1,0-0.3,0-0.4,0l0,0l0,0l0,0l0,0l0,0l0,0l0,0l0,0c0,0,0,0,0-0.1l0,0c0,0,0,0,0.1-0.1l0,0c0.3-0.3,0.6-0.7,0.7-1.1
		c0.4-1.1,0.1-2.2-0.4-3.1c-0.6,0.4-1.1,1-1.3,1.8c0,0.1-0.1,0.4-0.1,0.6c-0.4-0.8-1.1-1.5-2.1-1.8c-0.1,0-0.3,0-0.3-0.1
		c0.1-0.1,0.3-0.3,0.3-0.6c0-0.4-0.4-0.8-0.8-0.8h-0.1v-0.1v-0.1h0.1c0.4,0,0.8-0.4,0.8-0.8c0-0.4-0.4-0.8-0.8-0.8s-0.8,0.4-0.8,0.8
		v0.1h-0.1h-0.1v-0.1c0-0.4-0.4-0.8-0.8-0.8c-0.1,0-0.4,0.1-0.6,0.1l0,0l0,0l0,0l0,0c0,0,0,0,0-0.1l0,0c0,0,0,0,0-0.1l0,0
		c0,0,0,0,0-0.1l0,0c0,0,0,0,0-0.1l0,0c0.1-0.4,0.3-0.8,0.3-1.4c0-1.1-0.6-2.1-1.4-2.8c-0.4,0.6-0.7,1.3-0.7,2.1c0,0.1,0,0.4,0,0.6
		c-0.7-0.7-1.5-1.1-2.5-1.1c-0.1,0-0.3,0-0.4,0c0.1,1.1,0.8,2.1,1.7,2.7c-1,0.1-1.8,0.6-2.4,1.4c0.6,0.4,1.4,0.7,2.2,0.7
		c0.4,0,0.7,0,1.1-0.1l0,0c0,0,0,0,0.1,0l0,0h0.1l0,0h0.1l0,0h0.1l0,0c0,0,0.1,0,0.1-0.1l0,0c0,0,0.1,0,0.1-0.1l0,0l0.1-0.1l0,0
		l0.1-0.1l0,0l0.1-0.1l0,0l0.1-0.1l0,0c0,0,0,0,0.1-0.1c0,0.1,0,0.1,0,0.3c0,0.4,0.4,0.8,0.8,0.8h0.1v0.1v0.1h-0.1
		c-0.4,0-0.8,0.4-0.8,0.8c0,0.4,0.4,0.8,0.8,0.8s0.8-0.4,0.8-0.8v-0.1h0.1h0.1v0.1c0,0.4,0.4,0.8,0.8,0.8c0.1,0,0.3,0,0.4-0.1
		c-0.1,1.1,0.1,2.1,0.8,2.9c-1-0.3-2,0-2.8,0.4c0.4,0.7,1.1,1.1,1.8,1.4c0.4,0.1,0.7,0.1,1.1,0.1l0,0c0,0,0,0,0.1,0c0,0,0,0,0.1,0
		h0.1l0,0h0.1l0,0h0.1l0,0h0.1l0,0h0.1l0,0h0.1l0,0h0.1l0,0c0,0,0.1,0,0.1-0.1l0,0c0,0,0.1,0,0.1-0.1l0,0l0,0
		c-0.1,0.1-0.1,0.1-0.1,0.3c-0.1,0.4,0.1,0.8,0.6,1h0.1c0,0,0,0.1-0.1,0.1v0.1c0,0-0.1,0-0.1-0.1c-0.4-0.1-0.8,0.1-1,0.6
		c-0.1,0.4,0.1,0.8,0.6,1c0.4,0.1,0.8-0.1,1-0.6v-0.1c0,0,0.1,0,0.1,0.1h0.1c0,0,0,0.1-0.1,0.1c-0.1,0.4,0.1,0.8,0.6,1
		c0.1,0,0.1,0,0.3,0c-0.4,1-0.4,2,0,2.9c-0.8-0.6-1.8-0.6-2.8-0.4c0.3,0.7,0.7,1.4,1.4,2c0.3,0.3,0.7,0.4,1,0.6l0,0c0,0,0,0,0.1,0
		c0,0,0,0,0.1,0h0.1l0,0h0.1l0,0h0.1l0,0h0.1l0,0h0.1l0,0h0.1l0,0h0.1l0,0h0.1l0,0h0.1l0,0h0.1c-0.1,0-0.1,0.1-0.1,0.3
		c-0.3,0.4-0.1,0.8,0.3,1.1c0,0,0,0,0.1,0l-0.1,0.1v0.1l-0.1-0.1c-0.4-0.3-0.8-0.1-1.1,0.3c-0.3,0.4-0.1,0.8,0.3,1.1
		c0.4,0.3,0.8,0.1,1.1-0.3c0,0,0,0,0-0.1l0.1,0.1h0.1l-0.1,0.1c-0.3,0.4-0.1,0.8,0.3,1.1c0.1,0.1,0.3,0.1,0.4,0.1
		c-0.6,0.8-0.8,2-0.6,2.9c-0.7-0.7-1.7-0.8-2.7-0.8c0.1,0.7,0.4,1.5,1,2.1c0.3,0.3,0.6,0.6,0.8,0.7l0,0c0,0,0,0,0.1,0l0,0h0.1l0,0
		h0.1l0,0h0.1l0,0h0.1l0,0h0.1l0,0h0.1l0,0h0.1l0,0c0,0,0,0,0.1,0l-0.1,0.1c-0.3,0.3-0.3,0.8,0,1.1c0,0,0,0,0.1,0.1l-0.1,0.1
		c0,0,0,0-0.1,0.1l-0.1-0.1c-0.3-0.3-0.8-0.3-1.1,0s-0.3,0.8,0,1.1s0.8,0.3,1.1,0c0,0,0,0,0.1-0.1l0.1,0.1c0,0,0,0,0.1,0.1l-0.1,0.1
		c-0.3,0.3-0.3,0.8,0,1.1c0.1,0.1,0.3,0.1,0.3,0.1c-0.8,0.7-1.3,1.7-1.3,2.8c-0.6-0.8-1.5-1.3-2.4-1.4c-0.1,0.7,0,1.5,0.6,2.2
		c0.1,0.3,0.4,0.6,0.7,0.8l0,0l0,0l0,0c0,0,0,0,0.1,0.1l0,0c0,0,0.1,0,0.1,0.1l0,0c0,0,0.1,0,0.1,0.1l0,0c0,0,0.1,0,0.1,0.1l0,0h0.1
		l0,0h0.1l0,0h0.1l0,0h0.1l0,0h0.1c-0.1,0-0.3,0-0.4,0.1c-0.4,0.3-0.4,0.7-0.3,1.1c0,0,0,0,0,0.1c0,0-0.1,0-0.1,0.1
		c0,0-0.1,0-0.1,0.1c0,0,0-0.1-0.1-0.1c-0.3-0.4-0.7-0.4-1.1-0.3c-0.4,0.3-0.4,0.7-0.3,1.1c0.3,0.4,0.7,0.4,1.1,0.3c0,0,0,0,0.1,0
		c0,0,0,0.1,0.1,0.1c0,0,0,0.1,0.1,0.1c0,0-0.1,0-0.1,0.1c-0.4,0.3-0.4,0.7-0.3,1.1c0.1,0.1,0.1,0.3,0.3,0.3c-1,0.4-1.7,1.4-2,2.4
		c-0.4-1-1.1-1.5-2-2c-0.3,0.7-0.3,1.5,0,2.4c0.1,0.4,0.3,0.7,0.6,1l0,0c0,0,0,0,0,0.1l0,0c0,0,0,0,0.1,0.1l0,0l0.1,0.1l0,0
		c0,0,0,0,0.1,0.1l0,0l0.1,0.1l0,0l0.1,0.1l0,0l0.1,0.1l0,0c0,0,0.1,0,0.1,0.1l0,0c0,0,0.1,0,0.1,0.1c-0.1,0-0.3,0-0.4,0
		c-0.4,0.1-0.7,0.6-0.6,1v0.1h-0.1h-0.1V441c-0.1-0.4-0.6-0.7-1-0.6c-0.4,0.1-0.7,0.6-0.6,1c0.1,0.4,0.6,0.7,1,0.6h0.1v0.1v0.1h-0.1
		c-0.4,0.1-0.7,0.6-0.6,1c0,0.1,0.1,0.3,0.3,0.4c-1,0.1-2,0.8-2.4,1.7c-0.1-1-0.7-1.8-1.4-2.4c-0.4,0.6-0.7,1.4-0.7,2.2
		c0,0.4,0.1,0.7,0.1,1.1l0,0c0,0,0,0,0,0.1l0,0v0.1l0,0c0,0,0,0.1,0.1,0.1l0,0v0.1l0,0c0,0,0,0.1,0.1,0.1l0,0c0,0,0,0.1,0.1,0.1l0,0
		l0.1,0.1l0,0l0.1,0.1c-0.1,0-0.1,0-0.3,0c-0.4,0-0.8,0.3-0.8,0.8v0.1h-0.1h-0.1v-0.1c0-0.4-0.3-0.8-0.8-0.8c-0.4,0-0.8,0.3-0.8,0.8
		c0,0.4,0.3,0.8,0.8,0.8h0.1v0.1v0.1h-0.1c-0.4,0-0.8,0.3-0.8,0.8c0,0.4,0.3,0.8,0.8,0.8c0.4,0,0.8-0.3,0.8-0.8v-0.1h0.1h0.1v0.1
		c0,0.4,0.3,0.8,0.8,0.8c0.4,0,0.8-0.3,0.8-0.8c0-0.4-0.3-0.8-0.8-0.8h-0.1v-0.1v-0.1h0.1c0.4,0,0.8-0.3,0.8-0.8
		c0-0.1,0-0.3-0.1-0.4l0,0l0,0l0,0c0,0,0.1,0,0.1,0.1l0,0l0,0l0,0l0,0l0,0l0,0l0,0c0,0,0,0,0.1,0l0,0c0,0,0,0,0.1,0l0,0
		c0,0,0,0,0.1,0l0,0c0,0,0,0,0.1,0l0,0c0.4,0.1,0.8,0.3,1.4,0.3c1.1,0,2.1-0.6,2.8-1.4c-0.6-0.4-1.4-0.7-2.1-0.6c-0.1,0-0.4,0-0.6,0
		c0.7-0.7,1-1.5,1-2.5c0-0.1,0-0.3,0-0.3c0.1,0.1,0.4,0.1,0.6,0c0.4-0.1,0.7-0.6,0.6-1v-0.1h0.1h0.1v0.1c0.1,0.4,0.6,0.7,1,0.6
		c0.4-0.1,0.7-0.6,0.6-1c-0.1-0.4-0.6-0.7-1-0.6h-0.1v-0.1v-0.1h0.1c0.4-0.1,0.7-0.6,0.6-1c0-0.1-0.1-0.3-0.3-0.4l0,0l0,0l0,0h0.1
		l0,0l0,0c0,0,0,0,0.1,0l0,0l0,0c0,0,0,0,0.1,0l0,0c0,0,0,0,0.1,0l0,0c0,0,0,0,0.1,0l0,0c0,0,0,0,0.1,0l0,0h0.1l0,0
		c0.4,0,0.8,0,1.4-0.1c1.1-0.3,2-1.1,2.2-2.1c-0.7-0.3-1.4-0.3-2.2,0c-0.1,0-0.4,0.1-0.6,0.3c0.4-0.8,0.6-1.8,0.3-2.8
		c0-0.1-0.1-0.3-0.1-0.3c0.1,0,0.4,0,0.6-0.1c0.4-0.3,0.4-0.7,0.3-1.1c0,0,0,0,0-0.1c0,0,0.1,0,0.1-0.1c0,0,0.1,0,0.1-0.1
		c0,0,0,0.1,0.1,0.1c0.3,0.4,0.7,0.4,1.1,0.3c0.4-0.3,0.4-0.7,0.3-1.1c-0.3-0.4-0.7-0.4-1.1-0.3c0,0,0,0-0.1,0c0,0,0-0.1-0.1-0.1
		c0,0,0-0.1-0.1-0.1c0,0,0.1,0,0.1-0.1c0.4-0.3,0.4-0.7,0.3-1.1c-0.1-0.1-0.3-0.3-0.4-0.3l0,0l0,0l0,0h0.1l0,0l0,0c0,0,0,0,0.1,0
		c0,0,0,0,0.1,0l0,0c0,0,0,0,0.1,0l0,0c0,0,0,0,0.1,0l0,0h0.1l0,0h0.1l0,0h0.1l0,0c0.4-0.1,0.8-0.3,1.3-0.4c1-0.6,1.5-1.5,1.7-2.7
		C-169.3,427-170.1,427.2-170.8,427.6z"/>
	<path class="st0" d="M-215.9,448.5l-1.7-3.9c0-0.1,0-0.1,0.1-0.1l3.5,2c0.4,0.6,1,1,1.4,1.4c0.3,0.3,0.8,0.3,1.1,0
		c0.3-0.3,0.3-0.7,0-1c-0.6-0.6-1.1-1.1-1.7-1.8l-0.3-3.2c0-0.1,0.1-0.1,0.1,0l2.9,3.1c0.1,0.1,0.1,0,0.1-0.1l-3.6-5.9h-0.1
		l-1.3,0.7c0,0,0,0,0,0.1l1.5,4.8c-0.3-0.3-0.6-0.7-0.8-1.1c-1.7-2.2-2.9-4.8-3.9-7.4l0.7-2.9c0-0.1,0.1-0.1,0.1,0l1.8,3.8
		c0,0.1,0.1,0,0.1,0l-1.5-6.9c0,0,0-0.1-0.1,0l-1.4,0.1c0,0-0.1,0-0.1,0.1v4.6c-1-2.8-1.5-5.6-2-8.7l1.5-3.2c0-0.1,0.1,0,0.1,0
		l0.8,4.1c0,0.1,0.1,0.1,0.1,0v-7c0,0,0-0.1-0.1-0.1l-1.4-0.1h-0.1l-1.3,5.2c-0.1-1.1-0.1-2.2-0.1-3.5c0-2.1,0.1-4.1,0.4-6.2
		l2.2-2.7h0.1l-0.3,4.2c0,0.1,0.1,0.1,0.1,0l1.8-6.7v-0.1l-1.3-0.1h-0.1l-2.5,4.6c0.6-3.4,1.5-6.6,2.9-9.4l2.9-1.8
		c0,0,0.1,0,0.1,0.1l-1.4,3.9c0,0.1,0.1,0.1,0.1,0.1l3.8-5.9v-0.1l-1.1-0.8h-0.1l-3.6,3.6c0.7-1.4,1.5-2.8,2.5-4.1
		c0.7-1,1.5-2,2.4-2.9l3.8-3.2c0.1-0.1,0-0.3-0.1-0.1l-2.1,1.1l2.9-3.8c0.1-0.1,0-0.3-0.1-0.1l-3.4,3.1l0.8-2.1
		c0-0.1-0.1-0.1-0.1-0.1l-4.5,6.2l0,0c-0.3,0.3-0.6,0.7-0.7,1c-1,1.3-1.8,2.7-2.5,4.2l1.4-4.9v-0.1l-1.4-0.6h-0.1l-3.4,6.2
		c0,0.1,0.1,0.1,0.1,0.1l2.8-3.2h0.1l-0.1,3.8c-1.3,2.8-2.2,5.9-2.9,9.1l-0.1-4.8c0,0,0-0.1-0.1-0.1l-1.4-0.1h-0.1l-1.5,6.9
		c0,0.1,0.1,0.1,0.1,0l1.7-3.8c0-0.1,0.1,0,0.1,0l0.8,3.8c-0.3,2-0.4,4.1-0.4,6.2c0,1,0,2,0.1,2.9l-1.3-4.5c0,0,0,0-0.1,0l-1.4,0.1
		c0,0-0.1,0-0.1,0.1l0.4,7c0,0.1,0.1,0.1,0.1,0l0.7-4.2c0-0.1,0.1-0.1,0.1,0l1.7,3.1c0.4,3.6,1.3,7,2.5,10.2l-2.9-5.2c0,0,0,0-0.1,0
		l-1.4,0.6c0,0,0,0,0,0.1l2,6.7c0,0.1,0.1,0.1,0.1,0l-0.3-4.2c0-0.1,0.1-0.1,0.1,0l2.9,3.2c1,2.4,2.2,4.6,3.8,6.7
		c0.3,0.4,0.7,0.8,1,1.3l-3.9-3.5h-0.1l-1.1,1v0.1l3.9,5.7C-216,448.6-215.9,448.5-215.9,448.5z"/>
	<path class="st0" d="M-192.1,449.3l-1.5,2.8l-4.6-2.9l-1.7,2.5c-5.5-2.8-10.4-2.7-13.4-2c-3.5,0.7-5.7,2.2-5.9,2.5l2.9,4.1l0,0
		c0,0,1.7-1.1,4.3-1.7c3.5-0.7,6.9-0.1,10.4,1.8l1.4-2.7l4.5,2.8l1.7-2.7c3.5,1.8,6.9,2.5,9.5,2.5c1.5,0,2.9-0.1,4.1-0.4
		c3.5-0.7,5.7-2.2,5.9-2.5l-2.9-4.1C-177.5,449.5-183.8,453.9-192.1,449.3z"/>
</g>
</svg>
