<?xml version="1.0" encoding="utf-8"?>
<!-- Generator: Adobe Illustrator 19.1.1, SVG Export Plug-In . SVG Version: 6.00 Build 0)  -->
<svg version="1.1" id="Camada_1" xmlns="http://www.w3.org/2000/svg" xmlns:xlink="http://www.w3.org/1999/xlink" x="0px" y="0px"
	 viewBox="-247 380.9 100 80" style="enable-background:new -247 380.9 100 80;" xml:space="preserve">
<style type="text/css">
	.st0{fill:#FFFFFF;}
</style>
<g>
	<path class="st0" d="M-194.1,418.5h-6c-3.1,0-5.9-0.8-8.3-2.2v3.5c0,5.7,4.6,10.5,10.5,10.5h1.7c5.7,0,10.5-4.6,10.5-10.5v-3.5
		C-188.2,417.8-191,418.5-194.1,418.5z"/>
	<path class="st0" d="M-186.5,397.1L-186.5,397.1c-0.1-0.8-0.4-1.5-0.7-2.2c-0.1,0-0.4-0.1-0.4-0.4v-0.1c-0.1-0.1-0.3-0.4-0.4-0.6
		c0,0.3-0.1,0.4-0.4,0.4s-0.4-0.1-0.4-0.4s0.1-0.4,0.4-0.4c0,0,0,0,0.1,0c-1.1-1.4-2.7-2.5-4.3-3.2v0.1c0,0.3-0.1,0.4-0.4,0.4
		c-0.3,0-0.4-0.1-0.4-0.4c0-0.1,0.1-0.3,0.3-0.4c-0.3-0.1-0.6-0.1-0.8-0.3h-0.1c-0.1,0-0.3,0-0.3-0.1c-0.6-0.1-1.1-0.1-1.7-0.1
		c0,0.1-0.1,0.3-0.4,0.3c-0.1,0-0.3-0.1-0.4-0.3h-1.1c-0.1,0-0.3,0-0.6,0c0,0.1-0.1,0.3-0.4,0.3c-0.1,0-0.3-0.1-0.3-0.3
		c-1,0.1-1.8,0.4-2.7,0.7l0,0c0,0.3-0.1,0.4-0.4,0.4c-0.1,0-0.1,0-0.3-0.1c-0.1,0.1-0.4,0.1-0.6,0.3l0.1,0.1c0,0.3-0.1,0.4-0.4,0.4
		c-0.1,0-0.3,0-0.3-0.1c-0.1,0.1-0.4,0.3-0.6,0.4c0,0.1,0.1,0.1,0.1,0.3c0,0.3-0.1,0.4-0.4,0.4c-0.1,0-0.3,0-0.3-0.1
		c-0.1,0.1-0.3,0.3-0.4,0.4l0,0c0,0.3-0.1,0.4-0.4,0.4l0,0c-0.4,0.6-0.8,1.1-1.1,1.8l0,0c0.3,0,0.4,0.1,0.4,0.4s-0.1,0.4-0.4,0.4
		c-0.1,0-0.3-0.1-0.3-0.1c-0.3,0.6-0.4,1.3-0.6,2c0.1,0.1,0.1,0.1,0.1,0.3c0,0.1-0.1,0.3-0.3,0.4c0,0.3,0,0.7-0.1,1
		c0.1,0,0.3,0.1,0.3,0.4c0,0.1-0.1,0.4-0.4,0.4v1c0.1,0,0.4,0.1,0.4,0.4s-0.1,0.4-0.4,0.4v1c0.1,0,0.4,0.1,0.4,0.4s-0.1,0.4-0.4,0.4
		v1c0.1,0,0.4,0.1,0.4,0.4s-0.1,0.4-0.4,0.4v1c0.1,0,0.4,0.1,0.4,0.4s-0.1,0.4-0.4,0.4v1c0.1,0,0.4,0.1,0.4,0.4s-0.1,0.4-0.4,0.4v1
		c0.1,0,0.4,0.1,0.4,0.4c0,0.1-0.1,0.4-0.4,0.4v0.4c0.1,0,0.4,0.1,0.4,0.4s-0.1,0.4-0.4,0.4v1c0.1,0,0.4,0.1,0.4,0.4
		s-0.1,0.4-0.4,0.4v1c0.1,0,0.4,0.1,0.4,0.4s-0.1,0.4-0.4,0.4v0.6c0.6,0.3,1.3,0.7,1.8,0.8l-0.1-0.1c0-0.3,0.1-0.4,0.4-0.4
		c0.3,0,0.4,0.1,0.4,0.4c0,0.1-0.1,0.3-0.3,0.3c0.3,0.1,0.6,0.1,0.7,0.3c0,0,0.1-0.1,0.3-0.1c0.1,0,0.3,0.1,0.4,0.3
		c0.6,0.1,1.1,0.3,1.5,0.3l-0.1-0.1c0-0.3,0.1-0.4,0.4-0.4s0.4,0.1,0.4,0.4c0,0.1,0,0.1-0.1,0.3c0.6,0.1,1.3,0.1,1.8,0.1h0.1
		c-0.1,0-0.4-0.1-0.4-0.4s0.1-0.4,0.4-0.4s0.4,0.1,0.4,0.4c0,0.1-0.1,0.4-0.4,0.4h1c0,0,0,0,0.1,0c0,0,0,0,0.1,0h1
		c-0.1,0-0.4-0.1-0.4-0.4s0.1-0.4,0.4-0.4s0.4,0.1,0.4,0.4c0,0.1-0.1,0.4-0.4,0.4h1c0,0,0,0,0.1,0c0.1,0,0,0,0.1,0h1
		c-0.1,0-0.4-0.1-0.4-0.4s0.1-0.4,0.4-0.4s0.4,0.1,0.4,0.4c0,0.1-0.1,0.4-0.4,0.4h1.8c0,0,0,0,0.1,0s0,0,0.1,0l0,0
		c0.3,0,0.6,0,0.8,0c-0.1,0-0.3-0.1-0.3-0.3c0-0.3,0.1-0.4,0.4-0.4s0.4,0.1,0.4,0.4c0,0.1-0.1,0.3-0.1,0.3c0.6,0,1.1-0.1,1.7-0.3
		c0,0,0,0,0-0.1c0-0.3,0.1-0.4,0.4-0.4c0.3,0,0.4,0.1,0.4,0.4c0.8-0.3,1.8-0.6,2.7-0.8l0,0c0-0.3,0.1-0.4,0.4-0.4
		c0.1,0,0.1,0,0.3,0.1c0.1-0.1,0.4-0.1,0.6-0.3l-0.1-0.1c0-0.1,0.1-0.4,0.4-0.4v-1c-0.1,0-0.4-0.1-0.4-0.4s0.1-0.4,0.4-0.4v-1
		c-0.1,0-0.4-0.1-0.4-0.4s0.1-0.4,0.4-0.4v-1c-0.1,0-0.4-0.1-0.4-0.4c0-0.3,0.1-0.4,0.4-0.4v-1c-0.1,0-0.4-0.1-0.4-0.4
		s0.1-0.4,0.4-0.4v-1c-0.1,0-0.4-0.1-0.4-0.4s0.1-0.4,0.4-0.4v-1c-0.1,0-0.4-0.1-0.4-0.4c0-0.1,0.1-0.4,0.4-0.4v-1
		c-0.1,0-0.4-0.1-0.4-0.4s0.1-0.4,0.4-0.4v-1c-0.1,0-0.4-0.1-0.4-0.4s0.1-0.4,0.4-0.4v-1c-0.1,0-0.4-0.1-0.4-0.4s0.1-0.4,0.4-0.4
		v-0.6c0-0.1,0-0.1,0-0.3c-0.1,0-0.3-0.1-0.3-0.4c0-0.1,0.1-0.3,0.3-0.4c0-0.3-0.1-0.7-0.1-1C-186.5,397.4-186.5,397.2-186.5,397.1z
		 M-206.8,416.1c-0.3,0-0.4-0.1-0.4-0.4s0.3-0.4,0.4-0.4s0.4,0.1,0.4,0.4S-206.5,416.1-206.8,416.1z M-206.8,414.5
		c-0.3,0-0.4-0.1-0.4-0.4s0.1-0.4,0.4-0.4s0.4,0.1,0.4,0.4S-206.5,414.5-206.8,414.5z M-206.8,412.8c-0.3,0-0.4-0.1-0.4-0.4
		s0.1-0.4,0.4-0.4s0.4,0.1,0.4,0.4S-206.5,412.8-206.8,412.8z M-206.8,411.1c-0.3,0-0.4-0.1-0.4-0.4c0-0.3,0.1-0.4,0.4-0.4
		s0.4,0.1,0.4,0.4C-206.4,411-206.5,411.1-206.8,411.1z M-206.8,409.4c-0.3,0-0.4-0.1-0.4-0.4s0.1-0.4,0.4-0.4s0.4,0.1,0.4,0.4
		S-206.5,409.4-206.8,409.4z M-206.8,407.7c-0.3,0-0.4-0.1-0.4-0.4s0.3-0.4,0.4-0.4s0.4,0.1,0.4,0.4S-206.5,407.7-206.8,407.7z
		 M-206.8,406c-0.3,0-0.4-0.1-0.4-0.4s0.1-0.4,0.4-0.4s0.4,0.1,0.4,0.4C-206.4,405.8-206.5,406-206.8,406z M-206.8,404.4
		c-0.3,0-0.4-0.1-0.4-0.4s0.1-0.4,0.4-0.4s0.4,0.1,0.4,0.4S-206.5,404.4-206.8,404.4z M-206.8,402.5c-0.3,0-0.4-0.1-0.4-0.4
		s0.1-0.4,0.4-0.4s0.4,0.1,0.4,0.4S-206.5,402.5-206.8,402.5z M-206.8,400.9c-0.3,0-0.4-0.1-0.4-0.4s0.1-0.4,0.4-0.4
		s0.4,0.1,0.4,0.4S-206.5,400.9-206.8,400.9z M-206.8,399.2c-0.3,0-0.4-0.1-0.4-0.4s0.1-0.4,0.4-0.4s0.4,0.1,0.4,0.4
		S-206.5,399.2-206.8,399.2z M-206.8,397.5c-0.3,0-0.4-0.1-0.4-0.4s0.1-0.4,0.4-0.4s0.4,0.1,0.4,0.4S-206.5,397.5-206.8,397.5z
		 M-205.5,415.3c-0.3,0-0.4-0.1-0.4-0.4s0.1-0.4,0.4-0.4s0.4,0.1,0.4,0.4S-205.4,415.3-205.5,415.3z M-205.5,413.6
		c-0.3,0-0.4-0.1-0.4-0.4s0.1-0.4,0.4-0.4s0.4,0.1,0.4,0.4S-205.4,413.6-205.5,413.6z M-205.5,411.8c-0.3,0-0.4-0.1-0.4-0.4
		s0.1-0.4,0.4-0.4s0.4,0.1,0.4,0.4S-205.4,411.8-205.5,411.8z M-205.5,410.1c-0.3,0-0.4-0.1-0.4-0.4s0.1-0.4,0.4-0.4
		s0.4,0.1,0.4,0.4S-205.4,410.1-205.5,410.1z M-205.5,408.4c-0.3,0-0.4-0.1-0.4-0.4s0.1-0.4,0.4-0.4s0.4,0.1,0.4,0.4
		S-205.4,408.4-205.5,408.4z M-205.5,406.8c-0.3,0-0.4-0.1-0.4-0.4s0.1-0.4,0.4-0.4s0.4,0.1,0.4,0.4S-205.4,406.8-205.5,406.8z
		 M-205.5,405.1c-0.3,0-0.4-0.1-0.4-0.4s0.1-0.4,0.4-0.4s0.4,0.1,0.4,0.4S-205.4,405.1-205.5,405.1z M-205.5,403.4
		c-0.3,0-0.4-0.1-0.4-0.4s0.1-0.4,0.4-0.4s0.4,0.1,0.4,0.4S-205.4,403.4-205.5,403.4z M-205.5,401.7c-0.3,0-0.4-0.1-0.4-0.4
		s0.1-0.4,0.4-0.4s0.4,0.1,0.4,0.4S-205.4,401.7-205.5,401.7z M-205.5,400c-0.3,0-0.4-0.1-0.4-0.4c0-0.3,0.1-0.4,0.4-0.4
		s0.4,0.1,0.4,0.4C-205.1,399.9-205.4,400-205.5,400z M-205.5,398.4c-0.3,0-0.4-0.1-0.4-0.4s0.1-0.4,0.4-0.4s0.4,0.1,0.4,0.4
		S-205.4,398.4-205.5,398.4z M-205.5,396.7c-0.3,0-0.4-0.1-0.4-0.4s0.1-0.4,0.4-0.4s0.4,0.1,0.4,0.4S-205.4,396.7-205.5,396.7z
		 M-205.5,394.9c-0.3,0-0.4-0.1-0.4-0.4s0.1-0.4,0.4-0.4s0.4,0.1,0.4,0.4S-205.4,394.9-205.5,394.9z M-204.4,416.1
		c-0.3,0-0.4-0.1-0.4-0.4s0.1-0.4,0.4-0.4s0.4,0.1,0.4,0.4S-204.3,416.1-204.4,416.1z M-204.4,414.5c-0.3,0-0.4-0.1-0.4-0.4
		s0.1-0.4,0.4-0.4s0.4,0.1,0.4,0.4S-204.3,414.5-204.4,414.5z M-204.4,412.8c-0.3,0-0.4-0.1-0.4-0.4s0.1-0.4,0.4-0.4
		s0.4,0.1,0.4,0.4S-204.3,412.8-204.4,412.8z M-204.4,411.1c-0.3,0-0.4-0.1-0.4-0.4c0-0.3,0.1-0.4,0.4-0.4s0.4,0.1,0.4,0.4
		C-204,411-204.3,411.1-204.4,411.1z M-204.4,409.4c-0.3,0-0.4-0.1-0.4-0.4s0.1-0.4,0.4-0.4s0.4,0.1,0.4,0.4
		S-204.3,409.4-204.4,409.4z M-204.4,407.7c-0.3,0-0.4-0.1-0.4-0.4s0.1-0.4,0.4-0.4s0.4,0.1,0.4,0.4S-204.3,407.7-204.4,407.7z
		 M-204.4,406c-0.3,0-0.4-0.1-0.4-0.4s0.1-0.4,0.4-0.4s0.4,0.1,0.4,0.4C-204,405.8-204.3,406-204.4,406z M-204.4,404.4
		c-0.3,0-0.4-0.1-0.4-0.4s0.1-0.4,0.4-0.4s0.4,0.1,0.4,0.4S-204.3,404.4-204.4,404.4z M-204.4,402.5c-0.3,0-0.4-0.1-0.4-0.4
		s0.1-0.4,0.4-0.4s0.4,0.1,0.4,0.4S-204.3,402.5-204.4,402.5z M-204.4,400.9c-0.3,0-0.4-0.1-0.4-0.4s0.1-0.4,0.4-0.4
		s0.4,0.1,0.4,0.4S-204.3,400.9-204.4,400.9z M-204.4,399.2c-0.3,0-0.4-0.1-0.4-0.4s0.1-0.4,0.4-0.4s0.4,0.1,0.4,0.4
		S-204.3,399.2-204.4,399.2z M-204.4,397.5c-0.3,0-0.4-0.1-0.4-0.4s0.1-0.4,0.4-0.4s0.4,0.1,0.4,0.4S-204.3,397.5-204.4,397.5z
		 M-204.4,395.8c-0.3,0-0.4-0.1-0.4-0.4s0.1-0.4,0.4-0.4s0.4,0.1,0.4,0.4S-204.3,395.8-204.4,395.8z M-204.4,394.1
		c-0.3,0-0.4-0.1-0.4-0.4s0.1-0.4,0.4-0.4s0.4,0.1,0.4,0.4S-204.3,394.1-204.4,394.1z M-203.3,417c-0.3,0-0.4-0.1-0.4-0.4
		c0-0.3,0.1-0.4,0.4-0.4s0.4,0.1,0.4,0.4C-202.9,416.8-203,417-203.3,417z M-203.3,415.3c-0.3,0-0.4-0.1-0.4-0.4s0.1-0.4,0.4-0.4
		s0.4,0.1,0.4,0.4S-203,415.3-203.3,415.3z M-203.3,413.6c-0.3,0-0.4-0.1-0.4-0.4s0.1-0.4,0.4-0.4s0.4,0.1,0.4,0.4
		S-203,413.6-203.3,413.6z M-203.3,411.8c-0.3,0-0.4-0.1-0.4-0.4s0.1-0.4,0.4-0.4s0.4,0.1,0.4,0.4S-203,411.8-203.3,411.8z
		 M-203.3,410.1c-0.3,0-0.4-0.1-0.4-0.4s0.1-0.4,0.4-0.4s0.4,0.1,0.4,0.4S-203,410.1-203.3,410.1z M-203.3,408.4
		c-0.3,0-0.4-0.1-0.4-0.4s0.1-0.4,0.4-0.4s0.4,0.1,0.4,0.4S-203,408.4-203.3,408.4z M-203.3,406.8c-0.3,0-0.4-0.1-0.4-0.4
		s0.1-0.4,0.4-0.4s0.4,0.1,0.4,0.4S-203,406.8-203.3,406.8z M-203.3,405.1c-0.3,0-0.4-0.1-0.4-0.4s0.1-0.4,0.4-0.4s0.4,0.1,0.4,0.4
		S-203,405.1-203.3,405.1z M-203.3,403.4c-0.3,0-0.4-0.1-0.4-0.4s0.1-0.4,0.4-0.4s0.4,0.1,0.4,0.4S-203,403.4-203.3,403.4z
		 M-203.3,401.7c-0.3,0-0.4-0.1-0.4-0.4s0.1-0.4,0.4-0.4s0.4,0.1,0.4,0.4S-203,401.7-203.3,401.7z M-203.3,400
		c-0.3,0-0.4-0.1-0.4-0.4c0-0.3,0.1-0.4,0.4-0.4s0.4,0.1,0.4,0.4C-202.9,399.9-203,400-203.3,400z M-203.3,398.4
		c-0.3,0-0.4-0.1-0.4-0.4s0.1-0.4,0.4-0.4s0.4,0.1,0.4,0.4S-203,398.4-203.3,398.4z M-203.3,396.7c-0.3,0-0.4-0.1-0.4-0.4
		s0.1-0.4,0.4-0.4s0.4,0.1,0.4,0.4S-203,396.7-203.3,396.7z M-203.3,394.9c-0.3,0-0.4-0.1-0.4-0.4s0.1-0.4,0.4-0.4s0.4,0.1,0.4,0.4
		S-203,394.9-203.3,394.9z M-203.3,393.2c-0.3,0-0.4-0.1-0.4-0.4s0.1-0.4,0.4-0.4s0.4,0.1,0.4,0.4S-203,393.2-203.3,393.2z
		 M-202.2,416.1c-0.3,0-0.4-0.1-0.4-0.4s0.1-0.4,0.4-0.4c0.3,0,0.4,0.1,0.4,0.4S-201.9,416.1-202.2,416.1z M-202.2,414.5
		c-0.3,0-0.4-0.1-0.4-0.4s0.1-0.4,0.4-0.4c0.3,0,0.4,0.1,0.4,0.4S-201.9,414.5-202.2,414.5z M-202.2,412.8c-0.3,0-0.4-0.1-0.4-0.4
		s0.1-0.4,0.4-0.4c0.3,0,0.4,0.1,0.4,0.4S-201.9,412.8-202.2,412.8z M-202.2,411.1c-0.3,0-0.4-0.1-0.4-0.4c0-0.3,0.1-0.4,0.4-0.4
		c0.3,0,0.4,0.1,0.4,0.4C-201.8,411-201.9,411.1-202.2,411.1z M-202.2,409.4c-0.3,0-0.4-0.1-0.4-0.4s0.1-0.4,0.4-0.4
		c0.3,0,0.4,0.1,0.4,0.4S-201.9,409.4-202.2,409.4z M-202.2,407.7c-0.3,0-0.4-0.1-0.4-0.4s0.1-0.4,0.4-0.4c0.3,0,0.4,0.1,0.4,0.4
		S-201.9,407.7-202.2,407.7z M-202.2,406c-0.3,0-0.4-0.1-0.4-0.4s0.1-0.4,0.4-0.4c0.3,0,0.4,0.1,0.4,0.4
		C-201.8,405.8-201.9,406-202.2,406z M-202.2,404.4c-0.3,0-0.4-0.1-0.4-0.4s0.1-0.4,0.4-0.4c0.3,0,0.4,0.1,0.4,0.4
		S-201.9,404.4-202.2,404.4z M-202.2,402.5c-0.3,0-0.4-0.1-0.4-0.4s0.1-0.4,0.4-0.4c0.3,0,0.4,0.1,0.4,0.4S-201.9,402.5-202.2,402.5
		z M-202.2,400.9c-0.3,0-0.4-0.1-0.4-0.4s0.1-0.4,0.4-0.4c0.3,0,0.4,0.1,0.4,0.4S-201.9,400.9-202.2,400.9z M-202.2,399.2
		c-0.3,0-0.4-0.1-0.4-0.4s0.1-0.4,0.4-0.4c0.3,0,0.4,0.1,0.4,0.4S-201.9,399.2-202.2,399.2z M-202.2,397.5c-0.3,0-0.4-0.1-0.4-0.4
		s0.1-0.4,0.4-0.4c0.3,0,0.4,0.1,0.4,0.4S-201.9,397.5-202.2,397.5z M-202.2,395.8c-0.3,0-0.4-0.1-0.4-0.4s0.1-0.4,0.4-0.4
		c0.3,0,0.4,0.1,0.4,0.4S-201.9,395.8-202.2,395.8z M-202.2,394.1c-0.3,0-0.4-0.1-0.4-0.4s0.1-0.4,0.4-0.4c0.3,0,0.4,0.1,0.4,0.4
		S-201.9,394.1-202.2,394.1z M-202.2,392.5c-0.3,0-0.4-0.1-0.4-0.4s0.1-0.4,0.4-0.4c0.3,0,0.4,0.1,0.4,0.4S-201.9,392.5-202.2,392.5
		z M-201.1,417c-0.3,0-0.4-0.1-0.4-0.4c0-0.3,0.1-0.4,0.4-0.4s0.4,0.1,0.4,0.4C-200.6,416.8-200.8,417-201.1,417z M-201.1,415.3
		c-0.3,0-0.4-0.1-0.4-0.4s0.1-0.4,0.4-0.4s0.4,0.1,0.4,0.4S-200.8,415.3-201.1,415.3z M-201.1,413.6c-0.3,0-0.4-0.1-0.4-0.4
		s0.1-0.4,0.4-0.4s0.4,0.1,0.4,0.4S-200.8,413.6-201.1,413.6z M-201.1,411.8c-0.3,0-0.4-0.1-0.4-0.4s0.1-0.4,0.4-0.4
		s0.4,0.1,0.4,0.4S-200.8,411.8-201.1,411.8z M-201.1,410.1c-0.3,0-0.4-0.1-0.4-0.4s0.1-0.4,0.4-0.4s0.4,0.1,0.4,0.4
		S-200.8,410.1-201.1,410.1z M-201.1,408.4c-0.3,0-0.4-0.1-0.4-0.4s0.1-0.4,0.4-0.4s0.4,0.1,0.4,0.4S-200.8,408.4-201.1,408.4z
		 M-201.1,406.8c-0.3,0-0.4-0.1-0.4-0.4s0.1-0.4,0.4-0.4s0.4,0.1,0.4,0.4S-200.8,406.8-201.1,406.8z M-201.1,405.1
		c-0.3,0-0.4-0.1-0.4-0.4s0.1-0.4,0.4-0.4s0.4,0.1,0.4,0.4S-200.8,405.1-201.1,405.1z M-201.1,403.4c-0.3,0-0.4-0.1-0.4-0.4
		s0.1-0.4,0.4-0.4s0.4,0.1,0.4,0.4S-200.8,403.4-201.1,403.4z M-201.1,401.7c-0.3,0-0.4-0.1-0.4-0.4s0.1-0.4,0.4-0.4
		s0.4,0.1,0.4,0.4S-200.8,401.7-201.1,401.7z M-201.1,400c-0.3,0-0.4-0.1-0.4-0.4c0-0.3,0.1-0.4,0.4-0.4s0.4,0.1,0.4,0.4
		C-200.6,399.9-200.8,400-201.1,400z M-201.1,398.4c-0.3,0-0.4-0.1-0.4-0.4s0.1-0.4,0.4-0.4s0.4,0.1,0.4,0.4
		S-200.8,398.4-201.1,398.4z M-201.1,396.7c-0.3,0-0.4-0.1-0.4-0.4s0.1-0.4,0.4-0.4s0.4,0.1,0.4,0.4S-200.8,396.7-201.1,396.7z
		 M-201.1,394.9c-0.3,0-0.4-0.1-0.4-0.4s0.1-0.4,0.4-0.4s0.4,0.1,0.4,0.4S-200.8,394.9-201.1,394.9z M-201.1,393.2
		c-0.3,0-0.4-0.1-0.4-0.4s0.1-0.4,0.4-0.4s0.4,0.1,0.4,0.4S-200.8,393.2-201.1,393.2z M-201.1,391.5c-0.3,0-0.4-0.1-0.4-0.4
		s0.1-0.4,0.4-0.4s0.4,0.1,0.4,0.4S-200.8,391.5-201.1,391.5z M-199.8,416.1c-0.3,0-0.4-0.1-0.4-0.4s0.1-0.4,0.4-0.4
		s0.4,0.1,0.4,0.4S-199.7,416.1-199.8,416.1z M-199.8,414.5c-0.3,0-0.4-0.1-0.4-0.4s0.1-0.4,0.4-0.4s0.4,0.1,0.4,0.4
		S-199.7,414.5-199.8,414.5z M-199.8,412.8c-0.3,0-0.4-0.1-0.4-0.4s0.1-0.4,0.4-0.4s0.4,0.1,0.4,0.4S-199.7,412.8-199.8,412.8z
		 M-199.8,411.1c-0.3,0-0.4-0.1-0.4-0.4c0-0.3,0.1-0.4,0.4-0.4s0.4,0.1,0.4,0.4C-199.4,411-199.7,411.1-199.8,411.1z M-199.8,409.4
		c-0.3,0-0.4-0.1-0.4-0.4s0.1-0.4,0.4-0.4s0.4,0.1,0.4,0.4S-199.7,409.4-199.8,409.4z M-199.8,407.7c-0.3,0-0.4-0.1-0.4-0.4
		s0.1-0.4,0.4-0.4s0.4,0.1,0.4,0.4S-199.7,407.7-199.8,407.7z M-199.8,406c-0.3,0-0.4-0.1-0.4-0.4s0.1-0.4,0.4-0.4s0.4,0.1,0.4,0.4
		C-199.4,405.8-199.7,406-199.8,406z M-199.8,404.4c-0.3,0-0.4-0.1-0.4-0.4s0.1-0.4,0.4-0.4s0.4,0.1,0.4,0.4
		S-199.7,404.4-199.8,404.4z M-199.8,402.5c-0.3,0-0.4-0.1-0.4-0.4s0.1-0.4,0.4-0.4s0.4,0.1,0.4,0.4S-199.7,402.5-199.8,402.5z
		 M-199.8,400.9c-0.3,0-0.4-0.1-0.4-0.4s0.1-0.4,0.4-0.4s0.4,0.1,0.4,0.4S-199.7,400.9-199.8,400.9z M-199.8,399.2
		c-0.3,0-0.4-0.1-0.4-0.4s0.1-0.4,0.4-0.4s0.4,0.1,0.4,0.4S-199.7,399.2-199.8,399.2z M-199.8,397.5c-0.3,0-0.4-0.1-0.4-0.4
		s0.1-0.4,0.4-0.4s0.4,0.1,0.4,0.4S-199.7,397.5-199.8,397.5z M-199.8,395.8c-0.3,0-0.4-0.1-0.4-0.4s0.1-0.4,0.4-0.4
		s0.4,0.1,0.4,0.4S-199.7,395.8-199.8,395.8z M-199.8,394.1c-0.3,0-0.4-0.1-0.4-0.4s0.1-0.4,0.4-0.4s0.4,0.1,0.4,0.4
		S-199.7,394.1-199.8,394.1z M-199.8,392.5c-0.3,0-0.4-0.1-0.4-0.4s0.1-0.4,0.4-0.4s0.4,0.1,0.4,0.4S-199.7,392.5-199.8,392.5z
		 M-199.8,390.8c-0.3,0-0.4-0.1-0.4-0.4s0.1-0.4,0.4-0.4s0.4,0.1,0.4,0.4S-199.7,390.8-199.8,390.8z M-198.7,417
		c-0.3,0-0.4-0.1-0.4-0.4c0-0.3,0.1-0.4,0.4-0.4c0.3,0,0.4,0.1,0.4,0.4C-198.3,416.8-198.5,417-198.7,417z M-198.7,415.3
		c-0.3,0-0.4-0.1-0.4-0.4s0.1-0.4,0.4-0.4c0.3,0,0.4,0.1,0.4,0.4S-198.5,415.3-198.7,415.3z M-198.7,413.6c-0.3,0-0.4-0.1-0.4-0.4
		s0.1-0.4,0.4-0.4c0.3,0,0.4,0.1,0.4,0.4S-198.5,413.6-198.7,413.6z M-198.7,411.8c-0.3,0-0.4-0.1-0.4-0.4s0.1-0.4,0.4-0.4
		c0.3,0,0.4,0.1,0.4,0.4S-198.5,411.8-198.7,411.8z M-198.7,410.1c-0.3,0-0.4-0.1-0.4-0.4s0.1-0.4,0.4-0.4c0.3,0,0.4,0.1,0.4,0.4
		S-198.5,410.1-198.7,410.1z M-198.7,408.4c-0.3,0-0.4-0.1-0.4-0.4s0.1-0.4,0.4-0.4c0.3,0,0.4,0.1,0.4,0.4S-198.5,408.4-198.7,408.4
		z M-198.7,406.8c-0.3,0-0.4-0.1-0.4-0.4s0.1-0.4,0.4-0.4c0.3,0,0.4,0.1,0.4,0.4S-198.5,406.8-198.7,406.8z M-198.7,405.1
		c-0.3,0-0.4-0.1-0.4-0.4s0.1-0.4,0.4-0.4c0.3,0,0.4,0.1,0.4,0.4S-198.5,405.1-198.7,405.1z M-198.7,403.4c-0.3,0-0.4-0.1-0.4-0.4
		s0.1-0.4,0.4-0.4c0.3,0,0.4,0.1,0.4,0.4S-198.5,403.4-198.7,403.4z M-198.7,401.7c-0.3,0-0.4-0.1-0.4-0.4s0.1-0.4,0.4-0.4
		c0.3,0,0.4,0.1,0.4,0.4S-198.5,401.7-198.7,401.7z M-198.7,400c-0.3,0-0.4-0.1-0.4-0.4c0-0.3,0.1-0.4,0.4-0.4
		c0.3,0,0.4,0.1,0.4,0.4C-198.3,399.9-198.5,400-198.7,400z M-198.7,398.4c-0.3,0-0.4-0.1-0.4-0.4s0.1-0.4,0.4-0.4
		c0.3,0,0.4,0.1,0.4,0.4S-198.5,398.4-198.7,398.4z M-198.7,396.7c-0.3,0-0.4-0.1-0.4-0.4s0.1-0.4,0.4-0.4c0.3,0,0.4,0.1,0.4,0.4
		S-198.5,396.7-198.7,396.7z M-198.7,394.9c-0.3,0-0.4-0.1-0.4-0.4s0.1-0.4,0.4-0.4c0.3,0,0.4,0.1,0.4,0.4S-198.5,394.9-198.7,394.9
		z M-198.7,393.2c-0.3,0-0.4-0.1-0.4-0.4s0.1-0.4,0.4-0.4c0.3,0,0.4,0.1,0.4,0.4S-198.5,393.2-198.7,393.2z M-198.7,391.5
		c-0.3,0-0.4-0.1-0.4-0.4s0.1-0.4,0.4-0.4c0.3,0,0.4,0.1,0.4,0.4S-198.5,391.5-198.7,391.5z M-197.6,416.1c-0.3,0-0.4-0.1-0.4-0.4
		s0.1-0.4,0.4-0.4s0.4,0.1,0.4,0.4S-197.3,416.1-197.6,416.1z M-197.6,414.5c-0.3,0-0.4-0.1-0.4-0.4s0.1-0.4,0.4-0.4
		s0.4,0.1,0.4,0.4S-197.3,414.5-197.6,414.5z M-197.6,412.8c-0.3,0-0.4-0.1-0.4-0.4s0.1-0.4,0.4-0.4s0.4,0.1,0.4,0.4
		S-197.3,412.8-197.6,412.8z M-197.6,411.1c-0.3,0-0.4-0.1-0.4-0.4c0-0.3,0.1-0.4,0.4-0.4s0.4,0.1,0.4,0.4
		C-197.1,411-197.3,411.1-197.6,411.1z M-197.6,409.4c-0.3,0-0.4-0.1-0.4-0.4s0.1-0.4,0.4-0.4s0.4,0.1,0.4,0.4
		S-197.3,409.4-197.6,409.4z M-197.6,407.7c-0.3,0-0.4-0.1-0.4-0.4s0.1-0.4,0.4-0.4s0.4,0.1,0.4,0.4S-197.3,407.7-197.6,407.7z
		 M-197.6,406c-0.3,0-0.4-0.1-0.4-0.4s0.1-0.4,0.4-0.4s0.4,0.1,0.4,0.4C-197.1,405.8-197.3,406-197.6,406z M-197.6,404.4
		c-0.3,0-0.4-0.1-0.4-0.4s0.1-0.4,0.4-0.4s0.4,0.1,0.4,0.4S-197.3,404.4-197.6,404.4z M-197.6,402.5c-0.3,0-0.4-0.1-0.4-0.4
		s0.1-0.4,0.4-0.4s0.4,0.1,0.4,0.4S-197.3,402.5-197.6,402.5z M-197.6,400.9c-0.3,0-0.4-0.1-0.4-0.4s0.1-0.4,0.4-0.4
		s0.4,0.1,0.4,0.4S-197.3,400.9-197.6,400.9z M-197.6,399.2c-0.3,0-0.4-0.1-0.4-0.4s0.1-0.4,0.4-0.4s0.4,0.1,0.4,0.4
		S-197.3,399.2-197.6,399.2z M-197.6,397.5c-0.3,0-0.4-0.1-0.4-0.4s0.1-0.4,0.4-0.4s0.4,0.1,0.4,0.4S-197.3,397.5-197.6,397.5z
		 M-197.6,395.8c-0.3,0-0.4-0.1-0.4-0.4s0.1-0.4,0.4-0.4s0.4,0.1,0.4,0.4S-197.3,395.8-197.6,395.8z M-197.6,394.1
		c-0.3,0-0.4-0.1-0.4-0.4s0.1-0.4,0.4-0.4s0.4,0.1,0.4,0.4S-197.3,394.1-197.6,394.1z M-197.6,392.5c-0.3,0-0.4-0.1-0.4-0.4
		s0.1-0.4,0.4-0.4s0.4,0.1,0.4,0.4S-197.3,392.5-197.6,392.5z M-197.6,390.8c-0.3,0-0.4-0.1-0.4-0.4s0.1-0.4,0.4-0.4
		s0.4,0.1,0.4,0.4S-197.3,390.8-197.6,390.8z M-196.4,417c-0.3,0-0.4-0.1-0.4-0.4c0-0.3,0.1-0.4,0.4-0.4s0.4,0.1,0.4,0.4
		C-196,416.8-196.2,417-196.4,417z M-196.4,415.3c-0.3,0-0.4-0.1-0.4-0.4s0.1-0.4,0.4-0.4s0.4,0.1,0.4,0.4S-196.2,415.3-196.4,415.3
		z M-196.4,413.6c-0.3,0-0.4-0.1-0.4-0.4s0.1-0.4,0.4-0.4s0.4,0.1,0.4,0.4S-196.2,413.6-196.4,413.6z M-196.4,411.8
		c-0.3,0-0.4-0.1-0.4-0.4s0.1-0.4,0.4-0.4s0.4,0.1,0.4,0.4S-196.2,411.8-196.4,411.8z M-196.4,410.1c-0.3,0-0.4-0.1-0.4-0.4
		s0.1-0.4,0.4-0.4s0.4,0.1,0.4,0.4S-196.2,410.1-196.4,410.1z M-196.4,408.4c-0.3,0-0.4-0.1-0.4-0.4s0.1-0.4,0.4-0.4
		s0.4,0.1,0.4,0.4S-196.2,408.4-196.4,408.4z M-196.4,406.8c-0.3,0-0.4-0.1-0.4-0.4s0.1-0.4,0.4-0.4s0.4,0.1,0.4,0.4
		S-196.2,406.8-196.4,406.8z M-196.4,405.1c-0.3,0-0.4-0.1-0.4-0.4s0.1-0.4,0.4-0.4s0.4,0.1,0.4,0.4S-196.2,405.1-196.4,405.1z
		 M-196.4,403.4c-0.3,0-0.4-0.1-0.4-0.4s0.1-0.4,0.4-0.4s0.4,0.1,0.4,0.4S-196.2,403.4-196.4,403.4z M-196.4,401.7
		c-0.3,0-0.4-0.1-0.4-0.4s0.1-0.4,0.4-0.4s0.4,0.1,0.4,0.4S-196.2,401.7-196.4,401.7z M-196.4,400c-0.3,0-0.4-0.1-0.4-0.4
		c0-0.3,0.1-0.4,0.4-0.4s0.4,0.1,0.4,0.4C-196,399.9-196.2,400-196.4,400z M-196.4,398.4c-0.3,0-0.4-0.1-0.4-0.4s0.1-0.4,0.4-0.4
		s0.4,0.1,0.4,0.4S-196.2,398.4-196.4,398.4z M-196.4,396.7c-0.3,0-0.4-0.1-0.4-0.4s0.1-0.4,0.4-0.4s0.4,0.1,0.4,0.4
		S-196.2,396.7-196.4,396.7z M-196.4,394.9c-0.3,0-0.4-0.1-0.4-0.4s0.1-0.4,0.4-0.4s0.4,0.1,0.4,0.4S-196.2,394.9-196.4,394.9z
		 M-196.4,393.2c-0.3,0-0.4-0.1-0.4-0.4s0.1-0.4,0.4-0.4s0.4,0.1,0.4,0.4S-196.2,393.2-196.4,393.2z M-196.4,391.5
		c-0.3,0-0.4-0.1-0.4-0.4s0.1-0.4,0.4-0.4s0.4,0.1,0.4,0.4S-196.2,391.5-196.4,391.5z M-195.3,416.1c-0.3,0-0.4-0.1-0.4-0.4
		s0.1-0.4,0.4-0.4c0.3,0,0.4,0.1,0.4,0.4S-195,416.1-195.3,416.1z M-195.3,414.5c-0.3,0-0.4-0.1-0.4-0.4s0.1-0.4,0.4-0.4
		c0.3,0,0.4,0.1,0.4,0.4S-195,414.5-195.3,414.5z M-195.3,412.8c-0.3,0-0.4-0.1-0.4-0.4s0.1-0.4,0.4-0.4c0.3,0,0.4,0.1,0.4,0.4
		S-195,412.8-195.3,412.8z M-195.3,411.1c-0.3,0-0.4-0.1-0.4-0.4c0-0.3,0.1-0.4,0.4-0.4c0.3,0,0.4,0.1,0.4,0.4
		C-194.9,411-195,411.1-195.3,411.1z M-195.3,409.4c-0.3,0-0.4-0.1-0.4-0.4s0.1-0.4,0.4-0.4c0.3,0,0.4,0.1,0.4,0.4
		S-195,409.4-195.3,409.4z M-195.3,407.7c-0.3,0-0.4-0.1-0.4-0.4s0.1-0.4,0.4-0.4c0.3,0,0.4,0.1,0.4,0.4S-195,407.7-195.3,407.7z
		 M-195.3,406c-0.3,0-0.4-0.1-0.4-0.4s0.1-0.4,0.4-0.4c0.3,0,0.4,0.1,0.4,0.4C-194.9,405.8-195,406-195.3,406z M-195.3,404.4
		c-0.3,0-0.4-0.1-0.4-0.4s0.1-0.4,0.4-0.4c0.3,0,0.4,0.1,0.4,0.4S-195,404.4-195.3,404.4z M-195.3,402.5c-0.3,0-0.4-0.1-0.4-0.4
		s0.1-0.4,0.4-0.4c0.3,0,0.4,0.1,0.4,0.4S-195,402.5-195.3,402.5z M-195.3,400.9c-0.3,0-0.4-0.1-0.4-0.4s0.1-0.4,0.4-0.4
		c0.3,0,0.4,0.1,0.4,0.4S-195,400.9-195.3,400.9z M-195.3,399.2c-0.3,0-0.4-0.1-0.4-0.4s0.1-0.4,0.4-0.4c0.3,0,0.4,0.1,0.4,0.4
		S-195,399.2-195.3,399.2z M-195.3,397.5c-0.3,0-0.4-0.1-0.4-0.4s0.1-0.4,0.4-0.4c0.3,0,0.4,0.1,0.4,0.4S-195,397.5-195.3,397.5z
		 M-195.3,395.8c-0.3,0-0.4-0.1-0.4-0.4s0.1-0.4,0.4-0.4c0.3,0,0.4,0.1,0.4,0.4S-195,395.8-195.3,395.8z M-195.3,394.1
		c-0.3,0-0.4-0.1-0.4-0.4s0.1-0.4,0.4-0.4c0.3,0,0.4,0.1,0.4,0.4S-195,394.1-195.3,394.1z M-195.3,392.5c-0.3,0-0.4-0.1-0.4-0.4
		s0.1-0.4,0.4-0.4c0.3,0,0.4,0.1,0.4,0.4S-195,392.5-195.3,392.5z M-195.3,390.8c-0.3,0-0.4-0.1-0.4-0.4s0.1-0.4,0.4-0.4
		c0.3,0,0.4,0.1,0.4,0.4S-195,390.8-195.3,390.8z M-194.2,417c-0.3,0-0.4-0.1-0.4-0.4c0-0.3,0.1-0.4,0.4-0.4s0.4,0.1,0.4,0.4
		C-193.8,416.8-193.9,417-194.2,417z M-194.2,415.3c-0.3,0-0.4-0.1-0.4-0.4s0.1-0.4,0.4-0.4s0.4,0.1,0.4,0.4
		S-193.9,415.3-194.2,415.3z M-194.2,413.6c-0.3,0-0.4-0.1-0.4-0.4s0.1-0.4,0.4-0.4s0.4,0.1,0.4,0.4S-193.9,413.6-194.2,413.6z
		 M-194.2,411.8c-0.3,0-0.4-0.1-0.4-0.4s0.1-0.4,0.4-0.4s0.4,0.1,0.4,0.4S-193.9,411.8-194.2,411.8z M-194.2,410.1
		c-0.3,0-0.4-0.1-0.4-0.4s0.1-0.4,0.4-0.4s0.4,0.1,0.4,0.4S-193.9,410.1-194.2,410.1z M-194.2,408.4c-0.3,0-0.4-0.1-0.4-0.4
		s0.1-0.4,0.4-0.4s0.4,0.1,0.4,0.4S-193.9,408.4-194.2,408.4z M-194.2,406.8c-0.3,0-0.4-0.1-0.4-0.4s0.1-0.4,0.4-0.4
		s0.4,0.1,0.4,0.4S-193.9,406.8-194.2,406.8z M-194.2,405.1c-0.3,0-0.4-0.1-0.4-0.4s0.1-0.4,0.4-0.4s0.4,0.1,0.4,0.4
		S-193.9,405.1-194.2,405.1z M-194.2,403.4c-0.3,0-0.4-0.1-0.4-0.4s0.1-0.4,0.4-0.4s0.4,0.1,0.4,0.4S-193.9,403.4-194.2,403.4z
		 M-194.2,401.7c-0.3,0-0.4-0.1-0.4-0.4s0.1-0.4,0.4-0.4s0.4,0.1,0.4,0.4S-193.9,401.7-194.2,401.7z M-194.2,400
		c-0.3,0-0.4-0.1-0.4-0.4c0-0.3,0.1-0.4,0.4-0.4s0.4,0.1,0.4,0.4C-193.8,399.9-193.9,400-194.2,400z M-194.2,398.4
		c-0.3,0-0.4-0.1-0.4-0.4s0.1-0.4,0.4-0.4s0.4,0.1,0.4,0.4S-193.9,398.4-194.2,398.4z M-194.2,396.7c-0.3,0-0.4-0.1-0.4-0.4
		s0.1-0.4,0.4-0.4s0.4,0.1,0.4,0.4S-193.9,396.7-194.2,396.7z M-194.2,394.9c-0.3,0-0.4-0.1-0.4-0.4s0.1-0.4,0.4-0.4
		s0.4,0.1,0.4,0.4S-193.9,394.9-194.2,394.9z M-194.2,393.2c-0.3,0-0.4-0.1-0.4-0.4s0.1-0.4,0.4-0.4s0.4,0.1,0.4,0.4
		S-193.9,393.2-194.2,393.2z M-194.2,391.5c-0.3,0-0.4-0.1-0.4-0.4s0.1-0.4,0.4-0.4s0.4,0.1,0.4,0.4S-193.9,391.5-194.2,391.5z
		 M-192.9,416.1c-0.3,0-0.4-0.1-0.4-0.4s0.1-0.4,0.4-0.4s0.4,0.1,0.4,0.4S-192.8,416.1-192.9,416.1z M-192.9,414.5
		c-0.3,0-0.4-0.1-0.4-0.4s0.1-0.4,0.4-0.4s0.4,0.1,0.4,0.4S-192.8,414.5-192.9,414.5z M-192.9,412.8c-0.3,0-0.4-0.1-0.4-0.4
		s0.1-0.4,0.4-0.4s0.4,0.1,0.4,0.4S-192.8,412.8-192.9,412.8z M-192.9,411.1c-0.3,0-0.4-0.1-0.4-0.4c0-0.3,0.1-0.4,0.4-0.4
		s0.4,0.1,0.4,0.4C-192.5,411-192.8,411.1-192.9,411.1z M-192.9,409.4c-0.3,0-0.4-0.1-0.4-0.4s0.1-0.4,0.4-0.4s0.4,0.1,0.4,0.4
		S-192.8,409.4-192.9,409.4z M-192.9,407.7c-0.3,0-0.4-0.1-0.4-0.4s0.1-0.4,0.4-0.4s0.4,0.1,0.4,0.4S-192.8,407.7-192.9,407.7z
		 M-192.9,406c-0.3,0-0.4-0.1-0.4-0.4s0.1-0.4,0.4-0.4s0.4,0.1,0.4,0.4C-192.5,405.8-192.8,406-192.9,406z M-192.9,404.4
		c-0.3,0-0.4-0.1-0.4-0.4s0.1-0.4,0.4-0.4s0.4,0.1,0.4,0.4S-192.8,404.4-192.9,404.4z M-192.9,402.5c-0.3,0-0.4-0.1-0.4-0.4
		s0.1-0.4,0.4-0.4s0.4,0.1,0.4,0.4S-192.8,402.5-192.9,402.5z M-192.9,400.9c-0.3,0-0.4-0.1-0.4-0.4s0.1-0.4,0.4-0.4
		s0.4,0.1,0.4,0.4S-192.8,400.9-192.9,400.9z M-192.9,399.2c-0.3,0-0.4-0.1-0.4-0.4s0.1-0.4,0.4-0.4s0.4,0.1,0.4,0.4
		S-192.8,399.2-192.9,399.2z M-192.9,397.5c-0.3,0-0.4-0.1-0.4-0.4s0.1-0.4,0.4-0.4s0.4,0.1,0.4,0.4S-192.8,397.5-192.9,397.5z
		 M-192.9,395.8c-0.3,0-0.4-0.1-0.4-0.4s0.1-0.4,0.4-0.4s0.4,0.1,0.4,0.4S-192.8,395.8-192.9,395.8z M-192.9,394.1
		c-0.3,0-0.4-0.1-0.4-0.4s0.1-0.4,0.4-0.4s0.4,0.1,0.4,0.4S-192.8,394.1-192.9,394.1z M-192.9,392.5c-0.3,0-0.4-0.1-0.4-0.4
		s0.1-0.4,0.4-0.4s0.4,0.1,0.4,0.4S-192.8,392.5-192.9,392.5z M-191.8,417c-0.3,0-0.4-0.1-0.4-0.4c0-0.3,0.1-0.4,0.4-0.4
		c0.3,0,0.4,0.1,0.4,0.4C-191.4,416.8-191.7,417-191.8,417z M-191.8,415.3c-0.3,0-0.4-0.1-0.4-0.4s0.1-0.4,0.4-0.4
		c0.3,0,0.4,0.1,0.4,0.4S-191.7,415.3-191.8,415.3z M-191.8,413.6c-0.3,0-0.4-0.1-0.4-0.4s0.1-0.4,0.4-0.4c0.3,0,0.4,0.1,0.4,0.4
		S-191.7,413.6-191.8,413.6z M-191.8,411.8c-0.3,0-0.4-0.1-0.4-0.4s0.1-0.4,0.4-0.4c0.3,0,0.4,0.1,0.4,0.4S-191.7,411.8-191.8,411.8
		z M-191.8,410.1c-0.3,0-0.4-0.1-0.4-0.4s0.1-0.4,0.4-0.4c0.3,0,0.4,0.3,0.4,0.4C-191.4,410-191.7,410.1-191.8,410.1z M-191.8,408.4
		c-0.3,0-0.4-0.1-0.4-0.4s0.1-0.4,0.4-0.4c0.3,0,0.4,0.1,0.4,0.4S-191.7,408.4-191.8,408.4z M-191.8,406.8c-0.3,0-0.4-0.1-0.4-0.4
		s0.1-0.4,0.4-0.4c0.3,0,0.4,0.1,0.4,0.4S-191.7,406.8-191.8,406.8z M-191.8,405.1c-0.3,0-0.4-0.1-0.4-0.4s0.1-0.4,0.4-0.4
		c0.3,0,0.4,0.1,0.4,0.4S-191.7,405.1-191.8,405.1z M-191.8,403.4c-0.3,0-0.4-0.1-0.4-0.4s0.1-0.4,0.4-0.4c0.3,0,0.4,0.1,0.4,0.4
		S-191.7,403.4-191.8,403.4z M-191.8,401.7c-0.3,0-0.4-0.1-0.4-0.4s0.1-0.4,0.4-0.4c0.3,0,0.4,0.1,0.4,0.4S-191.7,401.7-191.8,401.7
		z M-191.8,400c-0.3,0-0.4-0.1-0.4-0.4c0-0.3,0.1-0.4,0.4-0.4c0.3,0,0.4,0.1,0.4,0.4C-191.4,399.9-191.7,400-191.8,400z
		 M-191.8,398.4c-0.3,0-0.4-0.1-0.4-0.4s0.1-0.4,0.4-0.4c0.3,0,0.4,0.1,0.4,0.4S-191.7,398.4-191.8,398.4z M-191.8,396.7
		c-0.3,0-0.4-0.1-0.4-0.4s0.1-0.4,0.4-0.4c0.3,0,0.4,0.1,0.4,0.4S-191.7,396.7-191.8,396.7z M-191.8,394.9c-0.3,0-0.4-0.1-0.4-0.4
		s0.1-0.4,0.4-0.4c0.3,0,0.4,0.3,0.4,0.4C-191.4,394.6-191.7,394.9-191.8,394.9z M-191.8,393.2c-0.3,0-0.4-0.1-0.4-0.4
		s0.1-0.4,0.4-0.4c0.3,0,0.4,0.1,0.4,0.4S-191.7,393.2-191.8,393.2z M-191.8,391.5c-0.3,0-0.4-0.1-0.4-0.4s0.1-0.4,0.4-0.4
		c0.3,0,0.4,0.1,0.4,0.4S-191.7,391.5-191.8,391.5z M-190.7,416.1c-0.3,0-0.4-0.1-0.4-0.4s0.1-0.4,0.4-0.4s0.4,0.1,0.4,0.4
		S-190.4,416.1-190.7,416.1z M-190.7,414.5c-0.3,0-0.4-0.1-0.4-0.4s0.1-0.4,0.4-0.4s0.4,0.1,0.4,0.4S-190.4,414.5-190.7,414.5z
		 M-190.7,412.8c-0.3,0-0.4-0.1-0.4-0.4s0.1-0.4,0.4-0.4s0.4,0.1,0.4,0.4S-190.4,412.8-190.7,412.8z M-190.7,411.1
		c-0.3,0-0.4-0.1-0.4-0.4c0-0.3,0.1-0.4,0.4-0.4s0.4,0.1,0.4,0.4C-190.3,411-190.4,411.1-190.7,411.1z M-190.7,409.4
		c-0.3,0-0.4-0.1-0.4-0.4s0.1-0.4,0.4-0.4s0.4,0.1,0.4,0.4S-190.4,409.4-190.7,409.4z M-190.7,407.7c-0.3,0-0.4-0.1-0.4-0.4
		s0.1-0.4,0.4-0.4s0.4,0.1,0.4,0.4S-190.4,407.7-190.7,407.7z M-190.7,406c-0.3,0-0.4-0.1-0.4-0.4s0.1-0.4,0.4-0.4s0.4,0.1,0.4,0.4
		C-190.3,405.8-190.4,406-190.7,406z M-190.7,404.4c-0.3,0-0.4-0.1-0.4-0.4s0.1-0.4,0.4-0.4s0.4,0.1,0.4,0.4
		S-190.4,404.4-190.7,404.4z M-190.7,402.5c-0.3,0-0.4-0.1-0.4-0.4s0.1-0.4,0.4-0.4s0.4,0.1,0.4,0.4S-190.4,402.5-190.7,402.5z
		 M-190.7,400.9c-0.3,0-0.4-0.1-0.4-0.4s0.1-0.4,0.4-0.4s0.4,0.1,0.4,0.4S-190.4,400.9-190.7,400.9z M-190.7,399.2
		c-0.3,0-0.4-0.1-0.4-0.4s0.1-0.4,0.4-0.4s0.4,0.1,0.4,0.4S-190.4,399.2-190.7,399.2z M-190.7,397.5c-0.3,0-0.4-0.1-0.4-0.4
		s0.1-0.4,0.4-0.4s0.4,0.1,0.4,0.4S-190.4,397.5-190.7,397.5z M-190.7,395.8c-0.3,0-0.4-0.1-0.4-0.4s0.1-0.4,0.4-0.4
		s0.4,0.1,0.4,0.4S-190.4,395.8-190.7,395.8z M-190.7,394.1c-0.3,0-0.4-0.1-0.4-0.4s0.1-0.4,0.4-0.4s0.4,0.1,0.4,0.4
		S-190.4,394.1-190.7,394.1z M-190.7,392.5c-0.3,0-0.4-0.1-0.4-0.4s0.1-0.4,0.4-0.4s0.4,0.1,0.4,0.4S-190.4,392.5-190.7,392.5z
		 M-189.6,417c-0.3,0-0.4-0.1-0.4-0.4c0-0.3,0.1-0.4,0.4-0.4s0.4,0.1,0.4,0.4C-189.2,416.8-189.3,417-189.6,417z M-189.6,415.3
		c-0.3,0-0.4-0.1-0.4-0.4s0.1-0.4,0.4-0.4s0.4,0.1,0.4,0.4S-189.3,415.3-189.6,415.3z M-189.6,413.6c-0.3,0-0.4-0.1-0.4-0.4
		s0.1-0.4,0.4-0.4s0.4,0.1,0.4,0.4S-189.3,413.6-189.6,413.6z M-189.6,411.8c-0.3,0-0.4-0.1-0.4-0.4s0.1-0.4,0.4-0.4
		s0.4,0.1,0.4,0.4S-189.3,411.8-189.6,411.8z M-189.6,410.1c-0.3,0-0.4-0.1-0.4-0.4s0.1-0.4,0.4-0.4s0.4,0.1,0.4,0.4
		S-189.3,410.1-189.6,410.1z M-189.6,408.4c-0.3,0-0.4-0.1-0.4-0.4s0.1-0.4,0.4-0.4s0.4,0.1,0.4,0.4S-189.3,408.4-189.6,408.4z
		 M-189.6,406.8c-0.3,0-0.4-0.1-0.4-0.4s0.1-0.4,0.4-0.4s0.4,0.1,0.4,0.4S-189.3,406.8-189.6,406.8z M-189.6,405.1
		c-0.3,0-0.4-0.1-0.4-0.4s0.1-0.4,0.4-0.4s0.4,0.1,0.4,0.4S-189.3,405.1-189.6,405.1z M-189.6,403.4c-0.3,0-0.4-0.1-0.4-0.4
		s0.1-0.4,0.4-0.4s0.4,0.1,0.4,0.4S-189.3,403.4-189.6,403.4z M-189.6,401.7c-0.3,0-0.4-0.1-0.4-0.4s0.1-0.4,0.4-0.4
		s0.4,0.1,0.4,0.4S-189.3,401.7-189.6,401.7z M-189.6,400c-0.3,0-0.4-0.1-0.4-0.4c0-0.3,0.1-0.4,0.4-0.4s0.4,0.1,0.4,0.4
		C-189.2,399.9-189.3,400-189.6,400z M-189.6,398.4c-0.3,0-0.4-0.1-0.4-0.4s0.1-0.4,0.4-0.4s0.4,0.1,0.4,0.4
		S-189.3,398.4-189.6,398.4z M-189.6,396.7c-0.3,0-0.4-0.1-0.4-0.4s0.1-0.4,0.4-0.4s0.4,0.1,0.4,0.4S-189.3,396.7-189.6,396.7z
		 M-189.6,394.9c-0.3,0-0.4-0.1-0.4-0.4s0.1-0.4,0.4-0.4s0.4,0.1,0.4,0.4S-189.3,394.9-189.6,394.9z M-189.6,393.2
		c-0.3,0-0.4-0.1-0.4-0.4s0.1-0.4,0.4-0.4s0.4,0.1,0.4,0.4S-189.3,393.2-189.6,393.2z M-188.5,416.1c-0.3,0-0.4-0.1-0.4-0.4
		s0.3-0.4,0.4-0.4s0.4,0.1,0.4,0.4S-188.2,416.1-188.5,416.1z M-188.5,414.5c-0.3,0-0.4-0.1-0.4-0.4s0.1-0.4,0.4-0.4
		c0.3,0,0.4,0.1,0.4,0.4S-188.2,414.5-188.5,414.5z M-188.5,412.8c-0.3,0-0.4-0.1-0.4-0.4s0.1-0.4,0.4-0.4c0.3,0,0.4,0.1,0.4,0.4
		S-188.2,412.8-188.5,412.8z M-188.5,411.1c-0.3,0-0.4-0.1-0.4-0.4c0-0.3,0.1-0.4,0.4-0.4c0.3,0,0.4,0.1,0.4,0.4
		C-188,411-188.2,411.1-188.5,411.1z M-188.5,409.4c-0.3,0-0.4-0.1-0.4-0.4s0.1-0.4,0.4-0.4c0.3,0,0.4,0.1,0.4,0.4
		S-188.2,409.4-188.5,409.4z M-188.5,407.7c-0.3,0-0.4-0.1-0.4-0.4s0.3-0.4,0.4-0.4s0.4,0.1,0.4,0.4S-188.2,407.7-188.5,407.7z
		 M-188.5,406c-0.3,0-0.4-0.1-0.4-0.4s0.1-0.4,0.4-0.4c0.3,0,0.4,0.1,0.4,0.4C-188,405.8-188.2,406-188.5,406z M-188.5,404.4
		c-0.3,0-0.4-0.1-0.4-0.4s0.1-0.4,0.4-0.4c0.3,0,0.4,0.1,0.4,0.4S-188.2,404.4-188.5,404.4z M-188.5,402.5c-0.3,0-0.4-0.1-0.4-0.4
		s0.1-0.4,0.4-0.4c0.3,0,0.4,0.1,0.4,0.4S-188.2,402.5-188.5,402.5z M-188.5,400.9c-0.3,0-0.4-0.1-0.4-0.4s0.1-0.4,0.4-0.4
		c0.3,0,0.4,0.1,0.4,0.4S-188.2,400.9-188.5,400.9z M-188.5,399.2c-0.3,0-0.4-0.1-0.4-0.4s0.1-0.4,0.4-0.4c0.3,0,0.4,0.1,0.4,0.4
		S-188.2,399.2-188.5,399.2z M-188.5,397.5c-0.3,0-0.4-0.1-0.4-0.4s0.1-0.4,0.4-0.4c0.3,0,0.4,0.1,0.4,0.4S-188.2,397.5-188.5,397.5
		z M-188.5,395.8c-0.3,0-0.4-0.1-0.4-0.4s0.1-0.4,0.4-0.4c0.3,0,0.4,0.1,0.4,0.4S-188.2,395.8-188.5,395.8z M-187.2,415.3
		c-0.3,0-0.4-0.1-0.4-0.4s0.1-0.4,0.4-0.4s0.4,0.1,0.4,0.4S-187.1,415.3-187.2,415.3z M-187.2,413.6c-0.3,0-0.4-0.1-0.4-0.4
		s0.1-0.4,0.4-0.4s0.4,0.1,0.4,0.4S-187.1,413.6-187.2,413.6z M-187.2,411.8c-0.3,0-0.4-0.1-0.4-0.4s0.1-0.4,0.4-0.4
		s0.4,0.1,0.4,0.4S-187.1,411.8-187.2,411.8z M-187.2,410.1c-0.3,0-0.4-0.1-0.4-0.4s0.1-0.4,0.4-0.4s0.4,0.1,0.4,0.4
		S-187.1,410.1-187.2,410.1z M-187.2,408.4c-0.3,0-0.4-0.1-0.4-0.4s0.1-0.4,0.4-0.4s0.4,0.1,0.4,0.4S-187.1,408.4-187.2,408.4z
		 M-187.2,406.8c-0.3,0-0.4-0.1-0.4-0.4s0.1-0.4,0.4-0.4s0.4,0.1,0.4,0.4S-187.1,406.8-187.2,406.8z M-187.2,405.1
		c-0.3,0-0.4-0.1-0.4-0.4s0.1-0.4,0.4-0.4s0.4,0.1,0.4,0.4S-187.1,405.1-187.2,405.1z M-187.2,403.4c-0.3,0-0.4-0.1-0.4-0.4
		s0.1-0.4,0.4-0.4s0.4,0.1,0.4,0.4S-187.1,403.4-187.2,403.4z M-187.2,401.7c-0.3,0-0.4-0.1-0.4-0.4s0.1-0.4,0.4-0.4
		s0.4,0.1,0.4,0.4S-187.1,401.7-187.2,401.7z M-187.2,400c-0.3,0-0.4-0.1-0.4-0.4c0-0.3,0.1-0.4,0.4-0.4s0.4,0.1,0.4,0.4
		C-186.8,399.9-187.1,400-187.2,400z M-187.2,398.4c-0.3,0-0.4-0.1-0.4-0.4s0.1-0.4,0.4-0.4s0.4,0.1,0.4,0.4
		S-187.1,398.4-187.2,398.4z M-187.2,396.7c-0.3,0-0.4-0.1-0.4-0.4s0.1-0.4,0.4-0.4s0.4,0.1,0.4,0.4S-187.1,396.7-187.2,396.7z"/>
	<g>
		<polygon class="st0" points="-195.3,385.9 -194.8,386 -194.9,385 		"/>
		<path class="st0" d="M-191.4,385.2l-0.4-0.1l-0.1,0.7l0.4,0.1c0.1,0,0.1,0,0.3,0s0.1-0.1,0.1-0.1s0-0.1,0-0.3
			C-191.3,385.3-191.4,385.3-191.4,385.2z"/>
		<path class="st0" d="M-198.7,385c0-0.1,0-0.1,0-0.3v-0.1c0,0,0,0,0-0.1c0,0-0.1,0-0.1-0.1h-0.1c-0.1,0-0.1,0-0.1,0l-0.1,0.1
			c0,0,0,0,0,0.1v0.1c0,0,0,0.1,0,0.3c0,0.1,0,0.3,0,0.4c0,0.1,0,0.3,0,0.4c0,0.1,0,0.1,0,0.3v0.1c0,0,0,0,0,0.1c0,0,0.1,0,0.1,0.1
			h0.1c0.1,0,0.1,0,0.1,0l0.1-0.1c0,0,0,0,0-0.1v-0.1c0,0,0-0.1,0-0.3c0-0.1,0-0.3,0-0.4C-198.7,385.3-198.7,385.2-198.7,385z"/>
		<path class="st0" d="M-196.2,381.5h-1.7c-3.8,0-7.1,1.1-10.1,3.1l2.8,7.3c1.8-1.8,4.5-2.9,7.3-2.9h1.7c2.8,0,5.3,1.1,7.3,2.9
			l2.8-7.3C-188.9,382.7-192.4,381.5-196.2,381.5z M-201.2,387.6l-1.5-1.3l0.6,1.5l-0.7,0.3l-1.1-3.1l0.7-0.3l1.5,1.3l-0.6-1.5
			l0.7-0.3l1,3.1L-201.2,387.6z M-197.8,386.3c0,0.1-0.1,0.1-0.1,0.3c-0.1,0.1-0.3,0.3-0.4,0.3c-0.1,0.1-0.3,0.1-0.6,0.1
			c-0.1,0-0.4,0-0.6,0c-0.1,0-0.3-0.1-0.4-0.3c-0.1-0.1-0.1-0.1-0.3-0.3c0-0.1-0.1-0.1-0.1-0.3c0-0.1,0-0.3,0-0.3s0-0.3,0-0.4
			c0-0.1,0-0.3,0-0.4c0-0.1,0-0.3,0-0.3c0-0.1,0-0.3,0-0.3c0-0.1,0.1-0.1,0.1-0.3c0.1-0.1,0.3-0.3,0.4-0.3c0.1-0.1,0.3-0.1,0.6-0.1
			c0.1,0,0.4,0,0.6,0s0.3,0.1,0.4,0.3c0.1,0.1,0.1,0.1,0.3,0.3c0,0.1,0.1,0.1,0.1,0.3c0,0.1,0,0.3,0,0.3s0,0.3,0,0.4
			c0,0.1,0,0.3,0,0.4s0,0.3,0,0.3C-197.8,386.2-197.8,386.3-197.8,386.3z M-194.5,387.1l-0.1-0.6h-1l-0.1,0.4l-0.8-0.1l1.5-3.1h0.6
			l0.8,3.4H-194.5z M-190.4,385.9c0,0.1-0.1,0.1-0.1,0.3c0,0.1-0.1,0.1-0.1,0.1s-0.1,0.1-0.3,0.1s-0.1,0-0.3,0l0.3,1.5l-0.8-0.3
			l-0.1-1.4l-0.3-0.1l-0.4,1.1h-0.8l1-3.1l1.3,0.4c0.1,0,0.3,0.1,0.4,0.3c0.1,0.1,0.1,0.3,0.3,0.3s0.1,0.3,0.1,0.4
			C-190.4,385.6-190.4,385.8-190.4,385.9z"/>
	</g>
	<path class="st0" d="M-184.7,414c-0.6,0-1,0.4-1,1v3.4c0,0.4,0.3,0.8,0.7,1v0.6c0,6.2-5,11.2-11.2,11.2h-1.7
		c-6.2,0-11.2-5-11.2-11.2v-0.6c0.4-0.1,0.7-0.6,0.7-1V415c0-0.6-0.4-1-1-1c-0.6,0-1,0.4-1,1v3.4c0,0.3,0.1,0.6,0.4,0.8v2.7
		c0,6.7,5.5,12,12,12h1.7c6.7,0,12-5.5,12-12v-2.7c0.3-0.1,0.4-0.4,0.4-0.8V415C-183.7,414.5-184.1,414-184.7,414z"/>
	<path class="st0" d="M-200.2,443.9L-200.2,443.9c-0.4,0-0.7-0.3-0.7-0.7v-4.3c0-0.4,0.3-0.7,0.7-0.7l0,0c0.4,0,0.7,0.3,0.7,0.7v4.3
		C-199.5,443.6-199.8,443.9-200.2,443.9z"/>
	<path class="st0" d="M-195.2,443h-3.5c-0.3,0-0.4-0.1-0.4-0.4v-3.1c0-0.3,0.1-0.4,0.4-0.4h3.5c0.3,0,0.4,0.1,0.4,0.4v3.1
		C-194.8,442.9-194.9,443-195.2,443z"/>
	<path class="st0" d="M-194.9,448v3.6c0,0.7-0.6,1.1-1.1,1.1h-2c-0.7,0-1.1-0.6-1.1-1.1V448c-6.3,0.3-11.2,2-11.2,4.1v4.1
		c0,2.2,5.9,4.1,13.3,4.1s13.3-1.8,13.3-4.1v-4.1C-183.7,450-188.6,448.3-194.9,448z"/>
	<path class="st0" d="M-198.7,443.4L-198.7,443.4v8.3c0,0.4,0.4,0.8,0.8,0.8h2c0.4,0,0.8-0.4,0.8-0.8v-8.3H-198.7z"/>
	<path class="st0" d="M-196.2,434.3h-1.7c-0.3,0-0.6,0-0.8,0v4.3l0,0h3.5v-4.3C-195.6,434.3-195.9,434.3-196.2,434.3z"/>
</g>
</svg>
