<?xml version="1.0" encoding="utf-8"?>
<!-- Generator: Adobe Illustrator 19.1.1, SVG Export Plug-In . SVG Version: 6.00 Build 0)  -->
<svg version="1.1" id="Camada_1" xmlns="http://www.w3.org/2000/svg" xmlns:xlink="http://www.w3.org/1999/xlink" x="0px" y="0px"
	 viewBox="-247 380.9 100 80" style="enable-background:new -247 380.9 100 80;" xml:space="preserve">
<style type="text/css">
	.st0{fill:#FFFFFF;}
</style>
<g>
	<circle class="st0" cx="-197" cy="398.9" r="1.5"/>
	<path class="st0" d="M-172.9,407.7c0-0.7-0.4-1.4-1.1-1.7h-0.1c-0.1,0-0.1,0-0.3,0c-0.6,0-0.8-0.1-1.1-0.1c-0.1,0-0.1,0-0.1,0
		c-0.8,0-1.7,0.7-1.7,1.7v0.1l4.5,2.7V407.7z"/>
	<path class="st0" d="M-194.1,403.1c0-1-0.8-1.8-1.8-1.8h-2.1c-1,0-1.8,0.8-1.8,1.8v0.6h5.9v-0.6H-194.1z"/>
	<path class="st0" d="M-153,417.5c0-1.1-0.7-2.1-1.8-2.4c-0.1,0-0.1,0-0.3,0s-0.3,0-0.4,0c-0.8-0.1-1.4-0.1-1.7-0.1
		c-0.1,0-0.1,0-0.3,0c-1.4,0-2.4,1.1-2.4,2.4v0.7l6.7,3.9v-4.5H-153z"/>
	<polygon class="st0" points="-206.2,406 -206.2,406 -206.2,406 	"/>
	<path class="st0" d="M-216.5,407.5c0-0.8-0.7-1.7-1.7-1.7h-0.1c-0.3,0-0.6,0-1.1,0.1c-0.1,0-0.1,0-0.3,0h-0.1
		c-0.7,0.3-1.3,0.8-1.3,1.7v2.5L-216.5,407.5L-216.5,407.5z"/>
	<polygon class="st0" points="-187.8,406 -187.8,406 -187.8,406 	"/>
	<path class="st0" d="M-234.2,417.3c0-1.4-1.1-2.4-2.4-2.4c-0.1,0-0.1,0-0.3,0c-0.3,0-0.8,0-1.7,0.1c-0.1,0-0.3,0-0.4,0
		s-0.1,0-0.3,0c-1.1,0.3-1.8,1.3-1.8,2.4v4.3l6.7-3.9v-0.6H-234.2z"/>
	<path class="st0" d="M-224.9,412.1c0-1.1-0.8-2-2-2c-0.1,0-0.1,0-0.3,0c-0.3,0-0.7,0-1.4,0.1c-0.1,0-0.3,0-0.3,0
		c-0.1,0-0.1,0-0.1,0c-0.8,0.3-1.4,1.1-1.4,2v3.4l5.6-3.2v-0.3H-224.9z"/>
	<path class="st0" d="M-163.7,412.4c0-0.8-0.6-1.7-1.4-2c-0.1,0-0.1,0-0.1,0c-0.1,0-0.3,0-0.3,0c-0.6-0.1-1.1-0.1-1.4-0.1
		c-0.1,0-0.1,0-0.3,0c-1.1,0-2,0.8-2,2v0.3l5.6,3.2v-3.4H-163.7z"/>
	<circle class="st0" cx="-175" cy="403.8" r="1.4"/>
	<circle class="st0" cx="-166.2" cy="407.7" r="1.7"/>
	<circle class="st0" cx="-156.1" cy="411.9" r="2.1"/>
	<circle class="st0" cx="-219" cy="403.8" r="1.4"/>
	<circle class="st0" cx="-227.8" cy="407.7" r="1.7"/>
	<circle class="st0" cx="-237.9" cy="411.9" r="2.1"/>
	<polygon class="st0" points="-206.7,406.8 -213.2,406.8 -244.7,425.1 -228.4,425.1 	"/>
	<polygon class="st0" points="-165.8,444.4 -148,444.4 -148,426.5 -165.4,426.5 	"/>
	<rect x="-205.1" y="406.8" class="st0" width="16.4" height="10.5"/>
	<polygon class="st0" points="-187.3,408.6 -187.3,418.1 -167.2,443.6 -166.8,425.9 	"/>
	<polygon class="st0" points="-165.5,425.1 -149.3,425.1 -180.8,406.8 -187.2,406.8 	"/>
	<polygon class="st0" points="-246,426.5 -246,444.4 -228.1,444.4 -228.5,426.5 	"/>
	<polygon class="st0" points="-227.2,425.9 -226.7,443.4 -206.5,418 -206.5,408.6 	"/>
	<polygon class="st0" points="-190.3,404.6 -203.7,404.6 -205.1,405.4 -188.9,405.4 	"/>
</g>
</svg>
