<?xml version="1.0" encoding="utf-8"?>
<!-- Generator: Adobe Illustrator 19.1.1, SVG Export Plug-In . SVG Version: 6.00 Build 0)  -->
<svg version="1.1" id="Camada_1" xmlns="http://www.w3.org/2000/svg" xmlns:xlink="http://www.w3.org/1999/xlink" x="0px" y="0px"
	 viewBox="-247 380.9 100 80" style="enable-background:new -247 380.9 100 80;" xml:space="preserve">
<style type="text/css">
	.st0{fill:#FFFFFF;}
</style>
<g>
	<path class="st0" d="M-171.8,398.1v42v4.6v3.4h-46.3c-2.2,0-4.1-1.8-4.1-4.1c0-2.2,1.8-4.1,4.1-4.1h42.1v-50h-41.7
		c-4.5,0-8.1,3.6-8.1,8.1v45.5c0,4.5,3.6,8.1,8.1,8.1h49.7v-53.6H-171.8z M-185.3,419.2l0.1,1.1h-2.4l-0.1-1.1v-0.6h2.2
		L-185.3,419.2z M-185.4,418L-185.4,418l-2.2,0.1V418c-0.6-4.8-3.2-8.5-6.3-11.3h1.1C-189.3,409.3-186.2,413.2-185.4,418z
		 M-201.2,418L-201.2,418l-3.9,0.1V418c0.6-4.6,2.9-8.4,5.6-11.2h1.3c-1.5,2.9-2.8,6.4-3.1,10.6C-201.2,417.5-201.2,417.8-201.2,418
		z M-201.2,418.7v0.6v1.1h-4.1l0.1-1.8h3.9V418.7z M-196.2,406.8c1.3,3.6,2.1,6.9,2.1,10.2c0,0.4,0,0.7,0,1.1l0,0h-5.9V418
		c0-0.4,0-0.7,0-1c0.1-3.5,1-6.7,2.2-10.2H-196.2z M-197.4,406.1V405h1v1.1H-197.4z M-200,418.7h6v0.6v1.1h-6V418.7z M-195.6,406.8
		h1.3c2.7,2.8,4.9,6.6,5.5,11.2v0.1h-3.9V418c0-0.3,0-0.4,0-0.7C-193,413.2-194.1,409.7-195.6,406.8z M-188.8,418.7l0.1,1.8h-4.1
		v-1.8H-188.8z M-193.7,406.1h-1V405h1V406.1z M-194.4,403.5c0.4,0,0.7,0.3,0.7,0.6v0.4h-1.3v-0.4
		C-194.9,403.7-194.6,403.5-194.4,403.5z M-195.1,406.1h-1.1V405h1.1V406.1z M-198,403.7c0-0.6,0.6-1,1.1-1s1,0.4,1.1,1v1h-2.2
		V403.7z M-197.9,405v1.1h-1V405H-197.9z M-200.1,404.1c0-0.3,0.3-0.6,0.7-0.6c0.4,0,0.7,0.3,0.6,0.6v0.4h-1.3V404.1z M-200.2,405h1
		v1.1h-1V405z M-208.6,418c0.8-4.8,4.2-8.7,7.6-11.3c0.7,0,1.1,0,1.1,0c-3.1,2.8-5.9,6.6-6.4,11.3v0.1L-208.6,418L-208.6,418z
		 M-208.8,418.7h2.2l-0.1,1.8h-2.4L-208.8,418.7z M-210.7,421h27.3l0.1,1h-27.4V421z M-184.1,424.5h-0.7l-0.1-2h0.7L-184.1,424.5z
		 M-185.7,424.5h-1l-0.1-2h1L-185.7,424.5z M-187.5,424.5h-1.3l-0.1-2h1.1L-187.5,424.5z M-189.6,424.5h-1.1l-0.1-2h1.1
		L-189.6,424.5z M-191.7,424.5h-1.3v-2h1.3V424.5z M-193.9,424.5h-1.4v-2h1.4V424.5z M-196.3,422.5v2h-1.5v-2H-196.3z M-198.7,422.5
		v2h-1.4v-2H-198.7z M-200.9,422.5l-0.1,2h-1.3l0.1-2H-200.9z M-203.2,422.5l-0.1,2h-1.1l0.1-2H-203.2z M-205.3,422.5l-0.1,2.1h-1.3
		l0.1-2h1.3V422.5z M-207.4,422.5l-0.1,2h-1l0.1-2H-207.4z M-209.2,422.5l-0.1,2h-0.7l0.3-2H-209.2z M-211.2,425.4h28.1l0.1,1.4
		l0.1,0.8h-28.7L-211.2,425.4z"/>
</g>
</svg>
