<?xml version="1.0" encoding="utf-8"?>
<!-- Generator: Adobe Illustrator 19.1.1, SVG Export Plug-In . SVG Version: 6.00 Build 0)  -->
<svg version="1.1" id="Camada_1" xmlns="http://www.w3.org/2000/svg" xmlns:xlink="http://www.w3.org/1999/xlink" x="0px" y="0px"
	 viewBox="-247 380.9 100 80" style="enable-background:new -247 380.9 100 80;" xml:space="preserve">
<style type="text/css">
	.st0{fill:#FFFFFF;}
</style>
<g>
	<path class="st0" d="M-226.4,435.6l-0.9-5.4c0-0.2-0.2-0.5-0.5-0.5h-11.3c-0.2,0-0.4,0.1-0.5,0.2l-3.1,5.6
		c-0.1,0.1-0.2,0.2-0.5,0.2h-1.9c-0.4,0-0.6-0.4-0.5-0.7l14.3-26.3c0.1-0.1,0.2-0.2,0.5-0.2h1.8c0.2,0,0.5,0.1,0.5,0.4l5.1,26.3
		c0,0.4-0.2,0.6-0.5,0.6h-2.1C-226.2,435.9-226.4,435.8-226.4,435.6z M-231,414.1l-6.6,12.5c-0.2,0.4,0.1,0.7,0.5,0.7h8.8
		c0.4,0,0.6-0.2,0.5-0.6l-2.1-12.5C-230.2,413.7-230.8,413.6-231,414.1z"/>
	<path class="st0" d="M-217.1,435.9c-1.6,0-2.8-0.5-3.4-1.4c-0.6-0.9-0.8-2.1-0.5-3.6l3.9-22c0-0.2,0.2-0.4,0.5-0.4h1.9
		c0.2,0,0.5,0.2,0.5,0.5l-3.9,21.8c-0.1,0.9-0.1,1.6,0.1,2.1s0.9,0.7,1.9,0.7h0.9c0.2,0,0.5,0.2,0.5,0.5l-0.2,1.5
		c0,0.2-0.2,0.4-0.5,0.4H-217.1z"/>
	<path class="st0" d="M-198.4,430.7c-0.5,1.3-1.3,2.5-2.5,3.4c-0.8,0.7-1.6,1.2-2.6,1.5c-0.9,0.4-2,0.6-3.2,0.6
		c-1.2,0-2.1-0.2-2.9-0.6c-0.8-0.4-1.5-0.9-2.1-1.5c-0.4-0.5-0.7-1.1-0.9-1.6c-0.2-0.6-0.4-1.2-0.4-1.8c0-0.6,0-1.3,0-2
		s0.1-1.4,0.2-2.1s0.2-1.4,0.5-2.1s0.5-1.4,0.7-2c0.2-0.6,0.6-1.2,1.1-1.8c0.4-0.6,0.8-1.1,1.4-1.6c0.8-0.7,1.6-1.2,2.6-1.5
		c0.9-0.4,2-0.6,3.2-0.6c1.2,0,2.1,0.2,2.9,0.6c0.8,0.4,1.5,0.9,2.1,1.5c0.8,0.9,1.2,2.1,1.3,3.4s0,2.7-0.2,4.1
		C-197.5,427.9-197.9,429.4-198.4,430.7z M-199.7,424.9c0.1-0.6,0.1-1.1,0.1-1.5s-0.1-0.9-0.2-1.4s-0.4-0.8-0.6-1.2
		c-0.7-0.9-1.9-1.4-3.2-1.4c-1.4,0-2.6,0.5-3.6,1.4c-0.5,0.4-0.8,0.7-1.1,1.2s-0.5,0.9-0.7,1.4c-0.2,0.5-0.4,1.1-0.5,1.5
		c-0.1,0.6-0.2,1.1-0.4,1.6c-0.1,0.6-0.2,1.1-0.2,1.6c-0.1,0.6-0.1,1.1-0.1,1.5c0,0.5,0.1,1.1,0.2,1.4c0.1,0.5,0.4,0.8,0.6,1.2
		c0.7,0.9,1.8,1.4,3.2,1.4c1.4,0,2.6-0.5,3.8-1.4c0.4-0.4,0.7-0.7,1.1-1.2c0.2-0.5,0.5-0.9,0.7-1.4c0.2-0.5,0.4-1.1,0.5-1.5
		c0.1-0.6,0.2-1.1,0.4-1.6C-199.9,425.9-199.8,425.5-199.7,424.9z"/>
	<path class="st0" d="M-188.3,435.6l-0.4-2.4c0-0.1-0.1-0.2-0.2-0.2h-4.4c-0.1,0-0.2,0-0.2,0.1l-1.3,2.5c0,0.1-0.1,0.1-0.2,0.1h-1.5
		c-0.2,0-0.4-0.2-0.2-0.4l6.7-12.3c0-0.1,0.1-0.1,0.2-0.1h1.2c0.1,0,0.2,0.1,0.2,0.2l2.2,12.3c0,0.1-0.1,0.4-0.2,0.4h-1.5
		C-188.2,435.7-188.3,435.7-188.3,435.6z M-189.1,430.9l-0.7-4c0-0.2-0.4-0.4-0.5-0.1l-2,4c-0.1,0.2,0,0.4,0.2,0.4h2.7
		C-189.2,431.2-189.1,431-189.1,430.9z"/>
	<path class="st0" d="M-185.5,435.5l2.1-12.3c0-0.1,0.1-0.2,0.2-0.2h1.4c0.1,0,0.4,0.1,0.2,0.4l-1.9,10.3c0,0.1,0.1,0.4,0.2,0.4h5.5
		c0.1,0,0.4,0.1,0.2,0.4l-0.2,1.3c0,0.1-0.1,0.2-0.2,0.2h-7.4C-185.5,435.7-185.6,435.6-185.5,435.5z"/>
	<path class="st0" d="M-176.5,435.5l2.2-12.3c0-0.1,0.1-0.2,0.2-0.2h7.6c0.1,0,0.4,0.1,0.2,0.4l-0.2,1.3c0,0.1-0.1,0.2-0.2,0.2h-5.8
		c-0.1,0-0.2,0.1-0.2,0.2l-0.6,3.1c0,0.1,0.1,0.4,0.2,0.4h4.6c0.1,0,0.4,0.1,0.2,0.4l-0.2,1.3c0,0.1-0.1,0.2-0.2,0.2h-4.8
		c-0.1,0-0.2,0.1-0.2,0.2l-0.6,3.2c0,0.1,0.1,0.4,0.2,0.4h5.5c0.1,0,0.4,0.1,0.2,0.4l-0.2,1.3c0,0.1-0.1,0.2-0.2,0.2h-7.6
		C-176.4,435.7-176.5,435.6-176.5,435.5z"/>
	<path class="st0" d="M-160.5,435.6l-1.6-5.1c0-0.1-0.1-0.2-0.2-0.2h-1.9c-0.1,0-0.2,0.1-0.2,0.2l-0.8,4.9c0,0.1-0.1,0.2-0.2,0.2
		h-1.4c-0.1,0-0.4-0.1-0.2-0.4l2.2-12.3c0-0.1,0.1-0.2,0.2-0.2h4.7c0.6,0,1.1,0.1,1.5,0.2c0.5,0.1,0.8,0.5,1.2,0.7
		c0.4,0.4,0.5,0.7,0.6,1.2s0.1,0.9,0,1.5c-0.1,0.9-0.6,1.8-1.2,2.4c-0.5,0.5-1.1,0.8-1.6,1.1c-0.1,0-0.2,0.2-0.1,0.4l1.6,5.1
		c0.1,0.1-0.1,0.4-0.2,0.4h-1.6C-160.4,435.7-160.5,435.7-160.5,435.6z M-161.5,428.5c0.6,0,1.2-0.1,1.6-0.5
		c0.5-0.4,0.7-0.8,0.8-1.4c0.1-0.6,0-1.1-0.2-1.4c-0.4-0.4-0.8-0.5-1.4-0.5h-2.7c-0.1,0-0.2,0.1-0.2,0.2l-0.6,3.3
		c0,0.1,0.1,0.4,0.2,0.4h2.5V428.5z"/>
	<path class="st0" d="M-154.8,435.8c-0.6,0-1.2-0.1-1.6-0.2c-0.5-0.2-0.8-0.5-1.2-0.9l-0.2-0.2l1.5-1.3l0.2,0.2
		c0.1,0.2,0.4,0.4,0.6,0.5c0.1,0.1,0.4,0.2,0.9,0.2c0.7,0,1.3-0.2,1.8-0.6c0.5-0.5,0.7-1.1,0.9-1.9l1.5-8.3c0-0.1,0.1-0.2,0.2-0.2
		h1.3c0.1,0,0.4,0.1,0.2,0.4l-1.5,8.6c-0.1,0.6-0.4,1.2-0.6,1.6c-0.2,0.5-0.6,0.9-1.1,1.3c-0.5,0.4-0.9,0.6-1.4,0.8
		C-153.7,435.7-154.2,435.8-154.8,435.8z"/>
	<path class="st0" d="M-189.2,411.8c-1.6-2-3.6-3.5-6-4.6c-2-0.9-4.2-1.4-6.5-1.6c-0.2,0-0.6,0-0.8,0c-0.4,0-0.6,0.2-0.6,0.6v0.9
		c0,0.4,0.2,0.6,0.6,0.6s0.8,0,1.1,0c2,0.1,3.9,0.6,5.5,1.4c2.1,0.9,3.9,2.4,5.3,4.1c0.8,0.9,1.4,2,1.9,3.1c0.1,0.2,0.5,0.5,0.7,0.4
		l0.8-0.4c0.4-0.1,0.5-0.5,0.4-0.8C-187.6,414.2-188.4,412.9-189.2,411.8z"/>
	<path class="st0" d="M-192.2,414.2c-1.3-1.5-2.8-2.7-4.7-3.6c-1.4-0.7-2.9-1.1-4.7-1.2c-0.2,0-0.7,0-1.2,0c-0.4,0-0.6,0.2-0.6,0.6
		v0.9c0,0.4,0.2,0.6,0.6,0.6s0.7,0,0.9,0c1.4,0.1,2.8,0.5,4,1.1c1.5,0.7,2.9,1.8,4,3.1c0.5,0.6,0.9,1.3,1.3,2
		c0.1,0.2,0.5,0.4,0.7,0.2l0.8-0.4c0.4-0.1,0.5-0.5,0.4-0.8C-191,415.8-191.6,415-192.2,414.2z"/>
	<path class="st0" d="M-195.1,416.5c-0.9-1.1-2-2-3.4-2.6c-0.9-0.5-2-0.7-3.2-0.8c-0.2,0-0.7,0-1.1,0s-0.6,0.2-0.6,0.6v0.9
		c0,0.4,0.2,0.6,0.6,0.6s0.7,0,0.9,0c0.9,0.1,1.8,0.4,2.5,0.7c1.1,0.5,2,1.2,2.7,2c0.2,0.4,0.5,0.6,0.7,0.9c0.1,0.2,0.5,0.4,0.7,0.2
		l0.8-0.4c0.4-0.1,0.5-0.5,0.4-0.8C-194.4,417.5-194.8,417-195.1,416.5z"/>
</g>
</svg>
